<?xml version="1.0" encoding="UTF-8" standalone="no"?>
<!-- Created with Inkscape (http://www.inkscape.org/) -->

<svg
   xmlns:dc="http://purl.org/dc/elements/1.1/"
   xmlns:cc="http://creativecommons.org/ns#"
   xmlns:rdf="http://www.w3.org/1999/02/22-rdf-syntax-ns#"
   xmlns:svg="http://www.w3.org/2000/svg"
   xmlns="http://www.w3.org/2000/svg"
   xmlns:sodipodi="http://sodipodi.sourceforge.net/DTD/sodipodi-0.dtd"
   xmlns:inkscape="http://www.inkscape.org/namespaces/inkscape"
   width="512"
   height="512"
   id="svg3305"
   version="1.1"
   inkscape:version="0.48.2 r9819"
   sodipodi:docname="BS-autoinstallations.svg"
   inkscape:export-filename="/Users/Cynthia/Documents/SUSE manager/new icons/autoinstallation/autoinstallations.png"
   inkscape:export-xdpi="90"
   inkscape:export-ydpi="90">
  <defs
     id="defs3307" />
  <sodipodi:namedview
     id="base"
     pagecolor="#ffffff"
     bordercolor="#666666"
     borderopacity="1.0"
     inkscape:pageopacity="0.0"
     inkscape:pageshadow="2"
     inkscape:zoom="0.49497475"
     inkscape:cx="158.1665"
     inkscape:cy="254.12929"
     inkscape:document-units="px"
     inkscape:current-layer="layer1"
     showgrid="false"
     inkscape:window-width="964"
     inkscape:window-height="669"
     inkscape:window-x="76"
     inkscape:window-y="42"
     inkscape:window-maximized="0"
     showguides="true"
     inkscape:guide-bbox="true" />
  <metadata
     id="metadata3310">
    <rdf:RDF>
      <cc:Work
         rdf:about="">
        <dc:format>image/svg+xml</dc:format>
        <dc:type
           rdf:resource="http://purl.org/dc/dcmitype/StillImage" />
        <dc:title></dc:title>
      </cc:Work>
    </rdf:RDF>
  </metadata>
  <g
     inkscape:label="Layer 1"
     inkscape:groupmode="layer"
     id="layer1"
     transform="translate(0,-540.36218)">
    <path
       style="fill:#1a1a1a;fill-opacity:1;stroke:#ffffff;stroke-width:0;stroke-linecap:butt;stroke-linejoin:miter;stroke-miterlimit:3.79999995;stroke-opacity:1;stroke-dasharray:none"
       d="M 257.3125 1.96875 C 213.18257 1.5856801 168.98152 12.584733 129.46875 34.96875 C 129.44905 34.98005 129.42605 34.9888 129.40625 35 C 129.36005 35.0261 129.3275 35.06765 129.28125 35.09375 C 127.46861 36.12277 125.63609 37.17302 123.84375 38.25 C 122.21624 39.22795 120.61004 40.20127 119 41.21875 C 118.00986 41.84449 117.04582 42.48431 116.0625 43.125 C 115.63138 43.40457 115.17901 43.68684 114.75 43.96875 C 114.601 44.06715 114.46131 44.15125 114.3125 44.25 C 113.1422 45.0226 111.96702 45.8038 110.8125 46.59375 C 110.35816 46.90463 109.88939 47.21772 109.4375 47.53125 C 109.23762 47.6706 109.04337 47.82881 108.84375 47.96875 C 107.29739 49.04827 105.79851 50.13967 104.28125 51.25 C 93.57446 59.08527 83.579925 67.66075 74.375 76.90625 C 65.610878 85.70898 57.540381 95.11158 50.21875 105 C 50.067655 105.20413 49.931744 105.38924 49.78125 105.59375 C 48.905498 106.77835 48.040122 107.96009 47.1875 109.15625 C 46.961445 109.4748 46.724528 109.80546 46.5 110.125 C 45.468579 111.58627 44.465834 113.05343 43.46875 114.53125 C 43.308534 114.76967 43.159368 115.01105 43 115.25 C 41.907966 116.88044 40.831636 118.53781 39.78125 120.1875 C 28.663558 137.64858 19.919303 156.18049 13.46875 175.3125 C 12.162434 179.18697 10.927409 183.0789 9.8125 187 C 9.2532987 188.9667 8.6985544 190.89797 8.1875 192.875 C 7.6744729 194.8597 7.2145055 196.84957 6.75 198.84375 C 6.437183 200.18674 6.1345689 201.55932 5.84375 202.90625 C 5.4558808 204.68666 5.0687113 206.46024 4.71875 208.25 C 4.372395 210.02135 4.0277203 211.78261 3.71875 213.5625 C 3.641449 214.0127 3.5748826 214.45573 3.5 214.90625 C 3.1975846 216.70556 2.9514771 218.5365 2.6875 220.34375 C 2.3920142 222.36675 2.0907346 224.3741 1.84375 226.40625 C 1.5972526 228.4345 1.3853237 230.4635 1.1875 232.5 C -0.95833083 254.59094 -0.23988888 277.15866 3.59375 299.625 C 3.9375559 301.63982 4.3248399 303.6432 4.71875 305.65625 C 5.1086197 307.64865 5.498224 309.6351 5.9375 311.625 C 5.973209 311.78836 6.0264675 311.9617 6.0625 312.125 C 6.3810184 313.55443 6.7183236 314.97848 7.0625 316.40625 C 7.5447808 318.42645 8.0303166 320.42728 8.5625 322.4375 C 14.061415 343.20852 22.266813 363.4193 33.09375 382.53125 C 33.1311 382.59745 33.150134 382.65265 33.1875 382.71875 C 34.216514 384.5314 35.266769 386.33265 36.34375 388.125 C 37.321687 389.75251 38.295016 391.38996 39.3125 393 C 39.937434 393.99359 40.581494 394.95479 41.21875 395.9375 C 41.596871 396.51783 41.960422 397.10958 42.34375 397.6875 C 43.116352 398.8578 43.897543 400.03298 44.6875 401.1875 C 45.136514 401.84081 45.606714 402.50622 46.0625 403.15625 C 47.142017 404.70261 48.233421 406.20149 49.34375 407.71875 C 63.836061 427.5223 80.937163 444.81133 99.9375 459.34375 C 169.45443 512.5138 264.48857 528.48795 351.375 493.03125 C 396.19773 474.74005 433.02902 445.16382 459.875 408.90625 C 460.17024 408.50777 460.45728 408.11895 460.75 407.71875 C 461.67446 406.46082 462.57033 405.20842 463.46875 403.9375 C 463.50495 403.8857 463.52634 403.83301 463.5625 403.78125 C 464.59388 402.31994 465.62797 400.85287 466.625 399.375 C 466.73774 399.20852 466.85683 399.01081 466.96875 398.84375 C 467.01635 398.77215 467.04552 398.69588 467.09375 398.625 C 468.18579 396.99457 469.23088 395.36846 470.28125 393.71875 C 481.3989 376.25764 490.17449 357.7258 496.625 338.59375 C 497.93136 334.71932 499.16635 330.82737 500.28125 326.90625 C 500.84048 324.93959 501.36396 322.97704 501.875 321 C 502.38804 319.01531 502.87925 317.02542 503.34375 315.03125 C 503.60794 313.90652 503.87598 312.78497 504.125 311.65625 C 504.1732 311.43579 504.20242 311.22056 504.25 311 C 504.63787 309.21958 505.02504 307.446 505.375 305.65625 C 505.72135 303.8849 506.03478 302.09239 506.34375 300.3125 C 506.38465 300.07689 506.45972 299.86076 506.5 299.625 C 506.5361 299.411 506.55817 299.18283 506.59375 298.96875 C 506.89617 297.16944 507.14227 295.36975 507.40625 293.5625 C 507.70174 291.5395 507.97177 289.53215 508.21875 287.5 C 508.46525 285.47176 508.70843 283.41151 508.90625 281.375 C 511.05208 259.28407 510.33363 236.74759 506.5 214.28125 C 506.1562 212.26643 505.7689 210.26305 505.375 208.25 C 504.98513 206.2576 504.59552 204.2399 504.15625 202.25 C 504.15525 202.242 504.1267 202.2588 504.125 202.25 C 503.79201 200.72737 503.45489 199.17376 503.09375 197.65625 C 503.07955 197.59715 503.04555 197.55899 503.03125 197.5 C 502.54897 195.4798 502.03219 193.47897 501.5 191.46875 C 490.36459 149.40831 468.3254 109.60665 435.34375 76.625 C 386.12791 27.409157 321.81009 2.5286214 257.3125 1.96875 z M 157.4375 59.15625 L 210.6875 136.5 C 193.5901 142.40723 177.52443 152.19432 163.875 165.84375 C 150.4964 179.22235 140.81314 194.91034 134.875 211.625 L 57.40625 158.96875 C 67.607606 137.95808 81.46122 118.28877 98.90625 100.84375 C 116.46916 83.28084 136.26546 69.3788 157.4375 59.15625 z M 256.125 156.9375 C 281.35675 157.20666 306.4958 166.9958 325.75 186.25 C 347.16646 207.66645 356.82883 236.36694 354.75 264.375 C 354.742 264.47838 354.758 264.58412 354.75 264.6875 C 354.7148 265.13633 354.66628 265.58333 354.625 266.03125 C 354.5548 266.80411 354.49438 267.57238 354.40625 268.34375 C 354.40025 268.39545 354.381 268.44838 354.375 268.5 C 354.23988 269.66665 354.05112 270.83777 353.875 272 C 353.69107 273.21373 353.47864 274.4174 353.25 275.625 C 353.02137 276.8326 352.77335 278.04986 352.5 279.25 C 352.23182 280.42747 351.96747 281.58098 351.65625 282.75 C 351.65025 282.7725 351.631 282.7901 351.625 282.8125 C 351.4942 283.29912 351.35682 283.79683 351.21875 284.28125 C 351.14175 284.5534 351.0794 284.82214 351 285.09375 C 350.78106 285.83803 350.54851 286.60506 350.3125 287.34375 C 350.2588 287.51186 350.21084 287.67596 350.15625 287.84375 C 349.96648 288.42989 349.76335 289.01051 349.5625 289.59375 C 349.5121 289.73961 349.45734 289.88565 349.40625 290.03125 C 349.07423 290.98105 348.7365 291.90234 348.375 292.84375 C 348.3047 293.02673 348.22762 293.2236 348.15625 293.40625 C 347.97509 293.86877 347.78174 294.35274 347.59375 294.8125 C 347.50005 295.04202 347.40799 295.27102 347.3125 295.5 C 337.42047 319.19117 318.48953 339.06572 292.84375 349.53125 C 242.50808 370.07223 185.12135 346.60671 163.4375 297.09375 C 163.09331 296.30783 162.7948 295.54898 162.46875 294.75 C 162.0646 293.75963 161.65145 292.74547 161.28125 291.75 C 161.15303 291.40523 161.03041 291.06409 160.90625 290.71875 C 160.50594 289.60013 160.10921 288.47322 159.75 287.34375 C 159.7314 287.28555 159.73725 287.24565 159.71875 287.1875 C 159.34762 286.01317 158.98299 284.84093 158.65625 283.65625 C 158.65225 283.64255 158.66025 283.60735 158.65625 283.59375 C 158.32627 282.39536 158.00332 281.17636 157.71875 279.96875 C 157.4601 278.87113 157.22113 277.79165 157 276.6875 C 156.9779 276.57684 156.9593 276.45447 156.9375 276.34375 C 156.9325 276.32115 156.91065 276.30385 156.90625 276.28125 C 156.89615 276.22995 156.8849 276.17627 156.875 276.125 C 156.65113 274.98593 156.46423 273.85915 156.28125 272.71875 C 156.26375 272.60802 156.23595 272.48572 156.21875 272.375 C 156.04217 271.25022 155.91848 270.12508 155.78125 269 C 155.33622 265.31871 155.09884 261.64047 155.0625 257.9375 C 155.0383 255.46886 155.09253 252.9959 155.25 250.53125 C 155.3287 249.29892 155.43838 248.07304 155.5625 246.84375 C 155.68663 245.61446 155.83046 244.38114 156 243.15625 C 156.11645 242.3149 156.26837 241.49499 156.40625 240.65625 C 156.49955 240.0889 156.58442 239.50349 156.6875 238.9375 C 156.87896 237.89873 157.08857 236.87468 157.3125 235.84375 C 157.3313 235.75635 157.32475 235.68113 157.34375 235.59375 C 157.43285 235.1886 157.53087 234.77884 157.625 234.375 C 157.82803 233.49505 158.05414 232.62525 158.28125 231.75 C 158.55273 230.71204 158.82065 229.6842 159.125 228.65625 C 159.1578 228.54499 159.18556 228.4237 159.21875 228.3125 C 159.24965 228.20947 159.2813 228.10288 159.3125 228 C 161.78394 219.85341 165.30715 212.02355 169.75 204.75 C 170.99153 202.71745 172.30067 200.72513 173.6875 198.78125 C 173.7303 198.72135 173.76959 198.68479 173.8125 198.625 C 174.3767 197.84128 174.97285 197.05201 175.5625 196.28125 C 175.76066 196.02116 175.92423 195.7583 176.125 195.5 C 176.44605 195.08886 176.79664 194.68851 177.125 194.28125 C 177.72671 193.53492 178.34243 192.79528 178.96875 192.0625 C 179.65736 191.25694 180.37543 190.44478 181.09375 189.65625 C 181.54208 189.16281 181.97864 188.67252 182.4375 188.1875 C 182.94657 187.65043 183.44546 187.12214 183.96875 186.59375 C 184.0853 186.4759 184.22657 186.36731 184.34375 186.25 C 184.88779 185.70596 185.44674 185.15394 186 184.625 C 205.58286 165.90726 230.89325 156.66834 256.125 156.9375 z M 254.4375 181.25 C 239.20501 181.37637 224.00292 186.05274 211.0625 195.3125 C 210.80232 195.49786 210.53861 195.68667 210.28125 195.875 C 210.0952 196.01169 209.90377 196.1426 209.71875 196.28125 C 208.91623 196.88002 208.11796 197.49781 207.34375 198.125 C 207.31185 198.1512 207.31315 198.19245 207.28125 198.21875 C 207.23335 198.25815 207.17288 198.30436 207.125 198.34375 C 206.46763 198.88076 205.82395 199.41188 205.1875 199.96875 C 204.73344 200.36695 204.25919 200.7766 203.8125 201.1875 C 203.26382 201.69221 202.75592 202.22613 202.21875 202.75 C 201.93746 203.02422 201.62024 203.28417 201.34375 203.5625 C 200.10871 204.80461 198.95208 206.08799 197.8125 207.40625 C 196.34345 209.09967 194.95005 210.83815 193.65625 212.625 C 193.52692 212.8044 193.37778 212.97586 193.25 213.15625 C 193.2137 213.20735 193.19247 213.26138 193.15625 213.3125 C 192.59295 214.11247 192.03117 214.93007 191.5 215.75 C 190.93599 216.61788 190.39982 217.48972 189.875 218.375 C 189.8266 218.4568 189.76688 218.54307 189.71875 218.625 C 187.69636 222.06619 185.99482 225.62569 184.5625 229.28125 C 184.5079 229.42023 184.46002 229.57948 184.40625 229.71875 C 184.38605 229.77115 184.36385 229.79132 184.34375 229.84375 C 184.00914 230.71624 183.67738 231.61549 183.375 232.5 C 183.13239 233.21226 182.90828 233.9072 182.6875 234.625 C 182.6012 234.90394 182.5206 235.18877 182.4375 235.46875 C 182.4137 235.54935 182.3985 235.63808 182.375 235.71875 C 182.10667 236.63407 181.85889 237.54311 181.625 238.46875 C 181.6047 238.54975 181.5825 238.6065 181.5625 238.6875 C 181.33138 239.61503 181.10239 240.56322 180.90625 241.5 C 180.80835 241.97201 180.74512 242.4328 180.65625 242.90625 C 180.55085 243.46161 180.43678 244.03563 180.34375 244.59375 C 180.33875 244.62255 180.34875 244.6588 180.34375 244.6875 C 180.17829 245.68735 180.03162 246.67975 179.90625 247.6875 C 179.90425 247.7019 179.90825 247.7357 179.90625 247.75 C 179.84345 248.25716 179.80254 248.74108 179.75 249.25 C 179.6988 249.75386 179.60363 250.24539 179.5625 250.75 C 179.5605 250.7643 179.5635 250.7979 179.5625 250.8125 C 179.4815 251.81361 179.41633 252.80944 179.375 253.8125 C 179.373 253.8567 179.377 253.89339 179.375 253.9375 C 179.3351 254.94871 179.34335 255.98815 179.34375 257 C 179.34375 257.0371 179.3125 257.0568 179.3125 257.09375 C 179.3145 258.03792 179.3381 258.96267 179.375 259.90625 C 179.4028 260.61875 179.45181 261.34897 179.5 262.0625 C 179.5278 262.47491 179.55925 262.86924 179.59375 263.28125 C 179.59775 263.33305 179.58935 263.38581 179.59375 263.4375 C 179.66695 264.29123 179.77289 265.14868 179.875 266 C 179.99694 267.0082 180.11756 268.02342 180.28125 269.03125 C 180.40488 269.79248 180.57106 270.55205 180.71875 271.3125 C 180.82208 271.84971 180.91622 272.40219 181.03125 272.9375 C 181.03925 272.9742 181.0545 272.9946 181.0625 273.03125 C 181.27991 274.03572 181.5226 275.03458 181.78125 276.03125 C 181.80835 276.1347 181.81615 276.24033 181.84375 276.34375 C 182.10619 277.33756 182.384 278.32796 182.6875 279.3125 C 183.00946 280.35688 183.38183 281.40511 183.75 282.4375 C 184.0718 283.33988 184.39289 284.23291 184.75 285.125 C 184.809 285.27206 184.87755 285.41559 184.9375 285.5625 C 184.9677 285.6365 185.00085 285.7074 185.03125 285.78125 C 185.49444 286.90714 185.98021 288.01798 186.5 289.125 C 187.01341 290.21844 187.55637 291.30209 188.125 292.375 C 188.1602 292.4418 188.18337 292.49586 188.21875 292.5625 C 188.67534 293.41777 189.13325 294.28409 189.625 295.125 C 189.634 295.129 189.64735 295.15295 189.65625 295.15625 C 208.34913 327.23379 248.29429 341.493 283.65625 327.0625 C 299.10027 320.76011 311.33672 309.93784 319.46875 296.75 C 319.47675 296.746 319.46005 296.72325 319.46875 296.71875 C 319.77887 296.21538 320.07689 295.69765 320.375 295.1875 C 320.49548 294.98203 320.63164 294.80014 320.75 294.59375 C 320.86803 294.38733 320.97768 294.17622 321.09375 293.96875 C 321.47672 293.286 321.8586 292.59805 322.21875 291.90625 C 322.24905 291.84815 322.2824 291.77697 322.3125 291.71875 C 322.75337 290.86646 323.15617 290.02126 323.5625 289.15625 C 323.98065 288.26606 324.36842 287.34005 324.75 286.4375 C 324.7628 286.4073 324.7998 286.4051 324.8125 286.375 C 324.95239 286.04323 325.08358 285.70873 325.21875 285.375 C 325.31345 285.14083 325.40771 284.89118 325.5 284.65625 C 325.76352 283.98663 326.00552 283.33321 326.25 282.65625 C 326.277 282.58145 326.31695 282.51229 326.34375 282.4375 C 326.38285 282.32765 326.43007 282.20372 326.46875 282.09375 C 326.7735 281.22906 327.07032 280.3756 327.34375 279.5 C 327.34875 279.487 327.33975 279.4508 327.34375 279.4375 C 327.34775 279.4237 327.33975 279.41955 327.34375 279.40625 C 327.64782 278.42881 327.92293 277.4273 328.1875 276.4375 C 328.1905 276.4295 328.21615 276.41455 328.21875 276.40625 C 328.36576 275.85226 328.49075 275.30657 328.625 274.75 C 328.73558 274.29476 328.8353 273.83249 328.9375 273.375 C 329.16529 272.35527 329.37678 271.34243 329.5625 270.3125 C 329.74594 269.29523 329.88939 268.27596 330.03125 267.25 C 330.45713 264.17 330.70847 261.04163 330.75 257.90625 C 330.7637 256.87236 330.74785 255.84994 330.71875 254.8125 C 330.69135 253.83783 330.65943 252.85174 330.59375 251.875 C 330.58975 251.8159 330.59775 251.77786 330.59375 251.71875 C 330.58975 251.66675 330.5662 251.61447 330.5625 251.5625 C 330.4922 250.5819 330.39055 249.60654 330.28125 248.625 C 330.22495 248.11992 330.19168 247.59888 330.125 247.09375 C 330.1099 247.07965 330.10885 247.0767 330.09375 247.0625 C 328.00376 231.10408 320.85456 215.66707 308.59375 203.40625 C 293.65167 188.46417 274.02213 181.08753 254.4375 181.25 z M 255.03125 211.21875 C 266.73419 211.21331 278.44402 215.69402 287.375 224.625 C 295.18183 232.43183 299.55363 242.36836 300.53125 252.5625 C 300.57535 253.02259 300.62606 253.4765 300.65625 253.9375 C 300.66635 254.09009 300.6789 254.25372 300.6875 254.40625 C 300.7117 254.84388 300.7383 255.2807 300.75 255.71875 C 300.755 255.89494 300.747 256.07396 300.75 256.25 C 300.756 256.66807 300.755 257.08191 300.75 257.5 C 300.748 257.6854 300.7545 257.87732 300.75 258.0625 C 300.74 258.47313 300.7084 258.87095 300.6875 259.28125 C 300.6669 259.6802 300.62475 260.10247 300.59375 260.5 C 300.57885 260.69265 300.5798 260.87 300.5625 261.0625 C 300.5438 261.26809 300.55265 261.48236 300.53125 261.6875 C 300.51355 261.85809 300.4571 262.01708 300.4375 262.1875 C 300.3877 262.61704 300.34308 263.04146 300.28125 263.46875 C 300.19495 264.06532 300.10959 264.65841 300 265.25 C 299.9331 265.61314 299.85698 265.982 299.78125 266.34375 C 299.73305 266.57281 299.67663 266.80308 299.625 267.03125 C 299.35984 268.20311 299.04288 269.3549 298.6875 270.5 C 298.50981 271.07255 298.32482 271.62267 298.125 272.1875 C 298.00154 272.53721 297.88223 272.90279 297.75 273.25 C 297.6664 273.46983 297.58702 273.68779 297.5 273.90625 C 297.05668 275.01909 296.56021 276.08114 296.03125 277.15625 C 295.85953 277.50448 295.71237 277.87408 295.53125 278.21875 C 290.70621 287.43628 282.70216 295.04144 272.3125 299.28125 C 250.46041 308.19865 225.7074 298.99265 214.78125 278.65625 C 214.78925 278.64925 214.8048 278.632 214.8125 278.625 C 214.52067 278.0838 214.23722 277.5501 213.96875 277 C 213.86725 276.79201 213.75441 276.58419 213.65625 276.375 C 213.51943 276.08294 213.38127 275.7962 213.25 275.5 C 213.214 275.4188 213.19177 275.33136 213.15625 275.25 C 212.68166 274.16268 212.26106 273.05138 211.875 271.9375 C 211.727 271.51047 211.57249 271.08663 211.4375 270.65625 C 211.3982 270.53169 211.35058 270.40596 211.3125 270.28125 C 211.2947 270.22305 211.29875 270.15199 211.28125 270.09375 C 210.945 268.97263 210.65472 267.85782 210.40625 266.71875 C 210.27802 266.13092 210.16734 265.52902 210.0625 264.9375 C 209.64313 262.57142 209.38891 260.17661 209.34375 257.78125 C 209.33345 257.23353 209.3033 256.67271 209.3125 256.125 C 209.31349 256.0739 209.34255 256.01973 209.34375 255.96875 C 209.35515 255.40712 209.37435 254.87346 209.40625 254.3125 C 209.40825 254.2751 209.40395 254.22485 209.40625 254.1875 C 209.43955 253.62674 209.47737 253.05946 209.53125 252.5 C 209.53525 252.4628 209.5587 252.4434 209.5625 252.40625 C 209.6177 251.84691 209.6742 251.27614 209.75 250.71875 C 209.755 250.68105 209.77595 250.6314 209.78125 250.59375 C 209.85645 250.0507 209.9365 249.50932 210.03125 248.96875 C 210.04025 248.91795 210.0532 248.86327 210.0625 248.8125 C 210.1591 248.2724 210.25891 247.75575 210.375 247.21875 C 210.3862 247.16745 210.39485 247.1137 210.40625 247.0625 C 210.50915 246.59423 210.63222 246.12172 210.75 245.65625 C 210.7687 245.58325 210.76215 245.51048 210.78125 245.4375 C 210.92831 244.86818 211.11189 244.3144 211.28125 243.75 C 211.29875 243.6922 211.2948 243.6515 211.3125 243.59375 C 211.46812 243.08262 211.63854 242.56899 211.8125 242.0625 C 211.8353 241.9967 211.852 241.90937 211.875 241.84375 C 212.047 241.35035 212.24806 240.86344 212.4375 240.375 C 212.65306 239.82133 212.85691 239.29489 213.09375 238.75 C 213.13415 238.657 213.17777 238.56151 213.21875 238.46875 C 213.41965 238.01368 213.62725 237.5434 213.84375 237.09375 C 213.89245 236.99259 213.95052 236.88203 214 236.78125 C 214.21163 236.34995 214.43019 235.92583 214.65625 235.5 C 214.93477 234.97469 215.2323 234.48325 215.53125 233.96875 C 215.60665 233.83906 215.67333 233.69149 215.75 233.5625 C 215.97898 233.17841 216.22751 232.78493 216.46875 232.40625 C 216.78785 231.90321 217.12979 231.4284 217.46875 230.9375 C 217.80771 230.4466 218.14147 229.97811 218.5 229.5 C 218.85858 229.02192 219.21591 228.55839 219.59375 228.09375 C 219.97157 227.6291 220.3844 227.13799 220.78125 226.6875 C 221.07362 226.35567 221.35373 226.04262 221.65625 225.71875 C 222.00288 225.34864 222.35751 224.98624 222.71875 224.625 C 223.27665 224.06711 223.82736 223.52302 224.40625 223 C 224.90781 222.5468 225.45233 222.11447 225.96875 221.6875 C 234.38718 214.72648 244.70512 211.22355 255.03125 211.21875 z M 375.46875 301.5 L 452.8125 354.59375 C 442.5928 375.74234 428.70188 395.57937 411.15625 413.125 C 393.76021 430.52104 374.13179 444.30701 353.1875 454.5 L 300.84375 376.9375 C 317.38982 370.98647 332.92914 361.38337 346.1875 348.125 C 359.79402 334.51849 369.55582 318.53711 375.46875 301.5 z "
       id="path3320"
       transform="translate(0,540.36218)"
       inkscape:export-xdpi="90"
       inkscape:export-ydpi="90" />
  </g>
</svg>
