<?xml version="1.0" encoding="UTF-8" standalone="no"?>
<!-- Created with Inkscape (http://www.inkscape.org/) -->

<svg
   xmlns:dc="http://purl.org/dc/elements/1.1/"
   xmlns:cc="http://creativecommons.org/ns#"
   xmlns:rdf="http://www.w3.org/1999/02/22-rdf-syntax-ns#"
   xmlns:svg="http://www.w3.org/2000/svg"
   xmlns="http://www.w3.org/2000/svg"
   xmlns:sodipodi="http://sodipodi.sourceforge.net/DTD/sodipodi-0.dtd"
   xmlns:inkscape="http://www.inkscape.org/namespaces/inkscape"
   width="512"
   height="512"
   id="svg2995"
   version="1.1"
   inkscape:version="0.48.2 r9819"
   sodipodi:docname="bare-metal.svg">
  <defs
     id="defs2997" />
  <sodipodi:namedview
     id="base"
     pagecolor="#ffffff"
     bordercolor="#666666"
     borderopacity="1.0"
     inkscape:pageopacity="0.0"
     inkscape:pageshadow="2"
     inkscape:zoom="0.49497474"
     inkscape:cx="327.57536"
     inkscape:cy="378.63551"
     inkscape:document-units="px"
     inkscape:current-layer="layer1"
     showgrid="false"
     inkscape:window-width="978"
     inkscape:window-height="699"
     inkscape:window-x="195"
     inkscape:window-y="229"
     inkscape:window-maximized="0" />
  <metadata
     id="metadata3000">
    <rdf:RDF>
      <cc:Work
         rdf:about="">
        <dc:format>image/svg+xml</dc:format>
        <dc:type
           rdf:resource="http://purl.org/dc/dcmitype/StillImage" />
        <dc:title />
      </cc:Work>
    </rdf:RDF>
  </metadata>
  <g
     inkscape:label="Layer 1"
     inkscape:groupmode="layer"
     id="layer1"
     transform="translate(0,-540.36218)">
    <path
       inkscape:connector-curvature="0"
       style="fill:#0b2d36;fill-opacity:1;stroke:none"
       d="m 112.84117,541.11665 c -5.45042,0 -9.87242,4.37793 -9.87242,9.82835 l 0,63.55378 c 0,5.45044 4.422,9.82837 9.87242,9.82837 l 285.02242,0 c 5.45042,0 9.82836,-4.37793 9.82836,-9.82837 l 0,-63.55378 c 0,-5.45042 -4.37794,-9.82835 -9.82836,-9.82835 l -285.02242,0 z m 24.9896,26.9729 c 8.07272,0 14.63236,6.55964 14.63236,14.63236 0,8.07271 -6.55964,14.63235 -14.63236,14.63235 -8.07271,0 -14.63235,-6.55964 -14.63235,-14.63235 0,-8.07272 6.55964,-14.63236 14.63235,-14.63236 z m -24.9896,63.77415 c -5.45042,0 -9.87242,4.37793 -9.87242,9.82835 l 0,63.55378 c 0,5.45044 4.422,9.82836 9.87242,9.82836 l 285.02242,0 c 5.45042,0 9.82836,-4.37792 9.82836,-9.82836 l 0,-63.55378 c 0,-5.45042 -4.37794,-9.82835 -9.82836,-9.82835 l -285.02242,0 z m 24.9896,26.97289 c 8.07272,0 14.63236,6.55964 14.63236,14.63236 0,8.07271 -6.55964,14.63234 -14.63236,14.63234 -8.07271,0 -14.63235,-6.55963 -14.63235,-14.63234 0,-8.07272 6.55964,-14.63236 14.63235,-14.63236 z m -24.9896,64.08267 c -5.45042,0 -9.87242,4.422 -9.87242,9.87242 l 0,63.50971 c 0,5.45043 4.422,9.82837 9.87242,9.82837 l 285.02242,0 c 5.45042,0 9.82836,-4.37794 9.82836,-9.82837 l 0,-63.50971 c 0,-5.45042 -4.37794,-9.87242 -9.82836,-9.87242 l -285.02242,0 z m 24.9896,27.01695 c 8.07272,0 14.63236,6.51557 14.63236,14.58829 0,8.07272 -6.55964,14.63236 -14.63236,14.63236 -8.07271,0 -14.63235,-6.55964 -14.63235,-14.63236 0,-8.07272 6.55964,-14.58829 14.63235,-14.58829 z m -24.9896,63.28935 c -5.45042,0 -9.87242,4.37799 -9.87242,9.82837 l 0,218.86827 c 0,5.4504 4.422,9.8284 9.87242,9.8284 l 285.02242,0 c 5.45044,0 9.82836,-4.378 9.82836,-9.8284 l 0,-218.86827 c 0,-5.45038 -4.37792,-9.82837 -9.82836,-9.82837 l -285.02242,0 z"
       id="rect4915" />
    <path
       style="fill:#ffffff;fill-opacity:1;fill-rule:nonzero;stroke:none"
       d="m 126.50392,1010.0754 c -2.164,0 -3.92252,1.7583 -3.92252,3.9224 l 0,13.2219 c 0,2.1641 1.75852,3.9226 3.92252,3.9226 l 44.11743,0 c 2.16401,0 3.92254,-1.7585 3.92254,-3.9226 l 0,-13.2219 c 0,-2.1641 -1.75853,-3.9224 -3.92254,-3.9224 l -44.11743,0 z m 71.17847,0 c -2.164,0 -3.92252,1.7583 -3.92252,3.9224 l 0,13.2219 c 0,2.1641 1.75852,3.9226 3.92252,3.9226 l 44.11744,0 c 2.164,0 3.92253,-1.7585 3.92253,-3.9226 l 0,-13.2219 c 0,-2.1641 -1.75853,-3.9224 -3.92253,-3.9224 l -44.11744,0 z m 71.17847,0 c -2.164,0 -3.92251,1.7583 -3.92251,3.9224 l 0,13.2219 c 0,2.1641 1.75851,3.9226 3.92251,3.9226 l 44.11744,0 c 2.16401,0 3.92253,-1.7585 3.92253,-3.9226 l 0,-13.2219 c 0,-2.1641 -1.75852,-3.9224 -3.92253,-3.9224 l -44.11744,0 z m 71.17849,0 c -2.16402,0 -3.92253,1.7583 -3.92253,3.9224 l 0,13.2219 c 0,2.1641 1.75851,3.9226 3.92253,3.9226 l 44.11743,0 c 2.16401,0 3.92253,-1.7585 3.92253,-3.9226 l 0,-13.2219 c 0,-2.1641 -1.75852,-3.9224 -3.92253,-3.9224 l -44.11743,0 z"
       id="rect2985"
       inkscape:connector-curvature="0" />
  </g>
</svg>
