<?xml version="1.0" encoding="UTF-8" standalone="no"?>
<!-- Created with Inkscape (http://www.inkscape.org/) -->

<svg
   xmlns:dc="http://purl.org/dc/elements/1.1/"
   xmlns:cc="http://creativecommons.org/ns#"
   xmlns:rdf="http://www.w3.org/1999/02/22-rdf-syntax-ns#"
   xmlns:svg="http://www.w3.org/2000/svg"
   xmlns="http://www.w3.org/2000/svg"
   xmlns:sodipodi="http://sodipodi.sourceforge.net/DTD/sodipodi-0.dtd"
   xmlns:inkscape="http://www.inkscape.org/namespaces/inkscape"
   width="500"
   height="500"
   id="svg3072"
   version="1.1"
   inkscape:version="0.48.2 r9819"
   sodipodi:docname="channels.svg">
  <defs
     id="defs3074" />
  <sodipodi:namedview
     id="base"
     pagecolor="#ffffff"
     bordercolor="#666666"
     borderopacity="1.0"
     inkscape:pageopacity="0.0"
     inkscape:pageshadow="2"
     inkscape:zoom="0.7"
     inkscape:cx="223.02324"
     inkscape:cy="236.71601"
     inkscape:document-units="px"
     inkscape:current-layer="layer1"
     showgrid="false"
     inkscape:window-width="1069"
     inkscape:window-height="690"
     inkscape:window-x="53"
     inkscape:window-y="22"
     inkscape:window-maximized="0" />
  <metadata
     id="metadata3077">
    <rdf:RDF>
      <cc:Work
         rdf:about="">
        <dc:format>image/svg+xml</dc:format>
        <dc:type
           rdf:resource="http://purl.org/dc/dcmitype/StillImage" />
        <dc:title></dc:title>
      </cc:Work>
    </rdf:RDF>
  </metadata>
  <g
     inkscape:label="Layer 1"
     inkscape:groupmode="layer"
     id="layer1"
     transform="translate(0,-552.36218)">
    <path
       style="fill:#000000;fill-opacity:1;stroke:none"
       d="M 135.4375 16.5625 C 131.86189 16.5625 128.27107 17.91643 125.53125 20.65625 L 125.34375 20.90625 C 119.86412 26.38587 119.86412 35.20788 125.34375 40.6875 L 216.28125 131.625 L 25.78125 131.625 C 14.303827 131.625 5.0625 138.29471 5.0625 146.59375 L 5.0625 472.25 C 5.0625 480.549 14.303827 487.25 25.78125 487.25 L 476.125 487.25 C 487.60243 487.25 496.84375 480.549 496.84375 472.25 L 496.84375 146.59375 C 496.84375 138.29471 487.60243 131.625 476.125 131.625 L 284.03125 131.625 L 374.96875 40.6875 C 380.44838 35.20788 380.44838 26.38587 374.96875 20.90625 L 374.71875 20.65625 C 369.23913 15.17661 360.41714 15.17661 354.9375 20.65625 L 250.125 125.5 L 145.3125 20.65625 C 142.57268 17.91643 139.01311 16.5625 135.4375 16.5625 z M 57.84375 166.96875 L 362.0625 166.96875 C 370.36156 166.96875 377.03125 173.63844 377.03125 181.9375 L 377.03125 434.40625 C 377.03125 442.7053 370.36156 449.40625 362.0625 449.40625 L 57.84375 449.40625 C 49.544691 449.40625 42.875 442.7053 42.875 434.40625 L 42.875 181.9375 C 42.875 173.63844 49.544691 166.96875 57.84375 166.96875 z M 196.1875 195.65625 C 193.55043 195.65625 191.49227 197.40593 190.90625 199.75 C 188.56218 208.54025 187.68178 218.06325 186.65625 227 C 182.11462 228.46504 177.56112 230.36494 173.3125 232.5625 L 153.09375 216.90625 C 151.92172 216.02723 150.63104 215.4375 149.3125 215.4375 C 144.33136 215.4375 124.54735 236.82161 121.03125 241.65625 C 120.29873 242.68178 119.71875 243.71271 119.71875 245.03125 C 119.71875 246.34979 120.27723 247.50572 121.15625 248.53125 C 126.5769 255.12394 131.86261 261.7178 136.84375 268.75 C 134.49968 273.14512 132.59004 277.56187 131.125 282.25 L 103.875 286.34375 C 101.67744 286.78326 99.9375 289.42744 99.9375 291.625 L 99.9375 324.125 C 99.9375 326.61557 101.69693 328.96674 104.1875 329.40625 L 131 333.375 C 132.46504 338.35614 134.50943 343.18687 137 347.875 C 132.01886 354.76069 126.60614 361.19831 121.625 367.9375 C 120.89248 368.96303 120.4375 369.99396 120.4375 371.3125 C 120.4375 372.48453 120.73623 373.66197 121.46875 374.6875 C 127.62192 383.18474 137.86028 392.24905 145.625 399.28125 C 146.65053 400.30678 147.99396 400.90625 149.3125 400.90625 C 150.63104 400.90625 151.94322 400.47277 152.96875 399.59375 L 173.625 383.90625 C 177.87362 386.10381 182.27087 387.87871 186.8125 389.34375 L 190.90625 416.28125 C 191.19926 418.77182 193.55043 420.6875 196.1875 420.6875 L 228.71875 420.6875 C 231.35582 420.6875 233.38273 418.93782 233.96875 416.59375 C 236.31282 407.8035 237.19322 398.2805 238.21875 389.34375 C 242.76038 387.87871 247.31388 385.94756 251.5625 383.75 L 271.78125 399.59375 C 272.95328 400.32627 274.27521 400.90625 275.59375 400.90625 C 280.57489 400.90625 300.3589 379.37563 303.875 374.6875 C 304.75402 373.66197 305.1875 372.63104 305.1875 371.3125 C 305.1875 369.99396 304.59777 368.68178 303.71875 367.65625 C 298.2981 361.06356 293.01239 354.6162 288.03125 347.4375 C 290.37532 343.18888 292.13845 338.78188 293.75 334.09375 L 320.84375 330 C 323.18782 329.56049 324.96875 326.91631 324.96875 324.71875 L 324.96875 292.1875 C 324.96875 289.69693 323.20932 287.37701 320.71875 286.9375 L 293.90625 282.8125 C 292.44121 277.97786 290.39682 273.15688 287.90625 268.46875 C 292.88739 261.58306 298.30011 255.14544 303.28125 248.40625 C 304.01377 247.38072 304.4375 246.34979 304.4375 245.03125 C 304.4375 243.85922 304.13877 242.69152 303.40625 241.8125 C 297.25308 233.16876 287.01472 224.08495 279.25 216.90625 C 278.22447 216.02723 276.91229 215.4375 275.59375 215.4375 C 274.27521 215.4375 272.94152 215.87098 272.0625 216.75 L 251.28125 232.4375 C 247.03263 230.23994 242.63538 228.46504 238.09375 227 L 233.96875 200.0625 C 233.67574 197.57193 231.35582 195.65625 228.71875 195.65625 L 196.1875 195.65625 z M 408.4375 215.875 L 465.40625 215.875 C 470.93895 215.875 475.375 220.34229 475.375 225.875 L 475.375 232.375 C 475.375 237.90769 470.93895 242.375 465.40625 242.375 L 408.4375 242.375 C 402.90478 242.375 398.4375 237.90769 398.4375 232.375 L 398.4375 225.875 C 398.4375 220.34229 402.90478 215.875 408.4375 215.875 z M 408.4375 263.34375 L 465.40625 263.34375 C 470.93895 263.34375 475.375 267.81105 475.375 273.34375 L 475.375 279.84375 C 475.375 285.37648 470.93895 289.84375 465.40625 289.84375 L 408.4375 289.84375 C 402.90478 289.84375 398.4375 285.37648 398.4375 279.84375 L 398.4375 273.34375 C 398.4375 267.81105 402.90478 263.34375 408.4375 263.34375 z M 212.4375 270.65625 C 233.09458 270.65625 249.9375 287.49917 249.9375 308.15625 C 249.9375 328.81333 233.09458 345.6875 212.4375 345.6875 C 191.78042 345.6875 174.9375 328.81333 174.9375 308.15625 C 174.9375 287.49917 191.78042 270.65625 212.4375 270.65625 z M 408.4375 310.875 L 465.40625 310.875 C 470.93895 310.875 475.375 315.31107 475.375 320.84375 L 475.375 327.375 C 475.375 332.90771 470.93895 337.34375 465.40625 337.34375 L 408.4375 337.34375 C 402.90478 337.34375 398.4375 332.90771 398.4375 327.375 L 398.4375 320.84375 C 398.4375 315.31107 402.90478 310.875 408.4375 310.875 z M 408.4375 358.375 L 465.40625 358.375 C 470.93895 358.375 475.375 362.8423 475.375 368.375 L 475.375 374.84375 C 475.375 380.37645 470.93895 384.84375 465.40625 384.84375 L 408.4375 384.84375 C 402.90478 384.84375 398.4375 380.37645 398.4375 374.84375 L 398.4375 368.375 C 398.4375 362.8423 402.90478 358.375 408.4375 358.375 z "
       transform="translate(0,552.36218)"
       id="rect3082" />
  </g>
</svg>
