<?xml version="1.0" encoding="UTF-8" standalone="no"?>
<!-- Created with Inkscape (http://www.inkscape.org/) -->

<svg
   xmlns:dc="http://purl.org/dc/elements/1.1/"
   xmlns:cc="http://creativecommons.org/ns#"
   xmlns:rdf="http://www.w3.org/1999/02/22-rdf-syntax-ns#"
   xmlns:svg="http://www.w3.org/2000/svg"
   xmlns="http://www.w3.org/2000/svg"
   xmlns:sodipodi="http://sodipodi.sourceforge.net/DTD/sodipodi-0.dtd"
   xmlns:inkscape="http://www.inkscape.org/namespaces/inkscape"
   width="500"
   height="500"
   id="svg3072"
   version="1.1"
   inkscape:version="0.48.2 r9819"
   sodipodi:docname="New document 7">
  <defs
     id="defs3074" />
  <sodipodi:namedview
     id="base"
     pagecolor="#ffffff"
     bordercolor="#666666"
     borderopacity="1.0"
     inkscape:pageopacity="0.0"
     inkscape:pageshadow="2"
     inkscape:zoom="0.49497475"
     inkscape:cx="181.303"
     inkscape:cy="306.14652"
     inkscape:document-units="px"
     inkscape:current-layer="layer1"
     showgrid="false"
     inkscape:window-width="1069"
     inkscape:window-height="690"
     inkscape:window-x="53"
     inkscape:window-y="22"
     inkscape:window-maximized="0" />
  <metadata
     id="metadata3077">
    <rdf:RDF>
      <cc:Work
         rdf:about="">
        <dc:format>image/svg+xml</dc:format>
        <dc:type
           rdf:resource="http://purl.org/dc/dcmitype/StillImage" />
        <dc:title></dc:title>
      </cc:Work>
    </rdf:RDF>
  </metadata>
  <g
     inkscape:label="Layer 1"
     inkscape:groupmode="layer"
     id="layer1"
     transform="translate(0,-552.36218)">
    <path
       style="fill:#000000;fill-opacity:1;stroke:none"
       d="m 135.20928,568.93069 c -3.56935,0 -7.15645,1.35397 -9.89146,4.08899 l -0.19471,0.23365 c -5.47003,5.47002 -5.47003,14.27394 0,19.74397 l 90.77552,90.77552 -190.157389,0 c -11.457318,0 -20.678593,6.6695 -20.678593,14.95401 l 0,325.09397 c 0,8.2845 9.221275,14.954 20.678593,14.954 l 449.554959,0 c 11.45732,0 20.67859,-6.6695 20.67859,-14.954 l 0,-325.09397 c 0,-8.28451 -9.22127,-14.95401 -20.67859,-14.95401 l -191.75404,0 90.77552,-90.77552 c 5.47003,-5.47003 5.47003,-14.27395 0,-19.74397 l -0.23365,-0.23365 c -5.47003,-5.47004 -14.27394,-5.47004 -19.74398,0 L 249.70093,677.6588 145.06179,573.01968 c -2.73502,-2.73502 -6.28317,-4.08899 -9.85251,-4.08899 z m -77.457109,150.12425 303.675469,0 c 8.28452,0 14.95401,6.66949 14.95401,14.95402 l 0,252.03739 c 0,8.28451 -6.66949,14.95405 -14.95401,14.95405 l -303.675469,0 c -8.284521,0 -14.954011,-6.66954 -14.954011,-14.95405 l 0,-252.03739 c 0,-8.28453 6.66949,-14.95402 14.954011,-14.95402 z m 349.978389,48.8342 56.85639,0 c 5.52301,0 9.96935,4.44632 9.96935,9.96933 l 0,6.50344 c 0,5.52301 -4.44634,9.96934 -9.96935,9.96934 l -56.85639,0 c -5.52303,0 -9.96935,-4.44633 -9.96935,-9.96934 l 0,-6.50344 c 0,-5.52301 4.44632,-9.96933 9.96935,-9.96933 z m 0,47.3933 56.85639,0 c 5.52301,0 9.96935,4.44633 9.96935,9.96933 l 0,6.50344 c 0,5.52303 -4.44634,9.96936 -9.96935,9.96936 l -56.85639,0 c -5.52303,0 -9.96935,-4.44633 -9.96935,-9.96936 l 0,-6.50344 c 0,-5.523 4.44632,-9.96933 9.96935,-9.96933 z m 0,47.43225 56.85639,0 c 5.52301,0 9.96935,4.44634 9.96935,9.96934 l 0,6.50344 c 0,5.52302 -4.44634,9.96935 -9.96935,9.96935 l -56.85639,0 c -5.52303,0 -9.96935,-4.44633 -9.96935,-9.96935 l 0,-6.50344 c 0,-5.523 4.44632,-9.96934 9.96935,-9.96934 z m 0,47.43226 56.85639,0 c 5.52301,0 9.96935,4.44633 9.96935,9.96934 l 0,6.4645 c 0,5.523 -4.44634,9.96934 -9.96935,9.96934 l -56.85639,0 c -5.52303,0 -9.96935,-4.44634 -9.96935,-9.96934 l 0,-6.4645 c 0,-5.52301 4.44632,-9.96934 9.96935,-9.96934 z"
       id="rect3082"
       inkscape:connector-curvature="0" />
  </g>
</svg>
