<?xml version="1.0" encoding="UTF-8" standalone="no"?>
<!-- Created with Inkscape (http://www.inkscape.org/) -->

<svg
   xmlns:dc="http://purl.org/dc/elements/1.1/"
   xmlns:cc="http://creativecommons.org/ns#"
   xmlns:rdf="http://www.w3.org/1999/02/22-rdf-syntax-ns#"
   xmlns:svg="http://www.w3.org/2000/svg"
   xmlns="http://www.w3.org/2000/svg"
   xmlns:sodipodi="http://sodipodi.sourceforge.net/DTD/sodipodi-0.dtd"
   xmlns:inkscape="http://www.inkscape.org/namespaces/inkscape"
   width="512"
   height="512"
   id="svg3109"
   version="1.1"
   inkscape:version="0.48.2 r9819"
   sodipodi:docname="BS-clone-patches.svg">
  <defs
     id="defs3111" />
  <sodipodi:namedview
     id="base"
     pagecolor="#ffffff"
     bordercolor="#666666"
     borderopacity="1.0"
     inkscape:pageopacity="0.0"
     inkscape:pageshadow="2"
     inkscape:zoom="0.24748737"
     inkscape:cx="580.26973"
     inkscape:cy="196.75119"
     inkscape:document-units="px"
     inkscape:current-layer="layer1"
     showgrid="false"
     inkscape:window-width="968"
     inkscape:window-height="677"
     inkscape:window-x="20"
     inkscape:window-y="42"
     inkscape:window-maximized="0" />
  <metadata
     id="metadata3114">
    <rdf:RDF>
      <cc:Work
         rdf:about="">
        <dc:format>image/svg+xml</dc:format>
        <dc:type
           rdf:resource="http://purl.org/dc/dcmitype/StillImage" />
        <dc:title></dc:title>
      </cc:Work>
    </rdf:RDF>
  </metadata>
  <g
     inkscape:label="Layer 1"
     inkscape:groupmode="layer"
     id="layer1"
     transform="translate(0,-540.36217)">
    <path
       style="fill:#000000;fill-opacity:1;stroke:none"
       d="M 276.71875 1.15625 C 261.18447 1.3155815 245.02876 7.8285009 232.40625 20.46875 L 188.40625 64.53125 L 269.625 145.65625 L 313.625 101.5625 C 337.38501 77.76912 339.46105 41.55648 318.25 20.375 L 313.59375 15.75 C 303.65107 5.8212844 290.42547 1.0156634 276.71875 1.15625 z M 172.15625 80.78125 L 79.5 173.59375 L 160.71875 254.6875 L 253.375 161.90625 L 172.15625 80.78125 z M 439.46875 90.28125 C 419.80773 90.482909 399.38197 98.751826 383.40625 114.75 L 327.71875 170.53125 L 430.5 273.1875 L 486.21875 217.375 C 516.2907 187.26081 518.87709 141.43343 492.03125 114.625 L 486.15625 108.78125 C 473.57225 96.21493 456.81671 90.103315 439.46875 90.28125 z M 169.09375 104.03125 C 171.96933 104.03063 174.84184 105.12054 177.03125 107.3125 C 181.41008 111.68507 181.40462 118.80858 177.03125 123.1875 C 172.65853 127.5662 165.56632 127.57119 161.1875 123.1875 C 156.80866 118.81469 156.78361 111.69119 161.15625 107.3125 C 163.3426 105.12304 166.21817 104.03187 169.09375 104.03125 z M 194 128.90625 C 196.87557 128.90325 199.77935 129.97575 201.96875 132.15625 C 206.34759 136.52905 206.31083 143.65255 201.9375 148.03125 C 197.56481 152.41017 190.50384 152.41516 186.125 148.03125 C 181.75183 143.66431 181.70685 136.56778 186.0625 132.1875 C 188.24885 129.99815 191.12443 128.90971 194 128.90625 z M 141.125 132.0625 C 144.00057 132.06188 146.8731 133.15191 149.0625 135.34375 C 153.44131 139.71655 153.43588 146.80882 149.0625 151.1875 C 144.68979 155.56642 137.59754 155.58002 133.21875 151.21875 C 128.83995 146.84618 128.81465 139.75392 133.1875 135.375 L 133.1875 135.34375 C 135.37383 133.15441 138.24943 132.06312 141.125 132.0625 z M 218 152.875 C 220.86959 152.867 223.7481 153.93815 225.9375 156.125 C 230.31633 160.49758 230.27958 167.58982 225.90625 171.96875 C 221.53353 176.34767 214.47256 176.35243 210.09375 171.96875 C 205.71493 167.59617 205.69037 160.53517 210.0625 156.15625 C 212.24885 153.96679 215.13041 152.88285 218 152.875 z M 166.03125 156.9375 C 168.90682 156.93687 171.77934 158.0269 173.96875 160.21875 C 178.34758 164.59156 178.34212 171.68359 173.96875 176.0625 C 169.59607 180.4412 162.50382 180.44618 158.125 176.0625 C 153.74621 171.68971 153.72092 164.59743 158.09375 160.21875 C 160.2801 158.02941 163.15568 156.93813 166.03125 156.9375 z M 113.125 160.0625 C 116.00057 160.0595 118.90434 161.16314 121.09375 163.34375 C 125.47258 167.71631 125.43601 174.80858 121.0625 179.1875 C 116.68981 183.56618 109.62881 183.57978 105.25 179.21875 C 100.87115 174.84594 100.81477 167.75368 105.1875 163.375 C 107.37384 161.18554 110.24943 160.06596 113.125 160.0625 z M 190.03125 180.875 C 192.90084 180.867 195.7481 181.96938 197.9375 184.15625 C 202.31632 188.52905 202.31087 195.62108 197.9375 200 C 193.5648 204.37871 186.47258 204.39229 182.09375 200.03125 C 177.71495 195.65845 177.72167 188.5662 182.09375 184.1875 C 184.2801 181.99815 187.16166 180.88288 190.03125 180.875 z M 138.0625 184.9375 C 140.93807 184.93687 143.8106 186.05804 146 188.25 C 150.37883 192.62279 150.34228 199.71505 145.96875 204.09375 C 141.59605 208.47268 134.53507 208.48626 130.15625 204.125 C 125.77742 199.75241 125.75236 192.62892 130.125 188.25 C 132.31134 186.06054 135.18693 184.93813 138.0625 184.9375 z M 307.15625 191.09375 L 238.78125 259.5625 C 244.25823 261.40448 249.38734 264.02812 254 267.28125 C 254.53348 264.66916 255.78757 262.18403 257.8125 260.15625 L 257.8125 260.125 C 260.57963 257.35405 264.23552 255.96954 267.875 255.96875 C 271.51448 255.96796 275.13522 257.35089 277.90625 260.125 C 283.4483 265.65946 283.44145 274.6456 277.90625 280.1875 C 276.13708 281.95918 274.02627 283.14031 271.78125 283.78125 L 285.75 297.75 C 286.38208 295.50917 287.58122 293.38992 289.34375 291.625 C 292.1109 288.85405 295.76677 287.46954 299.40625 287.46875 C 303.04573 287.46796 306.66647 288.85089 309.4375 291.625 C 314.97958 297.15946 314.97268 306.14532 309.4375 311.6875 C 307.65887 313.46858 305.53965 314.67556 303.28125 315.3125 L 316.125 328.125 C 316.75921 325.87749 317.9487 323.74148 319.71875 321.96875 L 319.71875 321.9375 C 322.48591 319.16654 326.11809 317.79122 329.75 317.78125 C 333.38191 317.77125 337.01022 319.13842 339.78125 321.90625 C 345.32332 327.44069 345.31645 336.42655 339.78125 341.96875 C 337.98751 343.76495 335.84222 344.95987 333.5625 345.59375 L 345.875 357.90625 L 409.96875 293.75 L 307.15625 191.09375 z M 162.03125 208.90625 C 164.90085 208.89825 167.77934 209.96949 169.96875 212.15625 C 174.34757 216.52884 174.31082 223.65234 169.9375 228.03125 C 165.56481 232.40995 158.50381 232.42354 154.125 228.0625 C 149.74616 223.6897 149.75294 216.59766 154.125 212.21875 C 156.31135 210.02928 159.16165 208.91412 162.03125 208.90625 z M 84.46875 211 C 86.411222 216.79208 87.25 222.66051 87.25 228.28125 C 87.25 238.47157 86.202248 242.46118 86.25 240.5 L 86.21875 240.75 C 85.729955 247.4302 85.4375 253.70939 85.4375 259.625 C 85.4375 293.63576 90.884677 298.06868 99.5 303.625 C 101.51632 304.92539 104.38676 306.20093 108.0625 307.40625 L 144.5 270.9375 L 84.46875 211 z M 303.28125 220.5 C 306.92074 220.49921 310.57272 221.88199 313.34375 224.65625 C 318.88583 230.19041 318.84763 239.17655 313.3125 244.71875 C 307.77816 250.26067 298.82331 250.26698 293.28125 244.71875 C 287.73916 239.1843 287.71584 230.19815 293.25 224.65625 C 296.01716 221.88515 299.64176 220.50079 303.28125 220.5 z M 34.8125 221.9375 C 32.274511 221.9375 30.987745 223.2184 29.71875 225.03125 C 26.999476 228.83823 25.025385 234.64294 23.03125 238.8125 C 12.698007 262.01697 0 295.1826 0 320.5625 C 1.1842379e-15 340.86641 1.9797817 361.72129 9.59375 380.9375 C 34.79236 443.48081 108.75728 454 168.21875 454 L 208.84375 454 L 208.84375 500.40625 C 208.84375 506.75125 214.09252 512 220.4375 512 C 223.51934 512 226.41833 510.738 228.59375 508.5625 L 321.40625 415.75 C 323.58167 413.57458 324.875 410.67559 324.875 407.59375 C 324.875 404.5119 323.58167 401.61292 321.40625 399.4375 L 228.59375 306.59375 C 226.41833 304.41833 223.51934 303.15625 220.4375 303.15625 C 214.09252 303.15625 208.84375 308.40503 208.84375 314.75 L 208.84375 361.15625 L 168.21875 361.15625 C 90.084927 361.15625 38.78125 346.12918 38.78125 259.65625 C 38.78125 252.22357 39.143645 244.77643 39.6875 237.34375 C 39.868785 234.44319 40.59375 231.18181 40.59375 228.28125 C 40.59375 224.83683 38.4382 221.9375 34.8125 221.9375 z M 334.8125 252 C 338.45198 251.996 342.10397 253.36524 344.875 256.125 C 350.41709 261.65946 350.3789 270.64558 344.84375 276.1875 C 339.30943 281.7297 330.35458 281.73601 324.8125 276.1875 C 319.27585 270.65873 319.26331 261.69976 324.78125 256.15625 C 327.54842 253.38529 331.17302 252.00438 334.8125 252 z M 365.1875 282.3125 C 368.81941 282.3025 372.44773 283.66968 375.21875 286.4375 C 380.76084 291.97168 380.72265 300.95781 375.1875 306.5 C 369.65316 312.0422 360.6983 312.04823 355.15625 306.5 C 349.61974 300.97138 349.63932 292.04348 355.15625 286.5 C 357.92342 283.7289 361.55559 282.32243 365.1875 282.3125 z "
       transform="translate(0,540.36217)"
       id="path4248"
       inkscape:export-filename="/Users/Cynthia/Documents/SUSE manager/new icons/clone-patches/bs-clone-patches.png"
       inkscape:export-xdpi="90"
       inkscape:export-ydpi="90" />
  </g>
</svg>
