<?xml version="1.0" encoding="UTF-8" standalone="no"?>
<!-- Created with Inkscape (http://www.inkscape.org/) -->

<svg
   xmlns:dc="http://purl.org/dc/elements/1.1/"
   xmlns:cc="http://creativecommons.org/ns#"
   xmlns:rdf="http://www.w3.org/1999/02/22-rdf-syntax-ns#"
   xmlns:svg="http://www.w3.org/2000/svg"
   xmlns="http://www.w3.org/2000/svg"
   xmlns:sodipodi="http://sodipodi.sourceforge.net/DTD/sodipodi-0.dtd"
   xmlns:inkscape="http://www.inkscape.org/namespaces/inkscape"
   width="500"
   height="500"
   id="svg3896"
   version="1.1"
   inkscape:version="0.48.2 r9819"
   sodipodi:docname="New document 8">
  <defs
     id="defs3898" />
  <sodipodi:namedview
     id="base"
     pagecolor="#ffffff"
     bordercolor="#666666"
     borderopacity="1.0"
     inkscape:pageopacity="0.0"
     inkscape:pageshadow="2"
     inkscape:zoom="0.49497475"
     inkscape:cx="398.51025"
     inkscape:cy="334.68697"
     inkscape:document-units="px"
     inkscape:current-layer="layer1"
     showgrid="false"
     inkscape:window-width="822"
     inkscape:window-height="675"
     inkscape:window-x="182"
     inkscape:window-y="62"
     inkscape:window-maximized="0" />
  <metadata
     id="metadata3901">
    <rdf:RDF>
      <cc:Work
         rdf:about="">
        <dc:format>image/svg+xml</dc:format>
        <dc:type
           rdf:resource="http://purl.org/dc/dcmitype/StillImage" />
        <dc:title></dc:title>
      </cc:Work>
    </rdf:RDF>
  </metadata>
  <g
     inkscape:label="Layer 1"
     inkscape:groupmode="layer"
     id="layer1"
     transform="translate(0,-552.36218)">
    <path
       style="font-size:458.66665649px;font-style:normal;font-variant:normal;font-weight:normal;font-stretch:normal;line-height:125%;letter-spacing:0px;word-spacing:0px;fill:#000000;fill-opacity:1;stroke:none;font-family:FontAwesome;-inkscape-font-specification:FontAwesome"
       d="m 44.050686,588.72978 c -22.654737,0 -41.206936,18.5522 -41.206936,41.20693 l 0,280.08773 c 0,22.65474 18.552199,41.20693 41.206936,41.20693 l 140.059574,0 c 0,22.39729 -16.50163,39.88532 -16.50163,49.41063 0,9.0104 7.49123,16.4702 16.50163,16.4702 l 131.79305,0 c 9.0104,0 16.4702,-7.4598 16.4702,-16.4702 0,-9.01042 -16.4702,-27.52821 -16.4702,-49.41063 l 140.05958,0 c 22.65474,0 41.1755,-18.55219 41.1755,-41.20693 l 0,-280.08773 c 0,-22.65473 -18.52076,-41.20693 -41.1755,-41.20693 l -411.912204,0 z m 0,32.97183 411.912204,0 c 4.37649,0 8.2351,3.85862 8.2351,8.2351 l 0,214.17549 c 0,4.37649 -3.85861,8.2351 -8.2351,8.2351 l -411.912204,0 c -4.376483,0 -8.235101,-3.85861 -8.235101,-8.2351 l 0,-214.17549 c 0,-4.37648 3.858618,-8.2351 8.235101,-8.2351 z m 191.638974,21.34211 c -2.20583,0 -3.94169,1.49675 -4.43187,3.45749 -1.96074,7.35276 -2.69396,15.31266 -3.55178,22.78797 -3.79893,1.22546 -7.60442,2.81369 -11.15825,4.65189 l -16.91024,-13.10701 c -0.98037,-0.73528 -2.07169,-1.22584 -3.1746,-1.22584 -4.16657,0 -20.69553,17.8953 -23.63663,21.93932 -0.61273,0.85781 -1.13154,1.6945 -1.13154,2.79741 0,1.10292 0.49056,2.09676 1.22584,2.95458 4.53419,5.51458 8.97187,11.02804 13.13844,16.91025 -1.96073,3.67638 -3.55215,7.3625 -4.77762,11.28397 l -22.8194,3.42606 c -1.83819,0.36763 -3.30033,2.56224 -3.30033,4.40043 l 0,27.21984 c 0,2.08328 1.4685,4.0328 3.55178,4.40043 l 22.44223,3.30033 c 1.22546,4.16656 2.94578,8.21115 5.02907,12.13263 -4.16657,5.75966 -8.72043,11.14741 -12.88699,16.78452 -0.61274,0.85782 -0.97439,1.72594 -0.97439,2.82885 0,0.98037 0.23593,1.97103 0.84866,2.82885 5.14693,7.10768 13.74706,14.70554 20.242,20.58775 0.85782,0.85782 1.94596,1.35157 3.04888,1.35157 1.10291,0 2.22248,-0.36483 3.0803,-1.10011 l 17.25599,-13.13845 c 3.55384,1.8382 7.2336,3.33213 11.03253,4.5576 l 3.42605,22.53651 c 0.2451,2.08329 2.22604,3.67751 4.43187,3.67751 l 27.1884,0 c 2.20583,0 3.94169,-1.46532 4.43187,-3.42605 1.96073,-7.35276 2.69396,-15.31266 3.55178,-22.78797 3.79893,-1.22547 7.57298,-2.84513 11.12681,-4.68332 l 16.91025,13.26417 c 0.98037,0.61273 2.10312,1.10011 3.20603,1.10011 4.16657,0 20.69553,-18.01784 23.63663,-21.93932 0.73528,-0.85782 1.10011,-1.72593 1.10011,-2.82885 0,-1.10291 -0.49056,-2.19105 -1.22584,-3.04887 -4.5342,-5.51458 -8.94045,-10.90549 -13.10701,-16.91025 1.96073,-3.55383 3.42961,-7.23677 4.77761,-11.15825 l 22.69368,-3.42605 c 1.96073,-0.36763 3.42605,-2.59367 3.42605,-4.43187 l 0,-27.1884 c 0,-2.08328 -1.4685,-4.06423 -3.55178,-4.43187 l -22.44222,-3.42605 c -1.22546,-4.04402 -2.94579,-8.08543 -5.02907,-12.00691 4.16657,-5.75966 8.72043,-11.1474 12.88699,-16.78451 0.61273,-0.85782 0.97438,-1.72594 0.97438,-2.82886 0,-0.98036 -0.23592,-1.93641 -0.84865,-2.67169 -5.14693,-7.23021 -13.74706,-14.83444 -20.24201,-20.8392 -0.85781,-0.73528 -1.94595,-1.22584 -3.04887,-1.22584 -1.10291,0 -2.2193,0.36483 -2.95458,1.10011 l -17.38172,13.10701 c -3.55383,-1.83819 -7.23359,-3.3007 -11.03252,-4.52616 l -3.42605,-22.56795 c -0.2451,-2.08328 -2.22604,-3.67751 -4.43187,-3.67751 l -27.1884,0 z m 13.57848,62.76907 c 17.27899,0 31.40025,14.08984 31.40025,31.36882 0,17.27899 -14.12126,31.36882 -31.40025,31.36882 -17.27898,0 -31.36882,-14.08983 -31.36882,-31.36882 0,-17.27898 14.08984,-31.36882 31.36882,-31.36882 z"
       id="text3904"
       inkscape:connector-curvature="0" />
  </g>
</svg>
