<?xml version="1.0" encoding="UTF-8" standalone="no"?>
<!-- Created with Inkscape (http://www.inkscape.org/) -->

<svg
   xmlns:dc="http://purl.org/dc/elements/1.1/"
   xmlns:cc="http://creativecommons.org/ns#"
   xmlns:rdf="http://www.w3.org/1999/02/22-rdf-syntax-ns#"
   xmlns:svg="http://www.w3.org/2000/svg"
   xmlns="http://www.w3.org/2000/svg"
   xmlns:sodipodi="http://sodipodi.sourceforge.net/DTD/sodipodi-0.dtd"
   xmlns:inkscape="http://www.inkscape.org/namespaces/inkscape"
   width="512"
   height="512"
   id="svg36180"
   version="1.1"
   inkscape:version="0.48.2 r9819"
   sodipodi:docname="BS-configure-suse-manager.svg">
  <defs
     id="defs36182" />
  <sodipodi:namedview
     id="base"
     pagecolor="#ffffff"
     bordercolor="#666666"
     borderopacity="1.0"
     inkscape:pageopacity="0.0"
     inkscape:pageshadow="2"
     inkscape:zoom="0.7"
     inkscape:cx="375"
     inkscape:cy="520"
     inkscape:document-units="px"
     inkscape:current-layer="layer1"
     showgrid="false"
     inkscape:window-width="762"
     inkscape:window-height="623"
     inkscape:window-x="208"
     inkscape:window-y="101"
     inkscape:window-maximized="0" />
  <metadata
     id="metadata36185">
    <rdf:RDF>
      <cc:Work
         rdf:about="">
        <dc:format>image/svg+xml</dc:format>
        <dc:type
           rdf:resource="http://purl.org/dc/dcmitype/StillImage" />
        <dc:title />
      </cc:Work>
    </rdf:RDF>
  </metadata>
  <g
     inkscape:label="Layer 1"
     inkscape:groupmode="layer"
     id="layer1"
     transform="translate(0,-540.36218)">
    <path
       style="fill:#000000;fill-opacity:1;fill-rule:nonzero;stroke:none"
       d="M 255.23214,541.86629 C 114.2519,541.86629 0,656.11819 0,797.09843 c 0,140.96261 114.2519,255.26377 255.23214,255.26377 140.98024,0 255.23215,-114.30116 255.23215,-255.26377 0,-140.98024 -114.25191,-255.23214 -255.23215,-255.23214 z m -66.52596,108.14814 c 6.38415,0.91706 142.64092,21.14235 199.95713,54.57973 7.10721,4.14441 10.63813,8.4847 15.0118,13.05237 15.8369,16.38362 36.82253,84.56207 39.06227,98.6354 l -0.8533,1.45377 c -0.82888,0.31745 -2.83973,1.69154 -5.46746,3.50802 -13.29736,9.38223 -44.60472,31.30025 -84.76134,27.68492 -36.1004,-3.2097 -83.17205,-23.83903 -139.94154,-61.27974 2.45137,5.90799 14.3147,33.85817 16.30755,38.61982 l 0.75849,0.94812 c 8.20062,4.21494 87.12336,44.47004 126.25711,43.67642 31.55037,-0.59961 65.41298,-16.03283 78.85143,-24.14529 1.37559,-0.82877 2.9894,-1.70348 4.32972,-0.82169 1.09341,0.93469 0.92525,2.75944 0.53726,4.48773 -0.82888,3.87988 -2.66673,10.94513 -3.91886,14.1901 l -1.07453,2.78113 c -1.6225,4.10914 -2.97871,8.01316 -5.94151,10.42925 -7.91846,7.16012 -20.63689,12.93653 -40.54766,21.64859 -30.72148,13.35027 -80.55638,21.89549 -126.92078,21.64859 -16.61288,-0.44089 -32.61209,-2.23317 -46.7736,-3.85566 -42.50217,-4.79693 -73.4126,-8.24685 -80.43163,29.42312 -41.743839,-39.92735 -67.853317,-96.07705 -67.853317,-158.36655 0,-47.70472 15.311745,-91.82211 41.148127,-127.71088 41.74384,9.50568 72.91287,19.64334 80.17879,22.05944 0.0705,-3.12152 0.66368,-31.41416 0.66368,-31.41416 l 0.41085,-0.97972 1.01132,-0.25283 z m 149.35948,57.6769 c -14.50436,0.18038 -28.2236,5.64256 -38.90426,15.61227 -11.33979,10.61673 -17.9209,24.99291 -18.3618,40.54765 -1.12868,32.11472 24.04154,59.17134 56.19153,60.30002 15.51947,0.52907 30.30299,-5.00951 41.74859,-15.64387 11.35743,-10.54618 17.85699,-24.98925 18.45661,-40.57926 1.12869,-32.04417 -24.17895,-59.05888 -56.22313,-60.2052 -0.97327,-0.0356 -1.94059,-0.0437 -2.90754,-0.0316 z m 0.41084,17.09765 c 0.67342,-0.009 1.34477,0.007 2.02265,0.0315 22.43267,0.79361 40.01389,19.71279 39.22029,42.12784 -0.35272,10.81072 -4.90901,20.86441 -12.86274,28.25379 -7.91845,7.42465 -18.22582,11.26335 -29.10708,10.84009 -22.43269,-0.79361 -40.0139,-19.66723 -39.2203,-42.06463 0.28218,-10.84599 4.87374,-20.87837 12.86274,-28.28539 7.42355,-6.911 16.98324,-10.76975 27.08444,-10.9033 z m 8.65944,20.47925 c -9.98184,0 -18.07736,5.38206 -18.07736,11.97783 0,6.63105 8.09552,11.97784 18.07736,11.97784 9.94657,0 17.98255,-5.34679 17.98255,-11.97784 0,-6.59577 -8.03598,-11.97783 -17.98255,-11.97783 z"
       id="path30924"
       inkscape:connector-curvature="0" />
    <g
       id="g30926"
       transform="matrix(17.438337,0,0,-17.438337,312.77227,477.3319)">
      <path
         d="M 0,0 0.002,0.002 0,0 z"
         style="fill:#e11f27;fill-opacity:1;fill-rule:nonzero;stroke:none"
         id="path30928"
         inkscape:connector-curvature="0" />
    </g>
  </g>
</svg>
