<?xml version="1.0" encoding="UTF-8" standalone="no"?>
<!-- Created with Inkscape (http://www.inkscape.org/) -->

<svg
   xmlns:dc="http://purl.org/dc/elements/1.1/"
   xmlns:cc="http://creativecommons.org/ns#"
   xmlns:rdf="http://www.w3.org/1999/02/22-rdf-syntax-ns#"
   xmlns:svg="http://www.w3.org/2000/svg"
   xmlns="http://www.w3.org/2000/svg"
   xmlns:sodipodi="http://sodipodi.sourceforge.net/DTD/sodipodi-0.dtd"
   xmlns:inkscape="http://www.inkscape.org/namespaces/inkscape"
   width="512"
   height="512"
   id="svg2"
   version="1.1"
   inkscape:version="0.48.2 r9819"
   sodipodi:docname="BS-custom-system-info.svg"
   inkscape:export-filename="/Users/Cynthia/Documents/SUSE manager/new icons/custom-system-info/BS-custom-system-info.png"
   inkscape:export-xdpi="90"
   inkscape:export-ydpi="90">
  <defs
     id="defs4" />
  <sodipodi:namedview
     id="base"
     pagecolor="#ffffff"
     bordercolor="#666666"
     borderopacity="1.0"
     inkscape:pageopacity="0.0"
     inkscape:pageshadow="2"
     inkscape:zoom="0.7"
     inkscape:cx="230.25726"
     inkscape:cy="291.42857"
     inkscape:document-units="px"
     inkscape:current-layer="layer1"
     showgrid="false"
     inkscape:window-width="1040"
     inkscape:window-height="657"
     inkscape:window-x="0"
     inkscape:window-y="22"
     inkscape:window-maximized="0" />
  <metadata
     id="metadata7">
    <rdf:RDF>
      <cc:Work
         rdf:about="">
        <dc:format>image/svg+xml</dc:format>
        <dc:type
           rdf:resource="http://purl.org/dc/dcmitype/StillImage" />
        <dc:title></dc:title>
      </cc:Work>
    </rdf:RDF>
  </metadata>
  <g
     inkscape:label="Layer 1"
     inkscape:groupmode="layer"
     id="layer1"
     transform="translate(0,-540.36218)">
    <path
       style="font-size:340px;font-style:normal;font-variant:normal;font-weight:normal;font-stretch:normal;line-height:125%;letter-spacing:0px;word-spacing:0px;fill:#000000;fill-opacity:1;stroke:none;font-family:FontAwesome;-inkscape-font-specification:FontAwesome"
       d="m 361.32915,588.82489 c -3.03335,0 -5.40452,2.02222 -6.0786,4.71854 -2.6963,10.11115 -3.70544,21.08474 -4.88507,31.3644 -5.2241,1.6852 -10.43432,3.85613 -15.32138,6.38391 l -23.25962,-18.01372 c -1.34816,-1.01111 -2.86879,-1.69312 -4.38547,-1.69312 -5.72966,0 -28.48571,24.60978 -32.53017,30.17091 -0.8426,1.17962 -1.49884,2.34142 -1.49884,3.85809 0,1.51667 0.65426,2.87276 1.66537,4.0524 6.23521,7.58335 12.31182,15.1707 18.04149,23.25963 -2.69632,5.05556 -4.89302,10.12305 -6.5782,15.51566 l -31.33667,4.71853 c -2.52778,0.50557 -4.552,3.52306 -4.552,6.05084 l 0,37.41525 c 0,2.86483 2.02025,5.57303 4.88508,6.07859 l 30.83705,4.52425 c 1.68518,5.72965 4.04644,11.31657 6.91126,16.70918 -5.72965,7.9204 -11.95099,15.31345 -17.68064,23.06533 -0.8426,1.17964 -1.36005,2.36919 -1.36005,3.88586 0,1.34815 0.35091,2.70622 1.19351,3.88587 7.0778,9.77409 18.85236,20.22231 27.78388,28.31122 1.17963,1.17965 2.70226,1.83191 4.21893,1.83191 1.51668,0 3.0393,-0.48771 4.21893,-1.49883 l 23.75924,-18.04148 c 4.88705,2.52779 9.93074,4.55995 15.15483,6.24514 l 4.71854,31.00358 c 0.33704,2.86482 3.04525,5.05161 6.0786,5.05161 l 37.41524,0 c 3.03335,0 5.37676,-2.02224 6.05084,-4.71854 2.6963,-10.11114 3.7332,-21.05699 4.91283,-31.33665 5.22409,-1.68519 10.43432,-3.88389 15.32138,-6.41166 l 23.25963,18.208 c 1.34815,0.84259 2.86879,1.49883 4.38546,1.49883 5.72965,0 28.48571,-24.75052 32.53017,-30.14313 1.01112,-1.17965 1.49883,-2.3692 1.49883,-3.88587 0,-1.51667 -0.682,-3.03928 -1.69313,-4.21893 -6.2352,-7.58336 -12.28407,-15.00219 -18.01371,-23.25962 2.6963,-4.88707 4.72448,-9.92877 6.5782,-15.32138 l 31.17012,-4.71854 c 2.6963,-0.50556 4.71854,-3.5508 4.71854,-6.0786 l 0,-37.41523 c 0,-2.86483 -2.02026,-5.54529 -4.88508,-6.05084 l -30.83704,-4.71855 c -1.6852,-5.56112 -4.04646,-11.12228 -6.91128,-16.51489 5.72966,-7.9204 11.951,-15.34119 17.68065,-23.09309 0.84259,-1.17963 1.36005,-2.36918 1.36005,-3.88585 0,-1.34816 -0.35093,-2.68045 -1.19352,-3.69157 -7.07779,-9.94262 -18.85237,-20.38687 -27.78387,-28.64431 -1.17964,-1.01111 -2.70225,-1.69312 -4.21893,-1.69312 -1.51667,0 -3.04128,0.51547 -4.0524,1.52658 l -23.92576,18.01373 c -4.88707,-2.52779 -9.95851,-4.53218 -15.1826,-6.21738 l -4.71854,-31.03133 c -0.33704,-2.86483 -3.01749,-5.05161 -6.05084,-5.05161 l -37.41524,0 z M 107.83251,634.87228 C 48.267311,634.87228 0,683.16735 0,742.73256 c 0,59.5652 48.267311,107.83252 107.83251,107.83252 7.31754,0 14.46372,-0.7206 21.37222,-2.10947 l 213.6666,152.88069 c 5.12206,3.6651 11.08838,4.1796 14.48869,0.5551 l 27.11773,-28.9219 c 3.40031,-3.6245 -1.08975,-8.1582 -2.83113,-14.2111 l -12.74005,-44.32649 -38.85857,-2.85889 -2.19274,-40.91251 -39.24715,0.74942 -3.8581,-39.69126 -38.91408,3.55279 8.13255,-51.90394 -37.47076,3.49727 -6.52269,-9.38157 c 3.71039,-10.9057 5.71776,-22.58987 5.71776,-34.75066 0,-59.56521 -48.29507,-107.86028 -107.86028,-107.86028 z m -15.460151,34.77841 c 25.928381,0 46.935591,21.00722 46.935591,46.9356 0,25.92838 -21.00721,46.9356 -46.935591,46.9356 -25.928373,0 -46.96335,-21.00722 -46.96335,-46.9356 0,-25.92838 21.034977,-46.9356 46.96335,-46.9356 z m 287.664411,5.46797 c 23.76119,0 43.133,19.3718 43.133,43.13299 0,23.76122 -19.37181,43.13302 -43.133,43.13302 -23.7612,0 -43.13301,-19.3718 -43.13301,-43.13302 0,-23.76119 19.37181,-43.13299 43.13301,-43.13299 z"
       id="text2989"
       inkscape:connector-curvature="0" />
  </g>
</svg>
