<?xml version="1.0" encoding="UTF-8" standalone="no"?>
<!-- Created with Inkscape (http://www.inkscape.org/) -->

<svg
   xmlns:dc="http://purl.org/dc/elements/1.1/"
   xmlns:cc="http://creativecommons.org/ns#"
   xmlns:rdf="http://www.w3.org/1999/02/22-rdf-syntax-ns#"
   xmlns:svg="http://www.w3.org/2000/svg"
   xmlns="http://www.w3.org/2000/svg"
   xmlns:sodipodi="http://sodipodi.sourceforge.net/DTD/sodipodi-0.dtd"
   xmlns:inkscape="http://www.inkscape.org/namespaces/inkscape"
   width="512"
   height="512"
   id="svg2"
   version="1.1"
   inkscape:version="0.48.2 r9819"
   sodipodi:docname="BS-download-csv.svg"
   inkscape:export-filename="/Users/Cynthia/Documents/SUSE manager/new icons/download-csv/BS-download-csv.png"
   inkscape:export-xdpi="90"
   inkscape:export-ydpi="90">
  <defs
     id="defs4" />
  <sodipodi:namedview
     id="base"
     pagecolor="#ffffff"
     bordercolor="#666666"
     borderopacity="1.0"
     inkscape:pageopacity="0.0"
     inkscape:pageshadow="2"
     inkscape:zoom="0.98994949"
     inkscape:cx="466.83782"
     inkscape:cy="302.40202"
     inkscape:document-units="px"
     inkscape:current-layer="layer1"
     showgrid="false"
     inkscape:window-width="1243"
     inkscape:window-height="664"
     inkscape:window-x="0"
     inkscape:window-y="22"
     inkscape:window-maximized="0" />
  <metadata
     id="metadata7">
    <rdf:RDF>
      <cc:Work
         rdf:about="">
        <dc:format>image/svg+xml</dc:format>
        <dc:type
           rdf:resource="http://purl.org/dc/dcmitype/StillImage" />
        <dc:title></dc:title>
      </cc:Work>
    </rdf:RDF>
  </metadata>
  <g
     inkscape:label="Layer 1"
     inkscape:groupmode="layer"
     id="layer1"
     transform="translate(0,-540.36218)">
    <flowRoot
       xml:space="preserve"
       id="flowRoot2989"
       style="font-size:40px;font-style:normal;font-variant:normal;font-weight:normal;font-stretch:normal;line-height:125%;letter-spacing:0px;word-spacing:0px;fill:#000000;fill-opacity:1;stroke:none;font-family:FontAwesome;-inkscape-font-specification:FontAwesome"><flowRegion
         id="flowRegion2991"><rect
           id="rect2993"
           width="97.14286"
           height="100"
           x="-188.57143"
           y="149.50504" /></flowRegion><flowPara
         id="flowPara2995"></flowPara></flowRoot>    <path
       style="font-size:1195.33166504px;font-style:normal;font-variant:normal;font-weight:normal;font-stretch:normal;line-height:125%;letter-spacing:0px;word-spacing:0px;fill:#000000;fill-opacity:1;stroke:none;font-family:FontAwesome;-inkscape-font-specification:FontAwesome"
       d="M 74.0625 0.78125 C 56.363769 0.78125 42 15.0792 42 32.71875 L 42 480.03125 C 42 497.67075 56.363769 512.0002 74.0625 512 L 437.375 512 C 455.07368 512 469.4375 497.67075 469.4375 480.03125 L 469.4375 197.3125 L 286.65625 197.3125 C 272.47756 194.21369 261.875 181.57566 261.875 166.46875 C 261.875 110.44383 262.53592 55.71483 262 0.78125 L 74.0625 0.78125 z M 303.3125 2.90625 L 303.3125 156.875 L 464.40625 156.875 C 460.21245 145.37854 453.82156 134.29791 446.75 127.25 L 342.53125 23.4375 C 333.51686 14.45325 317.95879 6.53354 303.3125 2.90625 z M 85 135.15625 L 132.4375 135.15625 L 163.40625 176.5 L 197.5625 135.15625 L 227.59375 135.15625 L 177.65625 195.84375 L 238.21875 277.15625 L 190.65625 277.15625 L 152.625 226 L 110.4375 277.15625 L 80.4375 277.15625 L 138.53125 206.78125 L 85 135.15625 z M 82.0625 315.5625 L 429.40625 315.5625 L 429.40625 337.78125 L 82.0625 337.78125 L 82.0625 315.5625 z M 195.90625 372.875 C 200.43426 372.87508 204.77162 373.3608 208.9375 374.375 C 213.10326 375.38937 217.09763 376.91398 220.9375 378.90625 L 220.9375 395.6875 C 217.06141 393.04317 213.26728 391.1067 209.5 389.875 C 205.73259 388.64344 201.75952 388.03132 197.59375 388.03125 C 190.13146 388.03132 184.24321 390.40593 179.96875 395.1875 C 175.69423 399.96919 173.56248 406.56471 173.5625 414.96875 C 173.56248 423.33665 175.69423 429.90589 179.96875 434.6875 C 184.24321 439.46916 190.13146 441.87501 197.59375 441.875 C 201.75952 441.87501 205.73259 441.2629 209.5 440.03125 C 213.26728 438.79963 217.06141 436.86316 220.9375 434.21875 L 220.9375 451 C 217.09763 452.99235 213.10326 454.48572 208.9375 455.5 C 204.77162 456.51429 200.43426 457.03125 195.90625 457.03125 C 182.39447 457.03125 171.67817 453.25345 163.78125 445.71875 C 155.8843 438.14784 151.9375 427.90093 151.9375 414.96875 C 151.9375 402.00042 155.8843 391.75351 163.78125 384.21875 C 171.67817 376.6479 182.39447 372.87508 195.90625 372.875 z M 268.59375 372.875 C 273.04932 372.87508 277.63452 373.21807 282.34375 373.90625 C 287.05289 374.55837 291.93348 375.53478 296.96875 376.875 L 296.96875 394.0625 C 292.51307 392.07021 288.17571 390.57686 283.9375 389.5625 C 279.69918 388.54828 275.67356 388.03132 271.90625 388.03125 C 266.90723 388.03132 263.23453 388.71729 260.84375 390.09375 C 258.4529 391.47035 257.24997 393.6021 257.25 396.5 C 257.24997 398.67353 258.03109 400.39342 259.625 401.625 C 261.25507 402.82046 264.19919 403.84941 268.4375 404.71875 L 277.34375 406.5 C 286.3636 408.31127 292.79011 411.05515 296.59375 414.75 C 300.39726 418.44494 302.28118 423.72107 302.28125 430.53125 C 302.28118 439.47872 299.63743 446.11684 294.3125 450.5 C 289.02366 454.84694 280.90353 457.03125 270 457.03125 C 264.85609 457.03125 259.71133 456.54056 254.53125 455.5625 C 249.35112 454.58444 244.18009 453.13865 239 451.21875 L 239 433.5625 C 244.18009 436.31558 249.18212 438.39976 254 439.8125 C 258.85406 441.18905 263.50813 441.87501 268 441.875 C 272.56425 441.87501 276.07291 441.1152 278.5 439.59375 C 280.92699 438.07234 282.12495 435.88803 282.125 433.0625 C 282.12495 430.52681 281.29128 428.59531 279.625 427.21875 C 277.99485 425.84224 274.73899 424.58676 269.8125 423.5 L 261.6875 421.71875 C 253.57318 419.98001 247.64233 417.20987 243.875 413.40625 C 240.14386 409.60272 238.28124 404.47927 238.28125 398.03125 C 238.28124 389.95325 240.87741 383.72202 246.09375 379.375 C 251.31006 375.02814 258.8131 372.87508 268.59375 372.875 z M 311.03125 374.34375 L 332.0625 374.34375 L 353.59375 434.21875 L 375.0625 374.34375 L 396.0625 374.34375 L 366.03125 455.46875 L 341.09375 455.46875 L 311.03125 374.34375 z M 115.375 434.4375 L 134.9375 434.4375 L 134.9375 455.46875 L 115.375 455.46875 L 115.375 434.4375 z "
       id="path3006"
       transform="translate(0,540.36218)" />
  </g>
</svg>
