<?xml version="1.0" encoding="UTF-8" standalone="no"?>
<!-- Created with Inkscape (http://www.inkscape.org/) -->

<svg
   xmlns:dc="http://purl.org/dc/elements/1.1/"
   xmlns:cc="http://creativecommons.org/ns#"
   xmlns:rdf="http://www.w3.org/1999/02/22-rdf-syntax-ns#"
   xmlns:svg="http://www.w3.org/2000/svg"
   xmlns="http://www.w3.org/2000/svg"
   xmlns:sodipodi="http://sodipodi.sourceforge.net/DTD/sodipodi-0.dtd"
   xmlns:inkscape="http://www.inkscape.org/namespaces/inkscape"
   width="512"
   height="512"
   id="svg2"
   version="1.1"
   inkscape:version="0.48.2 r9819"
   sodipodi:docname="BS-enhancement.svg">
  <defs
     id="defs4" />
  <sodipodi:namedview
     id="base"
     pagecolor="#ffffff"
     bordercolor="#666666"
     borderopacity="1.0"
     inkscape:pageopacity="0.0"
     inkscape:pageshadow="2"
     inkscape:zoom="0.7"
     inkscape:cx="350"
     inkscape:cy="257.95506"
     inkscape:document-units="px"
     inkscape:current-layer="layer1"
     showgrid="false"
     inkscape:window-width="1105"
     inkscape:window-height="727"
     inkscape:window-x="0"
     inkscape:window-y="22"
     inkscape:window-maximized="0" />
  <metadata
     id="metadata7">
    <rdf:RDF>
      <cc:Work
         rdf:about="">
        <dc:format>image/svg+xml</dc:format>
        <dc:type
           rdf:resource="http://purl.org/dc/dcmitype/StillImage" />
        <dc:title></dc:title>
      </cc:Work>
    </rdf:RDF>
  </metadata>
  <g
     inkscape:label="Layer 1"
     inkscape:groupmode="layer"
     id="layer1"
     transform="translate(0,-540.36218)">
    <path
       style="fill:#000000;fill-opacity:1;stroke:#ffffff;stroke-width:0;stroke-linecap:butt;stroke-linejoin:miter;stroke-miterlimit:3.79999995;stroke-opacity:1;stroke-dasharray:none"
       d="M 66 1.71875 C 62.676 1.71875 60 4.39475 60 7.71875 L 60 204.21875 L 200.8125 204.21875 L 200.8125 120.875 C 200.8125 108.77591 211.05716 98.53125 223.15625 98.53125 L 351.4375 98.53125 L 351.4375 7.71875 C 351.4375 4.39475 348.7615 1.71875 345.4375 1.71875 L 66 1.71875 z M 225.15625 116.875 C 221.83225 116.875 219.15625 119.551 219.15625 122.875 L 219.15625 206.25 L 284.03125 206.25 C 296.13034 206.25 306.375 216.49465 306.375 228.59375 L 306.375 408.3125 L 504.59375 408.3125 C 507.91775 408.3125 510.59375 405.63649 510.59375 402.3125 L 510.59375 122.875 C 510.59375 119.551 507.91775 116.875 504.59375 116.875 L 225.15625 116.875 z M 6 220.5625 C 2.676 220.5625 0 223.2385 0 226.5625 L 0 506 C 0 509.324 2.676 512 6 512 L 285.4375 512 C 288.7615 512 291.4375 509.324 291.4375 506 L 291.4375 226.5625 C 291.4375 223.2385 288.7615 220.5625 285.4375 220.5625 L 6 220.5625 z M 124.28125 293.15625 L 167.125 293.15625 C 168.39409 293.81603 169.28125 295.16498 169.28125 296.75 L 169.28125 341.6875 L 212.5 341.5625 C 214.65177 341.5555 216.39925 343.35608 216.40625 345.59375 L 216.53125 386.53125 C 216.53825 388.76892 214.77677 390.58675 212.625 390.59375 L 169.28125 390.71875 L 169.28125 435.8125 C 169.28125 438.05018 167.55803 439.84375 165.40625 439.84375 L 126 439.84375 C 123.84822 439.84375 122.125 438.05018 122.125 435.8125 L 122.125 390.90625 L 78.90625 391.03125 C 76.754482 391.03825 75.03785 389.23766 75.03125 387 L 74.90625 346.03125 C 74.89965 343.79358 76.629481 342.007 78.78125 342 L 122.125 341.875 L 122.125 296.75 C 122.125 295.16498 123.01216 293.81603 124.28125 293.15625 z "
       id="rect2989"
       transform="translate(0,540.36218)"
       inkscape:export-xdpi="90"
       inkscape:export-ydpi="90" />
  </g>
</svg>
