<?xml version="1.0" encoding="UTF-8" standalone="no"?>
<!-- Created with Inkscape (http://www.inkscape.org/) -->

<svg
   xmlns:dc="http://purl.org/dc/elements/1.1/"
   xmlns:cc="http://creativecommons.org/ns#"
   xmlns:rdf="http://www.w3.org/1999/02/22-rdf-syntax-ns#"
   xmlns:svg="http://www.w3.org/2000/svg"
   xmlns="http://www.w3.org/2000/svg"
   xmlns:sodipodi="http://sodipodi.sourceforge.net/DTD/sodipodi-0.dtd"
   xmlns:inkscape="http://www.inkscape.org/namespaces/inkscape"
   width="500"
   height="500"
   id="svg6137"
   version="1.1"
   inkscape:version="0.48.2 r9819"
   sodipodi:docname="New document 20">
  <defs
     id="defs6139" />
  <sodipodi:namedview
     id="base"
     pagecolor="#ffffff"
     bordercolor="#666666"
     borderopacity="1.0"
     inkscape:pageopacity="0.0"
     inkscape:pageshadow="2"
     inkscape:zoom="0.7"
     inkscape:cx="343.29417"
     inkscape:cy="206.15821"
     inkscape:document-units="px"
     inkscape:current-layer="layer1"
     showgrid="false"
     inkscape:window-width="881"
     inkscape:window-height="649"
     inkscape:window-x="230"
     inkscape:window-y="107"
     inkscape:window-maximized="0" />
  <metadata
     id="metadata6142">
    <rdf:RDF>
      <cc:Work
         rdf:about="">
        <dc:format>image/svg+xml</dc:format>
        <dc:type
           rdf:resource="http://purl.org/dc/dcmitype/StillImage" />
        <dc:title></dc:title>
      </cc:Work>
    </rdf:RDF>
  </metadata>
  <g
     inkscape:label="Layer 1"
     inkscape:groupmode="layer"
     id="layer1"
     transform="translate(0,-552.36218)">
    <path
       style="font-size:534.12585449px;font-style:normal;font-variant:normal;font-weight:normal;font-stretch:normal;line-height:125%;letter-spacing:0px;word-spacing:0px;fill:#000000;fill-opacity:1;stroke:none;font-family:FontAwesome;-inkscape-font-specification:FontAwesome"
       d="M 69.625 38.4375 C 32.963496 38.4375 2.84375 68.557246 2.84375 105.21875 L 2.84375 391.34375 C 2.84375 428.00525 32.963496 458.125 69.625 458.125 L 432.0625 458.125 C 468.724 458.125 498.84375 428.00525 498.84375 391.34375 L 498.84375 181.5 C 498.84375 144.8385 468.724 114.75 432.0625 114.75 L 231.78125 114.75 L 231.78125 105.21875 C 231.78125 68.557246 201.6615 38.4375 165 38.4375 L 69.625 38.4375 z M 232.6875 177.71875 L 264.46875 177.71875 C 267.04687 177.71875 269.33854 179.56511 269.625 182 L 273.625 208.375 C 278.0651 209.80729 282.37761 211.50781 286.53125 213.65625 L 306.875 198.34375 C 307.73437 197.48438 309.02344 197.0625 310.3125 197.0625 C 311.60156 197.0625 312.8724 197.60938 313.875 198.46875 C 321.46614 205.48697 331.51563 214.39324 337.53125 222.84375 C 338.2474 223.70312 338.53125 224.82292 338.53125 225.96875 C 338.53125 227.25781 338.09115 228.27865 337.375 229.28125 C 332.50521 235.86978 327.21354 242.17449 322.34375 248.90625 C 324.77864 253.48958 326.78646 258.21094 328.21875 262.9375 L 354.40625 266.9375 C 356.84114 267.36719 358.5625 269.65886 358.5625 272.09375 L 358.5625 303.90625 C 358.5625 306.05469 356.85416 308.63281 354.5625 309.0625 L 328.0625 313.0625 C 326.48698 317.64583 324.76041 321.94011 322.46875 326.09375 C 327.33854 333.11197 332.51303 339.42969 337.8125 345.875 C 338.67187 346.8776 339.25 348.14844 339.25 349.4375 C 339.25 350.72656 338.79687 351.7474 337.9375 352.75 C 334.5 357.33333 315.18229 378.375 310.3125 378.375 C 309.02344 378.375 307.73958 377.8099 306.59375 377.09375 L 286.8125 361.625 C 282.65886 363.77344 278.22135 365.63021 273.78125 367.0625 C 272.77865 375.79947 271.91666 385.12501 269.625 393.71875 C 269.05208 396.01041 267.04687 397.71875 264.46875 397.71875 L 232.6875 397.71875 C 230.10938 397.71875 227.81771 395.84114 227.53125 393.40625 L 223.5 367.0625 C 219.0599 365.63021 214.77864 363.89844 210.625 361.75 L 190.40625 377.09375 C 189.40365 377.95312 188.13281 378.375 186.84375 378.375 C 185.55469 378.375 184.2526 377.8151 183.25 376.8125 C 175.65886 369.93751 165.64062 361.05728 159.625 352.75 C 158.90885 351.7474 158.625 350.58333 158.625 349.4375 C 158.625 348.14844 159.0651 347.15885 159.78125 346.15625 C 164.65104 339.56772 169.94271 333.26301 174.8125 326.53125 C 172.37761 321.94792 170.36979 317.21354 168.9375 312.34375 L 142.71875 308.46875 C 140.28386 308.03906 138.5625 305.74739 138.5625 303.3125 L 138.5625 271.53125 C 138.5625 269.38281 140.28906 266.80469 142.4375 266.375 L 169.09375 262.375 C 170.52604 257.79167 172.36459 253.48437 174.65625 249.1875 C 169.78646 242.31251 164.64322 235.85156 159.34375 229.40625 C 158.48438 228.40365 157.90625 227.25781 157.90625 225.96875 C 157.90625 224.67969 158.47135 223.6901 159.1875 222.6875 C 162.625 217.96094 181.97396 197.0625 186.84375 197.0625 C 188.13281 197.0625 189.41667 197.60938 190.5625 198.46875 L 210.34375 213.8125 C 214.49739 211.66406 218.9349 209.80729 223.375 208.375 C 224.3776 199.63803 225.23959 190.31249 227.53125 181.71875 C 228.10417 179.42709 230.10938 177.71875 232.6875 177.71875 z M 248.5625 251.0625 C 228.36721 251.0625 211.90625 267.52346 211.90625 287.71875 C 211.90625 307.91404 228.36721 324.375 248.5625 324.375 C 268.75779 324.375 285.25 307.91404 285.25 287.71875 C 285.25 267.52346 268.75779 251.0625 248.5625 251.0625 z "
       transform="translate(0,552.36218)"
       id="text6145" />
  </g>
</svg>
