<?xml version="1.0" encoding="UTF-8" standalone="no"?>
<!-- Created with Inkscape (http://www.inkscape.org/) -->

<svg
   xmlns:dc="http://purl.org/dc/elements/1.1/"
   xmlns:cc="http://creativecommons.org/ns#"
   xmlns:rdf="http://www.w3.org/1999/02/22-rdf-syntax-ns#"
   xmlns:svg="http://www.w3.org/2000/svg"
   xmlns="http://www.w3.org/2000/svg"
   xmlns:sodipodi="http://sodipodi.sourceforge.net/DTD/sodipodi-0.dtd"
   xmlns:inkscape="http://www.inkscape.org/namespaces/inkscape"
   width="500"
   height="500"
   id="svg2983"
   version="1.1"
   inkscape:version="0.48.2 r9819"
   sodipodi:docname="go-button.svg">
  <defs
     id="defs2985" />
  <sodipodi:namedview
     id="base"
     pagecolor="#ffffff"
     bordercolor="#666666"
     borderopacity="1.0"
     inkscape:pageopacity="0.0"
     inkscape:pageshadow="2"
     inkscape:zoom="0.7"
     inkscape:cx="246.74665"
     inkscape:cy="220.18141"
     inkscape:document-units="px"
     inkscape:current-layer="layer1"
     showgrid="false"
     inkscape:window-width="852"
     inkscape:window-height="714"
     inkscape:window-x="148"
     inkscape:window-y="38"
     inkscape:window-maximized="0" />
  <metadata
     id="metadata2988">
    <rdf:RDF>
      <cc:Work
         rdf:about="">
        <dc:format>image/svg+xml</dc:format>
        <dc:type
           rdf:resource="http://purl.org/dc/dcmitype/StillImage" />
        <dc:title></dc:title>
      </cc:Work>
    </rdf:RDF>
  </metadata>
  <g
     inkscape:label="Layer 1"
     inkscape:groupmode="layer"
     id="layer1"
     transform="translate(0,-552.36218)">
    <path
       style="fill:#000000;fill-opacity:1;stroke:none"
       d="M 27.53125 60.8125 C 14.491522 60.8125 4 69.832616 4 81.03125 L 4 423.21875 C 4 434.41738 14.491522 443.4375 27.53125 443.4375 L 474.75 443.4375 C 487.78973 443.4375 498.28125 434.41738 498.28125 423.21875 L 498.28125 81.03125 C 498.28125 69.832616 487.78973 60.8125 474.75 60.8125 L 27.53125 60.8125 z M 167.09375 164.125 C 178.15009 164.12517 188.64187 165.49267 198.5625 168.21875 C 208.5586 170.94516 217.75017 174.98038 226.15625 180.28125 L 226.15625 204.6875 C 217.67445 197.49338 208.66672 192.07264 199.125 188.4375 C 189.58302 184.80266 179.52623 183.00015 169 183 C 148.25016 183.00015 132.6693 188.7886 122.21875 200.375 C 111.84382 211.96167 106.65621 229.2417 106.65625 252.1875 C 106.65621 275.05774 111.84382 292.25725 122.21875 303.84375 C 132.6693 315.43032 148.25016 321.25002 169 321.25 C 177.1029 321.25002 184.35739 320.55064 190.71875 319.1875 C 197.07986 317.74867 202.80102 315.54721 207.875 312.59375 L 207.875 267.0625 L 170.375 267.0625 L 170.375 248.1875 L 230.59375 248.1875 L 230.59375 321 C 221.7333 327.28552 211.95891 332.05615 201.28125 335.3125 C 190.60333 338.49312 179.21029 340.09375 167.09375 340.09375 C 140.5885 340.09375 119.83806 332.35499 104.84375 316.90625 C 89.925102 301.38183 82.468737 279.82867 82.46875 252.1875 C 82.468737 224.47077 89.925102 202.88636 104.84375 187.4375 C 119.83806 171.91321 140.5885 164.12517 167.09375 164.125 z M 341.4375 164.125 C 365.21631 164.12517 384.23155 172.11508 398.46875 188.09375 C 412.70565 203.99699 419.84358 225.37952 419.84375 252.1875 C 419.84358 278.91992 412.70565 300.2712 398.46875 316.25 C 384.23155 332.15311 365.21631 340.09375 341.4375 340.09375 C 317.58277 340.09375 298.50025 332.15311 284.1875 316.25 C 269.95041 300.34693 262.84374 278.99565 262.84375 252.1875 C 262.84374 225.37952 269.95041 203.99699 284.1875 188.09375 C 298.50025 172.11508 317.58277 164.12517 341.4375 164.125 z M 341.4375 182.78125 C 324.77703 182.7814 311.53222 188.98683 301.6875 201.40625 C 291.91841 213.82594 287.03121 230.75628 287.03125 252.1875 C 287.03121 273.54316 291.91841 290.42423 301.6875 302.84375 C 311.53222 315.26334 324.77703 321.46877 341.4375 321.46875 C 358.09779 321.46877 371.27531 315.26334 380.96875 302.84375 C 390.73766 290.42423 395.62485 273.54316 395.625 252.1875 C 395.62485 230.75628 390.73766 213.82594 380.96875 201.40625 C 371.27531 188.98683 358.09779 182.7814 341.4375 182.78125 z "
       transform="translate(0,552.36218)"
       id="rect2991" />
  </g>
</svg>
