<?xml version="1.0" encoding="UTF-8" standalone="no"?>
<!-- Created with Inkscape (http://www.inkscape.org/) -->

<svg
   xmlns:dc="http://purl.org/dc/elements/1.1/"
   xmlns:cc="http://creativecommons.org/ns#"
   xmlns:rdf="http://www.w3.org/1999/02/22-rdf-syntax-ns#"
   xmlns:svg="http://www.w3.org/2000/svg"
   xmlns="http://www.w3.org/2000/svg"
   xmlns:sodipodi="http://sodipodi.sourceforge.net/DTD/sodipodi-0.dtd"
   xmlns:inkscape="http://www.inkscape.org/namespaces/inkscape"
   width="512"
   height="512"
   id="svg2"
   version="1.1"
   inkscape:version="0.48.2 r9819"
   sodipodi:docname="BS-health-pending.svg"
   inkscape:export-filename="/Users/Cynthia/Documents/SUSE manager/new icons/health-pending/BS-health-pending.png"
   inkscape:export-xdpi="90"
   inkscape:export-ydpi="90">
  <defs
     id="defs4" />
  <sodipodi:namedview
     id="base"
     pagecolor="#ffffff"
     bordercolor="#666666"
     borderopacity="1.0"
     inkscape:pageopacity="0.0"
     inkscape:pageshadow="2"
     inkscape:zoom="0.49497475"
     inkscape:cx="-1.2342363"
     inkscape:cy="350.00722"
     inkscape:document-units="px"
     inkscape:current-layer="layer1"
     showgrid="false"
     inkscape:window-width="965"
     inkscape:window-height="652"
     inkscape:window-x="254"
     inkscape:window-y="36"
     inkscape:window-maximized="0">
    <inkscape:grid
       type="xygrid"
       id="grid3022"
       empspacing="5"
       visible="true"
       enabled="true"
       snapvisiblegridlinesonly="true" />
  </sodipodi:namedview>
  <metadata
     id="metadata7">
    <rdf:RDF>
      <cc:Work
         rdf:about="">
        <dc:format>image/svg+xml</dc:format>
        <dc:type
           rdf:resource="http://purl.org/dc/dcmitype/StillImage" />
        <dc:title></dc:title>
      </cc:Work>
    </rdf:RDF>
  </metadata>
  <g
     inkscape:label="Layer 1"
     inkscape:groupmode="layer"
     id="layer1"
     transform="translate(0,-540.36218)">
    <path
       style="fill:#000000;fill-opacity:1;stroke:none"
       d="m 260.625,542.70593 c -16.64115,0 -30.125,13.99234 -30.125,31.28125 0,17.28891 13.48385,31.3125 30.125,31.3125 16.64119,0 30.125,-14.02359 30.125,-31.3125 0,-17.28891 -13.48381,-31.28125 -30.125,-31.28125 z m -51.5625,32.03125 c -11.23559,0 -20.28125,9.38959 -20.28125,21.0625 l 0,78.25 c 0,11.67291 9.04566,21.0625 20.28125,21.0625 l 100.8125,0 c 11.23558,0 20.28125,-9.38959 20.28125,-21.0625 l 0,-78.25 c 0,-11.67291 -9.04568,-21.0625 -20.28125,-21.0625 l -4.09375,0 c -0.38,25.59268 -20.43196,46.21875 -45.15625,46.21875 -24.72432,0 -44.80759,-20.626 -45.1875,-46.21875 l -6.375,0 z m -94.625,48.5625 C 105.31801,623.29968 98,629.195 98,636.51843 l 0,402.62497 c 0,7.3235 7.31801,13.2188 16.4375,13.2188 l 286.34375,0 c 9.11923,0 16.46875,-5.8953 16.46875,-13.2188 l 0,-402.62497 c 0,-7.32343 -7.34945,-13.21875 -16.46875,-13.21875 l -46,0 0,46.5625 4.5625,0 c 6.23016,0 11.28125,5.51871 11.28125,12.375 l 0,311.1875 c 0,6.85632 -5.0511,12.37502 -11.28125,12.37502 l -203.46875,0 c -6.23016,0 -11.25,-5.5187 -11.25,-12.37502 l 0,-311.1875 c 0,-6.85629 5.01984,-12.375 11.25,-12.375 l 8.28125,0 0,-46.5625 -49.71875,0 z m 147.125,189.65625 c -11.53645,0 -20.875,9.00758 -20.875,20.125 0,11.11742 9.33855,20.125 20.875,20.125 11.53645,0 20.90625,-9.00758 20.90625,-20.125 0,-11.11742 -9.3698,-20.125 -20.90625,-20.125 z m 28.84375,9.59375 c 1.29265,3.27888 2,6.81542 2,10.53125 0,3.00056 -0.48543,5.8945 -1.34375,8.625 l 44.96875,0 c 7.2022,0 13,-4.2833 13,-9.59375 0,-5.31046 -5.7978,-9.5625 -13,-9.5625 l -45.625,0 z m -47.5,34.21875 -31.59375,86.4375 c -2.39292,6.54632 -0.10381,13.2356 5.09375,15 5.19756,1.76439 11.29457,-2.0787 13.6875,-8.625 l 31.71875,-86.78125 c -0.0872,6.7e-4 -0.16258,0 -0.25,0 -7.00816,0 -13.47759,-2.23583 -18.65625,-6.03125 z"
       id="rect2992"
       inkscape:connector-curvature="0" />
  </g>
</svg>
