<?xml version="1.0" encoding="UTF-8" standalone="no"?>
<!-- Created with Inkscape (http://www.inkscape.org/) -->

<svg
   xmlns:dc="http://purl.org/dc/elements/1.1/"
   xmlns:cc="http://creativecommons.org/ns#"
   xmlns:rdf="http://www.w3.org/1999/02/22-rdf-syntax-ns#"
   xmlns:svg="http://www.w3.org/2000/svg"
   xmlns="http://www.w3.org/2000/svg"
   xmlns:sodipodi="http://sodipodi.sourceforge.net/DTD/sodipodi-0.dtd"
   xmlns:inkscape="http://www.inkscape.org/namespaces/inkscape"
   width="512"
   height="512"
   id="svg2"
   version="1.1"
   inkscape:version="0.48.2 r9819"
   sodipodi:docname="BS-health-unknown.svg"
   inkscape:export-filename="/Users/Cynthia/Documents/SUSE manager/new icons/Health-unknown/BS-health-unknown.png"
   inkscape:export-xdpi="90"
   inkscape:export-ydpi="90">
  <defs
     id="defs4" />
  <sodipodi:namedview
     id="base"
     pagecolor="#ffffff"
     bordercolor="#666666"
     borderopacity="1.0"
     inkscape:pageopacity="0.0"
     inkscape:pageshadow="2"
     inkscape:zoom="0.35"
     inkscape:cx="350"
     inkscape:cy="267.25034"
     inkscape:document-units="px"
     inkscape:current-layer="layer1"
     showgrid="false"
     inkscape:window-width="872"
     inkscape:window-height="680"
     inkscape:window-x="268"
     inkscape:window-y="22"
     inkscape:window-maximized="0" />
  <metadata
     id="metadata7">
    <rdf:RDF>
      <cc:Work
         rdf:about="">
        <dc:format>image/svg+xml</dc:format>
        <dc:type
           rdf:resource="http://purl.org/dc/dcmitype/StillImage" />
        <dc:title></dc:title>
      </cc:Work>
    </rdf:RDF>
  </metadata>
  <g
     inkscape:label="Layer 1"
     inkscape:groupmode="layer"
     id="layer1"
     transform="translate(0,-540.36218)">
    <path
       style="fill:#000000;fill-opacity:1;stroke:none"
       d="m 258.625,542.70593 c -16.64116,0 -30.125,13.99234 -30.125,31.28125 0,17.28891 13.48384,31.3125 30.125,31.3125 16.64119,0 30.15625,-14.02359 30.15625,-31.3125 0,-17.28891 -13.51506,-31.28125 -30.15625,-31.28125 z m -52.59375,32.03125 c -10.74537,0.56224 -19.25,9.75437 -19.25,21.0625 l 0,78.25 c 0,11.67291 9.04566,21.0625 20.28125,21.0625 l 100.8125,0 c 11.23558,0 20.28125,-9.38959 20.28125,-21.0625 l 0,-78.25 c 0,-11.67291 -9.04568,-21.0625 -20.28125,-21.0625 l -4.0625,0 c -0.38,25.59268 -20.46321,46.21875 -45.1875,46.21875 -24.72433,0 -44.77634,-20.626 -45.15625,-46.21875 l -6.40625,0 c -0.35111,0 -0.68463,-0.0181 -1.03125,0 z m -93.5625,48.5625 C 103.34926,623.29968 96,629.195 96,636.51843 l 0,402.62507 c 0,7.3235 7.34926,13.2187 16.46875,13.2187 l 286.3125,0 c 9.11923,0 16.46875,-5.8952 16.46875,-13.2187 l 0,-402.62507 c 0,-7.32343 -7.34945,-13.21875 -16.46875,-13.21875 l -46,0 0,46.5625 4.59375,0 c 6.23016,0 11.25,5.51871 11.25,12.375 l 0,311.1875 c 0,6.85632 -5.01985,12.37502 -11.25,12.37502 l -203.5,0 c -6.23016,0 -11.25,-5.5187 -11.25,-12.37502 l 0,-311.1875 c 0,-6.85629 5.01984,-12.375 11.25,-12.375 l 8.28125,0 0,-46.5625 -49.6875,0 z m 136.875,112.96875 c -9.07755,2.2e-4 -18.52058,0.95433 -28.28125,2.90625 -9.76077,1.95236 -20.5333,4.99446 -32.34375,9.09375 l 0,45.96875 c 9.95591,-6.44191 19.51238,-11.27878 28.6875,-14.5 9.17503,-3.31847 17.71874,-4.96857 25.625,-4.96875 8.39414,1.8e-4 14.93976,1.93964 19.625,5.84375 4.68505,3.80685 7.03115,9.13641 7.03125,15.96875 -10e-5,4.49009 -1.33345,8.97896 -3.96875,13.46875 -2.53788,4.49008 -6.59272,9.26831 -12.15625,14.34375 l -9.34375,8.5 c -10.34644,9.56563 -17.15402,17.47199 -20.375,23.71875 -3.22109,6.14935 -4.81255,13.21504 -4.8125,21.21875 l 0,7.1875 52.84375,0 0,-6.59375 c -10e-5,-4.39225 1.01264,-8.38844 3.0625,-12 2.04965,-3.70898 6.39384,-8.60449 13.03125,-14.65625 l 9.375,-8.34375 c 9.17494,-8.68692 15.66192,-16.7966 19.46875,-24.3125 3.80653,-7.61322 5.71859,-16.18433 5.71875,-25.75 -1.6e-4,-18.64281 -6.25642,-32.80542 -18.75,-42.46875 -12.49386,-9.76051 -30.62143,-14.62478 -54.4375,-14.625 z m -30.3125,170.40625 0,52.125 52.84375,0 0,-52.125 -52.84375,0 z"
       id="rect2992"
       inkscape:connector-curvature="0" />
  </g>
</svg>
