<?xml version="1.0" encoding="UTF-8" standalone="no"?>
<!-- Created with Inkscape (http://www.inkscape.org/) -->

<svg
   xmlns:dc="http://purl.org/dc/elements/1.1/"
   xmlns:cc="http://creativecommons.org/ns#"
   xmlns:rdf="http://www.w3.org/1999/02/22-rdf-syntax-ns#"
   xmlns:svg="http://www.w3.org/2000/svg"
   xmlns="http://www.w3.org/2000/svg"
   xmlns:sodipodi="http://sodipodi.sourceforge.net/DTD/sodipodi-0.dtd"
   xmlns:inkscape="http://www.inkscape.org/namespaces/inkscape"
   width="512"
   height="512"
   id="svg2"
   version="1.1"
   inkscape:version="0.48.2 r9819"
   sodipodi:docname="BS-health.svg"
   inkscape:export-filename="/Users/Cynthia/Documents/SUSE manager/new icons/health/BS-health.png"
   inkscape:export-xdpi="90"
   inkscape:export-ydpi="90">
  <defs
     id="defs4">
    <inkscape:path-effect
       effect="spiro"
       id="path-effect3008"
       is_visible="true" />
    <inkscape:path-effect
       effect="spiro"
       id="path-effect3004"
       is_visible="true" />
    <inkscape:path-effect
       effect="spiro"
       id="path-effect3000"
       is_visible="true" />
  </defs>
  <sodipodi:namedview
     id="base"
     pagecolor="#ffffff"
     bordercolor="#666666"
     borderopacity="1.0"
     inkscape:pageopacity="0.0"
     inkscape:pageshadow="2"
     inkscape:zoom="0.7"
     inkscape:cx="469.27716"
     inkscape:cy="296.33065"
     inkscape:document-units="px"
     inkscape:current-layer="layer1"
     showgrid="false"
     showguides="true"
     inkscape:guide-bbox="true"
     inkscape:window-width="987"
     inkscape:window-height="655"
     inkscape:window-x="72"
     inkscape:window-y="22"
     inkscape:window-maximized="0" />
  <metadata
     id="metadata7">
    <rdf:RDF>
      <cc:Work
         rdf:about="">
        <dc:format>image/svg+xml</dc:format>
        <dc:type
           rdf:resource="http://purl.org/dc/dcmitype/StillImage" />
        <dc:title></dc:title>
      </cc:Work>
    </rdf:RDF>
  </metadata>
  <g
     inkscape:label="Layer 1"
     inkscape:groupmode="layer"
     id="layer1"
     transform="translate(0,-540.36218)">
    <path
       style="fill:#000000;fill-opacity:1;stroke:none"
       d="m 256.4349,541.27085 c -16.64117,0 -30.11702,14.0004 -30.11702,31.28931 0,17.28891 13.47585,31.31564 30.11702,31.31564 16.64118,0 30.14238,-14.02673 30.14238,-31.31564 0,-17.28891 -13.5012,-31.28931 -30.14238,-31.28931 z m -51.56399,32.02676 c -11.23558,0 -20.28083,9.39733 -20.28083,21.07024 l 0,78.24961 c 0,11.67291 9.04525,21.07024 20.28083,21.07024 l 100.82105,0 c 11.23558,0 20.28083,-9.39733 20.28083,-21.07024 l 0,-78.24961 c 0,-11.67291 -9.04525,-21.07024 -20.28083,-21.07024 l -4.08152,0 c -0.37999,25.59268 -20.45126,46.22285 -45.17554,46.22285 -24.72433,0 -44.79564,-20.6301 -45.17554,-46.22285 l -6.38845,0 z m -94.61006,48.56691 c -9.11949,0 -16.452815,5.89815 -16.452815,13.22158 l 0,402.6259 c 0,7.3235 7.333325,13.2216 16.452815,13.2216 l 286.33995,0 c 9.11923,0 16.45277,-5.8981 16.45277,-13.2216 l 0,-402.6259 c 0,-7.32343 -7.33347,-13.22158 -16.45277,-13.22158 l -46.01216,0 0,46.56523 4.58853,0 c 6.23016,0 11.25582,5.52247 11.25582,12.37876 l 0,311.18112 c 0,6.85628 -5.02566,12.37877 -11.25582,12.37877 l -203.49273,0 c -6.23016,0 -11.25586,-5.52249 -11.25586,-12.37877 l 0,-311.18112 c 0,-6.85629 5.0257,-12.37876 11.25586,-12.37876 l 8.28979,0 0,-46.56523 -49.71338,0 z m 144.60229,120.54811 a 9.0181625,9.3691873 0 0 0 -9.05032,7.37458 l -18.91187,90.02261 -11.1291,-36.26716 a 9.0181625,9.3691873 0 0 0 -16.78239,-1.0535 l -11.63612,26.46948 -24.97076,-0.0262 0,18.72617 30.7508,0.0263 a 9.0181625,9.3691873 0 0 0 8.21373,-5.47826 l 4.33502,-9.85034 14.24729,46.45988 a 9.0181625,9.3691873 0 0 0 17.3908,-0.8428 l 15.46414,-73.56148 18.6837,135.06024 a 9.0181625,9.3691873 0 0 0 17.64432,1.10619 l 24.21024,-92.99878 29.15368,-0.0263 0,-18.72617 -36.04917,0 a 9.0181625,9.3691873 0 0 0 -8.72075,6.92684 l -14.6022,56.07313 -19.57099,-141.38131 a 9.0181625,9.3691873 0 0 0 -8.67005,-8.03303 z"
       id="rect2992"
       inkscape:connector-curvature="0" />
  </g>
</svg>
