<?xml version="1.0" encoding="UTF-8" standalone="no"?>
<!-- Created with Inkscape (http://www.inkscape.org/) -->

<svg
   xmlns:dc="http://purl.org/dc/elements/1.1/"
   xmlns:cc="http://creativecommons.org/ns#"
   xmlns:rdf="http://www.w3.org/1999/02/22-rdf-syntax-ns#"
   xmlns:svg="http://www.w3.org/2000/svg"
   xmlns="http://www.w3.org/2000/svg"
   xmlns:sodipodi="http://sodipodi.sourceforge.net/DTD/sodipodi-0.dtd"
   xmlns:inkscape="http://www.inkscape.org/namespaces/inkscape"
   width="512"
   height="512"
   id="svg2"
   version="1.1"
   inkscape:version="0.48.2 r9819"
   sodipodi:docname="BS-inactive-systems.svg">
  <defs
     id="defs4" />
  <sodipodi:namedview
     id="base"
     pagecolor="#ffffff"
     bordercolor="#666666"
     borderopacity="1.0"
     inkscape:pageopacity="0.0"
     inkscape:pageshadow="2"
     inkscape:zoom="0.7"
     inkscape:cx="344.10244"
     inkscape:cy="288.64002"
     inkscape:document-units="px"
     inkscape:current-layer="layer1"
     showgrid="false"
     inkscape:window-width="1273"
     inkscape:window-height="735"
     inkscape:window-x="0"
     inkscape:window-y="22"
     inkscape:window-maximized="0" />
  <metadata
     id="metadata7">
    <rdf:RDF>
      <cc:Work
         rdf:about="">
        <dc:format>image/svg+xml</dc:format>
        <dc:type
           rdf:resource="http://purl.org/dc/dcmitype/StillImage" />
        <dc:title />
      </cc:Work>
    </rdf:RDF>
  </metadata>
  <g
     inkscape:label="Layer 1"
     inkscape:groupmode="layer"
     id="layer1"
     transform="translate(0,-540.36218)">
    <g
       style="font-size:477.8666687px;font-style:normal;font-variant:normal;font-weight:normal;font-stretch:normal;line-height:125%;letter-spacing:0px;word-spacing:0px;fill:#000000;fill-opacity:1;stroke:none;font-family:FontAwesome;-inkscape-font-specification:FontAwesome"
       id="text2989" />
    <g
       style="font-size:366.53060913px;font-style:normal;font-variant:normal;font-weight:normal;font-stretch:normal;line-height:125%;letter-spacing:0px;word-spacing:0px;fill:#000000;fill-opacity:1;stroke:none;font-family:FontAwesome;-inkscape-font-specification:FontAwesome"
       id="text2993"
       transform="translate(-94.285714,368.57143)">
      <path
         id="path3961"
         style="fill:#000000;fill-opacity:1;stroke:#ffffff;stroke-width:0;stroke-linecap:butt;stroke-linejoin:miter;stroke-miterlimit:3.79999995;stroke-opacity:1;stroke-dasharray:none"
         d="m 350.28573,259.78125 c -56.01746,0 -101.4375,45.42004 -101.4375,101.4375 0,56.01746 45.42004,101.4375 101.4375,101.4375 56.01746,0 101.4375,-45.42004 101.4375,-101.4375 0,-56.01746 -45.42004,-101.4375 -101.4375,-101.4375 z m -54.75,78.40625 109.5,0 0,46.0625 -109.5,0 0,-46.0625 z M 572.1524,473.16221 c 0,4.53333 -4.00001,8.53334 -8.53334,8.53334 l -426.66666,0 c -4.53333,0 -8.53334,-4.00001 -8.53334,-8.53334 l 0,-221.86666 c 0,-4.53333 4.00001,-8.53334 8.53334,-8.53334 l 426.66666,0 c 4.53333,0 8.53334,4.00001 8.53334,8.53334 l 0,221.86666 m 34.13333,-221.86666 c 0,-23.46665 -19.20002,-42.66667 -42.66667,-42.66667 l -426.66666,0 c -23.46665,0 -42.666672,19.20002 -42.666672,42.66667 l 0,290.13333 c 0,23.46664 19.200022,42.66667 42.666672,42.66667 l 145.06666,0 c 0,23.19998 -17.06666,41.33334 -17.06666,51.2 0,9.33332 7.73334,17.06667 17.06666,17.06667 l 136.53334,0 c 9.33332,0 17.06666,-7.73335 17.06666,-17.06667 0,-9.33333 -17.06666,-28.53336 -17.06666,-51.2 l 145.06666,0 c 23.46665,0 42.66667,-19.20003 42.66667,-42.66667 l 0,-290.13333"
         inkscape:connector-curvature="0" />
    </g>
  </g>
</svg>
