<?xml version="1.0" encoding="UTF-8" standalone="no"?>
<!-- Created with Inkscape (http://www.inkscape.org/) -->

<svg
   xmlns:dc="http://purl.org/dc/elements/1.1/"
   xmlns:cc="http://creativecommons.org/ns#"
   xmlns:rdf="http://www.w3.org/1999/02/22-rdf-syntax-ns#"
   xmlns:svg="http://www.w3.org/2000/svg"
   xmlns="http://www.w3.org/2000/svg"
   xmlns:sodipodi="http://sodipodi.sourceforge.net/DTD/sodipodi-0.dtd"
   xmlns:inkscape="http://www.inkscape.org/namespaces/inkscape"
   width="500"
   height="500"
   id="svg2983"
   version="1.1"
   inkscape:version="0.48.2 r9819"
   sodipodi:docname="New document 1">
  <defs
     id="defs2985" />
  <sodipodi:namedview
     id="base"
     pagecolor="#ffffff"
     bordercolor="#666666"
     borderopacity="1.0"
     inkscape:pageopacity="0.0"
     inkscape:pageshadow="2"
     inkscape:zoom="0.7"
     inkscape:cx="411.47293"
     inkscape:cy="37.781127"
     inkscape:document-units="px"
     inkscape:current-layer="layer1"
     showgrid="false"
     inkscape:window-width="1041"
     inkscape:window-height="662"
     inkscape:window-x="43"
     inkscape:window-y="65"
     inkscape:window-maximized="0" />
  <metadata
     id="metadata2988">
    <rdf:RDF>
      <cc:Work
         rdf:about="">
        <dc:format>image/svg+xml</dc:format>
        <dc:type
           rdf:resource="http://purl.org/dc/dcmitype/StillImage" />
        <dc:title></dc:title>
      </cc:Work>
    </rdf:RDF>
  </metadata>
  <g
     inkscape:label="Layer 1"
     inkscape:groupmode="layer"
     id="layer1"
     transform="translate(0,-552.36218)">
    <path
       style="font-size:578.33331299px;font-style:normal;font-variant:normal;font-weight:normal;font-stretch:normal;line-height:125%;letter-spacing:0px;word-spacing:0px;fill:#000000;fill-opacity:1;stroke:none;font-family:FontAwesome;-inkscape-font-specification:FontAwesome"
       d="M 54.5625 2.28125 C 37.457793 2.28125 23.5625 16.17654 23.5625 33.28125 L 23.5625 467.03125 C 23.5625 484.13595 37.457793 498 54.5625 498 L 405.6875 498 C 422.79221 498 436.65625 484.13595 436.65625 467.03125 L 436.65625 429.65625 C 427.75349 411.05669 411.59589 402.43431 395.34375 398.25 L 395.34375 456.6875 L 64.875 456.6875 L 64.875 43.59375 L 230.125 43.59375 L 230.125 177.84375 C 230.125 194.94845 243.98904 208.84375 261.09375 208.84375 L 395.34375 208.84375 L 395.34375 267.1875 C 411.29291 268.83055 425.24576 272.27773 436.65625 277.34375 L 436.65625 177.84375 C 436.65625 160.73904 426.65977 136.87852 414.71875 124.9375 L 314.03125 24.21875 C 302.09022 12.27773 278.19846 2.28125 261.09375 2.28125 L 54.5625 2.28125 z M 271.4375 46.1875 C 276.92392 48.12389 282.39713 51.02214 284.65625 53.28125 L 385.6875 154.28125 C 387.94661 156.54036 390.84487 162.04483 392.78125 167.53125 L 271.4375 167.53125 L 271.4375 46.1875 z M 294.125 232.84375 C 291.42322 232.84375 288.87589 233.96786 286.96875 235.875 L 205.59375 317.25 C 203.68661 319.15714 202.5625 321.70447 202.5625 324.40625 C 202.5625 327.10803 203.68661 329.65536 205.59375 331.5625 L 286.96875 412.9375 C 288.87589 414.84464 291.42322 415.9375 294.125 415.9375 C 299.6875 415.9375 304.28125 411.34374 304.28125 405.78125 L 304.28125 365.09375 L 339.875 365.09375 C 408.37315 365.09375 453.375 378.28488 453.375 454.09375 C 453.375 460.60975 453.03929 467.1089 452.5625 473.625 C 452.40357 476.1679 451.78125 479.05095 451.78125 481.59375 C 451.78125 484.61345 453.66518 487.15625 456.84375 487.15625 C 459.06875 487.15625 460.2 486.0268 461.3125 484.4375 C 463.69643 481.1 465.43929 476.0303 467.1875 472.375 C 476.24642 452.0321 487.375 422.93748 487.375 400.6875 C 487.375 382.88752 485.6125 364.59642 478.9375 347.75 C 456.84645 292.9197 392.00352 283.71875 339.875 283.71875 L 304.28125 283.71875 L 304.28125 243.03125 C 304.28125 237.46875 299.6875 232.84375 294.125 232.84375 z "
       transform="translate(0,552.36218)"
       id="path3000" />
  </g>
</svg>
