<?xml version="1.0" encoding="UTF-8" standalone="no"?>
<!-- Created with Inkscape (http://www.inkscape.org/) -->

<svg
   xmlns:dc="http://purl.org/dc/elements/1.1/"
   xmlns:cc="http://creativecommons.org/ns#"
   xmlns:rdf="http://www.w3.org/1999/02/22-rdf-syntax-ns#"
   xmlns:svg="http://www.w3.org/2000/svg"
   xmlns="http://www.w3.org/2000/svg"
   xmlns:sodipodi="http://sodipodi.sourceforge.net/DTD/sodipodi-0.dtd"
   xmlns:inkscape="http://www.inkscape.org/namespaces/inkscape"
   width="512"
   height="512"
   id="svg2"
   version="1.1"
   inkscape:version="0.48.2 r9819"
   sodipodi:docname="BS-locked-system.svg"
   inkscape:export-filename="/Users/Cynthia/Documents/SUSE manager/new icons/Locked-system/BS-locked-system.png"
   inkscape:export-xdpi="90"
   inkscape:export-ydpi="90">
  <defs
     id="defs4" />
  <sodipodi:namedview
     id="base"
     pagecolor="#ffffff"
     bordercolor="#666666"
     borderopacity="1.0"
     inkscape:pageopacity="0.0"
     inkscape:pageshadow="2"
     inkscape:zoom="0.98994949"
     inkscape:cx="-1.2490985"
     inkscape:cy="291.42857"
     inkscape:document-units="px"
     inkscape:current-layer="text2989"
     showgrid="false"
     inkscape:window-width="1209"
     inkscape:window-height="652"
     inkscape:window-x="25"
     inkscape:window-y="22"
     inkscape:window-maximized="0" />
  <metadata
     id="metadata7">
    <rdf:RDF>
      <cc:Work
         rdf:about="">
        <dc:format>image/svg+xml</dc:format>
        <dc:type
           rdf:resource="http://purl.org/dc/dcmitype/StillImage" />
        <dc:title></dc:title>
      </cc:Work>
    </rdf:RDF>
  </metadata>
  <g
     inkscape:label="Layer 1"
     inkscape:groupmode="layer"
     id="layer1"
     transform="translate(0,-540.36217)">
    <g
       style="font-size:477.8666687px;font-style:normal;font-variant:normal;font-weight:normal;font-stretch:normal;line-height:125%;letter-spacing:0px;word-spacing:0px;fill:#000000;fill-opacity:1;stroke:none;font-family:FontAwesome;-inkscape-font-specification:FontAwesome"
       id="text2985" />
    <g
       style="font-size:83.60554504px;font-style:normal;font-variant:normal;font-weight:normal;font-stretch:normal;line-height:125%;letter-spacing:0px;word-spacing:0px;fill:#000000;fill-opacity:1;stroke:none;font-family:FontAwesome;-inkscape-font-specification:FontAwesome"
       id="text2989"
       transform="translate(577.14288,328.57143)">
      <g
         style="font-size:268.13122559px;fill:#000000;font-family:FontAwesome;-inkscape-font-specification:FontAwesome"
         id="text2986"
         transform="translate(12.231164,0)">
        <path
           id="path2991"
           d="m -371.67851,386.08259 0,-28.72835 c 0,-21.09735 17.20711,-38.30446 38.30446,-38.30446 21.09736,0 38.30447,17.20711 38.30447,38.30446 l 0,28.72835 -76.60893,0 m 124.4895,14.36417 c 0,-7.93021 -6.43396,-14.36417 -14.36417,-14.36417 l -4.78806,0 0,-28.72835 c 0,-36.80815 -30.22465,-67.0328 -67.03281,-67.0328 -36.80815,0 -67.0328,30.22465 -67.0328,67.0328 l 0,28.72835 -4.78806,0 c -7.93021,0 -14.36417,6.43396 -14.36417,14.36417 l 0,86.18504 c 0,7.93021 6.43396,14.36417 14.36417,14.36417 l 143.64173,0 c 7.93021,0 14.36417,-6.43396 14.36417,-14.36417 l 0,-86.18504 m 135.68163,108.90595 c 0,4.53332 -4,8.53333 -8.53333,8.53333 l -426.66667,0 c -4.53333,0 -8.53333,-4.00001 -8.53333,-8.53333 l 0,-221.86667 c 0,-4.53333 4,-8.53334 8.53333,-8.53334 l 426.66667,0 c 4.53333,0 8.53333,4.00001 8.53333,8.53334 l 0,221.86667 m 34.133335,-221.86667 c 0,-23.46665 -19.200024,-42.66667 -42.666665,-42.66667 l -426.66667,0 c -23.46664,0 -42.66666,19.20002 -42.66666,42.66667 l 0,290.13333 c 0,23.46665 19.20002,42.66667 42.66666,42.66667 l 145.06667,0 c 0,23.19998 -17.06667,41.33334 -17.06667,51.2 0,9.33332 7.73335,17.06667 17.06667,17.06667 l 136.53333,0 c 9.33333,0 17.06667,-7.73335 17.06667,-17.06667 0,-9.33332 -17.06667,-28.53336 -17.06667,-51.2 l 145.06667,0 c 23.466641,0 42.666665,-19.20002 42.666665,-42.66667 l 0,-290.13333" />
      </g>
    </g>
  </g>
</svg>
