<?xml version="1.0" encoding="UTF-8" standalone="no"?>
<!-- Created with Inkscape (http://www.inkscape.org/) -->

<svg
   xmlns:dc="http://purl.org/dc/elements/1.1/"
   xmlns:cc="http://creativecommons.org/ns#"
   xmlns:rdf="http://www.w3.org/1999/02/22-rdf-syntax-ns#"
   xmlns:svg="http://www.w3.org/2000/svg"
   xmlns="http://www.w3.org/2000/svg"
   xmlns:sodipodi="http://sodipodi.sourceforge.net/DTD/sodipodi-0.dtd"
   xmlns:inkscape="http://www.inkscape.org/namespaces/inkscape"
   width="512"
   height="512"
   id="svg37135"
   version="1.1"
   inkscape:version="0.48.2 r9819"
   sodipodi:docname="BS-manage-entitlements-subscriptions.svg"
   inkscape:export-filename="/Users/Cynthia/Documents/SUSE manager/new icons/manage-entitlements-subscriptions/BS-manage-entitlements-subscriptions.png"
   inkscape:export-xdpi="90"
   inkscape:export-ydpi="90">
  <defs
     id="defs37137" />
  <sodipodi:namedview
     id="base"
     pagecolor="#ffffff"
     bordercolor="#666666"
     borderopacity="1.0"
     inkscape:pageopacity="0.0"
     inkscape:pageshadow="2"
     inkscape:zoom="0.35"
     inkscape:cx="375"
     inkscape:cy="520"
     inkscape:document-units="px"
     inkscape:current-layer="layer1"
     showgrid="false"
     inkscape:window-width="780"
     inkscape:window-height="618"
     inkscape:window-x="207"
     inkscape:window-y="73"
     inkscape:window-maximized="0" />
  <metadata
     id="metadata37140">
    <rdf:RDF>
      <cc:Work
         rdf:about="">
        <dc:format>image/svg+xml</dc:format>
        <dc:type
           rdf:resource="http://purl.org/dc/dcmitype/StillImage" />
        <dc:title></dc:title>
      </cc:Work>
    </rdf:RDF>
  </metadata>
  <g
     inkscape:label="Layer 1"
     inkscape:groupmode="layer"
     id="layer1"
     transform="translate(0,-540.36218)">
    <path
       d="m 302.05071,614.77988 -94.57015,0 0,-44.06009 94.57015,0 0,44.06009 z m 161.77463,114.10501 -143.08933,0 0,-34.21292 143.08933,0 0,34.21292 z m 0,47.80254 -143.08933,0 0,-17.11973 143.08933,0 0,17.11973 z m 0,35.56658 -143.08933,0 0,-17.14628 143.08933,0 0,17.14628 z m 0,164.90689 -143.08933,0 0,-25.7194 143.08933,0 0,25.7194 z M 276.11896,957.75853 c 0,11.62537 -9.52909,21.15417 -21.12803,21.15417 l -190.679131,0 c -11.598947,0 -21.101277,-9.5288 -21.101277,-21.15417 l 0,-249.33769 c 0,-11.6255 9.50233,-21.10106 21.101277,-21.10106 l 190.679131,0 c 11.59894,0 21.12803,9.47556 21.12803,21.10106 l 0,249.33769 z m 44.61705,-127.56198 95.36642,0 0,17.06665 -95.36642,0 0,-17.06665 z m 132.87057,-189.32566 -397.761756,0 C 25.002765,640.87089 0,665.84711 0,696.68917 l 0,269.77514 c 0,30.89519 25.002765,55.89789 55.844824,55.89789 l 397.761756,0 c 30.84185,0 55.84463,-25.0027 55.84463,-55.89789 l 0,-269.77514 c 0,-30.84206 -25.00278,-55.81828 -55.84463,-55.81828 m -294.0615,207.34783 c -18.15466,0 -34.66371,-6.58248 -47.90849,-17.14628 -16.827556,13.88158 -27.81605,34.69069 -27.81605,58.20709 l 0,70.8146 151.50261,0 0,-70.8146 c 0,-23.5164 -10.98828,-44.32551 -27.86892,-58.20709 -13.21845,10.5638 -29.70075,17.14628 -47.90915,17.14628 m 0,-18.39376 c 32.51446,0 58.9503,-26.38297 58.9503,-58.89719 0,-32.48768 -26.43584,-58.92373 -58.9503,-58.92373 -32.48724,0 -58.92373,26.43605 -58.92373,58.92373 0,32.51422 26.43605,58.89719 58.92373,58.89719"
       style="fill:#000000;fill-opacity:1;fill-rule:nonzero;stroke:none"
       id="path28422"
       inkscape:connector-curvature="0" />
  </g>
</svg>
