<?xml version="1.0" encoding="UTF-8" standalone="no"?>
<!-- Created with Inkscape (http://www.inkscape.org/) -->

<svg
   xmlns:dc="http://purl.org/dc/elements/1.1/"
   xmlns:cc="http://creativecommons.org/ns#"
   xmlns:rdf="http://www.w3.org/1999/02/22-rdf-syntax-ns#"
   xmlns:svg="http://www.w3.org/2000/svg"
   xmlns="http://www.w3.org/2000/svg"
   xmlns:sodipodi="http://sodipodi.sourceforge.net/DTD/sodipodi-0.dtd"
   xmlns:inkscape="http://www.inkscape.org/namespaces/inkscape"
   width="512"
   height="512"
   id="svg3305"
   version="1.1"
   inkscape:version="0.48.2 r9819"
   sodipodi:docname="BS-manage-autoinstallations.svg"
   inkscape:export-filename="/Users/Cynthia/Documents/SUSE manager/new icons/manage-autoinstallations/BS-manage-autoinstallations.png"
   inkscape:export-xdpi="90"
   inkscape:export-ydpi="90">
  <defs
     id="defs3307" />
  <sodipodi:namedview
     id="base"
     pagecolor="#ffffff"
     bordercolor="#666666"
     borderopacity="1.0"
     inkscape:pageopacity="0.0"
     inkscape:pageshadow="2"
     inkscape:zoom="0.49497475"
     inkscape:cx="182.82436"
     inkscape:cy="263.92424"
     inkscape:document-units="px"
     inkscape:current-layer="layer1"
     showgrid="false"
     inkscape:window-width="964"
     inkscape:window-height="669"
     inkscape:window-x="76"
     inkscape:window-y="42"
     inkscape:window-maximized="0" />
  <metadata
     id="metadata3310">
    <rdf:RDF>
      <cc:Work
         rdf:about="">
        <dc:format>image/svg+xml</dc:format>
        <dc:type
           rdf:resource="http://purl.org/dc/dcmitype/StillImage" />
        <dc:title />
      </cc:Work>
    </rdf:RDF>
  </metadata>
  <g
     inkscape:label="Layer 1"
     inkscape:groupmode="layer"
     id="layer1"
     transform="translate(0,-540.36218)">
    <path
       style="fill:#1a1a1a;fill-opacity:1;stroke:#ffffff;stroke-width:0;stroke-linecap:butt;stroke-linejoin:miter;stroke-miterlimit:3.79999995;stroke-opacity:1;stroke-dasharray:none"
       d="M 255 0.5625 C 114.16739 0.5625 0 114.72989 0 255.5625 C 0 266.89907 0.75359363 278.05464 2.1875 289 C 3.2841128 286.73394 4.4139166 284.99552 5.125 284 L 5.1875 283.90625 L 5.25 283.8125 C 10.10858 277.13195 16.091786 270.86685 24.03125 263 C 28.000982 259.06658 32.076016 255.24037 36.375 251.8125 C 38.524492 250.09856 40.666811 248.49249 43.5625 246.8125 C 46.458189 245.13251 49.373539 242.375 58.9375 242.375 C 67.814881 242.375 73.958915 245.84419 78.25 249.0625 L 78.40625 249.15625 L 78.5625 249.28125 L 82.4375 252.28125 C 83.047726 249.03041 83.766319 245.72326 84.65625 242.34375 C 84.66185 242.32135 84.6818 242.30365 84.6875 242.28125 C 84.71533 242.17581 84.72186 242.0743 84.75 241.96875 L 84.78125 241.96875 C 88.211172 229.03509 100.90951 218.78125 114.875 218.78125 L 153.6875 218.78125 C 156.38811 218.78125 159.03731 219.13427 161.59375 219.78125 C 175.9916 182.23108 212.38367 155.5625 255 155.5625 C 310.22848 155.5625 355 200.33402 355 255.5625 C 355 297.85711 328.7276 334.0072 291.625 348.625 C 292.66925 351.8168 293.21875 355.1906 293.21875 358.65625 L 293.21875 397.46875 C 293.21875 405.35348 290.75408 410.9523 286.96875 416.0625 C 283.18342 421.1727 277.29733 426.26652 268.21875 427.96875 L 267.78125 428.0625 L 267.375 428.125 L 259.28125 429.34375 C 260.18752 430.45312 261.00482 431.52154 261.9375 432.65625 C 262.04471 432.78669 262.14243 432.90043 262.25 433.03125 L 262.21875 433.0625 C 266.38703 438.04992 269.625 444.40133 269.625 453.0625 C 269.625 459.51575 266.40292 467.19695 263.03125 471.78125 L 263.125 471.875 C 262.86273 472.2247 262.46027 472.61575 262.1875 472.96875 C 262.1535 473.01275 262.12795 473.081 262.09375 473.125 C 257.65899 478.8434 251.96637 484.9538 244.5625 492.3125 C 240.60319 496.2477 236.54249 500.0585 232.25 503.5 C 230.10376 505.2208 227.95867 506.8717 225.0625 508.5625 C 224.96466 508.61962 224.84807 508.69055 224.75 508.75 C 234.67517 509.92371 244.75919 510.5625 255 510.5625 C 395.83261 510.5625 510 396.39511 510 255.5625 C 510 114.72989 395.83261 0.5625 255 0.5625 z M 255 179.84375 C 219.83283 179.84375 190.2643 203.81411 181.75 236.3125 C 182.9606 238.94296 183.83048 241.82147 184.28125 244.9375 L 184.34375 244.9375 L 184.46875 245.78125 L 185.53125 252.75 L 190.625 248.90625 L 190.6875 249 C 196.84901 244.05061 203.49449 242.375 209.65625 242.375 C 210.18978 242.375 210.70228 242.4137 211.21875 242.4375 C 216.86142 223.58811 234.31612 209.84375 255 209.84375 C 280.2473 209.84375 300.71875 230.3152 300.71875 255.5625 C 300.71875 276.07593 287.2037 293.42969 268.59375 299.21875 C 268.70199 300.30888 268.75 301.35449 268.75 302.34375 C 268.75 309.3952 265.43134 316.93363 262.75 320.6875 L 262.625 320.84375 L 262.53125 321 C 260.98752 323.08858 259.76319 324.63265 258.25 326.59375 L 267.21875 327.96875 L 267.5 328.03125 L 267.78125 328.0625 C 269.39848 328.34789 270.95288 328.75515 272.4375 329.25 C 305.84707 321.37295 330.71875 291.37622 330.71875 255.5625 C 330.71875 213.74665 296.81585 179.84375 255 179.84375 z M 114.875 243.4375 C 111.72768 243.4375 109.29315 245.51488 108.59375 248.3125 C 105.79613 258.80356 104.72396 270.17784 103.5 280.84375 C 98.079618 282.59226 92.66443 284.87723 87.59375 287.5 L 63.46875 268.78125 C 62.069942 267.73214 60.511159 267.03125 58.9375 267.03125 C 52.992565 267.03125 29.383925 292.57367 25.1875 298.34375 C 24.313245 299.56771 23.59375 300.77009 23.59375 302.34375 C 23.59375 303.91741 24.294644 305.33854 25.34375 306.5625 C 31.813238 314.4308 38.117565 322.29465 44.0625 330.6875 C 41.264884 335.93303 38.99851 341.15477 37.25 346.75 L 4.71875 351.65625 C 2.0959847 352.1808 0 355.34598 0 357.96875 L 0 396.78125 C 0 399.75372 2.0900326 402.53795 5.0625 403.0625 L 37.0625 407.78125 C 38.81101 413.72618 41.277533 419.49852 44.25 425.09375 C 38.305065 433.31175 31.819935 441.01935 25.875 449.0625 C 25.000745 450.28646 24.46875 451.48884 24.46875 453.0625 C 24.46875 454.46131 24.844495 455.86979 25.71875 457.09375 C 33.062493 467.23511 45.295396 478.0759 54.5625 486.46875 C 55.786457 487.69271 57.363841 488.40625 58.9375 488.40625 C 60.511159 488.40625 62.057293 487.86161 63.28125 486.8125 L 87.9375 468.125 C 93.00818 470.74777 98.267118 472.84524 103.6875 474.59375 L 108.59375 506.75 C 108.94345 509.72247 111.72768 512 114.875 512 L 153.6875 512 C 156.83482 512 159.3006 509.89137 160 507.09375 C 162.79762 496.60269 163.83854 485.25966 165.0625 474.59375 C 170.48288 472.84524 175.89807 470.56027 180.96875 467.9375 L 205.09375 486.8125 C 206.49256 487.68676 208.08259 488.40625 209.65625 488.40625 C 215.60118 488.40625 239.20983 462.68898 243.40625 457.09375 C 244.45536 455.86979 244.96875 454.63616 244.96875 453.0625 C 244.96875 451.48884 244.26786 449.94271 243.21875 448.71875 C 236.74926 440.85045 230.44493 433.1302 224.5 424.5625 C 227.29762 419.49182 229.42039 414.25148 231.34375 408.65625 L 263.6875 403.78125 C 266.48512 403.2567 268.5625 400.09152 268.5625 397.46875 L 268.5625 358.65625 C 268.5625 355.68378 266.47247 352.89955 263.5 352.375 L 231.5 347.46875 C 229.75149 341.69867 227.31622 335.93898 224.34375 330.34375 C 230.28868 322.12575 236.74257 314.41815 242.6875 306.375 C 243.56176 305.15104 244.09375 303.91741 244.09375 302.34375 C 244.09375 300.94494 243.74926 299.54911 242.875 298.5 C 235.53126 288.18379 223.29835 277.34895 214.03125 268.78125 C 212.80729 267.73214 211.22991 267.03125 209.65625 267.03125 C 208.08259 267.03125 206.48661 267.54464 205.4375 268.59375 L 180.625 287.3125 C 175.55432 284.68973 170.29538 282.59226 164.875 280.84375 L 160 248.6875 C 159.6503 245.71503 156.83482 243.4375 153.6875 243.4375 L 114.875 243.4375 z M 134.28125 332.9375 C 158.93524 332.9375 179.0625 353.06476 179.0625 377.71875 C 179.0625 402.37274 158.93524 422.46875 134.28125 422.46875 C 109.62726 422.46875 89.53125 402.37274 89.53125 377.71875 C 89.53125 353.06476 109.62726 332.9375 134.28125 332.9375 z M 134.28125 357.59375 C 123.03036 357.59375 114.1875 366.43661 114.1875 377.6875 C 114.1875 388.93839 123.03036 397.8125 134.28125 397.8125 C 145.53214 397.8125 154.40625 388.93839 154.40625 377.6875 C 154.40625 366.43661 145.53214 357.59375 134.28125 357.59375 z "
       id="path3320"
       transform="translate(0,540.36218)" />
  </g>
</svg>
