<?xml version="1.0" encoding="UTF-8" standalone="no"?>
<!-- Created with Inkscape (http://www.inkscape.org/) -->

<svg
   xmlns:dc="http://purl.org/dc/elements/1.1/"
   xmlns:cc="http://creativecommons.org/ns#"
   xmlns:rdf="http://www.w3.org/1999/02/22-rdf-syntax-ns#"
   xmlns:svg="http://www.w3.org/2000/svg"
   xmlns="http://www.w3.org/2000/svg"
   xmlns:sodipodi="http://sodipodi.sourceforge.net/DTD/sodipodi-0.dtd"
   xmlns:inkscape="http://www.inkscape.org/namespaces/inkscape"
   width="512"
   height="512"
   id="svg2984"
   version="1.1"
   inkscape:version="0.48.2 r9819"
   sodipodi:docname="BS-manage-software-packages.svg">
  <defs
     id="defs2986" />
  <sodipodi:namedview
     id="base"
     pagecolor="#ffffff"
     bordercolor="#666666"
     borderopacity="1.0"
     inkscape:pageopacity="0.0"
     inkscape:pageshadow="2"
     inkscape:zoom="0.35"
     inkscape:cx="359.28571"
     inkscape:cy="371.42857"
     inkscape:document-units="px"
     inkscape:current-layer="layer1"
     showgrid="false"
     showguides="true"
     inkscape:guide-bbox="true"
     inkscape:window-width="880"
     inkscape:window-height="677"
     inkscape:window-x="247"
     inkscape:window-y="67"
     inkscape:window-maximized="0" />
  <metadata
     id="metadata2989">
    <rdf:RDF>
      <cc:Work
         rdf:about="">
        <dc:format>image/svg+xml</dc:format>
        <dc:type
           rdf:resource="http://purl.org/dc/dcmitype/StillImage" />
        <dc:title></dc:title>
      </cc:Work>
    </rdf:RDF>
  </metadata>
  <g
     inkscape:label="Layer 1"
     inkscape:groupmode="layer"
     id="layer1"
     transform="translate(0,-540.36218)">
    <path
       style="fill:#000000;fill-opacity:1;stroke:#ffffff;stroke-width:0;stroke-linecap:butt;stroke-linejoin:miter;stroke-miterlimit:3.79999995;stroke-opacity:1"
       d="M 164.84375,604.04973 0,668.73723 l 76.09375,56.875 164.84375,-64.6875 -76.09375,-56.875 z m 178.59375,0 -76.09375,56.875 164.7813,64.6875 76.0937,-56.875 -164.78125,-64.6875 z m -87.53125,64.6875 0,0.0937 -164.59375,64.59375 -0.5,8.09375 c 0.4413,59.38298 0.5,118.77219 0.5,178.15625 l 164.59375,64.62502 0,0.062 0.125,-0.062 0.125,0.062 0,-0.062 164.5625,-64.62502 c -0.547,-59.55328 0.754,-119.08432 1.75,-178.625 l -0.125,-7.09375 -166.1875,-65.125 0,-0.0937 -0.125,0.0937 -0.125,-0.0937 z m -16.25,55.75 28.90625,0 c 2.34375,0 4.42709,1.69271 4.6875,3.90625 l 3.65625,23.96875 c 4.03645,1.30208 7.94271,2.85937 11.71875,4.8125 l 18.5,-13.9375 c 0.78125,-0.78125 1.95313,-1.15625 3.125,-1.15625 1.17188,0 2.33854,0.5 3.25,1.28125 6.90104,6.3802 16,14.47396 21.46875,22.15625 0.65104,0.78125 0.9375,1.80209 0.9375,2.84375 0,1.17188 -0.41146,2.08854 -1.0625,3 -4.42708,5.98957 -9.22917,11.72396 -13.65625,17.84375 2.21354,4.16666 4.04166,8.45313 5.34375,12.75 l 23.8125,3.65625 c 2.21354,0.39063 3.78125,2.47396 3.78125,4.6875 l 0,28.90625 c 0,1.95313 -1.57292,4.29688 -3.65625,4.6875 l -24.09375,3.65625 c -1.43229,4.16666 -2.97917,8.06771 -5.0625,11.84375 4.42708,6.3802 9.11979,12.10938 13.9375,17.96875 0.78125,0.91146 1.28125,2.07812 1.28125,3.25 0,1.17187 -0.375,2.08854 -1.15625,3 -3.12499,4.16666 -20.69792,23.3125 -25.125,23.3125 -1.17187,0 -2.36459,-0.53646 -3.40625,-1.1875 L 288.875,891.67473 c -3.77603,1.95312 -7.80729,3.63541 -11.84375,4.9375 -0.91145,7.9427 -1.69792,16.40626 -3.78125,24.21875 -0.52083,2.08333 -2.34375,3.65625 -4.6875,3.65625 l -28.90625,0 c -2.34375,0 -4.42709,-1.69271 -4.6875,-3.90625 l -3.625,-23.96875 c -4.03645,-1.30209 -7.94271,-2.85938 -11.71875,-4.8125 l -18.375,13.9375 c -0.91146,0.78125 -2.07813,1.1875 -3.25,1.1875 -1.17188,0 -2.33854,-0.52604 -3.25,-1.4375 -6.90104,-6.24999 -16.03125,-14.32292 -21.5,-21.875 -0.65104,-0.91146 -0.90625,-1.95834 -0.90625,-3 0,-1.17188 0.41146,-2.08855 1.0625,-3 4.42708,-5.98958 9.22917,-11.72396 13.65625,-17.84375 -2.21354,-4.16666 -4.04166,-8.44792 -5.34375,-12.875 l -23.8125,-3.53125 c -2.21354,-0.39062 -3.78125,-2.47396 -3.78125,-4.6875 l 0,-28.90625 c 0,-1.95313 1.54688,-4.29688 3.5,-4.6875 l 24.21875,-3.625 c 1.30208,-4.16666 3.01042,-8.09376 5.09375,-12 -4.42708,-6.25 -9.11979,-12.10938 -13.9375,-17.96875 -0.78124,-0.91145 -1.3125,-1.95312 -1.3125,-3.125 0,-1.17187 0.53646,-2.08854 1.1875,-3 3.12499,-4.29687 20.69792,-23.28125 25.125,-23.28125 1.17187,0 2.33334,0.5 3.375,1.28125 l 17.96875,13.9375 c 3.77603,-1.95312 7.83854,-3.63542 11.875,-4.9375 0.91145,-7.9427 1.66667,-16.40625 3.75,-24.21875 0.52083,-2.08333 2.34375,-3.65625 4.6875,-3.65625 z m 14.46875,66.65625 c -18.35936,0 -33.34375,14.98439 -33.34375,33.34375 0,18.35936 14.98439,33.34375 33.34375,33.34375 18.35935,0 33.34375,-14.98439 33.34375,-33.34375 0,-18.35936 -14.9844,-33.34375 -33.34375,-33.34375 z"
       id="path3011-2"
       inkscape:connector-curvature="0"
       inkscape:export-xdpi="90"
       inkscape:export-ydpi="90" />
  </g>
</svg>
