<?xml version="1.0" encoding="UTF-8" standalone="no"?>
<!-- Created with Inkscape (http://www.inkscape.org/) -->

<svg
   xmlns:dc="http://purl.org/dc/elements/1.1/"
   xmlns:cc="http://creativecommons.org/ns#"
   xmlns:rdf="http://www.w3.org/1999/02/22-rdf-syntax-ns#"
   xmlns:svg="http://www.w3.org/2000/svg"
   xmlns="http://www.w3.org/2000/svg"
   xmlns:sodipodi="http://sodipodi.sourceforge.net/DTD/sodipodi-0.dtd"
   xmlns:inkscape="http://www.inkscape.org/namespaces/inkscape"
   width="512"
   height="512"
   id="svg3305"
   version="1.1"
   inkscape:version="0.48.2 r9819"
   sodipodi:docname="BS-manage-configuration-files.svg"
   inkscape:export-filename="/Users/Cynthia/Documents/SUSE manager/new icons/manage-configuration-files/BS-manage-configuration-files.png"
   inkscape:export-xdpi="90"
   inkscape:export-ydpi="90">
  <defs
     id="defs3307" />
  <sodipodi:namedview
     id="base"
     pagecolor="#ffffff"
     bordercolor="#666666"
     borderopacity="1.0"
     inkscape:pageopacity="0.0"
     inkscape:pageshadow="2"
     inkscape:zoom="0.7"
     inkscape:cx="132.82436"
     inkscape:cy="263.92424"
     inkscape:document-units="px"
     inkscape:current-layer="layer1"
     showgrid="false"
     inkscape:window-width="964"
     inkscape:window-height="669"
     inkscape:window-x="76"
     inkscape:window-y="42"
     inkscape:window-maximized="0" />
  <metadata
     id="metadata3310">
    <rdf:RDF>
      <cc:Work
         rdf:about="">
        <dc:format>image/svg+xml</dc:format>
        <dc:type
           rdf:resource="http://purl.org/dc/dcmitype/StillImage" />
        <dc:title />
      </cc:Work>
    </rdf:RDF>
  </metadata>
  <g
     inkscape:label="Layer 1"
     inkscape:groupmode="layer"
     id="layer1"
     transform="translate(0,-540.36218)">
    <path
       style="font-size:566.66668701px;font-style:normal;font-variant:normal;font-weight:normal;font-stretch:normal;line-height:125%;letter-spacing:0px;word-spacing:0px;fill:#000000;fill-opacity:1;stroke:none;font-family:FontAwesome;-inkscape-font-specification:FontAwesome"
       d="M 136.84375 4.28125 C 120.0841 4.28125 106.46875 17.89659 106.46875 34.65625 L 106.46875 219.65625 C 109.17076 218.8581 111.99659 218.40625 114.875 218.40625 L 146.9375 218.40625 L 146.9375 44.75 L 308.84375 44.75 L 308.84375 176.3125 C 308.84375 193.07216 322.4591 206.65625 339.21875 206.65625 L 470.75 206.65625 L 470.75 449.53125 L 269.75 449.53125 C 269.87286 450.67293 269.96875 451.83187 269.96875 453.0625 C 269.96875 459.59664 266.6939 467.3694 263.28125 472 L 263.40625 472.09375 C 263.1429 472.44485 262.74223 472.8335 262.46875 473.1875 C 262.43465 473.2317 262.4092 473.29975 262.375 473.34375 C 258.45568 478.39877 253.52512 483.78706 247.375 490 L 480.875 490 C 497.63465 490 511.25 476.41595 511.25 459.65625 L 511.25 176.3125 C 511.25 159.55284 501.45014 136.13764 489.75 124.4375 L 391.0625 25.78125 C 379.36236 14.08111 355.97841 4.28125 339.21875 4.28125 L 136.84375 4.28125 z M 349.34375 47.28125 C 354.71949 49.17857 360.09896 52.03646 362.3125 54.25 L 461.28125 153.21875 C 463.49479 155.43229 466.32143 160.81176 468.21875 166.1875 L 349.34375 166.1875 L 349.34375 47.28125 z M 114.875 243.4375 C 111.72768 243.4375 109.29315 245.51488 108.59375 248.3125 C 105.79613 258.80356 104.72396 270.17784 103.5 280.84375 C 98.079618 282.59226 92.66443 284.87723 87.59375 287.5 L 63.46875 268.78125 C 62.069942 267.73214 60.511159 267.03125 58.9375 267.03125 C 52.992565 267.03125 29.383925 292.57367 25.1875 298.34375 C 24.313245 299.56771 23.59375 300.77009 23.59375 302.34375 C 23.59375 303.91741 24.294644 305.33854 25.34375 306.5625 C 31.813238 314.4308 38.117565 322.29465 44.0625 330.6875 C 41.264884 335.93303 38.99851 341.15477 37.25 346.75 L 4.71875 351.65625 C 2.0959847 352.1808 0 355.34598 0 357.96875 L 0 396.78125 C 0 399.75372 2.0900326 402.53795 5.0625 403.0625 L 37.0625 407.78125 C 38.81101 413.72618 41.277533 419.49852 44.25 425.09375 C 38.305065 433.31175 31.819935 441.01935 25.875 449.0625 C 25.000745 450.28646 24.46875 451.48884 24.46875 453.0625 C 24.46875 454.46131 24.844495 455.86979 25.71875 457.09375 C 33.062493 467.23511 45.295396 478.0759 54.5625 486.46875 C 55.786457 487.69271 57.363841 488.40625 58.9375 488.40625 C 60.511159 488.40625 62.057293 487.86161 63.28125 486.8125 L 87.9375 468.125 C 93.00818 470.74777 98.267118 472.84524 103.6875 474.59375 L 108.59375 506.75 C 108.94345 509.72247 111.72768 512 114.875 512 L 153.6875 512 C 156.83482 512 159.3006 509.89137 160 507.09375 C 162.79762 496.60269 163.83854 485.25966 165.0625 474.59375 C 170.48288 472.84524 175.89807 470.56027 180.96875 467.9375 L 205.09375 486.8125 C 206.49256 487.68676 208.08259 488.40625 209.65625 488.40625 C 215.60118 488.40625 239.20983 462.68898 243.40625 457.09375 C 244.45536 455.86979 244.96875 454.63616 244.96875 453.0625 C 244.96875 451.48884 244.26786 449.94271 243.21875 448.71875 C 236.74926 440.85045 230.44493 433.1302 224.5 424.5625 C 227.29762 419.49182 229.42039 414.25148 231.34375 408.65625 L 263.6875 403.78125 C 266.48512 403.2567 268.5625 400.09152 268.5625 397.46875 L 268.5625 358.65625 C 268.5625 355.68378 266.47247 352.89955 263.5 352.375 L 231.5 347.46875 C 229.75149 341.69867 227.31622 335.93898 224.34375 330.34375 C 230.28868 322.12575 236.74257 314.41815 242.6875 306.375 C 243.56176 305.15104 244.09375 303.91741 244.09375 302.34375 C 244.09375 300.94494 243.74926 299.54911 242.875 298.5 C 235.53126 288.18379 223.29835 277.34895 214.03125 268.78125 C 212.80729 267.73214 211.22991 267.03125 209.65625 267.03125 C 208.08259 267.03125 206.48661 267.54464 205.4375 268.59375 L 180.625 287.3125 C 175.55432 284.68973 170.29538 282.59226 164.875 280.84375 L 160 248.6875 C 159.6503 245.71503 156.83482 243.4375 153.6875 243.4375 L 114.875 243.4375 z M 226.78125 247.15625 C 228.02046 247.98017 229.18616 248.8426 230.28125 249.78125 L 230.65625 250.09375 L 231 250.40625 C 239.59941 258.35665 252.07732 268.98698 262.0625 282.5 C 262.0849 282.5303 262.1026 282.56345 262.125 282.59375 C 262.48469 283.08155 262.89726 283.50448 263.25 284 L 263.125 284.09375 C 263.97971 285.2627 264.73462 286.45254 265.375 287.625 L 420.15625 287.625 C 425.84821 287.625 430.28125 283.19196 430.28125 277.5 L 430.28125 257.25 C 430.28125 251.55805 425.84821 247.15625 420.15625 247.15625 L 226.78125 247.15625 z M 269.5625 328.09375 C 284.50262 331.54362 293.5625 344.45988 293.5625 358.65625 L 293.5625 368.5625 L 420.15625 368.5625 C 425.84821 368.5625 430.28125 364.12946 430.28125 358.4375 L 430.28125 338.21875 C 430.28125 332.52679 425.84821 328.09375 420.15625 328.09375 L 269.5625 328.09375 z M 134.28125 332.9375 C 158.93524 332.9375 179.0625 353.06476 179.0625 377.71875 C 179.0625 402.37274 158.93524 422.46875 134.28125 422.46875 C 109.62726 422.46875 89.53125 402.37274 89.53125 377.71875 C 89.53125 353.06476 109.62726 332.9375 134.28125 332.9375 z "
       transform="translate(0,540.36218)"
       id="path2990" />
  </g>
</svg>
