<?xml version="1.0" encoding="UTF-8" standalone="no"?>
<!-- Created with Inkscape (http://www.inkscape.org/) -->

<svg
   xmlns:dc="http://purl.org/dc/elements/1.1/"
   xmlns:cc="http://creativecommons.org/ns#"
   xmlns:rdf="http://www.w3.org/1999/02/22-rdf-syntax-ns#"
   xmlns:svg="http://www.w3.org/2000/svg"
   xmlns="http://www.w3.org/2000/svg"
   xmlns:sodipodi="http://sodipodi.sourceforge.net/DTD/sodipodi-0.dtd"
   xmlns:inkscape="http://www.inkscape.org/namespaces/inkscape"
   width="512"
   height="512"
   id="svg2"
   version="1.1"
   inkscape:version="0.48.2 r9819"
   sodipodi:docname="BS-monitoring-status.svg"
   inkscape:export-filename="/Users/Cynthia/Documents/SUSE manager/new icons/Locked-system/BS-locked-system.png"
   inkscape:export-xdpi="90"
   inkscape:export-ydpi="90">
  <defs
     id="defs4" />
  <sodipodi:namedview
     id="base"
     pagecolor="#ffffff"
     bordercolor="#666666"
     borderopacity="1.0"
     inkscape:pageopacity="0.0"
     inkscape:pageshadow="2"
     inkscape:zoom="0.7"
     inkscape:cx="194.74548"
     inkscape:cy="291.42857"
     inkscape:document-units="px"
     inkscape:current-layer="text2986"
     showgrid="false"
     inkscape:window-width="1209"
     inkscape:window-height="652"
     inkscape:window-x="25"
     inkscape:window-y="22"
     inkscape:window-maximized="0"
     showguides="true"
     inkscape:guide-bbox="true" />
  <metadata
     id="metadata7">
    <rdf:RDF>
      <cc:Work
         rdf:about="">
        <dc:format>image/svg+xml</dc:format>
        <dc:type
           rdf:resource="http://purl.org/dc/dcmitype/StillImage" />
        <dc:title></dc:title>
      </cc:Work>
    </rdf:RDF>
  </metadata>
  <g
     inkscape:label="Layer 1"
     inkscape:groupmode="layer"
     id="layer1"
     transform="translate(0,-540.36217)">
    <g
       style="font-size:477.8666687px;font-style:normal;font-variant:normal;font-weight:normal;font-stretch:normal;line-height:125%;letter-spacing:0px;word-spacing:0px;fill:#000000;fill-opacity:1;stroke:none;font-family:FontAwesome;-inkscape-font-specification:FontAwesome"
       id="text2985" />
    <g
       style="font-size:83.60554504px;font-style:normal;font-variant:normal;font-weight:normal;font-stretch:normal;line-height:125%;letter-spacing:0px;word-spacing:0px;fill:#000000;fill-opacity:1;stroke:none;font-family:FontAwesome;-inkscape-font-specification:FontAwesome"
       id="text2989"
       transform="translate(577.14288,328.57143)">
      <g
         style="font-size:268.13122559px;fill:#000000;font-family:FontAwesome;-inkscape-font-specification:FontAwesome"
         id="text2986"
         transform="translate(12.231164,0)">
        <path
           d="M 42.65625 33.03125 C 19.18961 33.03125 0 52.22085 0 75.6875 L 0 365.84375 C 0 389.3104 19.18961 408.5 42.65625 408.5 L 187.71875 408.5 C 187.71875 431.69998 170.65625 449.82084 170.65625 459.6875 C 170.65625 469.02082 178.38543 476.75 187.71875 476.75 L 324.28125 476.75 C 333.61458 476.75 341.34375 469.02082 341.34375 459.6875 C 341.34375 450.35418 324.28125 431.16664 324.28125 408.5 L 469.34375 408.5 C 492.81039 408.5 512 389.3104 512 365.84375 L 512 75.6875 C 512 52.22085 492.81039 33.03125 469.34375 33.03125 L 42.65625 33.03125 z M 42.65625 67.15625 L 469.34375 67.15625 C 473.87708 67.15625 477.875 71.15417 477.875 75.6875 L 477.875 297.5625 C 477.875 302.09582 473.87708 306.09375 469.34375 306.09375 L 42.65625 306.09375 C 38.12292 306.09375 34.125 302.09582 34.125 297.5625 L 34.125 75.6875 C 34.125 71.15417 38.12292 67.15625 42.65625 67.15625 z M 190.5 80.75 L 100.34375 246.1875 L 45.4375 246.1875 L 45.4375 284.8125 L 118.75 284.8125 L 118.75 284.5 L 119.21875 284.96875 L 189.34375 153.125 L 262.15625 285.59375 L 262.15625 285.78125 L 262.25 285.78125 L 262.40625 286.0625 L 262.6875 285.78125 L 318.75 285.78125 L 318.75 284.375 L 356.78125 205.84375 L 395.15625 285.09375 L 395.53125 284.8125 L 468.5625 284.8125 L 468.5625 246.1875 L 412.53125 246.1875 L 357.1875 140.6875 L 356.875 139.65625 L 356.78125 139.875 L 356.65625 139.65625 L 356.34375 140.6875 L 300.53125 247.15625 L 281.1875 247.15625 L 191.09375 81.84375 L 191.0625 81.90625 L 190.5 80.75 z "
           transform="translate(-589.37404,211.79074)"
           id="path2991"
           inkscape:export-xdpi="90"
           inkscape:export-ydpi="90" />
      </g>
    </g>
  </g>
</svg>
