<?xml version="1.0" encoding="UTF-8" standalone="no"?>
<!-- Created with Inkscape (http://www.inkscape.org/) -->

<svg
   xmlns:dc="http://purl.org/dc/elements/1.1/"
   xmlns:cc="http://creativecommons.org/ns#"
   xmlns:rdf="http://www.w3.org/1999/02/22-rdf-syntax-ns#"
   xmlns:svg="http://www.w3.org/2000/svg"
   xmlns="http://www.w3.org/2000/svg"
   xmlns:sodipodi="http://sodipodi.sourceforge.net/DTD/sodipodi-0.dtd"
   xmlns:inkscape="http://www.inkscape.org/namespaces/inkscape"
   width="512"
   height="512"
   id="svg2"
   version="1.1"
   inkscape:version="0.48.2 r9819"
   sodipodi:docname="monitoring-unknown.svg"
   inkscape:export-filename="/Users/Cynthia/Documents/SUSE manager/new icons/Locked-system/BS-locked-system.png"
   inkscape:export-xdpi="90"
   inkscape:export-ydpi="90">
  <defs
     id="defs4" />
  <sodipodi:namedview
     id="base"
     pagecolor="#ffffff"
     bordercolor="#666666"
     borderopacity="1.0"
     inkscape:pageopacity="0.0"
     inkscape:pageshadow="2"
     inkscape:zoom="0.7"
     inkscape:cx="169.74548"
     inkscape:cy="291.42857"
     inkscape:document-units="px"
     inkscape:current-layer="text2986"
     showgrid="false"
     inkscape:window-width="766"
     inkscape:window-height="656"
     inkscape:window-x="25"
     inkscape:window-y="22"
     inkscape:window-maximized="0"
     showguides="true"
     inkscape:guide-bbox="true" />
  <metadata
     id="metadata7">
    <rdf:RDF>
      <cc:Work
         rdf:about="">
        <dc:format>image/svg+xml</dc:format>
        <dc:type
           rdf:resource="http://purl.org/dc/dcmitype/StillImage" />
        <dc:title />
      </cc:Work>
    </rdf:RDF>
  </metadata>
  <g
     inkscape:label="Layer 1"
     inkscape:groupmode="layer"
     id="layer1"
     transform="translate(0,-540.36217)">
    <g
       style="font-size:477.8666687px;font-style:normal;font-variant:normal;font-weight:normal;font-stretch:normal;line-height:125%;letter-spacing:0px;word-spacing:0px;fill:#000000;fill-opacity:1;stroke:none;font-family:FontAwesome;-inkscape-font-specification:FontAwesome"
       id="text2985" />
    <g
       style="font-size:83.60554504px;font-style:normal;font-variant:normal;font-weight:normal;font-stretch:normal;line-height:125%;letter-spacing:0px;word-spacing:0px;fill:#000000;fill-opacity:1;stroke:none;font-family:FontAwesome;-inkscape-font-specification:FontAwesome"
       id="text2989"
       transform="translate(577.14288,328.57143)">
      <g
         style="font-size:268.13122559px;fill:#000000;font-family:FontAwesome;-inkscape-font-specification:FontAwesome"
         id="text2986"
         transform="translate(12.231164,0)">
        <path
           d="m -182.81154,214.94699 c -57.57435,0 -104.28125,46.7069 -104.28125,104.28125 0,57.57435 46.7069,104.28125 104.28125,104.28125 57.57435,0 104.28125,-46.7069 104.28125,-104.28125 0,-57.57435 -46.7069,-104.28125 -104.28125,-104.28125 z m 2.71875,34.75 c 23.35563,0 49.4375,18.58819 49.4375,43.4375 0,20.63986 -14.11757,28.53609 -24.4375,34.375 -6.38206,3.66629 -10.34375,10.31436 -10.34375,13.4375 0,2.44419 -1.89956,4.34375 -4.34375,4.34375 l -26.0625,0 c -2.44419,0 -4.34375,-1.89956 -4.34375,-4.34375 l 0,-4.875 c 0,-13.17149 13.17151,-24.46727 22.8125,-28.8125 8.2831,-3.80208 11.9375,-7.314 11.9375,-14.375 0,-5.9747 -7.99703,-11.5625 -16.6875,-11.5625 -4.88839,0 -9.37909,1.65179 -11.6875,3.28125 -2.57998,1.90104 -5.27419,4.32144 -11.65625,12.46875 -0.81473,1.08631 -2.18415,1.65625 -3.40625,1.65625 -0.95052,0 -1.91481,-0.26935 -2.59375,-0.8125 l -17.90625,-13.59375 c -1.76525,-1.35789 -2.31585,-3.81771 -1.09375,-5.71875 11.67782,-19.41776 28.24147,-28.90625 50.375,-28.90625 z m -371.28125,64.46875 c -19.79998,0 -36,16.16876 -36,35.96875 l 0,244.84375 c 0,19.79999 16.20002,35.96875 36,35.96875 l 122.375,0 c 0,19.57499 -14.375,34.8625 -14.375,43.1875 0,7.87498 6.50001,14.40625 14.375,14.40625 l 115.25,0 c 7.875,0 14.375,-6.53127 14.375,-14.40625 0,-7.87499 -14.375,-24.06252 -14.375,-43.1875 l 122.375,0 c 19.79998,0 36,-16.16876 36,-35.96875 l 0,-156 c -8.82106,2.01193 -18.0069,3.09375 -27.4375,3.09375 -0.45132,0 -0.89358,0.005 -1.34375,0 l 0,95.28125 c 0,3.82499 -3.39375,7.1875 -7.21875,7.1875 l -360,0 c -3.825,0 -7.21875,-3.36251 -7.21875,-7.1875 l 0,-187.21875 c 0,-3.825 3.39375,-7.1875 7.21875,-7.1875 l 248,0 c -1.50183,-7.67632 -2.28125,-15.60266 -2.28125,-23.71875 0,-1.68985 0.0262,-3.38924 0.0937,-5.0625 l -245.8125,0 z m 355.53125,39.8125 26.0625,0 c 2.44419,0 4.34375,1.89956 4.34375,4.34375 l 0,26.0625 c 0,2.44419 -1.89956,4.34375 -4.34375,4.34375 l -26.0625,0 c -2.44419,0 -4.34375,-1.89956 -4.34375,-4.34375 l 0,-26.0625 c 0,-2.44419 1.89956,-4.34375 4.34375,-4.34375 z m -230.8125,0.4375 -76.0625,139.59375 -46.3125,0 0,32.59375 61.84375,0 0,-0.28125 0.40625,0.40625 59.15625,-111.25 61.4375,111.78125 0,0.15625 0.0937,0 0.125,0.21875 0.25,-0.21875 47.28125,0 0,-1.1875 32.09375,-66.25 32.375,66.84375 0.3125,-0.21875 61.625,0 0,-32.59375 -47.28125,0 -46.6875,-89.03125 -0.25,-0.875 -0.0937,0.1875 -0.0937,-0.1875 -0.28125,0.875 -47.09375,89.84375 -16.3125,0 -76,-139.46875 -0.0312,0.0312 -0.5,-0.96875 z"
           id="path2991"
           inkscape:connector-curvature="0" />
      </g>
    </g>
  </g>
</svg>
