<?xml version="1.0" encoding="UTF-8" standalone="no"?>
<!-- Created with Inkscape (http://www.inkscape.org/) -->

<svg
   xmlns:dc="http://purl.org/dc/elements/1.1/"
   xmlns:cc="http://creativecommons.org/ns#"
   xmlns:rdf="http://www.w3.org/1999/02/22-rdf-syntax-ns#"
   xmlns:svg="http://www.w3.org/2000/svg"
   xmlns="http://www.w3.org/2000/svg"
   xmlns:sodipodi="http://sodipodi.sourceforge.net/DTD/sodipodi-0.dtd"
   xmlns:inkscape="http://www.inkscape.org/namespaces/inkscape"
   width="512"
   height="512"
   id="svg2"
   version="1.1"
   inkscape:version="0.48.2 r9819"
   sodipodi:docname="monitoring-down2.svg"
   inkscape:export-filename="/Users/Cynthia/Documents/SUSE manager/new icons/Locked-system/BS-locked-system.png"
   inkscape:export-xdpi="90"
   inkscape:export-ydpi="90">
  <defs
     id="defs4" />
  <sodipodi:namedview
     id="base"
     pagecolor="#ffffff"
     bordercolor="#666666"
     borderopacity="1.0"
     inkscape:pageopacity="0.0"
     inkscape:pageshadow="2"
     inkscape:zoom="0.7"
     inkscape:cx="169.74548"
     inkscape:cy="291.42857"
     inkscape:document-units="px"
     inkscape:current-layer="text2986"
     showgrid="false"
     inkscape:window-width="1209"
     inkscape:window-height="652"
     inkscape:window-x="25"
     inkscape:window-y="22"
     inkscape:window-maximized="0"
     showguides="true"
     inkscape:guide-bbox="true" />
  <metadata
     id="metadata7">
    <rdf:RDF>
      <cc:Work
         rdf:about="">
        <dc:format>image/svg+xml</dc:format>
        <dc:type
           rdf:resource="http://purl.org/dc/dcmitype/StillImage" />
        <dc:title />
      </cc:Work>
    </rdf:RDF>
  </metadata>
  <g
     inkscape:label="Layer 1"
     inkscape:groupmode="layer"
     id="layer1"
     transform="translate(0,-540.36217)">
    <g
       style="font-size:477.8666687px;font-style:normal;font-variant:normal;font-weight:normal;font-stretch:normal;line-height:125%;letter-spacing:0px;word-spacing:0px;fill:#000000;fill-opacity:1;stroke:none;font-family:FontAwesome;-inkscape-font-specification:FontAwesome"
       id="text2985" />
    <g
       style="font-size:83.60554504px;font-style:normal;font-variant:normal;font-weight:normal;font-stretch:normal;line-height:125%;letter-spacing:0px;word-spacing:0px;fill:#000000;fill-opacity:1;stroke:none;font-family:FontAwesome;-inkscape-font-specification:FontAwesome"
       id="text2989"
       transform="translate(577.14288,328.57143)">
      <g
         style="font-size:268.13122559px;fill:#000000;font-family:FontAwesome;-inkscape-font-specification:FontAwesome"
         id="text2986"
         transform="translate(12.231164,0)">
        <path
           d="M 404.5625 3.15625 C 346.98815 3.15625 300.28125 49.863154 300.28125 107.4375 C 300.28125 165.01185 346.98815 211.71875 404.5625 211.71875 C 462.13685 211.71875 508.84375 165.01185 508.84375 107.4375 C 508.84375 49.863154 462.13685 3.15625 404.5625 3.15625 z M 389.625 37.90625 L 419.5 37.90625 C 420.7221 37.90625 421.96652 38.321057 422.78125 39 C 423.73177 39.543154 424.125 40.48698 424.125 41.4375 L 421.6875 125.75 C 421.55171 127.65104 419.50669 129.15625 417.0625 129.15625 L 391.9375 129.15625 C 389.35752 129.15625 387.3125 127.65104 387.3125 125.75 L 385.03125 41.4375 C 385.03125 40.48698 385.42448 39.543154 386.375 39 C 387.18973 38.321057 388.4029 37.90625 389.625 37.90625 z M 36 102.375 C 16.20002 102.375 0 118.54376 0 138.34375 L 0 383.1875 C 0 402.98749 16.20002 419.15625 36 419.15625 L 158.375 419.15625 C 158.375 438.73124 144 454.01875 144 462.34375 C 144 470.21873 150.50001 476.75 158.375 476.75 L 273.625 476.75 C 281.5 476.75 288 470.21873 288 462.34375 C 288 454.46876 273.625 438.28123 273.625 419.15625 L 396 419.15625 C 415.79998 419.15625 432 402.98749 432 383.1875 L 432 227.1875 C 423.17894 229.19943 413.9931 230.28125 404.5625 230.28125 C 404.11118 230.28125 403.66892 230.2861 403.21875 230.28125 L 403.21875 325.5625 C 403.21875 329.38749 399.825 332.75 396 332.75 L 36 332.75 C 32.175 332.75 28.78125 329.38749 28.78125 325.5625 L 28.78125 138.34375 C 28.78125 134.51875 32.175 131.15625 36 131.15625 L 284 131.15625 C 282.49817 123.47993 281.71875 115.55359 281.71875 107.4375 C 281.71875 105.74765 281.74492 104.04826 281.8125 102.375 L 36 102.375 z M 391.65625 142.1875 L 417.75 142.1875 C 420.05841 142.1875 421.9375 144.21206 421.9375 146.65625 L 421.9375 172.46875 C 421.9375 174.91294 420.05841 176.9375 417.75 176.9375 L 391.65625 176.9375 C 389.21206 176.9375 387.1875 174.91294 387.1875 172.46875 L 387.1875 146.65625 C 387.1875 144.21206 389.21206 142.1875 391.65625 142.1875 z M 160.71875 142.625 L 84.65625 282.21875 L 38.34375 282.21875 L 38.34375 314.8125 L 100.1875 314.8125 L 100.1875 314.53125 L 100.59375 314.9375 L 159.75 203.6875 L 221.1875 315.46875 L 221.1875 315.625 L 221.28125 315.625 L 221.40625 315.84375 L 221.65625 315.625 L 268.9375 315.625 L 268.9375 314.4375 L 301.03125 248.1875 L 333.40625 315.03125 L 333.71875 314.8125 L 395.34375 314.8125 L 395.34375 282.21875 L 348.0625 282.21875 L 301.375 193.1875 L 301.125 192.3125 L 301.03125 192.5 L 300.9375 192.3125 L 300.65625 193.1875 L 253.5625 283.03125 L 237.25 283.03125 L 161.25 143.5625 L 161.21875 143.59375 L 160.71875 142.625 z "
           transform="translate(-589.37404,211.79074)"
           id="path2991" />
      </g>
    </g>
  </g>
</svg>
