<?xml version="1.0" encoding="UTF-8" standalone="no"?>
<!-- Created with Inkscape (http://www.inkscape.org/) -->

<svg
   xmlns:dc="http://purl.org/dc/elements/1.1/"
   xmlns:cc="http://creativecommons.org/ns#"
   xmlns:rdf="http://www.w3.org/1999/02/22-rdf-syntax-ns#"
   xmlns:svg="http://www.w3.org/2000/svg"
   xmlns="http://www.w3.org/2000/svg"
   xmlns:sodipodi="http://sodipodi.sourceforge.net/DTD/sodipodi-0.dtd"
   xmlns:inkscape="http://www.inkscape.org/namespaces/inkscape"
   width="500"
   height="500"
   id="svg4952"
   version="1.1"
   inkscape:version="0.48.2 r9819"
   sodipodi:docname="note-pin.svg">
  <defs
     id="defs4954" />
  <sodipodi:namedview
     id="base"
     pagecolor="#ffffff"
     bordercolor="#666666"
     borderopacity="1.0"
     inkscape:pageopacity="0.0"
     inkscape:pageshadow="2"
     inkscape:zoom="7.9195959"
     inkscape:cx="237.75689"
     inkscape:cy="273.43801"
     inkscape:document-units="px"
     inkscape:current-layer="layer1"
     showgrid="false"
     showguides="true"
     inkscape:guide-bbox="true"
     inkscape:window-width="836"
     inkscape:window-height="714"
     inkscape:window-x="283"
     inkscape:window-y="22"
     inkscape:window-maximized="0" />
  <metadata
     id="metadata4957">
    <rdf:RDF>
      <cc:Work
         rdf:about="">
        <dc:format>image/svg+xml</dc:format>
        <dc:type
           rdf:resource="http://purl.org/dc/dcmitype/StillImage" />
        <dc:title />
      </cc:Work>
    </rdf:RDF>
  </metadata>
  <g
     inkscape:label="Layer 1"
     inkscape:groupmode="layer"
     id="layer1"
     transform="translate(0,-552.36218)">
    <path
       style="font-size:389.96472168px;font-style:normal;font-variant:normal;font-weight:normal;font-stretch:normal;line-height:125%;letter-spacing:0px;word-spacing:0px;fill:#000000;fill-opacity:1;stroke:none;font-family:FontAwesome;-inkscape-font-specification:FontAwesome"
       d="m 281.84375,2.84375 c -13.79839,0 -25.25,11.451612 -25.25,25.25 0,13.798388 11.45161,25.21875 25.25,25.21875 l 0,100.9375 c -26.01982,0 -50.46875,30.73485 -50.46875,63.0625 0,6.89919 5.72581,12.625 12.625,12.625 l 79.625,0 14.96875,95.59375 c 0.59136,3.15392 3.15858,5.34375 6.3125,5.34375 l 0.21875,0 c 3.15392,0 5.69951,-2.56483 6.09375,-5.71875 l 10.0625,-95.21875 84.5625,0 c 6.89919,0 12.625,-5.72581 12.625,-12.625 0,-32.32765 -24.44893,-63.0625 -50.46875,-63.0625 l 0,-100.9375 c 13.79839,0 25.21875,-11.420362 25.21875,-25.21875 0,-13.798388 -11.42036,-25.25 -25.21875,-25.25 z M 319.6875,53.3125 c 3.54816,0 6.3125,2.764343 6.3125,6.3125 l 0,88.3125 c 0,3.54816 -2.76434,6.3125 -6.3125,6.3125 -3.54816,0 -6.3125,-2.76434 -6.3125,-6.3125 l 0,-88.3125 c 0,-3.548157 2.76434,-6.3125 6.3125,-6.3125 z M 256.125,140.28125 160.15625,142.75 c -11.38307,0.29316 -27.36972,7.32479 -35.3125,15.6875 l -95.90625,101 c -7.942778,8.3627 -7.612705,21.58847 0.75,29.53125 L 241.75,490.375 c 8.36271,7.9427 21.58847,7.6127 29.53125,-0.75 l 163.0625,-171.6875 c 7.94279,-8.36271 7.58146,-21.58846 -0.78125,-29.53125 l -43.3125,-41.125 -13.375,0 -2.46875,23.34375 34.9375,33.1875 L 255.875,465.40625 53.90625,273.5625 l 76.75,-80.78125 65.625,62.34375 c 8.36271,7.94278 21.58848,7.61271 29.53125,-0.75 l 15.63393,-15.38839 C 232.21805,235.73827 225.3343,228.05145 222.729,218.546 l -12.32275,11.579 -59.3125,-56.34375 c 3.49442,-1.78319 7.47145,-3.1008 9.625,-3.15625 l 68.15625,-1.78125 c 1.38817,-2.07815 2.86227,-4.09721 4.40625,-6.03125 7.70089,-9.64638 17.6071,-17.66858 29.0625,-22.125 -2.17104,-0.30583 -4.27209,-0.45638 -6.21875,-0.40625 z"
       transform="translate(0,552.36218)"
       id="path5485"
       inkscape:connector-curvature="0"
       sodipodi:nodetypes="ssccssccssccssccssssssssssccccccssccccccccccccccccscc" />
  </g>
</svg>
