<?xml version="1.0" encoding="UTF-8" standalone="no"?>
<!-- Created with Inkscape (http://www.inkscape.org/) -->

<svg
   xmlns:dc="http://purl.org/dc/elements/1.1/"
   xmlns:cc="http://creativecommons.org/ns#"
   xmlns:rdf="http://www.w3.org/1999/02/22-rdf-syntax-ns#"
   xmlns:svg="http://www.w3.org/2000/svg"
   xmlns="http://www.w3.org/2000/svg"
   xmlns:sodipodi="http://sodipodi.sourceforge.net/DTD/sodipodi-0.dtd"
   xmlns:inkscape="http://www.inkscape.org/namespaces/inkscape"
   width="512"
   height="512"
   id="svg2"
   version="1.1"
   inkscape:version="0.48.2 r9819"
   sodipodi:docname="BS-organization-trust.svg">
  <defs
     id="defs4" />
  <sodipodi:namedview
     id="base"
     pagecolor="#ffffff"
     bordercolor="#666666"
     borderopacity="1.0"
     inkscape:pageopacity="0.0"
     inkscape:pageshadow="2"
     inkscape:zoom="0.5403125"
     inkscape:cx="738.21196"
     inkscape:cy="321.00937"
     inkscape:document-units="px"
     inkscape:current-layer="layer1"
     showgrid="false"
     showguides="true"
     inkscape:guide-bbox="true"
     inkscape:window-width="1231"
     inkscape:window-height="712"
     inkscape:window-x="11"
     inkscape:window-y="22"
     inkscape:window-maximized="0" />
  <metadata
     id="metadata7">
    <rdf:RDF>
      <cc:Work
         rdf:about="">
        <dc:format>image/svg+xml</dc:format>
        <dc:type
           rdf:resource="http://purl.org/dc/dcmitype/StillImage" />
        <dc:title />
      </cc:Work>
    </rdf:RDF>
  </metadata>
  <g
     inkscape:label="Layer 1"
     inkscape:groupmode="layer"
     id="layer1"
     transform="translate(0,-540.36218)">
    <path
       style="fill:#000000;stroke:none"
       d="m 255.74983,540.36214 c -81.84517,0 -148.20175,66.35657 -148.20175,148.20174 0,81.84517 66.35658,148.20174 148.20175,148.20174 81.84517,0 148.17391,-66.35657 148.17391,-148.20174 0,-81.84517 -66.32874,-148.20174 -148.17391,-148.20174 z m 0,37.78783 c 60.98099,0 110.41391,49.43292 110.41391,110.41391 0,60.98099 -49.43292,110.41391 -110.41391,110.41391 -60.98099,0 -110.41392,-49.43292 -110.41392,-110.41391 0,-60.98099 49.43293,-110.41391 110.41392,-110.41391 z m 0,16.19478 c -52.03919,0 -94.24696,42.17994 -94.24696,94.21913 0,52.03919 42.20777,94.21913 94.24696,94.21913 52.03919,0 94.21912,-42.17994 94.21912,-94.21913 0,-52.03919 -42.17993,-94.21913 -94.21912,-94.21913 z m -86.70609,225.64174 -96.779137,167.62435 69.676517,5.25913 40.93219,58.60183 72.62608,-125.77401 73.12696,126.66441 40.93217,-58.6018 69.67652,-5.25913 -97.16869,-168.26435 c -24.78283,16.28164 -54.41781,25.76696 -86.2887,25.76696 -32.04489,0 -61.86429,-9.57217 -86.73391,-26.01739 z"
       id="path2985"
       inkscape:connector-curvature="0" />
  </g>
</svg>
