<?xml version="1.0" encoding="UTF-8" standalone="no"?>
<!-- Created with Inkscape (http://www.inkscape.org/) -->

<svg
   xmlns:dc="http://purl.org/dc/elements/1.1/"
   xmlns:cc="http://creativecommons.org/ns#"
   xmlns:rdf="http://www.w3.org/1999/02/22-rdf-syntax-ns#"
   xmlns:svg="http://www.w3.org/2000/svg"
   xmlns="http://www.w3.org/2000/svg"
   xmlns:sodipodi="http://sodipodi.sourceforge.net/DTD/sodipodi-0.dtd"
   xmlns:inkscape="http://www.inkscape.org/namespaces/inkscape"
   width="512"
   height="512"
   id="svg2983"
   version="1.1"
   inkscape:version="0.48.2 r9819"
   sodipodi:docname="BS-package-search.svg"
   inkscape:export-filename="/Users/Cynthia/Documents/SUSE manager/new icons/package-search/BS-package-search.png"
   inkscape:export-xdpi="90"
   inkscape:export-ydpi="90">
  <defs
     id="defs2985" />
  <sodipodi:namedview
     id="base"
     pagecolor="#ffffff"
     bordercolor="#666666"
     borderopacity="1.0"
     inkscape:pageopacity="0.0"
     inkscape:pageshadow="2"
     inkscape:zoom="0.49497475"
     inkscape:cx="109.48442"
     inkscape:cy="378.39346"
     inkscape:document-units="px"
     inkscape:current-layer="layer1"
     showgrid="false"
     showguides="true"
     inkscape:guide-bbox="true"
     inkscape:window-width="1084"
     inkscape:window-height="687"
     inkscape:window-x="20"
     inkscape:window-y="42"
     inkscape:window-maximized="0">
    <inkscape:grid
       type="xygrid"
       id="grid3030"
       empspacing="5"
       visible="true"
       enabled="true"
       snapvisiblegridlinesonly="true" />
  </sodipodi:namedview>
  <metadata
     id="metadata2988">
    <rdf:RDF>
      <cc:Work
         rdf:about="">
        <dc:format>image/svg+xml</dc:format>
        <dc:type
           rdf:resource="http://purl.org/dc/dcmitype/StillImage" />
        <dc:title></dc:title>
      </cc:Work>
    </rdf:RDF>
  </metadata>
  <g
     inkscape:label="Layer 1"
     inkscape:groupmode="layer"
     id="layer1"
     transform="translate(0,-540.36218)">
    <path
       style="fill:#000000;fill-opacity:1;stroke:#ffffff;stroke-width:0;stroke-linecap:butt;stroke-linejoin:miter;stroke-miterlimit:3.79999995;stroke-opacity:1"
       d="M 164.84376,611.67681 0,676.36431 l 76.093754,56.875 164.843756,-64.6875 -76.09375,-56.875 z m 178.59375,0 -76.09375,56.875 164.78125,64.6875 76.09375,-56.875 -164.78125,-64.6875 z m -87.53125,64.6875 0,0.0937 -164.593756,64.59375 -0.5,8.09375 c 0.4413,59.38298 0.5,118.77219 0.5,178.15625 l 164.593756,64.625 0,0.0625 0.125,-0.0625 0.125,0.0625 0,-0.0625 164.5625,-64.625 c -0.547,-59.55328 0.754,-119.08432 1.75,-178.625 l -0.125,-7.09375 -166.1875,-65.125 0,-0.0937 -0.125,0.0937 -0.125,-0.0937 z m -6.0625,51.09375 c 46.02347,0 83.28125,37.28903 83.28125,83.3125 0,16.80034 -5.07296,33.34496 -14.65625,47.1875 l 40.5625,40.59375 c 2.72118,2.72118 4.375,6.63364 4.375,10.65625 0,8.28186 -6.84315,15.125 -15.125,15.125 -4.02262,0 -7.93507,-1.66051 -10.65625,-4.5 l -40.59375,-40.46875 c -13.84254,9.58329 -30.38716,14.6875 -47.1875,14.6875 -46.02347,0 -83.3125,-37.25778 -83.3125,-83.28125 0,-46.02347 37.28903,-83.3125 83.3125,-83.3125 z m 0,30.28125 c -29.22313,0 -53,23.80812 -53,53.03125 0,29.22313 23.77687,53 53,53 29.22313,0 53,-23.77687 53,-53 0,-29.22313 -23.77687,-53.03125 -53,-53.03125 z"
       id="path3011-2"
       inkscape:connector-curvature="0" />
  </g>
</svg>
