<?xml version="1.0" encoding="UTF-8" standalone="no"?>
<!-- Created with Inkscape (http://www.inkscape.org/) -->

<svg
   xmlns:dc="http://purl.org/dc/elements/1.1/"
   xmlns:cc="http://creativecommons.org/ns#"
   xmlns:rdf="http://www.w3.org/1999/02/22-rdf-syntax-ns#"
   xmlns:svg="http://www.w3.org/2000/svg"
   xmlns="http://www.w3.org/2000/svg"
   xmlns:sodipodi="http://sodipodi.sourceforge.net/DTD/sodipodi-0.dtd"
   xmlns:inkscape="http://www.inkscape.org/namespaces/inkscape"
   width="512"
   height="512"
   id="svg2983"
   version="1.1"
   inkscape:version="0.48.2 r9819"
   sodipodi:docname="package-search.svg"
   inkscape:export-filename="/Users/Cynthia/Documents/SUSE manager/new icons/package-search/BS-package-search.png"
   inkscape:export-xdpi="90"
   inkscape:export-ydpi="90">
  <defs
     id="defs2985" />
  <sodipodi:namedview
     id="base"
     pagecolor="#ffffff"
     bordercolor="#666666"
     borderopacity="1.0"
     inkscape:pageopacity="0.0"
     inkscape:pageshadow="2"
     inkscape:zoom="0.24748738"
     inkscape:cx="1097.7509"
     inkscape:cy="47.595222"
     inkscape:document-units="px"
     inkscape:current-layer="layer1"
     showgrid="false"
     showguides="true"
     inkscape:guide-bbox="true"
     inkscape:window-width="1084"
     inkscape:window-height="687"
     inkscape:window-x="20"
     inkscape:window-y="42"
     inkscape:window-maximized="0">
    <inkscape:grid
       type="xygrid"
       id="grid3030"
       empspacing="5"
       visible="true"
       enabled="true"
       snapvisiblegridlinesonly="true" />
  </sodipodi:namedview>
  <metadata
     id="metadata2988">
    <rdf:RDF>
      <cc:Work
         rdf:about="">
        <dc:format>image/svg+xml</dc:format>
        <dc:type
           rdf:resource="http://purl.org/dc/dcmitype/StillImage" />
        <dc:title></dc:title>
      </cc:Work>
    </rdf:RDF>
  </metadata>
  <g
     inkscape:label="Layer 1"
     inkscape:groupmode="layer"
     id="layer1"
     transform="translate(0,-540.36218)">
    <path
       style="fill:#000000;fill-opacity:1;stroke:#ffffff;stroke-width:0;stroke-linecap:butt;stroke-linejoin:miter;stroke-miterlimit:3.79999995;stroke-opacity:1"
       d="M 166.49159,610.81309 1,675.75481 77.392798,732.85333 242.88438,667.91161 166.49159,610.81309 z m 179.29562,0 -76.3928,57.09852 165.42884,64.94172 76.3928,-57.09852 -165.42884,-64.94172 z m -87.87525,64.94172 0,0.0941 -165.240602,64.8476 -0.501965,8.12556 c 0.443034,59.61636 0.501965,119.23897 0.501965,178.8564 l 165.240602,64.87898 0,0.0628 0.12549,-0.0628 0.12549,0.0628 0,-0.0628 35.73364,-14.02365 c -2.04474,-8.82465 -3.13728,-18.00476 -3.13728,-27.45121 0,-66.93008 54.26308,-121.19317 121.19317,-121.19317 3.99071,0 7.93576,0.18773 11.82755,0.56471 0.37873,-27.36783 0.89121,-54.73384 1.34903,-82.10265 l -0.12549,-7.12163 -166.84062,-65.38094 0,-0.0941 -0.12549,0.0941 -0.12549,-0.0941 z m 154.04051,175.37402 c -55.17969,0 -99.95378,44.7741 -99.95378,99.95378 0,55.17969 44.77409,99.92239 99.95378,99.92239 55.17969,0 99.95378,-44.7427 99.95378,-99.92239 0,-55.17968 -44.77409,-99.95378 -99.95378,-99.95378 z m -29.39633,50.35337 c 2.2124,0 4.27365,0.91676 5.83535,2.47845 l 23.56098,23.56098 23.56098,-23.56098 c 1.5617,-1.56169 3.65433,-2.47845 5.86672,-2.47845 2.21239,0 4.43051,0.91676 5.9922,2.47845 l 11.70206,11.70206 c 1.5617,1.56169 2.47846,3.77981 2.47846,5.9922 0,2.2124 -0.91676,4.30503 -2.47846,5.86672 l -23.56098,23.56098 23.56098,23.52961 c 1.5617,1.5617 2.47846,3.65433 2.47846,5.86672 0,2.21239 -0.91676,4.43051 -2.47846,5.99221 l -11.70206,11.70205 c -1.56169,1.5617 -3.77981,2.4785 -5.9922,2.4785 -2.21239,0 -4.30502,-0.9168 -5.86672,-2.4785 l -23.56098,-23.56098 -23.56098,23.56098 c -1.5617,1.5617 -3.62295,2.4785 -5.83535,2.4785 -2.21239,0 -4.43051,-0.9168 -5.9922,-2.4785 l -11.70206,-11.70205 c -1.5617,-1.5617 -2.47845,-3.77982 -2.47845,-5.99221 0,-2.21239 0.91675,-4.30502 2.47845,-5.86672 l 23.52961,-23.52961 -23.52961,-23.56098 c -1.5617,-1.56169 -2.47845,-3.65432 -2.47845,-5.86672 0,-2.21239 0.91675,-4.43051 2.47845,-5.9922 l 11.70206,-11.70206 c 1.56169,-1.56169 3.77981,-2.47845 5.9922,-2.47845 z"
       id="path3011-2"
       inkscape:connector-curvature="0" />
  </g>
</svg>
