<?xml version="1.0" encoding="UTF-8" standalone="no"?>
<!-- Created with Inkscape (http://www.inkscape.org/) -->

<svg
   xmlns:dc="http://purl.org/dc/elements/1.1/"
   xmlns:cc="http://creativecommons.org/ns#"
   xmlns:rdf="http://www.w3.org/1999/02/22-rdf-syntax-ns#"
   xmlns:svg="http://www.w3.org/2000/svg"
   xmlns="http://www.w3.org/2000/svg"
   xmlns:sodipodi="http://sodipodi.sourceforge.net/DTD/sodipodi-0.dtd"
   xmlns:inkscape="http://www.inkscape.org/namespaces/inkscape"
   width="500"
   height="500"
   id="svg3833"
   version="1.1"
   inkscape:version="0.48.2 r9819"
   sodipodi:docname="package-upgrade.svg">
  <defs
     id="defs3835" />
  <sodipodi:namedview
     id="base"
     pagecolor="#ffffff"
     bordercolor="#666666"
     borderopacity="1.0"
     inkscape:pageopacity="0.0"
     inkscape:pageshadow="2"
     inkscape:zoom="0.98994949"
     inkscape:cx="334.98039"
     inkscape:cy="277.57434"
     inkscape:document-units="px"
     inkscape:current-layer="layer1"
     showgrid="false"
     inkscape:window-width="957"
     inkscape:window-height="696"
     inkscape:window-x="162"
     inkscape:window-y="42"
     inkscape:window-maximized="0" />
  <metadata
     id="metadata3838">
    <rdf:RDF>
      <cc:Work
         rdf:about="">
        <dc:format>image/svg+xml</dc:format>
        <dc:type
           rdf:resource="http://purl.org/dc/dcmitype/StillImage" />
        <dc:title></dc:title>
      </cc:Work>
    </rdf:RDF>
  </metadata>
  <g
     inkscape:label="Layer 1"
     inkscape:groupmode="layer"
     id="layer1"
     transform="translate(0,-552.36218)">
    <path
       style="fill:#000000;fill-opacity:1;stroke:#ffffff;stroke-width:0;stroke-linecap:butt;stroke-linejoin:miter;stroke-miterlimit:3.79999995;stroke-opacity:1"
       d="M 162.4375 39.125 L 2.34375 101.96875 L 76.25 157.21875 L 236.34375 94.375 L 162.4375 39.125 z M 335.90625 39.125 L 262 94.375 L 422.03125 157.21875 L 495.9375 101.96875 L 335.90625 39.125 z M 250.875 101.96875 L 250.875 102.03125 L 91.03125 164.75 L 90.53125 172.625 C 90.95987 230.30059 91.03125 287.97964 91.03125 345.65625 L 250.875 408.40625 L 250.875 408.46875 L 251 408.40625 L 251.125 408.46875 L 251.125 408.40625 L 285.6875 394.84375 C 283.70932 386.30639 282.65625 377.45142 282.65625 368.3125 C 282.65625 303.56129 335.15503 251.0625 399.90625 251.0625 C 403.76705 251.0625 407.57865 251.22903 411.34375 251.59375 C 411.71016 225.11686 412.21333 198.63408 412.65625 172.15625 L 412.53125 165.28125 L 251.125 102.03125 L 251.125 101.96875 L 251 102.03125 L 250.875 101.96875 z M 400.53125 271.625 C 347.28848 271.625 304.0625 314.81973 304.0625 368.0625 C 304.0625 421.30527 347.28848 464.5 400.53125 464.5 C 453.77402 464.5 496.96875 421.30527 496.96875 368.0625 C 496.96875 314.81973 453.77402 271.625 400.53125 271.625 z M 403.03125 303.75 C 424.62973 303.75 448.75 320.95772 448.75 343.9375 C 448.75 363.02453 435.66852 370.31913 426.125 375.71875 C 420.22309 379.10921 416.59375 385.26808 416.59375 388.15625 C 416.59375 390.41656 414.82281 392.15625 412.5625 392.15625 L 388.46875 392.15625 C 386.20844 392.15625 384.4375 390.41656 384.4375 388.15625 L 384.4375 383.625 C 384.4375 371.44446 396.6156 361.01832 405.53125 357 C 413.19118 353.48397 416.59375 350.21727 416.59375 343.6875 C 416.59375 338.16231 409.19289 333.03125 401.15625 333.03125 C 396.63564 333.03125 392.47848 334.52438 390.34375 336.03125 C 387.95787 337.78927 385.43316 340.0594 379.53125 347.59375 C 378.77781 348.59833 377.5364 349.09375 376.40625 349.09375 C 375.52724 349.09375 374.65911 348.84604 374.03125 348.34375 L 357.4375 335.78125 C 355.80506 334.52552 355.30735 332.25802 356.4375 330.5 C 367.23674 312.54312 382.56292 303.75 403.03125 303.75 z M 388.46875 400.1875 L 412.5625 400.1875 C 414.82281 400.1875 416.59375 401.95844 416.59375 404.21875 L 416.59375 428.3125 C 416.59375 430.57281 414.82281 432.34375 412.5625 432.34375 L 388.46875 432.34375 C 386.20844 432.34375 384.4375 430.57281 384.4375 428.3125 L 384.4375 404.21875 C 384.4375 401.95844 386.20844 400.1875 388.46875 400.1875 z "
       transform="translate(0,552.36218)"
       id="path3011-2" />
  </g>
</svg>
