<?xml version="1.0" encoding="UTF-8" standalone="no"?>
<!-- Created with Inkscape (http://www.inkscape.org/) -->

<svg
   xmlns:dc="http://purl.org/dc/elements/1.1/"
   xmlns:cc="http://creativecommons.org/ns#"
   xmlns:rdf="http://www.w3.org/1999/02/22-rdf-syntax-ns#"
   xmlns:svg="http://www.w3.org/2000/svg"
   xmlns="http://www.w3.org/2000/svg"
   xmlns:sodipodi="http://sodipodi.sourceforge.net/DTD/sodipodi-0.dtd"
   xmlns:inkscape="http://www.inkscape.org/namespaces/inkscape"
   width="500"
   height="500"
   id="svg4352"
   version="1.1"
   inkscape:version="0.48.2 r9819"
   sodipodi:docname="New document 7">
  <defs
     id="defs4354" />
  <sodipodi:namedview
     id="base"
     pagecolor="#ffffff"
     bordercolor="#666666"
     borderopacity="1.0"
     inkscape:pageopacity="0.0"
     inkscape:pageshadow="2"
     inkscape:zoom="0.7"
     inkscape:cx="282.2737"
     inkscape:cy="242.80584"
     inkscape:document-units="px"
     inkscape:current-layer="layer1"
     showgrid="false"
     showguides="true"
     inkscape:guide-bbox="true"
     inkscape:window-width="752"
     inkscape:window-height="571"
     inkscape:window-x="486"
     inkscape:window-y="61"
     inkscape:window-maximized="0" />
  <metadata
     id="metadata4357">
    <rdf:RDF>
      <cc:Work
         rdf:about="">
        <dc:format>image/svg+xml</dc:format>
        <dc:type
           rdf:resource="http://purl.org/dc/dcmitype/StillImage" />
        <dc:title></dc:title>
      </cc:Work>
    </rdf:RDF>
  </metadata>
  <g
     inkscape:label="Layer 1"
     inkscape:groupmode="layer"
     id="layer1"
     transform="translate(0,-552.36218)">
    <path
       style="fill:#000000;stroke:none"
       d="m 262.54607,554.49084 c -9.70408,0.10713 -19.06491,3.24744 -27.1675,8.73497 -12.24391,8.29225 -21.62026,21.94587 -24.99268,38.6121 l -11.80112,58.14985 107.06566,21.60567 11.80112,-58.07857 c 6.34811,-31.37166 -11.03733,-61.18991 -39.00428,-66.84919 l -6.1323,-1.24785 c -3.27737,-0.66317 -6.5342,-0.96268 -9.7689,-0.92698 z m -146.6047,5.74013 c -1.74634,0.0313 -3.5085,0.15957 -5.27663,0.39217 l -6.20361,0.82003 c -13.260892,1.74457 -24.563681,8.93322 -32.408483,19.35951 -8.890747,11.81649 -13.341582,27.77869 -11.123704,44.63743 l 7.736679,58.82729 108.277848,-14.29681 -7.70103,-58.75598 c -3.91388,-29.7507 -27.1062,-51.45326 -53.30107,-50.98364 z m 282.65616,32.83631 c -5.59592,0.0864 -11.1718,1.13291 -16.54295,3.06615 -13.9138,5.00803 -26.37546,15.91673 -33.76328,31.23194 l -25.8127,53.44369 98.43764,47.41835 25.7414,-53.37237 c 13.90652,-28.82861 4.45072,-62.01023 -21.24912,-74.40761 l -5.59751,-2.74527 c -6.77633,-3.26876 -14.01868,-4.74579 -21.21348,-4.63488 z m -204.32674,88.27659 -9.55498,47.31139 -0.32088,-2.35309 -1.99657,9.80455 0.92697,-0.60612 -3.42266,16.89948 c -0.18428,-0.55026 -0.338,-1.10437 -0.4635,-1.67568 l -4.81313,23.88745 c 0.32262,-0.4549 0.67124,-0.90053 1.03392,-1.31917 l -2.49569,12.44286 12.58546,3.77921 c -0.33184,-0.57447 -0.5996,-1.18971 -0.82001,-1.81829 0.61752,0.56816 1.37713,0.99008 2.28179,1.17654 2.1628,0.42599 4.16644,-0.60402 5.09836,-2.46005 l -0.71306,-5.5262 c -0.64372,-0.67408 -1.51976,-1.15013 -2.53134,-1.35482 -0.32581,-0.0655 -0.61691,-0.10786 -0.92698,-0.10695 -0.31009,6.2e-4 -0.62945,0.0448 -0.92698,0.10695 -0.59507,0.12431 -1.15499,0.36713 -1.67569,0.71306 -0.21342,0.14174 -0.41877,0.29144 -0.6061,0.4635 0.78482,-2.25187 2.27317,-4.12293 4.17138,-5.3836 2.27993,-1.51468 5.10251,-2.184 7.98625,-1.60437 5.77344,1.16818 9.51171,6.81143 8.34279,12.58546 -0.67661,3.34348 -2.84817,5.99424 -5.6688,7.41581 l 29.66321,8.91323 19.39516,-4.9201 c -0.0348,-0.84422 0.0387,-1.7012 0.21391,-2.56702 0.58411,-2.88678 2.25482,-5.25935 4.52794,-6.77403 2.27312,-1.51466 5.13492,-2.15326 8.02188,-1.56873 3.37118,0.68212 6.00613,2.87091 7.41581,5.74011 -0.12976,-0.0147 -0.2641,-0.0344 -0.39219,-0.0356 l -1.3548,2.85224 4.92011,-1.24785 c -0.65989,-0.74797 -1.59212,-1.27854 -2.67397,-1.49742 -0.10932,-0.0222 -0.21356,-0.0195 -0.32087,-0.0356 l 13.79765,-3.49399 c 0.2836,0.50497 0.51849,1.03599 0.74872,1.56873 0.34846,-0.16579 0.66992,-0.30052 1.03394,-0.42782 0.68875,-0.24102 1.4147,-0.43668 2.13918,-0.53481 l 4.99139,-24.6718 c -0.85993,2.87572 -2.47858,5.35073 -4.56357,7.30884 l 3.81487,-18.75343 c 1.17118,2.62282 1.68104,5.56077 1.3548,8.5567 l 6.63145,-32.87196 -5.31229,11.01674 7.52275,-37.22162 -107.06563,-21.71261 z m -15.00987,10.41064 -107.743065,14.11853 7.02362,53.44371 11.765456,3.56529 c 0.362885,-1.39218 1.026827,-2.69181 1.889605,-3.81487 1.667574,-2.17061 4.135038,-3.68345 7.059273,-4.06442 0.365018,-0.048 0.744941,-0.0964 1.105241,-0.10696 5.40433,-0.158 10.15434,3.8298 10.87413,9.30541 0.22104,1.67992 0.0487,3.31463 -0.46348,4.81314 l 49.84275,14.97421 3.35137,-16.54294 c -4.42922,-0.80701 -8.0438,-4.34613 -8.66366,-9.05583 -0.38411,-2.92006 0.44489,-5.709 2.10352,-7.87931 1.65867,-2.1703 4.13883,-3.71621 7.05928,-4.10007 1.27757,-0.16806 2.51906,-0.089 3.7079,0.17826 l 11.08806,-54.83415 z m 30.66148,7.87929 c 0.70964,-3e-5 1.41676,0.0668 2.13917,0.21391 5.77345,1.16819 9.51156,6.81151 8.34278,12.58548 -1.16837,5.7734 -6.77055,9.51979 -12.54982,8.34278 -5.77357,-1.16834 -9.54671,-6.8121 -8.37842,-12.58548 0.58409,-2.88679 2.2819,-5.26196 4.56357,-6.77405 1.71124,-1.13407 3.75381,-1.78254 5.88272,-1.78264 z m 106.78043,2.567 -0.42782,2.03222 -4.7062,23.24569 c 1.29902,-2.50407 3.46247,-4.30104 5.95403,-5.16966 2.58466,-0.90111 5.51003,-0.82121 8.16453,0.46347 5.30545,2.5592 7.51566,8.95534 4.95575,14.26116 -2.55935,5.30538 -8.88094,7.52495 -14.18986,4.95575 -3.53476,-1.70516 -5.71942,-5.08525 -6.02533,-8.73495 l -4.56357,22.49697 c 1.16176,0.1346 2.34602,0.42435 3.45832,0.96263 5.30551,2.5594 7.51575,8.99123 4.95575,14.29681 -2.30443,4.77729 -7.70063,6.98474 -12.62113,5.5262 l -2.17483,10.66021 24.67182,-6.23924 c -0.009,-1.56655 0.34146,-3.16125 1.06958,-4.67054 1.27968,-2.65269 3.54765,-4.5538 6.1323,-5.45489 0.96924,-0.33791 1.99825,-0.55839 3.03049,-0.6061 1.72043,-0.0795 3.47498,0.26672 5.13403,1.06958 2.12112,1.02325 3.72573,2.67039 4.74183,4.59923 l 28.66492,-7.27319 c -3.24246,-3.10223 -4.3023,-8.03698 -2.24611,-12.30026 l 0.0356,0 c 1.27965,-2.65279 3.48397,-4.51349 6.06101,-5.41923 0.96638,-0.33964 1.96441,-0.55267 2.99484,-0.6061 1.71736,-0.0892 3.51161,0.26956 5.16967,1.0696 4.84945,2.33921 7.0573,7.84894 5.45489,12.83504 l 14.97421,-3.77921 6.02534,-12.47851 -94.69409,-45.74268 z m -73.94411,4.06443 c 0.7075,-0.003 1.41825,0.069 2.13918,0.21391 5.77355,1.16837 9.47598,6.84741 8.30712,12.62113 -1.16823,5.7736 -6.7704,9.48433 -12.54982,8.30713 -5.76353,-1.16618 -9.49208,-6.78671 -8.34278,-12.54982 0.58417,-2.88672 2.31905,-5.29538 4.59922,-6.80971 1.70995,-1.13602 3.72461,-1.77278 5.84708,-1.78264 z m -82.14427,2.67396 c 5.40421,-0.1581 10.18979,3.82965 10.90978,9.30542 0.76835,5.84026 -3.34996,11.18179 -9.19845,11.94372 -5.8401,0.76836 -11.17502,-3.32296 -11.94372,-9.16279 l 0.0356,-0.0356 c -0.3842,-2.92011 0.40921,-5.70897 2.06786,-7.87928 1.65867,-2.17028 4.1388,-3.68055 7.05928,-4.06444 0.365,-0.048 0.70929,-0.0964 1.06959,-0.10697 z m 113.7684,3.74356 c 0.70817,-0.003 1.41741,0.0678 2.13917,0.21391 5.77346,1.16819 9.51157,6.81151 8.34277,12.58548 -1.16825,5.77358 -6.77055,9.48415 -12.54982,8.30713 -5.77342,-1.16821 -9.54623,-6.74087 -8.37842,-12.51417 l 0.0356,-0.0356 c 0.58413,-2.88679 2.2548,-5.25936 4.52792,-6.77405 1.70485,-1.136 3.7582,-1.77349 5.88273,-1.78265 z m -145.7134,0.42785 c 5.40177,-0.15462 10.11862,3.86547 10.83849,9.34105 0.76838,5.84025 -3.31412,11.18192 -9.1628,11.94372 -5.83009,0.76705 -11.19651,-3.33859 -11.97937,-9.1628 -0.38412,-2.92006 0.47372,-5.74269 2.13917,-7.91494 1.66507,-2.17253 4.14357,-3.71255 7.05928,-4.10009 0.36501,-0.048 0.74511,-0.0966 1.10523,-0.10694 z m -33.228502,4.42094 c 5.404202,-0.1581 10.154142,3.82968 10.874132,9.30542 0.76819,5.84014 -3.31431,11.1818 -9.162791,11.94372 -5.8403,0.76826 -11.246763,-3.35835 -12.015029,-9.19845 -0.384195,-2.92013 0.471602,-5.70867 2.139174,-7.87928 1.667575,-2.17067 4.170591,-3.68354 7.094927,-4.06444 0.365006,-0.048 0.709306,-0.0964 1.069587,-0.10697 z m 255.310402,18.71778 c 0.34494,-0.0186 0.68823,-0.0159 1.03392,0 1.38281,0.0639 2.77463,0.43239 4.1001,1.0696 5.30553,2.55938 7.48,8.95557 4.9201,14.26115 -2.55928,5.30558 -8.9165,7.52514 -14.22552,4.95576 -5.29632,-2.5548 -7.52976,-8.92541 -4.99139,-14.22552 1.27966,-2.65271 3.54854,-4.55125 6.1323,-5.45489 0.96885,-0.33902 1.99567,-0.55057 3.03049,-0.6061 z m -148.31605,0.35653 c 0.70964,-4e-5 1.41675,0.0668 2.13917,0.21391 5.77353,1.16838 9.51169,6.81171 8.34278,12.58548 -1.16824,5.77359 -6.78235,9.46636 -12.54982,8.30713 -5.77342,-1.16819 -9.51117,-6.77615 -8.34278,-12.54982 l -0.0356,0 c 0.58415,-2.8867 2.28192,-5.29763 4.56356,-6.80971 1.71123,-1.13404 3.75383,-1.74686 5.88274,-1.74699 z m 32.87196,6.63144 c 0.70964,-4e-5 1.41677,0.0668 2.13917,0.21391 5.77359,1.16838 9.47586,6.81155 8.30713,12.58547 -1.16834,5.7734 -6.77054,9.48414 -12.54982,8.30713 -5.77354,-1.16839 -9.54693,-6.74067 -8.37842,-12.51416 0.58417,-2.88669 2.31754,-5.29764 4.59923,-6.80971 1.71123,-1.13406 3.75381,-1.78253 5.88271,-1.78264 z m 31.58847,6.38186 c 0.70817,-0.003 1.41744,0.0678 2.13918,0.21393 5.77355,1.16837 9.51158,6.8115 8.34278,12.58546 -1.16833,5.77343 -6.78243,9.50182 -12.54982,8.34278 -5.77355,-1.16837 -9.475,-6.8124 -8.30713,-12.58547 0.58416,-2.88669 2.25481,-5.22371 4.52791,-6.7384 1.70486,-1.136 3.72258,-1.80915 5.84708,-1.8183 z m -133.27053,0.92698 c 5.39837,-0.15724 10.08282,3.82974 10.80284,9.30541 0.76821,5.84013 -3.31428,11.14614 -9.1628,11.90807 -5.84025,0.76821 -11.21126,-3.28689 -11.97937,-9.12714 -0.38411,-2.92008 0.4716,-5.77997 2.13917,-7.9506 1.66756,-2.17061 4.17067,-3.68347 7.09491,-4.06443 0.36504,-0.048 0.74535,-0.0608 1.10525,-0.0713 z m -80.539893,15.04552 -1.140893,212.20605 177.480136,71.4484 188.99599,-66.81352 2.31745,-212.2417 -191.31344,48.41664 -176.339243,-53.01587 z m 174.734853,14.58203 c 0.70964,-3e-5 1.4524,0.10246 2.17483,0.24959 5.77356,1.16836 9.47603,6.77602 8.30713,12.54982 -1.16825,5.77359 -6.81796,9.50203 -12.58548,8.34276 -5.77346,-1.16817 -9.51099,-6.77624 -8.34278,-12.54982 0.58411,-2.88679 2.31754,-5.29763 4.59922,-6.80969 1.71124,-1.13407 3.71818,-1.78256 5.84708,-1.78266 z m -158.191909,11.62285 162.505909,48.41664 171.70435,-46.09919 -1.14089,172.84525 -171.74,59.93257 -161.329369,-65.74399 0,-169.35128 z m 153.343119,62.96301 0,154.02056 16.29336,0 0,-154.02056 -16.29336,0 z"
       id="path3881"
       inkscape:connector-curvature="0" />
  </g>
</svg>
