<?xml version="1.0" encoding="UTF-8" standalone="no"?>
<!-- Created with Inkscape (http://www.inkscape.org/) -->

<svg
   xmlns:dc="http://purl.org/dc/elements/1.1/"
   xmlns:cc="http://creativecommons.org/ns#"
   xmlns:rdf="http://www.w3.org/1999/02/22-rdf-syntax-ns#"
   xmlns:svg="http://www.w3.org/2000/svg"
   xmlns="http://www.w3.org/2000/svg"
   xmlns:sodipodi="http://sodipodi.sourceforge.net/DTD/sodipodi-0.dtd"
   xmlns:inkscape="http://www.inkscape.org/namespaces/inkscape"
   width="500"
   height="500"
   id="svg3012"
   version="1.1"
   inkscape:version="0.48.2 r9819"
   sodipodi:docname="patch-remove.svg">
  <defs
     id="defs3014" />
  <sodipodi:namedview
     id="base"
     pagecolor="#ffffff"
     bordercolor="#666666"
     borderopacity="1.0"
     inkscape:pageopacity="0.0"
     inkscape:pageshadow="2"
     inkscape:zoom="0.98994952"
     inkscape:cx="294.57224"
     inkscape:cy="265.33202"
     inkscape:document-units="px"
     inkscape:current-layer="layer1"
     showgrid="false"
     inkscape:window-width="870"
     inkscape:window-height="706"
     inkscape:window-x="142"
     inkscape:window-y="22"
     inkscape:window-maximized="0" />
  <metadata
     id="metadata3017">
    <rdf:RDF>
      <cc:Work
         rdf:about="">
        <dc:format>image/svg+xml</dc:format>
        <dc:type
           rdf:resource="http://purl.org/dc/dcmitype/StillImage" />
        <dc:title />
      </cc:Work>
    </rdf:RDF>
  </metadata>
  <g
     inkscape:label="Layer 1"
     inkscape:groupmode="layer"
     id="layer1"
     transform="translate(0,-552.36218)">
    <path
       style="fill:#333333;stroke:none"
       d="m 401.49455,557.08081 c -22.30904,0.22883 -45.48343,9.58194 -63.61081,27.7348 l -63.24628,63.33741 116.6502,116.40718 63.18552,-63.24628 c 34.12217,-34.17004 37.14461,-86.20077 6.68309,-116.61982 l -6.68309,-6.65271 c -14.27885,-14.25881 -33.29419,-21.1625 -52.97863,-20.96058 z M 44.314076,637.27782 c -14.432091,0 -26.064029,11.63196 -26.064029,26.06403 l 0,194.69039 28.160087,-28.09933 0,-146.84559 c 0,-8.45605 6.56504,-15.42105 14.945806,-16.25204 0.558718,-0.0555 1.066298,0 1.640394,0 l 145.873506,0 29.61821,-29.55746 -194.173974,0 z m 207.084474,34.17486 -133.14526,133.29715 116.6502,116.46794 2.70361,-2.70362 c 0.0955,-10.85674 1.40029,-21.41539 3.79721,-31.56238 -5.46919,1.62795 -11.61779,0.27268 -15.94827,-4.04023 -6.28852,-6.27983 -6.27878,-16.43387 0,-22.72248 3.13983,-3.14434 7.2098,-4.72761 11.33086,-4.73892 4.12108,-0.0112 8.24739,1.53766 11.39162,4.67816 0.60275,0.60189 1.12294,1.24655 1.61002,1.91379 3.6244,-8.15286 8.00638,-15.88854 13.03201,-23.14777 -3.26676,-6.08014 -2.30974,-13.81303 2.82513,-18.95566 3.13984,-3.14417 7.20978,-4.72759 11.33086,-4.73891 1.84618,-0.005 3.67836,0.31886 5.4376,0.9417 6.52562,-6.13988 13.60951,-11.69462 21.20361,-16.52544 -3.94615,-6.20947 -3.26026,-14.50224 2.15681,-19.92774 l 0.0607,0 c 3.13988,-3.14433 7.20978,-4.72763 11.33087,-4.73892 4.12107,-0.0112 8.24737,1.53764 11.39162,4.67816 1.75667,1.75416 2.9923,3.81808 3.76683,6.01478 8.56895,-3.04056 17.49749,-5.29651 26.73234,-6.65271 L 251.39855,671.45268 z m -4.46551,33.35467 c 4.12967,-9.1e-4 8.24739,1.59102 11.39162,4.73891 6.28852,6.27952 6.28072,16.49458 0,22.78324 -6.27973,6.2883 -16.434,6.29549 -22.72249,0 -6.28853,-6.27984 -6.34033,-16.49491 -0.0608,-22.78324 3.13983,-3.14432 7.26195,-4.73803 11.39162,-4.73891 z m 220.99745,21.90229 -28.22085,28.09933 0,35.81525 c 10.09502,4.68042 19.57505,10.47561 28.22085,17.28489 l 0,-81.19947 z M 282.7483,740.56185 c 4.12965,-0.006 8.24737,1.54667 11.39162,4.67816 6.28849,6.27985 6.21988,16.46455 -0.0608,22.75286 -6.27971,6.28864 -16.43397,6.29582 -22.72249,0 -6.27768,-6.26874 -6.30801,-16.43126 -0.0607,-22.72249 3.13986,-3.14417 7.32272,-4.70358 11.45238,-4.70853 z m -75.97452,4.49589 c 4.12964,-8.9e-4 8.21699,1.59119 11.36124,4.73891 6.28846,6.27984 6.28073,16.46456 0,22.75287 -6.27971,6.28865 -16.43404,6.26328 -22.72248,0 -6.28849,-6.27951 -6.31034,-16.43386 -0.0304,-22.72249 l 0,-0.0304 c 3.13982,-3.14416 7.26197,-4.73802 11.39162,-4.73891 z m 35.78488,35.7545 c 4.12966,-9.1e-4 8.24738,1.56078 11.39162,4.70854 6.28851,6.27986 6.21978,16.43382 -0.0608,22.72248 -6.27969,6.28831 -16.43397,6.29549 -22.72248,0 -6.28847,-6.27985 -6.34078,-16.43415 -0.0608,-22.72248 3.13985,-3.14415 7.32273,-4.70765 11.45238,-4.70854 z m -75.97452,4.49589 c 4.12965,-0.006 8.24738,1.51614 11.39162,4.64779 6.28852,6.27953 6.28093,16.49461 0,22.78324 -6.27968,6.28831 -16.43401,6.32381 -22.72249,0.0607 -6.2885,-6.27984 -6.34064,-16.49493 -0.0607,-22.78324 3.13984,-3.14431 7.26198,-4.70357 11.39162,-4.70854 z m 213.34228,17.83169 c -64.40057,0 -116.6502,52.24963 -116.6502,116.6502 0,64.40056 52.24963,116.65018 116.6502,116.65018 64.40056,0 116.65019,-52.24962 116.65019,-116.65018 0,-64.40057 -52.24963,-116.6502 -116.65019,-116.6502 z m -177.5574,17.89244 c 4.12965,-9.1e-4 8.24738,1.591 11.39162,4.73891 6.2885,6.27984 6.28073,16.43415 0,22.72249 -6.27972,6.28862 -16.49477,6.3242 -22.78324,0.0607 -6.28853,-6.27952 -6.34036,-16.49461 -0.0608,-22.78324 3.13987,-3.14433 7.32272,-4.73802 11.45238,-4.73891 z M 94.953628,828.0495 31.768104,891.38691 c -34.1221619,34.16974 -37.0838676,86.17056 -6.622329,116.58949 l 6.683084,6.6527 c 30.461567,30.419 82.467321,27.3959 116.589441,-6.7743 L 211.60383,944.51743 94.953628,828.0495 z m 250.646042,33.87108 c 2.5821,0 5.01231,1.06322 6.83497,2.88588 l 27.49178,27.49178 27.49178,-27.49178 c 1.82265,-1.82266 4.25287,-2.88588 6.83497,-2.88588 2.5821,0 5.1642,1.06322 6.98686,2.88588 l 13.66994,13.66994 c 1.82266,1.82266 2.88588,4.40476 2.88588,6.98687 0,2.5821 -1.06322,5.01231 -2.88588,6.83497 l -27.49177,27.49178 27.49177,27.49177 c 1.82266,1.82266 2.88588,4.25288 2.88588,6.83498 0,2.5821 -1.06322,5.1642 -2.88588,6.98686 l -13.66994,13.66994 c -1.82266,1.82266 -4.40476,2.88588 -6.98686,2.88588 -2.5821,0 -5.01232,-1.06322 -6.83497,-2.88588 l -27.49178,-27.49178 -27.49178,27.49178 c -1.82266,1.82266 -4.25287,2.88588 -6.83497,2.88588 -2.58211,0 -5.16421,-1.06322 -6.98687,-2.88588 l -13.66994,-13.66994 c -1.82266,-1.82266 -2.88588,-4.40476 -2.88588,-6.98686 0,-2.5821 1.06322,-5.01232 2.88588,-6.83498 l 27.49178,-27.49177 -27.49178,-27.49178 c -1.82266,-1.82266 -2.88588,-4.25287 -2.88588,-6.83497 0,-2.58211 1.06322,-5.16421 2.88588,-6.98687 l 13.66994,-13.66994 c 1.82266,-1.82266 4.40476,-2.88588 6.98687,-2.88588 z"
       id="path3881"
       inkscape:connector-curvature="0" />
  </g>
</svg>
