<?xml version="1.0" encoding="UTF-8" standalone="no"?>
<!-- Created with Inkscape (http://www.inkscape.org/) -->

<svg
   xmlns:dc="http://purl.org/dc/elements/1.1/"
   xmlns:cc="http://creativecommons.org/ns#"
   xmlns:rdf="http://www.w3.org/1999/02/22-rdf-syntax-ns#"
   xmlns:svg="http://www.w3.org/2000/svg"
   xmlns="http://www.w3.org/2000/svg"
   xmlns:sodipodi="http://sodipodi.sourceforge.net/DTD/sodipodi-0.dtd"
   xmlns:inkscape="http://www.inkscape.org/namespaces/inkscape"
   width="500"
   height="500"
   id="svg3012"
   version="1.1"
   inkscape:version="0.48.2 r9819"
   sodipodi:docname="patch-install.svg">
  <defs
     id="defs3014" />
  <sodipodi:namedview
     id="base"
     pagecolor="#ffffff"
     bordercolor="#666666"
     borderopacity="1.0"
     inkscape:pageopacity="0.0"
     inkscape:pageshadow="2"
     inkscape:zoom="0.98994952"
     inkscape:cx="413.34976"
     inkscape:cy="198.89215"
     inkscape:document-units="px"
     inkscape:current-layer="layer1"
     showgrid="false"
     inkscape:window-width="870"
     inkscape:window-height="706"
     inkscape:window-x="142"
     inkscape:window-y="22"
     inkscape:window-maximized="0" />
  <metadata
     id="metadata3017">
    <rdf:RDF>
      <cc:Work
         rdf:about="">
        <dc:format>image/svg+xml</dc:format>
        <dc:type
           rdf:resource="http://purl.org/dc/dcmitype/StillImage" />
        <dc:title />
      </cc:Work>
    </rdf:RDF>
  </metadata>
  <g
     inkscape:label="Layer 1"
     inkscape:groupmode="layer"
     id="layer1"
     transform="translate(0,-552.36218)">
    <path
       style="fill:#333333;stroke:none"
       d="m 399.90921,557.08079 c -22.22004,0.22792 -45.30198,9.54371 -63.35705,27.62415 l -62.99396,63.08474 116.18483,115.94278 62.93345,-62.99396 c 33.98604,-34.03372 36.99642,-85.85688 6.65643,-116.15458 l -6.65643,-6.62617 C 438.4546,563.75583 419.51512,556.87968 399.90921,557.08079 z M 44.153665,636.95786 c -14.374516,0 -25.960049,11.58556 -25.960049,25.96005 l 0,193.9137 28.047745,-27.98723 0,-146.25977 c 0,-8.42231 6.53885,-15.35952 14.886182,-16.1872 0.556488,-0.0553 1.062044,0 1.633849,0 l 145.291558,0 29.50005,-29.43955 -193.399335,0 z M 250.412,670.99639 117.79791,803.76177 l 116.18483,116.00329 2.69283,-2.69282 c 0.0951,-10.81343 1.3947,-21.32996 3.78205,-31.43647 -5.44736,1.62145 -11.57143,0.27159 -15.88464,-4.02411 -6.26343,-6.25479 -6.25373,-16.36832 0,-22.63184 3.12731,-3.13179 7.18103,-4.70875 11.28566,-4.72001 4.10464,-0.0111 8.21448,1.53152 11.34618,4.6595 0.60034,0.59948 1.11845,1.24158 1.60359,1.90615 3.60994,-8.12034 7.97444,-15.82516 12.98002,-23.05543 -3.25372,-6.05588 -2.30052,-13.75792 2.81385,-18.88003 3.12732,-3.13163 7.18103,-4.70873 11.28567,-4.72001 1.83881,-0.005 3.66368,0.31759 5.4159,0.93795 6.49959,-6.11539 13.55522,-11.64797 21.11902,-16.45952 -3.93041,-6.1847 -3.24725,-14.44439 2.14821,-19.84824 l 0.0605,0 c 3.12735,-3.13178 7.18102,-4.70877 11.28566,-4.72001 4.10463,-0.0111 8.21447,1.5315 11.34618,4.6595 1.74965,1.74716 2.98036,3.80284 3.7518,5.99078 8.53476,-3.02843 17.42769,-5.27538 26.62569,-6.62617 L 250.412,670.99639 z m -4.4477,33.2216 c 4.1132,-9e-4 8.21449,1.58467 11.34618,4.72001 6.26342,6.25447 6.25566,16.42878 0,22.69235 -6.25468,6.26321 -16.36844,6.27037 -22.63184,0 -6.26345,-6.25479 -6.31504,-16.42911 -0.0605,-22.69235 3.1273,-3.13178 7.23298,-4.71913 11.34617,-4.72001 z m 220.1158,21.81491 -28.10826,27.98723 0,35.67238 c 10.05474,4.66174 19.49696,10.43381 28.10826,17.21593 l 0,-80.87554 z m -184.44342,13.79695 c 4.11317,-0.006 8.21447,1.54051 11.34617,4.6595 6.26341,6.2548 6.19507,16.39887 -0.0605,22.66209 -6.25466,6.26355 -16.36841,6.2707 -22.63184,0 -6.25264,-6.24373 -6.28285,-16.36571 -0.0605,-22.63184 3.12733,-3.13162 7.2935,-4.68481 11.40669,-4.68975 z m -75.67143,4.47796 c 4.11317,-8.9e-4 8.18422,1.58484 11.31592,4.72001 6.26337,6.25478 6.25567,16.39887 0,22.66209 -6.25466,6.26356 -16.36848,6.23829 -22.63184,0 -6.2634,-6.25446 -6.28521,-16.36829 -0.0302,-22.63184 l 0,-0.0303 c 3.12729,-3.13162 7.233,-4.71912 11.34617,-4.72001 z m 35.64212,35.61186 c 4.11318,-9.1e-4 8.21448,1.55455 11.34617,4.68975 6.26343,6.25481 6.19497,16.36827 -0.0605,22.63184 -6.25463,6.26321 -16.36841,6.27037 -22.63184,0 -6.26337,-6.2548 -6.31547,-16.36859 -0.0605,-22.63184 3.12732,-3.13161 7.29351,-4.68887 11.40669,-4.68975 z m -75.67142,4.47796 c 4.11317,-0.006 8.21448,1.51008 11.34617,4.62924 6.26343,6.25448 6.25588,16.4288 0,22.69235 -6.25463,6.26322 -16.36845,6.29858 -22.63184,0.0605 -6.26342,-6.25479 -6.31535,-16.42913 -0.0605,-22.69235 3.12732,-3.13176 7.23301,-4.68481 11.34618,-4.68975 z m 213.91322,17.76054 c -64.29851,0 -116.4874,52.15864 -116.4874,116.45715 0,64.2985 52.18889,116.45718 116.4874,116.45718 64.2985,0 116.45714,-52.15868 116.45714,-116.45718 0,-64.29851 -52.15864,-116.45715 -116.45714,-116.45715 z m -178.27111,17.82106 c 4.11318,-9e-4 8.21448,1.58466 11.34618,4.72001 6.26342,6.25478 6.25567,16.36859 0,22.63184 -6.25467,6.26353 -16.42896,6.29897 -22.69235,0.0605 -6.26344,-6.25447 -6.31506,-16.42881 -0.0605,-22.69235 3.12733,-3.13179 7.2935,-4.71912 11.40668,-4.72001 z M 94.591196,826.96848 31.657744,890.05321 C -2.3282908,924.08663 -5.2781811,975.88 25.061834,1006.1775 l 6.656423,6.6262 c 30.340044,30.2977 82.138333,27.2866 116.124323,-6.7472 L 210.77603,942.97177 94.591196,826.96848 z m 275.545644,23.69081 19.3944,0 c 5.30766,0 9.71232,4.40466 9.71232,9.71233 l 0,38.81904 38.81905,0 c 5.30766,0 9.71233,4.40467 9.71233,9.71233 l 0,19.42465 c 0,5.30766 -4.40467,9.68207 -9.71233,9.68207 l -38.81905,0 0,38.81905 c 0,5.30766 -4.40466,9.71232 -9.71232,9.71232 l -19.3944,0 c -5.30766,0 -9.71232,-4.40466 -9.71232,-9.71232 l 0,-38.81905 -38.81905,0 c -5.30766,0 -9.71233,-4.37441 -9.71233,-9.68207 l 0,-19.42465 c 0,-5.30766 4.40467,-9.71233 9.71233,-9.71233 l 38.81905,0 0,-38.81904 c 0,-5.30767 4.40466,-9.71233 9.71232,-9.71233 z"
       id="path3881"
       inkscape:connector-curvature="0" />
  </g>
</svg>
