<?xml version="1.0" encoding="UTF-8" standalone="no"?>
<!-- Created with Inkscape (http://www.inkscape.org/) -->

<svg
   xmlns:dc="http://purl.org/dc/elements/1.1/"
   xmlns:cc="http://creativecommons.org/ns#"
   xmlns:rdf="http://www.w3.org/1999/02/22-rdf-syntax-ns#"
   xmlns:svg="http://www.w3.org/2000/svg"
   xmlns="http://www.w3.org/2000/svg"
   xmlns:xlink="http://www.w3.org/1999/xlink"
   xmlns:sodipodi="http://sodipodi.sourceforge.net/DTD/sodipodi-0.dtd"
   xmlns:inkscape="http://www.inkscape.org/namespaces/inkscape"
   width="512"
   height="512"
   id="svg2"
   version="1.1"
   inkscape:version="0.48.2 r9819"
   sodipodi:docname="BS-badge.svg"
   inkscape:export-filename="/Users/Cynthia/Documents/SUSEmanager/icons/final_icons/green.png"
   inkscape:export-xdpi="90"
   inkscape:export-ydpi="90">
  <defs
     id="defs4">
    <linearGradient
       id="linearGradient3863">
      <stop
         id="stop3865"
         offset="0"
         style="stop-color:#858585;stop-opacity:1;" />
      <stop
         id="stop3867"
         offset="1"
         style="stop-color:#a8a8a8;stop-opacity:1;" />
    </linearGradient>
    <linearGradient
       id="linearGradient3864">
      <stop
         id="stop3866"
         offset="0"
         style="stop-color:#386f04;stop-opacity:1;" />
      <stop
         id="stop3868"
         offset="1"
         style="stop-color:#388304;stop-opacity:1;" />
    </linearGradient>
    <linearGradient
       id="linearGradient3848">
      <stop
         style="stop-color:#005d00;stop-opacity:1;"
         offset="0"
         id="stop3850" />
      <stop
         style="stop-color:#005d00;stop-opacity:0.93162394;"
         offset="1"
         id="stop3852" />
    </linearGradient>
    <linearGradient
       id="linearGradient3048">
      <stop
         style="stop-color:#acacac;stop-opacity:1;"
         offset="0"
         id="stop3050" />
      <stop
         style="stop-color:#bababa;stop-opacity:1;"
         offset="1"
         id="stop3052" />
    </linearGradient>
    <linearGradient
       inkscape:collect="always"
       xlink:href="#linearGradient3048"
       id="linearGradient3838"
       x1="-522.88434"
       y1="494.75797"
       x2="-172.10062"
       y2="494.75797"
       gradientUnits="userSpaceOnUse" />
    <linearGradient
       inkscape:collect="always"
       xlink:href="#linearGradient3863"
       id="linearGradient3862"
       x1="1571.1042"
       y1="530.30292"
       x2="1719.9153"
       y2="530.30292"
       gradientUnits="userSpaceOnUse"
       gradientTransform="matrix(1.7203025,0,0,1.7203025,-2828.889,78.881332)" />
    <linearGradient
       inkscape:collect="always"
       xlink:href="#linearGradient3863"
       id="linearGradient3886"
       x1="-522.88434"
       y1="494.75797"
       x2="-172.10062"
       y2="494.75797"
       gradientUnits="userSpaceOnUse" />
    <linearGradient
       inkscape:collect="always"
       xlink:href="#linearGradient3863"
       id="linearGradient3908"
       gradientUnits="userSpaceOnUse"
       gradientTransform="matrix(0.42598509,0,0,0.42598509,-254.12346,688.81298)"
       x1="1571.1042"
       y1="530.30292"
       x2="1719.9153"
       y2="530.30292" />
    <linearGradient
       inkscape:collect="always"
       xlink:href="#linearGradient3863"
       id="linearGradient3924"
       gradientUnits="userSpaceOnUse"
       gradientTransform="matrix(0.21299254,0,0,0.21299254,199.6735,790.20393)"
       x1="1571.1042"
       y1="530.30292"
       x2="1719.9153"
       y2="530.30292" />
    <linearGradient
       inkscape:collect="always"
       xlink:href="#linearGradient3863"
       id="linearGradient3968"
       gradientUnits="userSpaceOnUse"
       gradientTransform="matrix(0.86015125,0,0,0.86015125,-1139.4488,485.15147)"
       x1="1571.1042"
       y1="530.30292"
       x2="1719.9153"
       y2="530.30292" />
    <linearGradient
       inkscape:collect="always"
       xlink:href="#linearGradient3863"
       id="linearGradient3996"
       gradientUnits="userSpaceOnUse"
       gradientTransform="matrix(0.10649628,0,0,0.10649628,422.91416,842.6865)"
       x1="1571.1042"
       y1="530.30292"
       x2="1719.9153"
       y2="530.30292" />
    <linearGradient
       inkscape:collect="always"
       xlink:href="#linearGradient3048"
       id="linearGradient3935"
       x1="143.64621"
       y1="561.49445"
       x2="399.64621"
       y2="561.49445"
       gradientUnits="userSpaceOnUse"
       gradientTransform="matrix(0.98582997,0,0,0.98582997,-267.9889,139.79622)" />
    <linearGradient
       inkscape:collect="always"
       xlink:href="#linearGradient3048"
       id="linearGradient3949"
       gradientUnits="userSpaceOnUse"
       gradientTransform="matrix(0.492915,0,0,0.492915,122.9684,366.56525)"
       x1="143.64621"
       y1="561.49445"
       x2="399.64621"
       y2="561.49445" />
    <linearGradient
       inkscape:collect="always"
       xlink:href="#linearGradient3048"
       id="linearGradient3959"
       gradientUnits="userSpaceOnUse"
       gradientTransform="matrix(0.24645748,0,0,0.24645748,368.94705,485.94977)"
       x1="143.64621"
       y1="561.49445"
       x2="399.64621"
       y2="561.49445" />
    <linearGradient
       inkscape:collect="always"
       xlink:href="#linearGradient3048"
       id="linearGradient3969"
       gradientUnits="userSpaceOnUse"
       gradientTransform="matrix(0.12246564,0,0,0.12246564,512.54398,543.67029)"
       x1="143.64621"
       y1="561.49445"
       x2="399.64621"
       y2="561.49445" />
    <linearGradient
       inkscape:collect="always"
       xlink:href="#linearGradient3048"
       id="linearGradient3979"
       gradientUnits="userSpaceOnUse"
       gradientTransform="matrix(0.06127844,0,0,0.06127844,603.22844,572.97066)"
       x1="143.64621"
       y1="561.49445"
       x2="399.64621"
       y2="561.49445" />
    <linearGradient
       inkscape:collect="always"
       xlink:href="#linearGradient3863"
       id="linearGradient4021"
       gradientUnits="userSpaceOnUse"
       gradientTransform="matrix(0.98582995,0,0,0.98582995,-269.9889,443.79622)"
       x1="143.64621"
       y1="561.49445"
       x2="399.64621"
       y2="561.49445" />
    <linearGradient
       inkscape:collect="always"
       xlink:href="#linearGradient3863"
       id="linearGradient4023"
       gradientUnits="userSpaceOnUse"
       gradientTransform="matrix(0.49291501,0,0,0.49291501,120.9684,670.56523)"
       x1="143.64621"
       y1="561.49445"
       x2="399.64621"
       y2="561.49445" />
    <linearGradient
       inkscape:collect="always"
       xlink:href="#linearGradient3863"
       id="linearGradient4025"
       gradientUnits="userSpaceOnUse"
       gradientTransform="matrix(0.24645748,0,0,0.24645748,366.94705,789.94976)"
       x1="143.64621"
       y1="561.49445"
       x2="399.64621"
       y2="561.49445" />
    <linearGradient
       inkscape:collect="always"
       xlink:href="#linearGradient3863"
       id="linearGradient4027"
       gradientUnits="userSpaceOnUse"
       gradientTransform="matrix(0.12246564,0,0,0.12246564,510.54398,847.67028)"
       x1="143.64621"
       y1="561.49445"
       x2="399.64621"
       y2="561.49445" />
    <linearGradient
       inkscape:collect="always"
       xlink:href="#linearGradient3863"
       id="linearGradient4029"
       gradientUnits="userSpaceOnUse"
       gradientTransform="matrix(0.06127844,0,0,0.06127844,601.22844,876.97065)"
       x1="143.64621"
       y1="561.49445"
       x2="399.64621"
       y2="561.49445" />
  </defs>
  <sodipodi:namedview
     id="base"
     pagecolor="#ffffff"
     bordercolor="#666666"
     borderopacity="1.0"
     inkscape:pageopacity="0.0"
     inkscape:pageshadow="2"
     inkscape:zoom="0.7071068"
     inkscape:cx="464.21864"
     inkscape:cy="270.19271"
     inkscape:document-units="px"
     inkscape:current-layer="layer1"
     showgrid="false"
     inkscape:object-paths="true"
     inkscape:window-width="1267"
     inkscape:window-height="658"
     inkscape:window-x="0"
     inkscape:window-y="22"
     inkscape:window-maximized="0"
     inkscape:snap-bbox="true" />
  <metadata
     id="metadata7">
    <rdf:RDF>
      <cc:Work
         rdf:about="">
        <dc:format>image/svg+xml</dc:format>
        <dc:type
           rdf:resource="http://purl.org/dc/dcmitype/StillImage" />
        <dc:title />
      </cc:Work>
    </rdf:RDF>
  </metadata>
  <g
     inkscape:label="Layer 1"
     inkscape:groupmode="layer"
     id="layer1"
     transform="translate(0,-540.36218)">
    <path
       style="fill:#333333;stroke:none"
       d="m 424.01115,541.80476 c -23.80292,0.24415 -48.52913,10.23527 -67.87039,29.60371 l -67.49645,67.55877 124.46022,124.21092 67.43412,-67.49645 c 36.40709,-36.45816 39.60622,-91.94188 7.10489,-124.39789 l -7.10489,-7.10489 c -15.23501,-15.21362 -35.52492,-22.5896 -56.5275,-22.37417 z M 42.902375,627.37505 c -15.398515,0 -27.796324,12.39783 -27.796324,27.79633 l 0,207.72453 30.039973,-29.97765 0,-156.68151 c 0,-9.02228 7.01287,-16.43931 15.95484,-17.32596 0.596132,-0.0592 1.132514,0 1.74506,0 l 155.622026,0 31.59806,-31.53574 -207.163635,0 z M 263.83952,663.83436 121.80404,806.05679 246.26427,930.33004 388.23741,788.1076 263.83952,663.83436 z m -4.73659,35.58677 c 4.40621,-9.6e-4 8.79831,1.68952 12.1531,5.04821 6.70961,6.70001 6.70129,17.59643 0,24.3062 -6.70024,6.70939 -17.53431,6.71705 -24.24388,0 -6.70963,-6.70037 -6.76232,-17.59679 -0.0622,-24.3062 3.35009,-3.35489 7.74689,-5.04726 12.1531,-5.04821 z m 235.77015,23.37134 -30.1023,29.97765 0,156.68151 c 0,9.02233 -7.01289,16.50164 -15.95484,17.38829 -0.59615,0.059 -1.13253,0 -1.74506,0 l -155.55968,0 -31.59807,31.47349 207.16363,0 c 15.39851,0 27.79632,-12.39791 27.79632,-27.7964 l 0,-207.72454 z m -197.56579,14.7707 c 4.40619,-0.006 8.79832,1.6447 12.1531,4.98588 6.70961,6.70038 6.63899,17.5968 -0.0622,24.3062 -6.70022,6.70975 -17.53427,6.71741 -24.24388,0 -6.69806,-6.68852 -6.72772,-17.53137 -0.0622,-24.24387 3.35011,-3.35471 7.80923,-5.04293 12.21542,-5.04821 z m -81.08299,4.79891 c 4.40618,-9.5e-4 8.79831,1.6897 12.1531,5.04821 6.70956,6.70036 6.70131,17.5968 0,24.3062 -6.70022,6.70975 -17.53433,6.68269 -24.24388,0 -6.70958,-6.70001 -6.76271,-17.53414 -0.0622,-24.24387 l 0,-0.0622 c 3.35007,-3.3547 7.74691,-5.04725 12.1531,-5.04821 z m 117.79159,31.90968 c 4.39703,-0.012 8.79831,1.63507 12.1531,4.98589 6.70961,6.70002 6.70131,17.59643 0,24.3062 -6.70024,6.70973 -17.53431,6.71703 -24.24388,0 -6.70957,-6.70003 -6.76156,-17.53413 -0.0622,-24.24388 l 0.0622,0 c 3.35012,-3.35488 7.69374,-5.03616 12.09078,-5.04821 z m -79.58723,6.23236 c 4.40619,-9.6e-4 8.79831,1.68968 12.1531,5.04821 6.70961,6.70038 6.63897,17.53411 -0.0622,24.24388 -6.70019,6.70939 -17.53426,6.71705 -24.24387,0 -6.70955,-6.70037 -6.76268,-17.53447 -0.0622,-24.24388 3.3501,-3.3547 7.80924,-5.04725 12.21543,-5.04821 z m -81.08301,4.79892 c 4.40619,-0.006 8.79832,1.64454 12.1531,4.98589 6.70961,6.70003 6.70152,17.59645 0,24.3062 -6.70019,6.70939 -17.5343,6.74467 -24.24387,0.0622 -6.70961,-6.70035 -6.76254,-17.59681 -0.0622,-24.3062 3.3501,-3.35486 7.74692,-5.04291 12.1531,-5.04821 z m 117.7916,31.90968 c 4.39704,-0.012 8.79832,1.63507 12.1531,4.98589 6.70959,6.70037 6.70132,17.59647 0,24.3062 -6.70021,6.70943 -17.53426,6.68234 -24.24387,0 -6.70957,-6.70038 -6.69924,-17.53449 0,-24.24388 3.35009,-3.35471 7.69374,-5.03613 12.09077,-5.04821 z m -79.58722,6.23236 c 4.40618,-9.6e-4 8.79831,1.68951 12.1531,5.04821 6.70961,6.70037 6.70131,17.53447 0,24.24388 -6.70022,6.70974 -17.59664,6.745 -24.30621,0.0622 -6.70963,-6.70002 -6.76234,-17.59645 -0.0622,-24.3062 3.35011,-3.35489 7.80925,-5.04726 12.21544,-5.04821 z m -114.613101,7.47883 -67.434127,67.55877 c -36.4070897,36.45785 -39.543911,91.94224 -7.042566,124.39802 l 7.10489,7.1048 c 32.501364,32.456 87.990844,29.2287 124.397894,-7.2295 L 221.39715,955.19723 96.936929,830.92391 z m 151.321691,29.22976 c 4.39704,-0.012 8.79832,1.63508 12.1531,4.98589 6.70961,6.70004 6.70132,17.59645 0,24.3062 -6.70019,6.70941 -17.53429,6.68235 -24.24387,0 -6.70961,-6.70035 -6.69922,-17.53415 0,-24.24388 3.35009,-3.35488 7.69374,-5.03616 12.09077,-5.04821 z"
       id="path3881"
       inkscape:connector-curvature="0" />
  </g>
</svg>
