<?xml version="1.0" encoding="UTF-8" standalone="no"?>
<!-- Created with Inkscape (http://www.inkscape.org/) -->

<svg
   xmlns:dc="http://purl.org/dc/elements/1.1/"
   xmlns:cc="http://creativecommons.org/ns#"
   xmlns:rdf="http://www.w3.org/1999/02/22-rdf-syntax-ns#"
   xmlns:svg="http://www.w3.org/2000/svg"
   xmlns="http://www.w3.org/2000/svg"
   xmlns:sodipodi="http://sodipodi.sourceforge.net/DTD/sodipodi-0.dtd"
   xmlns:inkscape="http://www.inkscape.org/namespaces/inkscape"
   width="500"
   height="500"
   id="svg4352"
   version="1.1"
   inkscape:version="0.48.2 r9819"
   sodipodi:docname="patchset-install.svg">
  <defs
     id="defs4354" />
  <sodipodi:namedview
     id="base"
     pagecolor="#ffffff"
     bordercolor="#666666"
     borderopacity="1.0"
     inkscape:pageopacity="0.0"
     inkscape:pageshadow="2"
     inkscape:zoom="0.35"
     inkscape:cx="282.2737"
     inkscape:cy="242.80584"
     inkscape:document-units="px"
     inkscape:current-layer="layer1"
     showgrid="false"
     showguides="true"
     inkscape:guide-bbox="true"
     inkscape:window-width="752"
     inkscape:window-height="571"
     inkscape:window-x="486"
     inkscape:window-y="61"
     inkscape:window-maximized="0" />
  <metadata
     id="metadata4357">
    <rdf:RDF>
      <cc:Work
         rdf:about="">
        <dc:format>image/svg+xml</dc:format>
        <dc:type
           rdf:resource="http://purl.org/dc/dcmitype/StillImage" />
        <dc:title />
      </cc:Work>
    </rdf:RDF>
  </metadata>
  <g
     inkscape:label="Layer 1"
     inkscape:groupmode="layer"
     id="layer1"
     transform="translate(0,-552.36218)">
    <path
       style="fill:#000000;stroke:none"
       d="M 265.15625 2.6875 C 255.45217 2.79463 246.10259 5.91872 238 11.40625 C 225.75609 19.6985 216.37242 33.36502 213 50.03125 L 201.21875 108.1875 L 308.28125 129.78125 L 320.0625 71.6875 C 326.41061 40.31584 309.02945 10.50303 281.0625 4.84375 L 274.9375 3.59375 C 271.66013 2.93058 268.39095 2.6518 265.15625 2.6875 z M 118.5625 8.40625 C 116.81616 8.43755 115.04938 8.5799 113.28125 8.8125 L 107.09375 9.625 C 93.832863 11.36957 82.5323 18.57371 74.6875 29 C 65.796748 40.81649 61.344622 56.76626 63.5625 73.625 L 71.28125 132.4375 L 179.5625 118.15625 L 171.875 59.40625 C 167.96112 29.65555 144.75737 7.93663 118.5625 8.40625 z M 401.21875 41.25 C 395.62283 41.3364 390.05865 42.37926 384.6875 44.3125 C 370.7737 49.32053 358.29407 60.24729 350.90625 75.5625 L 325.09375 129 L 423.53125 176.40625 L 449.28125 123.03125 C 463.18777 94.20264 453.73109 61.02238 428.03125 48.625 L 422.4375 45.875 C 415.66117 42.60624 408.41355 41.13909 401.21875 41.25 z M 196.90625 129.53125 L 187.34375 176.84375 L 187.03125 174.5 L 185.03125 184.28125 L 185.9375 183.6875 L 182.53125 200.59375 C 182.34697 200.04349 182.188 199.47756 182.0625 198.90625 L 177.25 222.78125 C 177.57262 222.32635 177.91857 221.88739 178.28125 221.46875 L 175.78125 233.90625 L 188.375 237.6875 C 188.04316 237.11303 187.78291 236.50358 187.5625 235.875 C 188.18002 236.44316 188.93909 236.87604 189.84375 237.0625 C 192.00655 237.48849 194.00558 236.44978 194.9375 234.59375 L 194.21875 229.0625 C 193.57503 228.38842 192.69908 227.92344 191.6875 227.71875 C 191.36169 227.65325 191.06007 227.59284 190.75 227.59375 C 190.43991 227.59437 190.14128 227.6566 189.84375 227.71875 C 189.24868 227.84306 188.67695 228.09157 188.15625 228.4375 C 187.94283 228.57924 187.74983 228.73419 187.5625 228.90625 C 188.34732 226.65438 189.82054 224.76067 191.71875 223.5 C 193.99868 221.98532 196.83501 221.32662 199.71875 221.90625 C 205.49219 223.07443 209.23142 228.72597 208.0625 234.5 C 207.38589 237.84348 205.19563 240.48468 202.375 241.90625 L 232.0625 250.8125 L 251.4375 245.90625 C 251.4027 245.06203 251.48104 244.20957 251.65625 243.34375 C 252.24036 240.45697 253.91438 238.07718 256.1875 236.5625 C 258.46062 235.04784 261.33179 234.41547 264.21875 235 C 267.58993 235.68212 270.21532 237.84955 271.625 240.71875 C 271.49524 240.70405 271.34684 240.6887 271.21875 240.6875 L 269.875 243.53125 L 274.8125 242.3125 C 274.15261 241.56453 273.20685 241.03138 272.125 240.8125 C 272.01568 240.7903 271.91981 240.7661 271.8125 240.75 L 285.59375 237.28125 C 285.87735 237.78622 286.11352 238.31101 286.34375 238.84375 C 286.69221 238.67796 287.01098 238.53355 287.375 238.40625 C 288.06375 238.16523 288.80677 237.97313 289.53125 237.875 L 294.5 213.21875 C 293.64007 216.09447 292.02249 218.54189 289.9375 220.5 L 293.75 201.75 C 294.92118 204.37282 295.45124 207.31657 295.125 210.3125 L 301.75 177.4375 L 296.4375 188.46875 L 303.96875 151.25 L 196.90625 129.53125 z M 181.875 139.9375 L 74.15625 154.0625 L 81.15625 207.5 L 92.9375 211.0625 C 93.30038 209.67032 93.94973 208.37306 94.8125 207.25 C 96.48008 205.07939 98.950763 203.56847 101.875 203.1875 C 102.24002 203.1395 102.6397 203.10431 103 203.09375 C 108.40433 202.93575 113.15521 206.89939 113.875 212.375 C 114.09604 214.05492 113.91843 215.68899 113.40625 217.1875 L 163.25 232.1875 L 166.59375 215.625 C 162.16453 214.81799 158.55736 211.2722 157.9375 206.5625 C 157.55339 203.64244 158.37262 200.85781 160.03125 198.6875 C 161.68992 196.5172 164.1733 194.97761 167.09375 194.59375 C 168.37132 194.42569 169.62366 194.51399 170.8125 194.78125 L 181.875 139.9375 z M 212.5625 147.8125 C 213.27214 147.81247 213.96509 147.88414 214.6875 148.03125 C 220.46095 149.19944 224.20003 154.85103 223.03125 160.625 C 221.86288 166.3984 216.24802 170.14576 210.46875 168.96875 C 204.69518 167.80041 200.92546 162.14838 202.09375 156.375 C 202.67784 153.48821 204.37458 151.10584 206.65625 149.59375 C 208.36749 148.45968 210.43359 147.8126 212.5625 147.8125 z M 319.3125 150.375 L 318.90625 152.40625 L 314.1875 175.65625 C 315.48652 173.15218 317.66469 171.36862 320.15625 170.5 C 322.74091 169.59889 325.658 169.68407 328.3125 170.96875 C 333.61795 173.52795 335.84116 179.91293 333.28125 185.21875 C 330.7219 190.52413 324.37142 192.7567 319.0625 190.1875 C 315.52774 188.48234 313.36841 185.0872 313.0625 181.4375 L 308.5 203.9375 C 309.66176 204.0721 310.8252 204.36797 311.9375 204.90625 C 317.24301 207.46565 319.46625 213.88192 316.90625 219.1875 C 314.60182 223.96479 309.20175 226.17729 304.28125 224.71875 L 302.09375 235.375 L 326.78125 229.15625 C 326.77225 227.5897 327.11563 225.97804 327.84375 224.46875 C 329.12343 221.81606 331.3841 219.93234 333.96875 219.03125 C 334.93799 218.69334 335.96776 218.45396 337 218.40625 C 338.72043 218.32675 340.4972 218.66589 342.15625 219.46875 C 344.27737 220.492 345.8589 222.16491 346.875 224.09375 L 375.5625 216.8125 C 372.32004 213.71027 371.25631 208.76328 373.3125 204.5 L 373.34375 204.5 C 374.6234 201.84721 376.82921 199.99949 379.40625 199.09375 C 380.37263 198.75411 381.37582 198.52218 382.40625 198.46875 C 384.12361 198.37955 385.90444 198.76246 387.5625 199.5625 C 392.41195 201.90171 394.63366 207.3889 393.03125 212.375 L 408 208.59375 L 414.03125 196.125 L 319.3125 150.375 z M 245.375 154.4375 C 246.0825 154.4345 246.81032 154.51134 247.53125 154.65625 C 253.3048 155.82462 257.01261 161.50753 255.84375 167.28125 C 254.67552 173.05485 249.06067 176.77095 243.28125 175.59375 C 237.51772 174.42757 233.7882 168.79436 234.9375 163.03125 C 235.52167 160.14453 237.25108 157.73308 239.53125 156.21875 C 241.2412 155.08273 243.25253 154.44736 245.375 154.4375 z M 163.25 157.125 C 168.65421 156.9669 173.43626 160.96173 174.15625 166.4375 C 174.9246 172.27776 170.78599 177.61307 164.9375 178.375 C 159.0974 179.14336 153.7687 175.05858 153 169.21875 L 153.03125 169.1875 C 152.64705 166.26739 153.46635 163.45156 155.125 161.28125 C 156.78367 159.11097 159.23577 157.60264 162.15625 157.21875 C 162.52125 157.17075 162.8897 157.13557 163.25 157.125 z M 277 160.875 C 277.70817 160.872 278.43449 160.94764 279.15625 161.09375 C 284.92971 162.26194 288.6688 167.88228 287.5 173.65625 C 286.33175 179.42983 280.71677 183.14577 274.9375 181.96875 C 269.16408 180.80054 265.39469 175.24205 266.5625 169.46875 L 266.59375 169.4375 C 267.17788 166.55071 268.85188 164.17094 271.125 162.65625 C 272.82985 161.52025 274.87547 160.88416 277 160.875 z M 131.28125 161.28125 C 136.68302 161.12663 141.40513 165.14942 142.125 170.625 C 142.89338 176.46525 138.81743 181.83195 132.96875 182.59375 C 127.13866 183.3608 121.78286 179.23046 121 173.40625 C 120.61588 170.48619 121.45955 167.67225 123.125 165.5 C 124.79007 163.32747 127.27179 161.79379 130.1875 161.40625 C 130.55251 161.35825 130.92113 161.29159 131.28125 161.28125 z M 98.0625 165.71875 C 103.4667 165.56065 108.21751 169.55551 108.9375 175.03125 C 109.70569 180.87139 105.62973 186.20683 99.78125 186.96875 C 93.94095 187.73701 88.51826 183.62135 87.75 177.78125 C 87.3658 174.86112 88.23868 172.04561 89.90625 169.875 C 91.57383 167.70433 94.07566 166.1934 97 165.8125 C 97.36501 165.7645 97.70222 165.72932 98.0625 165.71875 z M 353.375 184.4375 C 353.71994 184.4189 354.06056 184.4216 354.40625 184.4375 C 355.78906 184.5014 357.17453 184.86279 358.5 185.5 C 363.80553 188.05938 365.9974 194.44442 363.4375 199.75 C 360.87822 205.05558 354.52777 207.28813 349.21875 204.71875 C 343.92243 202.16395 341.68038 195.80011 344.21875 190.5 C 345.49841 187.84729 347.75999 185.93489 350.34375 185.03125 C 351.3126 184.69223 352.34018 184.49303 353.375 184.4375 z M 205.0625 184.78125 C 205.77214 184.78121 206.46508 184.85289 207.1875 185 C 212.96103 186.16838 216.70016 191.81998 215.53125 197.59375 C 214.36301 203.36734 208.76747 207.06548 203 205.90625 C 197.22658 204.73806 193.48786 199.11742 194.65625 193.34375 L 194.625 193.34375 C 195.20915 190.45705 196.90586 188.04333 199.1875 186.53125 C 200.89873 185.39721 202.93359 184.78138 205.0625 184.78125 z M 237.9375 191.40625 C 238.64714 191.40621 239.3401 191.47789 240.0625 191.625 C 245.83609 192.79338 249.54373 198.44483 248.375 204.21875 C 247.20666 209.99215 241.62303 213.70826 235.84375 212.53125 C 230.07021 211.36286 226.26899 205.77349 227.4375 200 C 228.02167 197.11331 229.78081 194.73082 232.0625 193.21875 C 233.77373 192.08469 235.8086 191.40636 237.9375 191.40625 z M 269.53125 197.8125 C 270.23942 197.8095 270.93451 197.88512 271.65625 198.03125 C 277.4298 199.19962 281.1688 204.81979 280 210.59375 C 278.83167 216.36718 273.20489 220.09654 267.4375 218.9375 C 261.66395 217.76913 257.98838 212.14807 259.15625 206.375 C 259.74041 203.48831 261.4144 201.13969 263.6875 199.625 C 265.39236 198.489 267.40675 197.82165 269.53125 197.8125 z M 136.25 198.71875 C 141.64837 198.56151 146.34248 202.55558 147.0625 208.03125 C 147.83071 213.87138 143.72352 219.17557 137.875 219.9375 C 132.03475 220.70571 126.67436 216.65275 125.90625 210.8125 C 125.52214 207.89242 126.39493 205.04563 128.0625 202.875 C 129.73006 200.70439 132.23201 199.19346 135.15625 198.8125 C 135.52129 198.7645 135.8901 198.72925 136.25 198.71875 z M 55.71875 213.78125 L 54.5625 425.96875 L 232.0625 497.4375 L 305.0625 471.625 C 300.81366 466.13719 297.02939 460.25469 293.78125 454.0625 L 233.59375 475.0625 L 72.25 409.34375 L 72.25 239.96875 L 234.75 288.40625 L 406.46875 242.3125 L 406.21875 280.46875 C 411.81327 280.80362 417.29691 281.51068 422.65625 282.59375 L 423.375 218.375 L 232.0625 266.78125 L 55.71875 213.78125 z M 230.4375 228.34375 C 231.14714 228.34372 231.90257 228.44662 232.625 228.59375 C 238.39856 229.76211 242.1064 235.38245 240.9375 241.15625 C 239.76925 246.92984 234.11127 250.65927 228.34375 249.5 C 222.57029 248.33183 218.83179 242.71108 220 236.9375 C 220.58411 234.05071 222.31207 231.63706 224.59375 230.125 C 226.30499 228.99093 228.3086 228.34385 230.4375 228.34375 z M 399 301.84375 C 345.3691 301.84375 301.875 345.3691 301.875 399 C 301.875 452.6309 345.3691 496.125 399 496.125 C 452.6309 496.125 496.15625 452.6309 496.15625 399 C 496.15625 345.3691 452.6309 301.84375 399 301.84375 z M 225.59375 302.9375 L 225.59375 456.96875 L 241.875 456.96875 L 241.875 302.9375 L 225.59375 302.9375 z M 390.90625 342.3125 L 407.09375 342.3125 C 411.52083 342.3125 415.1875 345.97917 415.1875 350.40625 L 415.1875 382.78125 L 447.59375 382.78125 C 452.02083 382.78125 455.6875 386.44792 455.6875 390.875 L 455.6875 407.09375 C 455.6875 411.52083 452.02083 415.1875 447.59375 415.1875 L 415.1875 415.1875 L 415.1875 447.5625 C 415.1875 451.98958 411.52083 455.65625 407.09375 455.65625 L 390.90625 455.65625 C 386.47917 455.65625 382.8125 451.98958 382.8125 447.5625 L 382.8125 415.1875 L 350.4375 415.1875 C 346.01042 415.1875 342.34375 411.52083 342.34375 407.09375 L 342.34375 390.875 C 342.34375 386.44792 346.01042 382.78125 350.4375 382.78125 L 382.8125 382.78125 L 382.8125 350.40625 C 382.8125 345.97917 386.47917 342.3125 390.90625 342.3125 z "
       transform="translate(0,552.36218)"
       id="path3881" />
  </g>
</svg>
