<?xml version="1.0" encoding="UTF-8" standalone="no"?>
<!-- Created with Inkscape (http://www.inkscape.org/) -->

<svg
   xmlns:dc="http://purl.org/dc/elements/1.1/"
   xmlns:cc="http://creativecommons.org/ns#"
   xmlns:rdf="http://www.w3.org/1999/02/22-rdf-syntax-ns#"
   xmlns:svg="http://www.w3.org/2000/svg"
   xmlns="http://www.w3.org/2000/svg"
   xmlns:sodipodi="http://sodipodi.sourceforge.net/DTD/sodipodi-0.dtd"
   xmlns:inkscape="http://www.inkscape.org/namespaces/inkscape"
   width="500"
   height="500"
   id="svg3799"
   version="1.1"
   inkscape:version="0.48.2 r9819"
   sodipodi:docname="New document 4">
  <defs
     id="defs3801" />
  <sodipodi:namedview
     id="base"
     pagecolor="#ffffff"
     bordercolor="#666666"
     borderopacity="1.0"
     inkscape:pageopacity="0.0"
     inkscape:pageshadow="2"
     inkscape:zoom="0.0875"
     inkscape:cx="257.94032"
     inkscape:cy="228.11905"
     inkscape:document-units="px"
     inkscape:current-layer="layer1"
     showgrid="false"
     inkscape:window-width="1086"
     inkscape:window-height="701"
     inkscape:window-x="95"
     inkscape:window-y="26"
     inkscape:window-maximized="0" />
  <metadata
     id="metadata3804">
    <rdf:RDF>
      <cc:Work
         rdf:about="">
        <dc:format>image/svg+xml</dc:format>
        <dc:type
           rdf:resource="http://purl.org/dc/dcmitype/StillImage" />
        <dc:title></dc:title>
      </cc:Work>
    </rdf:RDF>
  </metadata>
  <g
     inkscape:label="Layer 1"
     inkscape:groupmode="layer"
     id="layer1"
     transform="translate(0,-552.36218)">
    <path
       style="font-size:563.33331299px;font-style:normal;font-variant:normal;font-weight:normal;font-stretch:normal;line-height:125%;letter-spacing:0px;word-spacing:0px;fill:#000000;fill-opacity:1;stroke:none;font-family:FontAwesome;-inkscape-font-specification:FontAwesome"
       d="m 249.99554,555.20593 c -136.4432,0 -247.15179,110.70859 -247.15179,247.15179 0,136.44319 110.70859,247.15178 247.15179,247.15178 74.14518,0 140.67948,-32.7065 185.98763,-84.45259 -2.39042,-3.2583 -5.28522,-5.70764 -8.63719,-7.86945 -6.72862,-4.33952 -17.825,-7.35796 -32.56543,-8.9251 -12.60942,12.59659 -26.84464,23.55655 -42.35426,32.53344 -4.79344,5.05566 -11.26137,8.5027 -18.49,9.46893 -15.18279,6.82892 -31.3424,11.88857 -48.20835,14.84317 -0.3218,-1.609 -0.63979,-4.8285 -0.63979,-5.15032 -0.3218,-5.1488 5.15223,-8.7046 4.83043,-13.5316 -3.5398,-0.96541 -4.51435,-4.48769 -3.87075,-8.34929 0.5381,-4.57378 3.98012,-8.02376 7.35762,-11.1004 l -55.24607,-55.24607 c -5.49931,-5.49931 -9.04999,-13.22856 -9.18102,-21.52901 -1.43413,-0.8667 -3.12925,-1.30508 -5.37426,-0.95969 -5.7924,0.9654 -7.38161,3.21419 -14.13941,0.63979 -4.5052,-1.609 -8.38661,-4.8171 -12.89182,-7.06971 -5.1488,-2.8962 -14.15997,-5.78403 -16.09077,-12.22003 -1.9308,-5.1488 -1.26245,-11.26377 -4.15865,-16.09078 -1.9308,-3.218 -7.74873,-9.66086 -11.93213,-9.66086 3.8616,0 -3.54514,-9.65515 -4.51054,-10.62056 -3.5398,-4.1834 -16.39391,-15.44489 -13.81951,-21.88089 0.6436,-0.9654 -6.45429,-3.54895 -7.74149,-3.87075 1.2872,3.218 1.62195,6.76467 3.23095,9.66087 1.609,3.218 3.53943,6.12296 5.47023,9.34097 3.5398,5.7924 8.38508,12.84992 7.74148,19.92953 -4.1834,1.2872 -2.90344,-4.8152 -4.19064,-7.3896 -2.2526,-4.18341 -8.37176,-4.16399 -9.98076,-8.66919 0.6436,-0.3218 0.95588,-0.34998 1.59948,-0.67178 0.3218,-5.47061 -7.71711,-9.95792 -6.42991,-13.81952 -4.5052,-3.5398 -4.49149,-10.30599 -7.7095,-14.81119 -2.8962,-4.1834 -7.74872,-6.12487 -11.93212,-9.02107 -1.60901,-0.9654 -13.17249,-15.76517 -8.98909,-16.73057 -6.436,1.609 -9.666572,-13.50876 -8.701173,-17.37037 0,0 -0.639792,0.002 -0.639792,-0.31989 1.2872,-3.8616 -0.95816,-23.79837 4.190635,-24.12017 -3.539795,0.3218 -4.516242,-8.37176 -3.550843,-9.98076 0.643601,-1.2872 5.468323,3.54704 5.790123,4.19064 1.9308,-0.9654 3.87455,-3.56951 3.23095,-5.82211 -0.9654,-2.57441 -4.49721,-4.81901 -6.74981,-6.74981 -0.965399,-0.6436 -13.8496,-8.99099 -14.1714,-8.66919 1.287199,-2.2526 0.971111,-4.53301 -0.959689,-6.14201 -6.1142,4.82701 -2.892017,-4.50482 -6.110017,-5.47022 -1.2872,-0.3218 -2.583544,-1.27197 -3.870744,-2.55917 18.6644,-29.6056 44.73066,-54.37742 75.62346,-71.43282 1.9308,-0.3218 4.4953,-0.31989 7.0697,-0.31989 5.79241,0.6436 9.02831,5.45309 13.21171,8.34929 0.6436,-1.609 -0.66607,-4.18112 -1.63147,-5.79012 0.9654,-2.5744 4.8491,-3.22715 7.1017,-3.87075 2.8962,-0.3218 7.05447,-0.93531 9.62887,0.35189 -1.9308,-2.8962 -4.17731,-5.48699 -6.42991,-8.06138 -0.3218,0.3218 -1.27768,0.95588 -1.59948,1.59948 -3.5398,-2.8962 -10.31361,0.98406 -13.53161,2.27126 -2.5744,1.2872 -4.8152,2.87335 -7.3896,3.83875 -1.609,0.6436 -2.58354,0.67369 -3.87074,0.35189 9.65399,-5.1488 19.64278,-9.67191 30.26217,-13.21171 1.93081,1.2872 3.85361,3.53752 6.74981,5.79012 -1.9308,-1.609 -1.92318,5.7825 -1.27958,7.0697 3.5398,4.827 11.26377,1.63147 16.09078,1.63147 -0.30169,0 12.40887,1.68092 11.61223,-1.02366 1.88744,3.19533 2.07261,7.60681 4.79844,10.33264 2.8962,-2.8962 -1.29101,-6.09288 0.63979,-8.98908 0.6436,-1.2872 6.45048,-2.90534 8.38128,-3.87074 2.2526,-1.609 -1.62576,-3.86694 -2.59116,-4.51054 -3.218,-1.9308 -15.77506,-2.89926 -9.66086,-10.30066 2.2526,-2.5744 10.31741,-1.2891 12.89181,0.3199 3.53981,1.9308 7.38618,5.48318 2.55917,8.70118 2.25261,0.3218 12.86935,3.2062 11.26035,7.3896 0.9654,-1.9308 2.57593,-4.79845 5.15033,-4.79845 2.8962,0.3218 3.54323,7.06019 4.83043,8.66919 4.5052,8.045 12.24441,-8.0332 13.53161,-7.3896 -5.7924,-2.2526 5.13319,-5.15604 8.02939,-4.19064 2.2526,0.9654 5.78289,8.70308 1.59948,8.38128 3.53981,3.218 3.87684,10.27057 -2.55917,9.94877 -4.5052,-0.3218 -9.6681,-6.42648 -13.8515,-1.59948 -2.8962,3.218 -4.1735,8.04425 -7.06971,10.94045 -4.45289,4.45289 -10.47729,4.21098 -15.89884,3.58284 1.63209,0.72791 -5.03867,7.71011 -5.66216,8.95709 -1.9308,2.2526 -3.22714,4.84719 -3.87074,7.42159 -0.6436,3.218 0.01,6.76276 -1.59948,9.98076 5.4706,-1.609 8.36262,8.34739 6.11001,8.66919 6.75781,-0.9654 12.24594,-0.97302 18.68194,1.27958 4.5052,1.609 11.24892,3.55428 13.17972,8.38128 1.2872,-1.9308 7.41017,-0.9635 9.34097,-0.31989 3.8616,1.9308 4.18493,6.12106 5.15033,9.66086 1.2872,4.827 5.46985,12.87506 10.94045,10.30066 0.9654,-0.6436 8.04463,-3.85932 5.47022,-5.79012 -2.5744,-2.25261 -5.48545,-8.07434 -2.91105,-11.29234 2.5744,-3.5398 8.69165,-4.48388 10.30066,-8.98908 2.5744,-7.40141 -7.7095,-6.42954 -7.7095,-11.90014 0,-3.218 4.16055,-4.19978 3.83875,-8.06138 0,-3.21801 -4.82129,-9.64754 -0.95969,-11.90014 3.21801,-1.9308 18.6648,1.30015 21.56101,3.23095 2.8962,1.9308 11.92832,4.4934 12.57192,7.3896 l -1.63148,0 c 2.57441,2.2526 4.8251,7.06209 0.3199,8.34929 2.71519,-0.60337 10.24091,2.21654 6.39792,4.15865 1.54664,-0.4519 2.9229,-0.16784 4.54253,-1.24759 2.2526,-1.2872 3.5657,-3.52838 6.4619,-1.91938 0.6436,0.3218 4.17922,-6.7837 6.11002,-6.4619 2.8962,0.3218 3.54323,4.5311 4.83043,6.4619 1.2872,2.8962 4.82282,3.85361 6.11002,6.74981 2.2526,5.4706 1.26778,10.60913 8.66919,12.53993 2.2526,0.6436 8.38318,-2.87564 8.06138,1.95137 1.2872,-1.2872 1.91938,-2.26936 1.91938,-2.59116 0.3218,4.5052 2.27088,9.66467 7.74148,9.02107 0,0 0.004,6.1043 -0.63979,7.06971 -1.9308,2.8962 -6.76466,2.26174 -9.66086,3.87074 -0.93524,0.31175 -8.22925,6.65905 -7.80547,7.93342 -4.18899,-4.73845 -10.90974,-4.70217 -16.34669,-3.42289 -5.79241,0.96541 -11.25997,1.58616 -16.73057,3.83876 -2.57441,1.2872 -5.13891,2.57783 -7.06971,4.83043 -0.9654,1.2872 -2.58164,7.09979 -4.19064,7.42159 3.218,-0.6436 4.8152,-4.2112 7.3896,-6.142 3.5398,-2.25261 9.3463,-5.12596 13.85151,-3.83876 3.5398,0.9654 6.42267,2.25413 2.23927,5.15033 -1.9308,1.2872 -4.8171,-0.004 -7.06971,0.63979 2.89621,0.6436 7.07733,1.93423 5.79012,4.83043 8.3668,4.82701 -2.55879,10.62437 -8.02939,9.98077 2.5744,0.3218 -5.47022,5.12024 -5.47022,4.79844 -2.89621,1.609 -6.76847,1.61433 -9.02108,4.51053 -2.5744,3.53981 0.95626,9.66848 -3.87074,8.38128 -1.9308,4.18341 -9.32193,1.92471 -12.53993,6.42992 3.5398,3.8616 -3.5299,9.33754 -7.06971,4.51053 -3.218,1.2872 -1.61243,4.81901 -4.83043,6.74981 1.2872,1.9308 1.61281,3.86313 -0.63979,5.15033 0.6436,-0.3218 4.50482,2.90915 5.47022,3.23095 -0.6436,1.609 -1.94184,2.87907 -3.55084,2.87907 1.609,4.1834 -1.93423,8.68594 -4.83044,11.26034 -3.218,2.57441 -10.61484,5.14652 -11.58024,5.79012 -5.65552,5.34133 -9.47153,13.14884 -0.064,15.61094 l 20.85723,-20.85723 0.032,-0.032 c 5.60251,-5.58605 13.51242,-9.11704 21.97687,-9.11704 17.17249,0 31.18988,13.9854 31.18988,31.15788 l 0,12.348 7.9974,0 c 23.63189,0 50.91052,1.85037 76.7431,11.13238 15.09987,5.42561 29.96074,13.96827 42.13032,26.13552 6.05078,-21.40412 9.27699,-44.00307 9.27699,-67.33814 0,-136.4432 -110.70859,-247.15179 -247.15178,-247.15179 z m 79.81409,256.20485 c -2.31235,0 -4.47777,0.92692 -6.11002,2.55917 l -69.64139,69.64139 c -1.63225,1.63225 -2.59116,3.82966 -2.59116,6.14201 0,2.31235 0.95891,4.47777 2.59116,6.11002 l 69.64139,69.6414 c 1.63225,1.63224 3.79767,2.59115 6.11002,2.59115 4.76073,0 8.70118,-3.94044 8.70118,-8.70117 l 0,-34.83669 30.4861,0 c 58.62506,0 97.12048,11.28525 97.12048,76.16724 0,5.5769 -0.2957,11.1537 -0.70377,16.7306 -0.13602,2.1763 -0.67178,4.6375 -0.67178,6.8138 0,2.5844 1.63017,4.7664 4.35059,4.7664 1.9043,0 2.85462,-0.943 3.80676,-2.3032 2.04031,-2.8564 3.55813,-7.2362 5.05436,-10.3646 7.7532,-17.41074 17.27439,-42.2812 17.27439,-61.32414 0,-15.23436 -1.51676,-30.87907 -7.22965,-45.2973 -18.90692,-46.92725 -74.38649,-54.8302 -119.00138,-54.8302 l -30.4861,0 0,-34.80471 c 0,-4.76073 -3.94045,-8.70117 -8.70118,-8.70117 z m -84.32463,0.6078 c -1.2872,2.5744 1.28149,6.4242 0.95969,7.3896 -1.609,3.218 -4.49531,2.5706 -7.06971,0.63979 -4.13935,-3.18411 -12.98785,2.13375 -17.8502,0.064 0.47515,0.25518 1.5545,1.32424 2.39922,1.88739 -0.9654,3.8616 -3.21953,1.59187 -5.15033,2.87907 -2.2526,1.609 -4.17922,4.8529 -6.11002,6.4619 4.1834,8.04499 -0.3218,15.75147 0,24.44007 0,6.436 4.18646,17.7013 10.30066,21.2411 1.50833,0.83797 4.86034,1.38959 8.12536,1.56749 1.59973,-4.11298 4.03629,-7.84305 7.06971,-10.87647 l 39.79508,-39.79508 c -0.088,-0.33971 -0.212,-0.80932 -0.28791,-1.08765 -0.9654,-3.8616 -1.26435,-3.87988 -3.83875,-7.74148 -4.1834,4.827 -4.84148,1.29291 -8.38128,-0.95969 -3.5398,-1.9308 -8.68975,-1.30015 -10.62055,-3.23095 -4.827,3.5398 -8.37557,2.59153 -9.34097,-2.87907 z"
       id="text3807"
       inkscape:connector-curvature="0" />
  </g>
</svg>
