<?xml version="1.0" encoding="UTF-8" standalone="no"?>
<!-- Created with Inkscape (http://www.inkscape.org/) -->

<svg
   xmlns:dc="http://purl.org/dc/elements/1.1/"
   xmlns:cc="http://creativecommons.org/ns#"
   xmlns:rdf="http://www.w3.org/1999/02/22-rdf-syntax-ns#"
   xmlns:svg="http://www.w3.org/2000/svg"
   xmlns="http://www.w3.org/2000/svg"
   xmlns:sodipodi="http://sodipodi.sourceforge.net/DTD/sodipodi-0.dtd"
   xmlns:inkscape="http://www.inkscape.org/namespaces/inkscape"
   width="512"
   height="512"
   id="svg3099"
   version="1.1"
   inkscape:version="0.48.2 r9819"
   sodipodi:docname="BS-register-system.svg"
   inkscape:export-filename="/Users/Cynthia/Documents/SUSE manager/new icons/Register-System/BS-register-system.png"
   inkscape:export-xdpi="90"
   inkscape:export-ydpi="90">
  <defs
     id="defs3101" />
  <sodipodi:namedview
     id="base"
     pagecolor="#ffffff"
     bordercolor="#666666"
     borderopacity="1.0"
     inkscape:pageopacity="0.0"
     inkscape:pageshadow="2"
     inkscape:zoom="0.030935922"
     inkscape:cx="195.62194"
     inkscape:cy="251.00216"
     inkscape:document-units="px"
     inkscape:current-layer="layer1"
     showgrid="false"
     inkscape:window-width="973"
     inkscape:window-height="735"
     inkscape:window-x="51"
     inkscape:window-y="22"
     inkscape:window-maximized="0" />
  <metadata
     id="metadata3104">
    <rdf:RDF>
      <cc:Work
         rdf:about="">
        <dc:format>image/svg+xml</dc:format>
        <dc:type
           rdf:resource="http://purl.org/dc/dcmitype/StillImage" />
        <dc:title></dc:title>
      </cc:Work>
    </rdf:RDF>
  </metadata>
  <g
     inkscape:label="Layer 1"
     inkscape:groupmode="layer"
     id="layer1"
     transform="translate(0,-540.36218)">
    <path
       style="font-size:401.09588623000001917px;font-style:normal;font-variant:normal;font-weight:normal;font-stretch:normal;line-height:125%;letter-spacing:0px;word-spacing:0px;fill:#1a1a1a;fill-opacity:1;stroke:none;font-family:FontAwesome;-inkscape-font-specification:FontAwesome"
       d="M 367.1875 -0.09375 C 287.68791 -0.09375 223.25 64.375408 223.25 143.875 C 223.25 223.37459 287.68791 287.8125 367.1875 287.8125 C 446.68709 287.8125 511.125 223.37459 511.125 143.875 C 511.125 64.375408 446.68709 -0.09375 367.1875 -0.09375 z M 351.03125 74.5625 L 383.375 74.5625 C 386.10291 74.5625 388.3125 76.77209 388.3125 79.5 L 388.3125 122.75 L 431.5625 122.75 C 434.29041 122.75 436.46875 124.95959 436.46875 127.6875 L 436.46875 160.03125 C 436.46875 162.75915 434.29041 164.96875 431.5625 164.96875 L 388.3125 164.96875 L 388.3125 208.21875 C 388.3125 210.94666 386.10291 213.15625 383.375 213.15625 L 351.03125 213.15625 C 348.30335 213.15625 346.09375 210.94666 346.09375 208.21875 L 346.09375 164.96875 L 302.8125 164.96875 C 300.08459 164.96875 297.90625 162.75915 297.90625 160.03125 L 297.90625 127.6875 C 297.90625 124.95959 300.08459 122.75 302.8125 122.75 L 346.09375 122.75 L 346.09375 79.5 C 346.09375 76.77209 348.30335 74.5625 351.03125 74.5625 z M 35.8125 139.5625 C 16.115846 139.5625 0 155.67835 0 175.375 L 0 418.875 C 0 438.57165 16.115846 454.6875 35.8125 454.6875 L 157.5625 454.6875 C 157.5625 474.16028 143.25 489.4059 143.25 497.6875 C 143.25 505.5214 149.72861 512 157.5625 512 L 272.1875 512 C 280.02139 512 286.5 505.5214 286.5 497.6875 C 286.5 489.8536 272.1875 473.71268 272.1875 454.6875 L 393.9375 454.6875 C 413.63415 454.6875 429.75 438.57165 429.75 418.875 L 429.75 312.71875 C 420.53101 316.13535 410.95389 318.83966 401.09375 320.71875 L 401.09375 361.59375 C 401.09375 365.39879 397.74253 368.75 393.9375 368.75 L 35.8125 368.75 C 32.007464 368.75 28.65625 365.39879 28.65625 361.59375 L 28.65625 175.375 C 28.65625 171.56997 32.007464 168.21875 35.8125 168.21875 L 188.78125 168.21875 C 187.70317 160.25046 187.15625 152.13884 187.15625 143.875 C 187.15625 142.43605 187.18517 140.99337 187.21875 139.5625 L 35.8125 139.5625 z "
       transform="translate(0,540.36218)"
       id="path3121" />
  </g>
</svg>
