<?xml version="1.0" encoding="UTF-8" standalone="no"?>
<!-- Created with Inkscape (http://www.inkscape.org/) -->

<svg
   xmlns:dc="http://purl.org/dc/elements/1.1/"
   xmlns:cc="http://creativecommons.org/ns#"
   xmlns:rdf="http://www.w3.org/1999/02/22-rdf-syntax-ns#"
   xmlns:svg="http://www.w3.org/2000/svg"
   xmlns="http://www.w3.org/2000/svg"
   xmlns:sodipodi="http://sodipodi.sourceforge.net/DTD/sodipodi-0.dtd"
   xmlns:inkscape="http://www.inkscape.org/namespaces/inkscape"
   width="500"
   height="500"
   id="svg3030"
   version="1.1"
   inkscape:version="0.48.2 r9819"
   sodipodi:docname="New document 3">
  <defs
     id="defs3032" />
  <sodipodi:namedview
     id="base"
     pagecolor="#ffffff"
     bordercolor="#666666"
     borderopacity="1.0"
     inkscape:pageopacity="0.0"
     inkscape:pageshadow="2"
     inkscape:zoom="0.7"
     inkscape:cx="299.55957"
     inkscape:cy="214.07042"
     inkscape:document-units="px"
     inkscape:current-layer="layer1"
     showgrid="false"
     inkscape:window-width="959"
     inkscape:window-height="621"
     inkscape:window-x="43"
     inkscape:window-y="65"
     inkscape:window-maximized="0" />
  <metadata
     id="metadata3035">
    <rdf:RDF>
      <cc:Work
         rdf:about="">
        <dc:format>image/svg+xml</dc:format>
        <dc:type
           rdf:resource="http://purl.org/dc/dcmitype/StillImage" />
        <dc:title></dc:title>
      </cc:Work>
    </rdf:RDF>
  </metadata>
  <g
     inkscape:label="Layer 1"
     inkscape:groupmode="layer"
     id="layer1"
     transform="translate(0,-552.36218)">
    <path
       style="fill:#000000;stroke:#000000;stroke-width:2.49665093px;stroke-linecap:butt;stroke-linejoin:miter;stroke-opacity:1"
       d="m 391.11043,596.54928 c -4.22446,0.0957 -8.6369,3.6096 -13.18545,10.29869 l -26.21483,31.67626 c -8.328,10.6425 -2.63751,22.44966 4.05706,34.32895 -7.54974,8.83325 -16.37388,18.71375 -25.20057,28.63347 L 249.19143,654.67445 3.115272,797.29562 3.4273533,850.97362 247.39696,993.51678 497.14007,849.0231 l -0.078,-51.72748 -140.98276,-81.14114 21.06549,-25.43464 c 11.46867,-0.70016 22.18429,10.00692 34.56301,-5.46143 l 27.15108,-33.47073 c 7.73934,-8.5639 1.69393,-13.8337 -4.29112,-19.11497 L 398.44432,600.0602 c -2.41016,-2.47615 -4.79921,-3.56824 -7.3339,-3.51092 z m 5.3834,26.0588 c 2.482,-0.184 4.98508,0.65017 7.02183,2.49665 l 7.2559,6.47569 c 4.07347,3.69292 4.47011,10.09894 0.93624,14.35574 l -17.16448,20.75341 c -3.53389,4.25682 -9.73613,4.70721 -13.80959,1.01426 l -7.17788,-6.55369 c -4.07349,-3.69295 -4.47013,-10.09894 -0.93624,-14.35575 L 389.8621,626.119 c 1.76693,-2.1284 4.14973,-3.32694 6.63173,-3.51092 z m -147.3024,58.82734 65.06896,38.46402 c -3.44738,3.92534 -6.87792,7.83185 -9.9866,11.469 -18.10292,-10.52696 -34.20132,-27.31996 -44.86169,-14.90189 -14.10791,13.81003 -27.99825,31.38695 -42.44307,50.16709 60.46224,-28.7417 67.54961,43.48144 122.10183,47.43636 11.08845,-14.37884 17.79266,-22.96138 22.54788,-36.04541 4.21008,-15.12855 -21.71247,-22.32075 -30.42794,-31.75426 l 9.12838,-11.00087 105.01539,62.02616 L 247.86508,914.79426 46.806663,798.23187 249.19143,681.43542 z m -105.63954,103.84507 -3.12082,4.44716 1.32635,4.44716 4.91528,-1.71645 3.12081,-5.3834 -6.24162,-1.79447 z m 115.00198,22.78194 -6.24163,6.24162 7.09986,2.6527 4.05705,-4.91528 -4.91528,-3.97904 z m -63.74261,12.48325 -4.91529,6.24164 4.44716,3.97903 7.56797,-3.97903 -7.09984,-6.24164 z m -51.3374,3.27685 -6.24162,6.24163 7.09986,2.6527 4.05705,-4.91528 -4.91529,-3.97905 z m 113.36356,9.67453 -3.66695,5.69549 5.07131,2.57467 2.41864,-3.58894 -3.823,-4.68122 z m -42.44307,15.37002 -3.43289,4.52517 3.12081,2.96478 5.22737,-2.96478 -4.91529,-4.52517 z m 75.36765,8.19212 -5.3834,5.77352 8.0361,2.7307 7.17787,-4.91528 -9.83057,-3.58894 z m -45.40784,15.99417 -1.71644,7.48995 5.3834,3.27686 3.35488,-5.3834 -7.02184,-5.38341 z"
       id="path3049"
       inkscape:connector-curvature="0" />
  </g>
</svg>
