<?xml version="1.0" encoding="UTF-8" standalone="no"?>
<!-- Created with Inkscape (http://www.inkscape.org/) -->

<svg
   xmlns:dc="http://purl.org/dc/elements/1.1/"
   xmlns:cc="http://creativecommons.org/ns#"
   xmlns:rdf="http://www.w3.org/1999/02/22-rdf-syntax-ns#"
   xmlns:svg="http://www.w3.org/2000/svg"
   xmlns="http://www.w3.org/2000/svg"
   xmlns:sodipodi="http://sodipodi.sourceforge.net/DTD/sodipodi-0.dtd"
   xmlns:inkscape="http://www.inkscape.org/namespaces/inkscape"
   width="500"
   height="500"
   id="svg2"
   version="1.1"
   inkscape:version="0.48.2 r9819"
   sodipodi:docname="New document 1">
  <defs
     id="defs4" />
  <sodipodi:namedview
     id="base"
     pagecolor="#ffffff"
     bordercolor="#666666"
     borderopacity="1.0"
     inkscape:pageopacity="0.0"
     inkscape:pageshadow="2"
     inkscape:zoom="0.49497475"
     inkscape:cx="103.05584"
     inkscape:cy="186.53223"
     inkscape:document-units="px"
     inkscape:current-layer="layer1"
     showgrid="false"
     inkscape:window-width="1139"
     inkscape:window-height="642"
     inkscape:window-x="0"
     inkscape:window-y="22"
     inkscape:window-maximized="0" />
  <metadata
     id="metadata7">
    <rdf:RDF>
      <cc:Work
         rdf:about="">
        <dc:format>image/svg+xml</dc:format>
        <dc:type
           rdf:resource="http://purl.org/dc/dcmitype/StillImage" />
        <dc:title></dc:title>
      </cc:Work>
    </rdf:RDF>
  </metadata>
  <g
     inkscape:label="Layer 1"
     inkscape:groupmode="layer"
     id="layer1"
     transform="translate(0,-552.36217)">
    <path
       style="font-size:438.57144165px;font-style:normal;font-variant:normal;font-weight:normal;font-stretch:normal;line-height:125%;letter-spacing:0px;word-spacing:0px;fill:#000000;fill-opacity:1;stroke:none;font-family:FontAwesome;-inkscape-font-specification:FontAwesome"
       d="m 109.10244,556.64342 c -22.173413,0 -40.313367,18.13995 -40.313367,40.31337 l 0,24.19445 -32.237825,0 c -17.637943,0 -32.269998,14.59988 -32.269998,32.23783 l 0,322.53911 c 0,17.63794 14.632055,32.23782 32.269998,32.23782 l 239.853272,0 c -7.05394,-9.8333 -12.81653,-20.66494 -17.01977,-32.23782 l -37.38558,0 0,-72.58337 32.07696,0 c 1.12185,-5.50353 2.60084,-10.88365 4.37559,-16.11891 l -36.45255,0 0,-80.62673 80.62674,0 0,18.30671 c 5.09477,-4.00102 10.46779,-7.63568 16.11891,-10.87464 l 0,-7.43207 15.08936,0 c 15.8238,-6.58595 33.17213,-10.199 51.38104,-10.199 13.32868,0 26.20148,1.93865 38.35079,5.56602 l 0,-148.57712 c 0,-17.63795 -14.59988,-32.23783 -32.23782,-32.23783 l -32.27,0 0,-24.19445 c 0,-22.17342 -18.13997,-40.31337 -40.31337,-40.31337 l -16.11891,0 c -22.17342,0 -40.31337,18.13995 -40.31337,40.31337 l 0,24.19445 -96.77782,0 0,-24.19445 c 0,-22.17342 -18.13995,-40.31337 -40.31337,-40.31337 l -16.11891,0 z m 0,32.27 16.11891,0 c 4.2835,0 8.07555,3.75987 8.07555,8.04337 l 0,72.58336 c 0,4.28351 -3.79205,8.04337 -8.07555,8.04337 l -16.11891,0 c -4.2835,0 -8.07554,-3.75986 -8.07554,-8.04337 l 0,-72.58336 c 0,-4.2835 3.79204,-8.04337 8.07554,-8.04337 z m 193.52347,0 16.11891,0 c 4.2835,0 8.07554,3.75987 8.07554,8.04337 l 0,72.58336 c 0,4.28351 -3.79204,8.04337 -8.07554,8.04337 l -16.11891,0 c -4.2835,0 -8.07555,-3.75986 -8.07555,-8.04337 l 0,-72.58336 c 0,-4.2835 3.79205,-8.04337 8.07555,-8.04337 z m -266.074662,128.98347 72.551192,0 0,72.58337 -72.551192,0 0,-72.58337 z m 88.670102,0 80.62674,0 0,72.58337 -80.62674,0 0,-72.58337 z m 96.77782,0 80.62674,0 0,72.58337 -80.62674,0 0,-72.58337 z m 96.74565,0 72.58337,0 0,72.58337 -72.58337,0 0,-72.58337 z m -282.193572,88.70228 72.551192,0 0,80.62673 -72.551192,0 0,-80.62673 z m 88.670102,0 80.62674,0 0,80.62673 -80.62674,0 0,-80.62673 z m 259.99387,11.83984 c -61.71173,0 -111.77066,50.0911 -111.77066,111.80283 0,61.71174 50.05893,111.77066 111.77066,111.77066 61.71174,0 111.77067,-50.05892 111.77067,-111.77066 0,-61.71173 -50.05893,-111.80283 -111.77067,-111.80283 z m -2.02692,32.6239 c 0.67816,-0.0172 1.34467,0 2.02692,0 43.66396,0 79.17893,35.51496 79.17893,79.17893 0,43.66396 -35.51497,79.17896 -79.17893,79.17896 -43.66397,0 -79.17892,-35.515 -79.17892,-79.17896 0,-42.98172 34.42757,-78.09305 77.152,-79.17893 z m 6.69208,23.26143 c -2.61984,0 -4.66516,2.04531 -4.66516,4.66515 l 0,51.25235 -32.59173,0 c -2.61984,0 -4.66515,2.01315 -4.66515,4.63298 l 0,9.33031 c 0,2.61984 2.04531,4.66516 4.66515,4.66516 l 46.55502,0 c 2.61984,0 4.66516,-2.04532 4.66516,-4.66516 l 0,-65.21564 c 0,-2.61984 -2.04532,-4.66515 -4.66516,-4.66515 l -9.29813,0 z m -353.329132,29.02047 72.551192,0 0,72.58337 -72.551192,0 0,-72.58337 z m 88.670102,0 80.62674,0 0,72.58337 -80.62674,0 0,-72.58337 z"
       id="path3000"
       inkscape:connector-curvature="0" />
  </g>
</svg>
