<?xml version="1.0" encoding="UTF-8" standalone="no"?>
<!-- Created with Inkscape (http://www.inkscape.org/) -->

<svg
   xmlns:dc="http://purl.org/dc/elements/1.1/"
   xmlns:cc="http://creativecommons.org/ns#"
   xmlns:rdf="http://www.w3.org/1999/02/22-rdf-syntax-ns#"
   xmlns:svg="http://www.w3.org/2000/svg"
   xmlns="http://www.w3.org/2000/svg"
   xmlns:sodipodi="http://sodipodi.sourceforge.net/DTD/sodipodi-0.dtd"
   xmlns:inkscape="http://www.inkscape.org/namespaces/inkscape"
   width="512"
   height="512"
   id="svg3099"
   version="1.1"
   inkscape:version="0.48.2 r9819"
   sodipodi:docname="schedule-computer.svg"
   inkscape:export-filename="/Users/Cynthia/Documents/SUSE manager/new icons/Register-System/BS-register-system.png"
   inkscape:export-xdpi="90"
   inkscape:export-ydpi="90">
  <defs
     id="defs3101" />
  <sodipodi:namedview
     id="base"
     pagecolor="#ffffff"
     bordercolor="#666666"
     borderopacity="1.0"
     inkscape:pageopacity="0.0"
     inkscape:pageshadow="2"
     inkscape:zoom="0.49497476"
     inkscape:cx="235.44893"
     inkscape:cy="196.13356"
     inkscape:document-units="px"
     inkscape:current-layer="layer1"
     showgrid="false"
     inkscape:window-width="973"
     inkscape:window-height="735"
     inkscape:window-x="51"
     inkscape:window-y="22"
     inkscape:window-maximized="0"
     showguides="true"
     inkscape:guide-bbox="true" />
  <metadata
     id="metadata3104">
    <rdf:RDF>
      <cc:Work
         rdf:about="">
        <dc:format>image/svg+xml</dc:format>
        <dc:type
           rdf:resource="http://purl.org/dc/dcmitype/StillImage" />
        <dc:title />
      </cc:Work>
    </rdf:RDF>
  </metadata>
  <g
     inkscape:label="Layer 1"
     inkscape:groupmode="layer"
     id="layer1"
     transform="translate(0,-540.36218)">
    <path
       style="font-size:401.09588623px;font-style:normal;font-variant:normal;font-weight:normal;font-stretch:normal;line-height:125%;letter-spacing:0px;word-spacing:0px;fill:#1a1a1a;fill-opacity:1;stroke:none;font-family:FontAwesome;-inkscape-font-specification:FontAwesome"
       d="M 368.84375 3.4375 C 291.55216 3.4375 228.84375 66.145913 228.84375 143.4375 C 228.84375 220.72909 291.55216 283.4375 368.84375 283.4375 C 446.13534 283.4375 508.84375 220.72909 508.84375 143.4375 C 508.84375 66.145913 446.13534 3.4375 368.84375 3.4375 z M 368.84375 44.25 C 423.53119 44.25 468.03125 88.750056 468.03125 143.4375 C 468.03125 198.12494 423.53119 242.59375 368.84375 242.59375 C 314.15631 242.59375 269.6875 198.12494 269.6875 143.4375 C 269.6875 88.750056 314.15631 44.25 368.84375 44.25 z M 374.6875 73.4375 C 371.40625 73.4375 368.84375 75.968753 368.84375 79.25 L 368.84375 143.4375 L 328.03125 143.4375 C 324.75 143.4375 322.1875 145.96875 322.1875 149.25 L 322.1875 160.9375 C 322.1875 164.21875 324.75 166.75 328.03125 166.75 L 386.34375 166.75 C 389.625 166.75 392.1875 164.21875 392.1875 160.9375 L 392.1875 79.25 C 392.1875 75.968753 389.625 73.4375 386.34375 73.4375 L 374.6875 73.4375 z M 35.8125 139.5625 C 16.115846 139.5625 0 155.67835 0 175.375 L 0 418.875 C 0 438.57165 16.115846 454.6875 35.8125 454.6875 L 157.5625 454.6875 C 157.5625 474.16028 143.25 489.4059 143.25 497.6875 C 143.25 505.5214 149.72861 512 157.5625 512 L 272.1875 512 C 280.02139 512 286.5 505.5214 286.5 497.6875 C 286.5 489.8536 272.1875 473.71268 272.1875 454.6875 L 393.9375 454.6875 C 413.63415 454.6875 429.75 438.57165 429.75 418.875 L 429.75 300.71875 C 420.53101 304.13535 410.95389 306.83966 401.09375 308.71875 L 401.09375 361.59375 C 401.09375 365.39879 397.74253 368.75 393.9375 368.75 L 35.8125 368.75 C 32.007464 368.75 28.65625 365.39879 28.65625 361.59375 L 28.65625 175.375 C 28.65625 171.56997 32.007464 168.21875 35.8125 168.21875 L 202.78125 168.21875 C 201.70317 160.25046 201.15625 152.13884 201.15625 143.875 C 201.15625 142.43605 201.18515 140.99337 201.21875 139.5625 L 35.8125 139.5625 z "
       transform="translate(0,540.36218)"
       id="path3121" />
  </g>
</svg>
