<?xml version="1.0" encoding="UTF-8" standalone="no"?>
<!-- Created with Inkscape (http://www.inkscape.org/) -->

<svg
   xmlns:dc="http://purl.org/dc/elements/1.1/"
   xmlns:cc="http://creativecommons.org/ns#"
   xmlns:rdf="http://www.w3.org/1999/02/22-rdf-syntax-ns#"
   xmlns:svg="http://www.w3.org/2000/svg"
   xmlns="http://www.w3.org/2000/svg"
   xmlns:sodipodi="http://sodipodi.sourceforge.net/DTD/sodipodi-0.dtd"
   xmlns:inkscape="http://www.inkscape.org/namespaces/inkscape"
   width="500"
   height="500"
   id="svg5580"
   version="1.1"
   inkscape:version="0.48.2 r9819"
   sodipodi:docname="New document 17">
  <defs
     id="defs5582" />
  <sodipodi:namedview
     id="base"
     pagecolor="#ffffff"
     bordercolor="#666666"
     borderopacity="1.0"
     inkscape:pageopacity="0.0"
     inkscape:pageshadow="2"
     inkscape:zoom="0.7"
     inkscape:cx="330.13069"
     inkscape:cy="206.49763"
     inkscape:document-units="px"
     inkscape:current-layer="layer1"
     showgrid="false"
     showguides="true"
     inkscape:guide-bbox="true"
     inkscape:window-width="831"
     inkscape:window-height="652"
     inkscape:window-x="323"
     inkscape:window-y="62"
     inkscape:window-maximized="0" />
  <metadata
     id="metadata5585">
    <rdf:RDF>
      <cc:Work
         rdf:about="">
        <dc:format>image/svg+xml</dc:format>
        <dc:type
           rdf:resource="http://purl.org/dc/dcmitype/StillImage" />
        <dc:title></dc:title>
      </cc:Work>
    </rdf:RDF>
  </metadata>
  <g
     inkscape:label="Layer 1"
     inkscape:groupmode="layer"
     id="layer1"
     transform="translate(0,-552.36218)">
    <path
       style="font-size:461.53845215px;font-style:normal;font-variant:normal;font-weight:normal;font-stretch:normal;line-height:125%;letter-spacing:0px;word-spacing:0px;fill:#000000;fill-opacity:1;stroke:none;font-family:FontAwesome;-inkscape-font-specification:FontAwesome"
       d="m 168.82304,604.39271 c -16.50373,0 -34.87005,12.73116 -40.76423,28.29181 l -12.04334,32.06787 -52.80757,0 c -33.243218,0 -60.3596857,27.11647 -60.3596857,60.35969 l 0,211.25889 c 0,33.24322 27.1164677,60.35969 60.3596857,60.35969 l 331.97827,0 c 23.62142,0 44.13431,-13.70443 54.03766,-33.55541 0.0701,-2.02032 0.11442,-4.03028 0.11442,-6.00736 0,-29.71278 -7.00503,-41.04978 -18.93749,-48.74545 -11.93247,-7.69567 -33.61871,-11.21374 -62.56239,-11.21374 l -12.98734,0 0,17.47856 c 0,15.0048 -12.25719,27.26198 -27.26199,27.26198 -7.38752,0 -14.28308,-3.11258 -19.19494,-8.00981 l -0.0286,-0.0286 -17.50717,-17.50717 c -17.36674,12.53693 -38.67162,19.96732 -61.67559,19.96732 -58.23457,0 -105.61514,-47.40917 -105.61514,-105.64375 0,-58.23457 47.38057,-105.61514 105.61514,-105.61514 29.31388,0 55.87818,12.02677 75.03481,31.38131 l 4.14795,-4.14794 c 4.91362,-4.91362 11.82181,-8.03842 19.22355,-8.03842 15.0048,0 27.26199,12.25718 27.26199,27.26198 l 0,17.47856 12.98734,0 c 24.00027,0 51.54899,1.92628 77.23751,11.15653 3.51319,1.26234 7.00319,2.69763 10.44137,4.29098 l 0,-79.383 c 0,-33.24322 -27.08786,-60.35969 -60.33108,-60.35969 l -52.83618,0 -12.01473,-32.06787 c -5.89417,-15.56065 -24.28912,-28.29181 -40.79284,-28.29181 l -120.71938,0 z m 158.766,158.25108 c -2.37596,0 -4.61626,0.98324 -6.29343,2.6604 l -71.54481,71.54483 c -1.67716,1.67715 -2.66041,3.91745 -2.66041,6.29342 0,2.37597 0.98325,4.61628 2.66041,6.29343 l 71.54481,71.54482 c 1.67717,1.67715 3.91747,2.6604 6.29343,2.6604 4.89171,0 8.95384,-4.06212 8.95384,-8.95383 l 0,-35.75811 31.29549,0 c 60.23785,0 99.80803,11.6004 99.80803,78.26735 0,5.73028 -0.29587,11.46222 -0.71516,17.1925 -0.13976,2.2362 -0.68656,4.74377 -0.68656,6.97998 0,2.6555 1.66735,4.89171 4.46262,4.89171 1.95668,0 2.94074,-0.97671 3.91909,-2.37434 2.09644,-2.93502 3.64038,-7.42707 5.17777,-10.64161 7.96649,-17.88967 17.73602,-43.45327 17.73602,-63.02009 0,-15.65345 -1.53904,-31.72788 -7.40908,-46.54275 -19.42706,-48.21824 -76.45048,-56.32618 -122.29273,-56.32618 l -31.29549,0 0,-35.78671 c 0,-4.8917 -4.06213,-8.92522 -8.95384,-8.92522 z m -98.40631,0.20024 c -37.48703,0 -67.88319,30.39616 -67.88319,67.88319 0,37.48703 30.39616,67.9118 67.88319,67.9118 12.57836,0 24.36686,-3.44488 34.47082,-9.41153 L 236.79206,862.366 c -4.91362,-4.91363 -8.00982,-11.85042 -8.00982,-19.25217 0,-7.40175 3.0962,-14.30994 8.00982,-19.22355 l 40.79284,-40.76425 c -12.31862,-12.51718 -29.46216,-20.282 -48.40217,-20.282 z"
       id="path6113"
       inkscape:connector-curvature="0" />
  </g>
</svg>
