<?xml version="1.0" encoding="UTF-8" standalone="no"?>
<!-- Created with Inkscape (http://www.inkscape.org/) -->

<svg
   xmlns:dc="http://purl.org/dc/elements/1.1/"
   xmlns:cc="http://creativecommons.org/ns#"
   xmlns:rdf="http://www.w3.org/1999/02/22-rdf-syntax-ns#"
   xmlns:svg="http://www.w3.org/2000/svg"
   xmlns="http://www.w3.org/2000/svg"
   xmlns:sodipodi="http://sodipodi.sourceforge.net/DTD/sodipodi-0.dtd"
   xmlns:inkscape="http://www.inkscape.org/namespaces/inkscape"
   width="512"
   height="512"
   id="svg2"
   version="1.1"
   inkscape:version="0.48.2 r9819"
   sodipodi:docname="BS-software-crashes.svg"
   inkscape:export-filename="/Users/Cynthia/Documents/SUSE manager/new icons/software-crashes/BS-software-crashes.png"
   inkscape:export-xdpi="90"
   inkscape:export-ydpi="90">
  <defs
     id="defs4" />
  <sodipodi:namedview
     id="base"
     pagecolor="#ffffff"
     bordercolor="#666666"
     borderopacity="1.0"
     inkscape:pageopacity="0.0"
     inkscape:pageshadow="2"
     inkscape:zoom="0.175"
     inkscape:cx="527.66256"
     inkscape:cy="-193.93519"
     inkscape:document-units="px"
     inkscape:current-layer="layer1"
     showgrid="false"
     inkscape:window-width="944"
     inkscape:window-height="606"
     inkscape:window-x="0"
     inkscape:window-y="22"
     inkscape:window-maximized="0" />
  <metadata
     id="metadata7">
    <rdf:RDF>
      <cc:Work
         rdf:about="">
        <dc:format>image/svg+xml</dc:format>
        <dc:type
           rdf:resource="http://purl.org/dc/dcmitype/StillImage" />
        <dc:title></dc:title>
      </cc:Work>
    </rdf:RDF>
  </metadata>
  <g
     inkscape:label="Layer 1"
     inkscape:groupmode="layer"
     id="layer1"
     transform="translate(0,-540.36218)">
    <path
       style="fill:#1a1a1a;fill-opacity:1;stroke:#ffffff;stroke-width:0;stroke-linecap:butt;stroke-linejoin:miter;stroke-miterlimit:3.79999995;stroke-opacity:1;stroke-dasharray:none"
       d="m 272.40625,544.48718 -94.28125,239.21875 80.375,0.375 -53.0625,204.875 L 351,733.76843 l -72.09375,0.28125 86.0625,-187.875 -92.5625,-1.6875 z m -42.59375,25.96875 c -0.98836,0.12397 -1.98396,0.23899 -2.96875,0.375 -0.97059,0.13404 -1.93586,0.29135 -2.90625,0.4375 -0.78966,0.11823 -1.58632,0.24895 -2.375,0.375 -0.51445,0.0828 -1.0169,0.16382 -1.53125,0.25 -0.3266,0.0544 -0.64234,0.10055 -0.96875,0.15625 -1.27939,0.21979 -2.59642,0.44644 -3.875,0.6875 -2.31407,0.4363 -4.62717,0.89981 -6.9375,1.40625 -0.19849,0.0435 -0.36406,0.081 -0.5625,0.125 -0.32671,0.072 -0.67354,0.14539 -1,0.21875 -0.99747,0.22565 -2.00346,0.44867 -3,0.6875 -0.021,0.005 -0.0103,0.0263 -0.0312,0.0312 -2.36043,0.56279 -4.74781,1.17788 -7.09375,1.8125 -2.60049,0.70347 -5.20082,1.45827 -7.78125,2.25 -0.13723,0.0421 -0.26907,0.0826 -0.40625,0.125 -15.38727,4.7512 -30.37324,11.07635 -44.75,18.96875 -0.93755,0.51468 -1.88039,1.00321 -2.8125,1.53125 -0.0187,0.0107 -0.0437,0.0208 -0.0625,0.0312 -0.0438,0.0248 -0.0811,0.0692 -0.125,0.0937 -0.68158,0.38693 -1.3473,0.79393 -2.03125,1.1875 -0.14972,0.0865 -0.31928,0.16318 -0.46875,0.25 -0.8908,0.51495 -1.77794,1.03473 -2.65625,1.5625 -0.66699,0.40079 -1.33863,0.78461 -2,1.1875 -0.20088,0.12276 -0.39332,0.28296 -0.59375,0.40625 -0.6676,0.40939 -1.333,0.79724 -2,1.21875 -0.72766,0.45985 -1.4383,0.90494 -2.15625,1.375 -0.19781,0.12732 -0.3964,0.27841 -0.59375,0.40625 -0.0115,0.008 -0.0198,0.0238 -0.0312,0.0312 -0.15042,0.0975 -0.28735,0.18347 -0.4375,0.28125 -0.26708,0.17039 -0.55249,0.32914 -0.8125,0.5 -0.14133,0.0933 -0.2651,0.18758 -0.40625,0.28125 -1.09177,0.72076 -2.20357,1.45083 -3.28125,2.1875 -0.018,0.0123 -0.0445,0.019 -0.0625,0.0312 -0.43094,0.29488 -0.85263,0.57762 -1.28125,0.875 -0.18959,0.13218 -0.37316,0.30476 -0.5625,0.4375 -0.43234,0.30182 -0.85514,0.6023 -1.28125,0.90625 -0.93478,0.6615 -1.85787,1.32657 -2.78125,2 -0.0864,0.0632 -0.19474,0.1242 -0.28125,0.1875 -0.49785,0.36434 -0.97415,0.72605 -1.46875,1.09375 -0.74877,0.55653 -1.47767,1.12316 -2.21875,1.6875 -0.0504,0.0384 -0.10586,0.0865 -0.15625,0.125 -2.41375,1.84109 -4.82495,3.70294 -7.15625,5.625 -0.0761,0.0626 -0.14277,0.12478 -0.21875,0.1875 -1.17401,0.97036 -2.31593,1.97838 -3.46875,2.96875 -1.18727,1.01996 -2.366623,2.02173 -3.53125,3.0625 -1.065321,0.95203 -2.141258,1.90589 -3.1875,2.875 -1.25784,1.16401 -2.488902,2.34255 -3.71875,3.53125 -0.767819,0.74246 -1.524325,1.49828 -2.28125,2.25 -0.311615,0.30949 -0.659017,0.6264 -0.96875,0.9375 -0.09847,0.0989 -0.182961,0.18218 -0.28125,0.28125 -0.940872,0.94799 -1.857618,1.91282 -2.78125,2.875 -0.950595,0.99025 -1.88028,1.99499 -2.8125,3 -1.093937,1.17967 -2.212577,2.36276 -3.28125,3.5625 -0.275145,0.30881 -0.507802,0.62739 -0.78125,0.9375 -0.944601,1.07148 -1.888135,2.16318 -2.8125,3.25 -0.486299,0.57169 -0.988108,1.14289 -1.46875,1.71875 -0.274445,0.32886 -0.539903,0.63854 -0.8125,0.96875 -0.850965,1.03064 -1.698376,2.08141 -2.53125,3.125 -0.912067,1.14276 -1.797322,2.2797 -2.6875,3.4375 -0.443037,0.57628 -0.874896,1.17002 -1.3125,1.75 -0.441391,0.58494 -0.90794,1.16141 -1.34375,1.75 -0.143311,0.19362 -0.263499,0.36852 -0.40625,0.5625 -0.392742,0.5337 -0.799316,1.05706 -1.1875,1.59375 -0.429639,0.58876 -0.857912,1.18735 -1.28125,1.78125 -0.214411,0.30215 -0.44328,0.60317 -0.65625,0.90625 -0.263199,0.37289 -0.490312,0.75121 -0.75,1.125 -0.70557,1.01558 -1.433687,2.03788 -2.125,3.0625 -0.151961,0.22614 -0.286336,0.46085 -0.4375,0.6875 -0.182801,0.27292 -0.34943,0.53816 -0.53125,0.8125 -0.201272,0.30443 -0.393892,0.63221 -0.59375,0.9375 -0.642599,0.98015 -1.311898,1.95496 -1.9375,2.9375 -0.249808,0.39394 -0.471268,0.76095 -0.71875,1.15625 -1.994687,3.17408 -3.887819,6.41189 -5.71875,9.65625 -0.110927,0.19686 -0.233382,0.3966 -0.34375,0.59375 -0.819588,1.46205 -1.650916,2.93097 -2.4375,4.40625 -0.126993,0.23832 -0.24881,0.48003 -0.375,0.71875 -0.816554,1.54419 -1.594376,3.09832 -2.375,4.65625 -0.857072,1.71049 -1.686103,3.43002 -2.5,5.15625 -0.817588,1.73406 -1.632082,3.46968 -2.40625,5.21875 -0.775065,1.75109 -1.518307,3.51597 -2.25,5.28125 -0.354388,0.85498 -0.687011,1.70434 -1.03125,2.5625 -0.294547,0.7319 -0.618831,1.45276 -0.90625,2.1875 -0.111181,0.28518 -0.202431,0.58948 -0.3125,0.875 -0.392136,1.01372 -0.777712,2.01231 -1.15625,3.03125 -0.416334,1.12068 -0.818939,2.27947 -1.21875,3.40625 -0.334959,0.94402 -0.676689,1.86431 -1,2.8125 -0.06456,0.18994 -0.123416,0.37244 -0.1875,0.5625 -0.155386,0.46087 -0.284332,0.91358 -0.4375,1.375 -0.314429,0.9483 -0.665982,1.89149 -0.96875,2.84375 -0.204593,0.63938 -0.394524,1.29682 -0.59375,1.9375 -0.489542,1.58517 -0.949102,3.18581 -1.40625,4.78125 -0.01457,0.0511 -0.04797,0.0739 -0.0625,0.125 -0.265204,0.93272 -0.522811,1.88696 -0.78125,2.8125 -0.09479,0.34714 -0.187997,0.68365 -0.28125,1.03125 -0.15891,0.58154 -0.316834,1.16231 -0.46875,1.75 -0.118968,0.46025 -0.23,0.91418 -0.34375,1.375 -0.118883,0.48161 -0.228783,0.98654 -0.34375,1.46875 -0.231442,0.93535 -0.467141,1.87416 -0.6875,2.8125 -0.265293,1.12969 -0.532087,2.27237 -0.78125,3.40625 -0.03196,0.14726 -0.06208,0.29081 -0.09375,0.4375 -0.355512,1.63248 -0.709341,3.26558 -1.03125,4.90625 -0.01163,0.059 -0.01971,0.0972 -0.03125,0.15625 -0.09088,0.46479 -0.160047,0.94236 -0.25,1.40625 -0.06147,0.32458 -0.127347,0.64386 -0.1875,0.96875 -0.169368,0.88801 -0.344831,1.79361 -0.5,2.6875 -0.07332,0.42702 -0.147716,0.82268 -0.21875,1.25 -0.05764,0.34296 -0.10235,0.71753 -0.15625,1.0625 -0.498032,3.04332 -0.930633,6.0904 -1.3125,9.15625 -0.03041,0.23752 -0.0648,0.48058 -0.09375,0.71875 -0.03357,0.27625 -0.06112,0.53608 -0.09375,0.8125 -0.194211,1.64543 -0.370785,3.31773 -0.53125,4.96875 -0.127897,1.31592 -0.237409,2.61832 -0.34375,3.9375 -0.207405,2.5729 -0.375178,5.1349 -0.5,7.71875 -0.0071,0.14769 0.0069,0.28978 0,0.4375 -0.05683,1.22307 -0.118055,2.46231 -0.15625,3.6875 -0.04127,1.32397 -0.07433,2.64255 -0.09375,3.96875 -0.01318,0.90061 -0.02819,1.78596 -0.03125,2.6875 -0.0015,0.42527 -7.16e-4,0.85578 0,1.28125 0.0025,1.32135 0.0069,2.6457 0.03125,3.96875 0.02457,1.3367 0.07803,2.66183 0.125,4 0.04639,1.32155 0.08791,2.67727 0.15625,4 0.04741,0.91762 0.09824,1.83191 0.15625,2.75 0.02612,0.41447 0.06546,0.83544 0.09375,1.25 0.09122,1.33351 0.198799,2.66579 0.3125,4 0.305686,3.58701 0.655429,7.16138 1.125,10.75 0.0029,0.0213 -0.0027,0.041 0,0.0625 0.0065,0.0499 0.02487,0.10644 0.03125,0.15625 0.04414,0.33495 0.111307,0.66384 0.15625,1 0.01184,0.0885 0.01935,0.16141 0.03125,0.25 0.211363,1.54067 0.445501,3.08485 0.6875,4.625 0.1628,1.03609 0.323268,2.08929 0.5,3.125 0.122914,0.73688 0.210291,1.47808 0.34375,2.21875 0.197023,1.09338 0.443655,2.15728 0.65625,3.25 0.01564,0.08 0.04684,0.16994 0.0625,0.25 0.0757,0.40404 0.139569,0.82005 0.21875,1.21875 0.03337,0.16604 0.06,0.30275 0.09375,0.46875 0.261882,1.30409 0.498492,2.60985 0.78125,3.90625 0.111283,0.51017 0.260515,1.05354 0.375,1.5625 0.05123,0.22536 0.07316,0.43089 0.125,0.65625 0.397591,1.74404 0.846204,3.45805 1.28125,5.1875 0.244536,0.9721 0.525253,1.93879 0.78125,2.90625 0.32844,1.24124 0.65276,2.48533 1,3.71875 0.346599,1.23114 0.697242,2.46435 1.0625,3.6875 2.564363,8.58739 5.592787,16.97033 9.0625,25.125 4.612935,10.84153 9.981039,21.32057 16.0625,31.28125 0.125561,0.20558 0.248896,0.35731 0.375,0.5625 0.528289,0.86384 1.058116,1.70777 1.59375,2.5625 0.203526,0.32477 0.387947,0.64498 0.59375,0.96875 0.199409,0.31226 0.424179,0.65747 0.625,0.96875 0.545268,0.8491 1.100928,1.66263 1.65625,2.5 0.37829,0.57043 0.742704,1.15016 1.125,1.71875 0.15245,0.22581 0.315536,0.46224 0.46875,0.6875 0.07992,0.118 0.169752,0.25707 0.25,0.375 0.127482,0.18804 0.247034,0.37548 0.375,0.5625 0.425901,0.61968 0.880187,1.22719 1.3125,1.84375 0.420531,0.6009 0.82707,1.2182 1.25,1.8125 2.29865,3.23 4.715503,6.37852 7.15625,9.46875 1.793423,2.27064 3.602017,4.49308 5.46875,6.6875 0.939092,1.10394 1.886654,2.19672 2.84375,3.28125 0.948762,1.07508 1.908907,2.16281 2.875,3.21875 0.01436,0.0157 0.01689,0.0468 0.03125,0.0625 0.958624,1.0472 1.930926,2.03422 2.90625,3.0625 1.972387,2.07948 3.992729,4.15465 6.03125,6.15625 2.043645,2.00662 4.111547,3.9473 6.21875,5.875 0.947091,0.86642 1.884246,1.74337 2.84375,2.59375 0.105278,0.0933 0.207072,0.18818 0.3125,0.28125 0.7933,0.70065 1.60467,1.40407 2.40625,2.09375 0.27293,0.23483 0.57009,0.45367 0.84375,0.6875 1.08268,0.92229 2.15243,1.84786 3.25,2.75 1.60527,1.32852 3.20315,2.65801 4.84375,3.93742 1.52931,1.1926 3.0382,2.3772 4.59375,3.5313 1.5616,1.1584 3.16278,2.256 4.75,3.375 0.62475,0.4407 1.27082,0.8751 1.90625,1.3125 0.45176,0.3111 0.89488,0.6318 1.34375,0.9375 1.42664,0.9757 2.83287,1.9605 4.28125,2.9062 1.43349,0.9359 2.88943,1.8439 4.34375,2.75 0.36815,0.2284 0.72445,0.4611 1.09375,0.6875 1.47373,0.9073 2.97435,1.78 4.46875,2.6563 1.67281,0.9809 3.33311,1.9646 5.03125,2.9062 1.69489,0.9397 3.40551,1.8501 5.125,2.75 8.00007,4.1867 16.25591,7.9293 24.75,11.2189 l 9.15625,-35.9064 24.5,-111.46867 c -0.5833,-0.39826 -1.14395,-0.83844 -1.71875,-1.25 -0.44926,-0.32167 -0.89983,-0.63902 -1.34375,-0.96875 -0.10789,-0.0805 -0.2049,-0.16963 -0.3125,-0.25 -0.14142,-0.10598 -0.29664,-0.20571 -0.4375,-0.3125 -0.50612,-0.37981 -1.00237,-0.763 -1.5,-1.15625 -0.0552,-0.0436 -0.13241,-0.0812 -0.1875,-0.125 -0.46827,-0.37186 -0.91336,-0.77518 -1.375,-1.15625 -0.2583,-0.21323 -0.52507,-0.44015 -0.78125,-0.65625 -0.37356,-0.31662 -0.75639,-0.61509 -1.125,-0.9375 -0.61087,-0.53171 -1.21445,-1.04552 -1.8125,-1.59375 -0.53135,-0.48906 -1.04237,-0.99891 -1.5625,-1.5 -0.0253,-0.0243 -0.0685,-0.007 -0.0937,-0.0312 -0.51711,-0.49929 -0.99424,-1.0516 -1.5,-1.5625 -0.38251,-0.38512 -0.77988,-0.76397 -1.15625,-1.15625 -0.10648,-0.11128 -0.23781,-0.20069 -0.34375,-0.3125 -0.59104,-0.62207 -1.14345,-1.26657 -1.71875,-1.90625 -0.67488,-0.75154 -1.31781,-1.50869 -1.96875,-2.28125 -0.31608,-0.37513 -0.65843,-0.74504 -0.96875,-1.125 -0.26,-0.31833 -0.49381,-0.6153 -0.75,-0.9375 -0.11448,-0.14385 -0.2301,-0.32425 -0.34375,-0.46875 -0.57929,-0.73746 -1.15971,-1.46143 -1.71875,-2.21875 -0.46441,-0.62749 -0.89398,-1.2365 -1.34375,-1.875 -0.1223,-0.1745 -0.25377,-0.38701 -0.375,-0.5625 -0.31867,-0.45885 -0.62684,-0.91023 -0.9375,-1.375 -0.42496,-0.63931 -0.8705,-1.28556 -1.28125,-1.9375 -0.004,-0.007 0.004,-0.0242 0,-0.0312 -0.49181,-0.78105 -0.93532,-1.57603 -1.40625,-2.375 -0.0437,-0.0738 -0.11095,-0.11688 -0.15625,-0.1875 -0.28004,-0.47803 -0.5713,-0.98439 -0.84375,-1.46875 -0.0779,-0.13854 -0.14145,-0.26718 -0.21875,-0.40625 -0.18095,-0.32582 -0.35388,-0.63979 -0.53125,-0.96875 -0.18095,-0.3347 -0.35393,-0.69365 -0.53125,-1.03125 -0.0724,-0.1381 -0.14694,-0.26774 -0.21875,-0.40625 -0.23128,-0.44621 -0.46059,-0.88796 -0.6875,-1.34375 -0.22728,-0.45572 -0.46683,-0.91421 -0.6875,-1.375 -0.1226,-0.25511 -0.22185,-0.52811 -0.34375,-0.78125 -0.14657,-0.31317 -0.294,-0.62203 -0.4375,-0.9375 -0.19064,-0.41917 -0.37665,-0.83174 -0.5625,-1.25 -0.16585,-0.37872 -0.31615,-0.75117 -0.46875,-1.125 -0.15433,-0.3649 -0.31663,-0.72411 -0.46875,-1.09375 -0.32817,-0.8042 -0.65898,-1.6255 -0.96875,-2.4375 -0.0521,-0.13649 -0.10574,-0.27038 -0.15625,-0.40625 -0.0405,-0.109 -0.0853,-0.23523 -0.125,-0.34375 -0.08,-0.21753 -0.1404,-0.40723 -0.21875,-0.625 -0.0526,-0.14695 -0.10385,-0.32151 -0.15625,-0.46875 -0.26599,-0.75083 -0.53528,-1.49655 -0.78125,-2.25 -0.0554,-0.16902 -0.10245,-0.33084 -0.15625,-0.5 -0.007,-0.0212 0.003,-0.0444 0,-0.0625 -0.01,-0.0298 -0.0217,-0.0639 -0.0312,-0.0937 -0.35202,-1.11386 -0.69008,-2.22007 -1,-3.34375 -0.004,-0.013 0.004,-0.0496 0,-0.0625 -0.31299,-1.13669 -0.63633,-2.29207 -0.90625,-3.4375 -0.24533,-1.04111 -0.47776,-2.04646 -0.6875,-3.09375 -0.022,-0.10853 -0.0409,-0.2352 -0.0625,-0.34375 -0.005,-0.0214 -0.0272,-0.041 -0.0312,-0.0625 -0.01,-0.0487 0.009,-0.0764 0,-0.125 -0.0154,-0.0786 -0.0162,-0.17148 -0.0312,-0.25 -0.19231,-1.00033 -0.37032,-1.99705 -0.53125,-3 -0.0166,-0.10503 -0.0462,-0.20748 -0.0625,-0.3125 -0.008,-0.0498 -0.0237,-0.10644 -0.0312,-0.15625 -0.15533,-1.01706 -0.28217,-2.04519 -0.40625,-3.0625 -0.2626,-2.17218 -0.41959,-4.32373 -0.53125,-6.5 l -0.46875,0 -26.3125,-0.125 9.21875,-24.65625 82.15625,-220.125 z m 141.75,25.40625 -50.5,108.34375 48.84375,-0.1875 32.6875,-0.125 -16.90625,28 L 352,787.67468 c 0.005,0.0186 -0.005,0.0439 0,0.0625 0.0854,0.34764 0.16839,0.68211 0.25,1.03125 0.0415,0.17781 0.0845,0.35324 0.125,0.53125 0.13229,0.58114 0.25344,1.16482 0.375,1.75 0.002,0.009 -0.002,0.0217 0,0.0312 0.10622,0.51228 0.21481,1.0176 0.3125,1.53125 0.0505,0.26562 0.10795,0.5461 0.15625,0.8125 0.1004,0.55372 0.19077,1.10116 0.28125,1.65625 0.0372,0.22837 0.0894,0.45859 0.125,0.6875 0.0397,0.25495 0.0874,0.49479 0.125,0.75 0.0782,0.53189 0.1182,1.09025 0.1875,1.625 0.0748,0.57733 0.15435,1.16944 0.21875,1.75 0.007,0.0595 0.0247,0.0968 0.0312,0.15625 0.0172,0.15765 0.0461,0.31086 0.0625,0.46875 0.0697,0.66813 0.13191,1.33079 0.1875,2 0.0115,0.13879 0.0204,0.26729 0.0312,0.40625 0.11932,1.52183 0.20328,3.05233 0.25,4.59375 0.003,0.0893 -0.002,0.19191 0,0.28125 0.0206,0.74259 0.0281,1.47592 0.0312,2.21875 3.6e-4,0.0791 -1.7e-4,0.17088 0,0.25 0.001,0.75274 -0.0149,1.49739 -0.0312,2.25 -0.001,0.0495 10e-4,0.0756 0,0.125 -0.0183,0.78236 -0.0562,1.56192 -0.0937,2.34375 -9.3e-4,0.0196 9.4e-4,0.0428 0,0.0625 -0.0192,0.39618 -0.0695,0.79153 -0.0937,1.1875 -0.0239,0.39638 -0.002,0.79243 -0.0312,1.1875 -10e-4,0.0197 0.001,0.0428 0,0.0625 -0.0384,0.52381 -0.078,1.04109 -0.125,1.5625 -0.0221,0.24604 -0.0385,0.5045 -0.0625,0.75 -0.0165,0.18786 -0.045,0.37476 -0.0625,0.5625 -0.0361,0.34732 -0.0852,0.68505 -0.125,1.03125 -0.0285,0.24745 -0.0634,0.50313 -0.0937,0.75 -0.11482,0.86134 -0.24512,1.7054 -0.375,2.5625 -0.17446,1.15124 -0.37688,2.29208 -0.59375,3.4375 -0.21686,1.14542 -0.45948,2.29915 -0.71875,3.4375 -0.25438,1.11684 -0.48606,2.23492 -0.78125,3.34375 -0.006,0.0213 -0.0256,0.0412 -0.0312,0.0625 -0.12407,0.46157 -0.27528,0.91552 -0.40625,1.375 -0.073,0.25814 -0.11219,0.52362 -0.1875,0.78125 -0.089,0.30398 -0.18931,0.60353 -0.28125,0.90625 -0.12395,0.40878 -0.24712,0.81848 -0.375,1.21875 -0.0509,0.15945 -0.10444,0.3096 -0.15625,0.46875 -0.0517,0.15924 -0.10375,0.34113 -0.15625,0.5 -0.13329,0.39672 -0.26973,0.75981 -0.40625,1.15625 -0.0478,0.13835 -0.10775,0.2994 -0.15625,0.4375 -0.31493,0.9009 -0.62586,1.76332 -0.96875,2.65625 -0.0667,0.17356 -0.15106,0.35801 -0.21875,0.53125 -0.17184,0.43871 -0.35294,0.90766 -0.53125,1.34375 -0.0404,0.0986 -0.0531,0.18279 -0.0937,0.28125 -0.0484,0.11886 -0.10675,0.25622 -0.15625,0.375 -0.24321,0.58169 -0.4956,1.17423 -0.75,1.75 -0.0518,0.11742 -0.10395,0.22653 -0.15625,0.34375 -0.25602,0.57306 -0.51425,1.12051 -0.78125,1.6875 -0.0598,0.12744 -0.12711,0.24782 -0.1875,0.375 -0.26413,0.55443 -0.53799,1.13906 -0.8125,1.6875 -0.0636,0.12748 -0.0921,0.2478 -0.15625,0.375 -0.27693,0.54714 -0.58784,1.08399 -0.875,1.625 -0.0683,0.12913 -0.11859,0.24617 -0.1875,0.375 -0.28705,0.53482 -0.57805,1.09638 -0.875,1.625 -0.0774,0.13841 -0.17185,0.26822 -0.25,0.40625 -0.29299,0.51547 -0.57269,1.02186 -0.875,1.53125 -0.0875,0.148 -0.19297,0.28995 -0.28125,0.4375 -0.29824,0.49637 -0.59925,1.00959 -0.90625,1.5 -0.0925,0.14828 -0.15669,0.28972 -0.25,0.4375 -1.51337,2.38806 -3.16053,4.70001 -4.875,6.9375 -4.84662,6.32512 -10.45861,12.04135 -16.71875,16.96875 -0.20568,0.16189 -0.41796,0.30853 -0.625,0.46875 -1.03194,0.79857 -2.05988,1.58741 -3.125,2.34375 -0.15635,0.11103 -0.34295,0.2024 -0.5,0.3125 -0.48904,0.34096 -0.97194,0.66748 -1.46875,1 -0.12891,0.0868 -0.24565,0.19506 -0.375,0.28125 -0.52905,0.35031 -1.08729,0.69063 -1.625,1.03125 -0.33431,0.21322 -0.66285,0.41588 -1,0.625 -0.33823,0.20834 -0.65845,0.42051 -1,0.625 -0.0614,0.0371 -0.12596,0.088 -0.1875,0.125 -0.62356,0.37142 -1.2405,0.73533 -1.875,1.09375 -0.67305,0.38292 -1.37931,0.75821 -2.0625,1.125 -0.0196,0.0104 -0.0429,0.0208 -0.0625,0.0312 -1.41866,0.75468 -2.84247,1.4674 -4.3125,2.15625 -1.47003,0.68885 -2.97967,1.34833 -4.5,1.96875 -4.35094,1.77553 -8.78683,3.21399 -13.21875,4.3125 l -67.09375,111.03127 -17.625,30.6562 c 3.28678,0.8712 6.56613,1.7035 9.90625,2.4375 1.89353,0.4161 3.77766,0.7849 5.6875,1.1563 1.89024,0.3676 3.8131,0.7391 5.71875,1.0625 0.15632,0.026 0.31238,0.036 0.46875,0.062 1.36997,0.2297 2.74734,0.4498 4.125,0.6562 0.7115,0.1083 1.41575,0.177 2.125,0.2813 1.23222,0.1811 2.44565,0.3732 3.6875,0.5312 7.77582,0.989 15.64432,1.5931 23.53125,1.8125 2.36622,0.066 4.72089,0.098 7.09375,0.094 0.24715,-4e-4 0.50279,0 0.75,0 0.25799,-9e-4 0.52319,0 0.78125,0 1.04657,-0.01 2.07741,-0.041 3.125,-0.062 1.02567,-0.021 2.06717,-0.029 3.09375,-0.062 0.28721,-0.01 0.55647,-0.02 0.84375,-0.031 0.99745,-0.036 2.00182,-0.076 3,-0.125 0.80979,-0.04 1.6273,-0.077 2.4375,-0.125 0.82032,-0.049 1.64813,-0.1299 2.46875,-0.1875 0.94932,-0.066 1.89403,-0.1412 2.84375,-0.2187 0.36423,-0.03 0.72949,-0.031 1.09375,-0.062 3.56251,-0.307 7.12292,-0.6874 10.6875,-1.1563 0.0889,-0.012 0.19232,-0.019 0.28125,-0.031 0.2964,-0.039 0.57869,-0.084 0.875,-0.125 1.58189,-0.216 3.16849,-0.4706 4.75,-0.7188 1.05155,-0.1651 2.10293,-0.3286 3.15625,-0.5 0.0688,-0.012 0.14994,-0.019 0.21875,-0.031 0.66003,-0.1082 1.34148,-0.1939 2,-0.3125 1.09612,-0.1951 2.15905,-0.4151 3.25,-0.625 0.64489,-0.1254 1.29287,-0.2753 1.9375,-0.4063 0.16896,-0.034 0.33084,-0.09 0.5,-0.125 1.13645,-0.2293 2.27781,-0.4101 3.40625,-0.6562 0.73431,-0.1617 1.48492,-0.3312 2.21875,-0.5 0.75817,-0.1728 1.50105,-0.3807 2.25,-0.5625 0.9739,-0.2363 1.95987,-0.4728 2.9375,-0.7188 18.09897,-4.5528 35.34951,-11.1545 51.5625,-19.5312 0.21666,-0.1112 0.44005,-0.232 0.65625,-0.3438 1.03028,-0.5363 2.07218,-1.0744 3.09375,-1.625 0.2312,-0.1238 0.45684,-0.2505 0.6875,-0.375 0.9995,-0.5428 2.009,-1.0686 3,-1.625 0.24743,-0.138 0.47197,-0.2987 0.71875,-0.4375 0.19658,-0.1113 0.39751,-0.2007 0.59375,-0.3125 1.03772,-0.5877 2.06746,-1.2111 3.09375,-1.8125 28.61231,-16.7661 52.76221,-38.8149 71.6875,-64.37497 0.28004,-0.37796 0.5661,-0.7454 0.84375,-1.125 0.87686,-1.19316 1.71034,-2.38826 2.5625,-3.59375 0.0343,-0.0491 0.0596,-0.10715 0.0937,-0.15625 0.30339,-0.42986 0.6035,-0.8502 0.90625,-1.28125 0.67349,-0.95887 1.34759,-1.90795 2,-2.875 0.10694,-0.15791 0.23759,-0.37279 0.34375,-0.53125 0.0451,-0.0679 0.048,-0.12027 0.0937,-0.1875 0.6399,-0.95539 1.2574,-1.9165 1.875,-2.875 0.38675,-0.59562 0.77462,-1.18202 1.15625,-1.78125 0.31263,-0.49101 0.62877,-1.00721 0.9375,-1.5 0.69097,-1.10292 1.35984,-2.20089 2.03125,-3.3125 0.6715,-1.11175 1.34804,-2.22356 2,-3.34375 0.24749,-0.42467 0.47378,-0.85496 0.71875,-1.28125 0.40165,-0.69998 0.79344,-1.39061 1.1875,-2.09375 1.27137,-2.26855 2.5263,-4.54374 3.71875,-6.84375 0.11425,-0.21985 0.23016,-0.43601 0.34375,-0.65625 0.4804,-0.93367 0.97006,-1.87394 1.4375,-2.8125 0.0727,-0.14561 0.1151,-0.29172 0.1875,-0.4375 0.42984,-0.86748 0.86246,-1.75348 1.28125,-2.625 0.10526,-0.21848 0.23912,-0.43741 0.34375,-0.65625 0.0744,-0.15604 0.11345,-0.31258 0.1875,-0.46875 0.83691,-1.7602 1.67345,-3.5292 2.46875,-5.3125 0.11861,-0.26595 0.22608,-0.5148 0.34375,-0.78125 0.0518,-0.11773 0.10464,-0.2572 0.15625,-0.375 0.43463,-0.98847 0.85951,-1.97341 1.28125,-2.96875 0.0884,-0.20929 0.16219,-0.38427 0.25,-0.59375 1.30526,-3.10507 2.54105,-6.2681 3.71875,-9.4375 0.19437,-0.52448 0.40313,-1.03698 0.59375,-1.5625 0.21921,-0.6028 0.44171,-1.20748 0.65625,-1.8125 0.007,-0.0206 0.024,-0.0419 0.0312,-0.0625 1.03659,-2.92586 2.01163,-5.89864 2.9375,-8.875 0.57575,-1.85089 1.12409,-3.69285 1.65625,-5.5625 1.0575,-3.7153 2.02438,-7.46409 2.90625,-11.25 0.22975,-0.9781 0.43708,-1.95691 0.65625,-2.9375 0.0196,-0.0891 0.043,-0.19212 0.0625,-0.28125 0.0457,-0.20911 0.0798,-0.4158 0.125,-0.625 0.21968,-1.00838 0.44442,-2.02285 0.65625,-3.03125 0.13792,-0.68153 0.27408,-1.34765 0.40625,-2.03125 0.12308,-0.62951 0.25926,-1.27278 0.375,-1.90625 0.0747,-0.40366 0.11482,-0.8144 0.1875,-1.21875 0.11593,-0.65339 0.26188,-1.28583 0.375,-1.9375 0.0388,-0.22347 0.0868,-0.43263 0.125,-0.65625 0.0342,-0.20298 0.0602,-0.42194 0.0937,-0.625 0.1825,-1.08585 0.34263,-2.16211 0.5,-3.25 0.0128,-0.0884 0.0186,-0.19278 0.0312,-0.28125 0.0804,-0.53419 0.17308,-1.05842 0.25,-1.59375 0.11705,-0.80135 0.20371,-1.60728 0.3125,-2.40625 0.0211,-0.15779 0.0417,-0.31087 0.0625,-0.46875 0.12836,-0.95679 0.28912,-1.91123 0.40625,-2.875 0.23381,-1.92381 0.46861,-3.88085 0.65625,-5.8125 2.03535,-20.95352 1.32375,-42.3154 -2.3125,-63.625 -0.3261,-1.91108 -0.68888,-3.8406 -1.0625,-5.75 -0.0289,-0.14771 -0.0648,-0.28953 -0.0937,-0.4375 -0.1565,-0.80179 -0.30436,-1.60732 -0.46875,-2.40625 -0.11138,-0.55518 -0.22721,-1.10252 -0.34375,-1.65625 -0.083,-0.39439 -0.16335,-0.79494 -0.25,-1.1875 -9.5e-4,-0.008 -0.0297,0.009 -0.0312,0 -0.20648,-0.94411 -0.4099,-1.8923 -0.625,-2.84375 -0.11393,-0.504 -0.22513,-1.00157 -0.34375,-1.5 -0.0135,-0.0561 -0.0489,-0.10034 -0.0625,-0.15625 -0.0212,-0.0887 -0.0412,-0.1614 -0.0625,-0.25 -0.43827,-1.82749 -0.89553,-3.65769 -1.375,-5.46875 -0.26551,-1.0029 -0.53448,-2.00226 -0.8125,-3 -0.0691,-0.24792 -0.1489,-0.47116 -0.21875,-0.71875 -0.0783,-0.27751 -0.1395,-0.56645 -0.21875,-0.84375 -0.27466,-0.96029 -0.58881,-1.91964 -0.875,-2.875 -0.37007,-1.23538 -0.7358,-2.49178 -1.125,-3.71875 -0.39405,-1.24228 -0.80527,-2.45402 -1.21875,-3.6875 -0.15879,-0.47452 -0.30695,-0.96377 -0.46875,-1.4375 -0.25699,-0.75099 -0.48585,-1.50237 -0.75,-2.25 -0.0562,-0.15949 -0.13091,-0.30935 -0.1875,-0.46875 -0.37658,-1.05873 -0.76538,-2.10439 -1.15625,-3.15625 -0.45377,-1.22119 -0.9334,-2.44448 -1.40625,-3.65625 -0.47282,-1.21164 -0.9458,-2.42296 -1.4375,-3.625 -0.27772,-0.68043 -0.55959,-1.35285 -0.84375,-2.03125 -0.0534,-0.12728 -0.0714,-0.27908 -0.125,-0.40625 -0.46793,-1.11174 -0.98349,-2.20642 -1.46875,-3.3125 -0.54363,-1.23908 -1.09087,-2.45579 -1.65625,-3.6875 -0.55917,-1.21816 -1.13829,-2.44559 -1.71875,-3.65625 -1.7354,-3.61952 -3.57426,-7.20265 -5.5,-10.75 -0.17057,-0.31359 -0.32808,-0.656 -0.5,-0.96875 -0.47557,-0.86674 -0.95053,-1.7004 -1.4375,-2.5625 -1.45855,-2.58205 -2.97034,-5.14915 -4.53125,-7.6875 -0.086,-0.13985 -0.19495,-0.26653 -0.28125,-0.40625 -0.77822,-1.25973 -1.57152,-2.5329 -2.375,-3.78125 -0.92443,-1.43625 -1.85462,-2.86059 -2.8125,-4.28125 -0.0198,-0.0294 -0.0426,-0.0643 -0.0625,-0.0937 -0.10614,-0.15844 -0.23682,-0.34207 -0.34375,-0.5 -3.80424,-5.60585 -7.86057,-11.09809 -12.1875,-16.4375 -0.18181,-0.2249 -0.34871,-0.4321 -0.53125,-0.65625 -0.58235,-0.7134 -1.18953,-1.448 -1.78125,-2.15625 -0.28092,-0.33686 -0.52992,-0.66489 -0.8125,-1 -0.49924,-0.59108 -1.02544,-1.16261 -1.53125,-1.75 -0.79629,-0.9247 -1.59365,-1.83462 -2.40625,-2.75 -0.48324,-0.54497 -0.94978,-1.08496 -1.4375,-1.625 -0.32279,-0.35712 -0.64345,-0.70685 -0.96875,-1.0625 -0.59897,-0.65524 -1.20697,-1.3209 -1.8125,-1.96875 -0.21891,-0.23416 -0.43623,-0.48526 -0.65625,-0.71875 -0.72282,-0.76715 -1.45557,-1.52462 -2.1875,-2.28125 -0.10635,-0.11 -0.23713,-0.20265 -0.34375,-0.3125 -0.71307,-0.73432 -1.40347,-1.46318 -2.125,-2.1875 -0.12795,-0.12861 -0.2467,-0.27786 -0.375,-0.40625 l -0.0625,-0.0625 c -0.83358,-0.83359 -1.68861,-1.61864 -2.53125,-2.4375 -0.63229,-0.61322 -1.26788,-1.23806 -1.90625,-1.84375 -0.2334,-0.222 -0.45342,-0.43536 -0.6875,-0.65625 -0.52363,-0.49286 -1.06612,-1.01219 -1.59375,-1.5 -0.35333,-0.3276 -0.7077,-0.64365 -1.0625,-0.96875 -0.3882,-0.35463 -0.76593,-0.71059 -1.15625,-1.0625 -0.50088,-0.45308 -0.99625,-0.89561 -1.5,-1.34375 -3.81233,-3.39155 -7.71899,-6.64141 -11.6875,-9.75 -7.03001,-5.50671 -14.28897,-10.53741 -21.75,-15.15625 -5.08101,-3.14546 -10.24985,-6.08127 -15.5,-8.8125 z M 188.25,815.45593 c 0.0247,0.38478 0.0609,0.77233 0.0937,1.15625 0.15156,1.77252 0.369,3.50887 0.65625,5.28125 0.20054,1.23731 0.4509,2.48432 0.71875,3.71875 0.008,0.0348 0.0238,0.0591 0.0312,0.0937 0.10544,0.48287 0.16541,0.95533 0.28125,1.4375 0.0702,0.29477 0.14495,0.61289 0.21875,0.90625 0.0538,0.21226 0.10035,0.4442 0.15625,0.65625 0.0135,0.0515 0.0489,0.0735 0.0625,0.125 0.22868,0.86765 0.45889,1.7403 0.71875,2.59375 0.007,0.023 0.0169,0.0464 0.0312,0.0625 0.009,0.01 0.0268,0.017 0.0312,0.0312 0.0147,0.0481 0.0164,0.0769 0.0312,0.125 0.004,0.0121 0.0277,0.0201 0.0312,0.0312 0.13123,0.42413 0.26179,0.85734 0.40625,1.28125 0.10827,0.33492 0.22784,0.66543 0.34375,1 0.0772,0.21825 0.14137,0.43927 0.21875,0.65625 0.11581,0.33305 0.22174,0.67426 0.34375,1 0.16856,0.45006 0.34421,0.90225 0.53125,1.34375 0.0276,0.0702 0.0657,0.1486 0.0937,0.21875 0.0586,0.13916 0.0988,0.26553 0.15625,0.40625 0.0286,0.0702 0.0651,0.1487 0.0937,0.21875 0.10673,0.28367 0.22645,0.56893 0.34375,0.84375 0.65148,1.52836 1.3413,2.99713 2.09375,4.46875 0.13817,0.27138 0.29657,0.512 0.4375,0.78125 0.0248,0.047 0.0376,0.10928 0.0625,0.15625 0.0334,0.0634 0.0602,0.12429 0.0937,0.1875 0.1781,0.33362 0.35057,0.66524 0.53125,1 0.15911,0.29018 0.33737,0.55648 0.5,0.84375 0.10405,0.18519 0.20545,0.37943 0.3125,0.5625 0.009,0.004 0.0229,0.0281 0.0312,0.0312 0.14513,0.24904 0.28968,0.50323 0.4375,0.75 0.23706,0.39769 0.47424,0.79643 0.71875,1.1875 0.11158,0.17763 0.1995,0.38588 0.3125,0.5625 0.032,0.0501 0.0929,0.10624 0.125,0.15625 0.0382,0.0595 0.0866,0.0969 0.125,0.15625 0.46596,0.72082 0.91579,1.45547 1.40625,2.15625 0.13417,0.1923 0.27051,0.37258 0.40625,0.5625 0.43257,0.60523 0.86262,1.22115 1.3125,1.8125 0.0546,0.0717 0.13263,0.116 0.1875,0.1875 0.15457,0.20159 0.31222,0.39431 0.46875,0.59375 0.6641,0.84615 1.33305,1.69145 2.03125,2.5 0.69798,0.8083 1.42594,1.60255 2.15625,2.375 0.65073,0.68827 1.29367,1.3389 1.96875,2 0.16923,0.16611 0.32926,0.33572 0.5,0.5 0.12531,0.12044 0.28016,0.25544 0.40625,0.375 0.1027,0.0975 0.20926,0.18433 0.3125,0.28125 0.0389,0.0364 0.0548,0.0886 0.0937,0.125 0.30617,0.28609 0.62027,0.56699 0.9375,0.84375 l 8.0625,-36.75 c -0.32694,-0.79671 -0.62598,-1.56631 -0.90625,-2.375 -0.14038,-0.40504 -0.27821,-0.81053 -0.40625,-1.21875 -0.0373,-0.11815 -0.0888,-0.25671 -0.125,-0.375 -0.0169,-0.0552 -0.0146,-0.10101 -0.0312,-0.15625 -0.31894,-1.06339 -0.60807,-2.13832 -0.84375,-3.21875 -0.12163,-0.55756 -0.21306,-1.12644 -0.3125,-1.6875 -0.14574,-0.82225 -0.27108,-1.64433 -0.375,-2.46875 l -28.625,-0.0937 z m 142.34375,7.65625 -26.625,44.0625 c 0.33784,-0.26422 0.6671,-0.54427 1,-0.8125 0.81438,-0.65615 1.62527,-1.31207 2.40625,-2 0.78645,-0.69275 1.56049,-1.43266 2.3125,-2.15625 1.52259,-1.46503 2.99722,-2.97974 4.375,-4.5625 0.69366,-0.79685 1.34397,-1.61302 2,-2.4375 0.64038,-0.80482 1.27104,-1.57651 1.875,-2.40625 0.0127,-0.0175 0.0186,-0.045 0.0312,-0.0625 0.61783,-0.85043 1.23352,-1.74991 1.8125,-2.625 0.42377,-0.6405 0.84733,-1.25323 1.25,-1.90625 0.008,-0.004 -0.009,-0.027 0,-0.0312 0.0301,-0.0489 0.0326,-0.10714 0.0625,-0.15625 0.26447,-0.43005 0.52566,-0.87653 0.78125,-1.3125 0.0254,-0.0432 0.0673,-0.0834 0.0937,-0.125 0.0928,-0.1457 0.19388,-0.28515 0.28125,-0.4375 0.11195,-0.19579 0.2024,-0.39696 0.3125,-0.59375 0.16003,-0.2853 0.3108,-0.55664 0.46875,-0.84375 0.0317,-0.0583 0.0623,-0.12909 0.0937,-0.1875 0.16772,-0.30684 0.33935,-0.59766 0.5,-0.90625 0.0287,-0.0551 0.0652,-0.13228 0.0937,-0.1875 0.14759,-0.28533 0.26592,-0.59022 0.40625,-0.875 0.11302,-0.22933 0.26467,-0.42596 0.375,-0.65625 0.14268,-0.29272 0.26745,-0.61132 0.40625,-0.90625 0.045,-0.0957 0.0807,-0.18472 0.125,-0.28125 0.35505,-0.76326 0.70252,-1.535 1.03125,-2.3125 0.005,-0.0118 0.0263,-0.0195 0.0312,-0.0312 0.13268,-0.31469 0.24679,-0.6522 0.375,-0.96875 0.0898,-0.22211 0.19371,-0.43341 0.28125,-0.65625 0.24716,-0.6281 0.45769,-1.26967 0.6875,-1.90625 0.008,-0.0208 0.0222,-0.0423 0.0312,-0.0625 0.018,-0.0501 0.0446,-0.10615 0.0625,-0.15625 0.0371,-0.10419 0.0883,-0.20819 0.125,-0.3125 0.1534,-0.43525 0.29053,-0.8785 0.4375,-1.3125 0.0166,-0.0503 0.046,-0.10595 0.0625,-0.15625 0.11218,-0.33395 0.23795,-0.66121 0.34375,-1 0.005,-0.0123 -0.004,-0.0499 0,-0.0625 0.004,-0.0131 -0.004,-0.0186 0,-0.0312 0.009,-0.0297 0.0222,-0.064 0.0312,-0.0937 0.27834,-0.90167 0.50663,-1.80235 0.75,-2.71875 0.003,-0.008 0.0288,-0.0234 0.0312,-0.0312 0.13944,-0.52547 0.27891,-1.03458 0.40625,-1.5625 0.1042,-0.43261 0.18493,-0.87688 0.28125,-1.3125 0.21266,-0.96179 0.4201,-1.93044 0.59375,-2.90625 z"
       id="path3320"
       inkscape:connector-curvature="0"
       inkscape:export-xdpi="90"
       inkscape:export-ydpi="90" />
  </g>
</svg>
