<?xml version="1.0" encoding="UTF-8" standalone="no"?>
<!-- Created with Inkscape (http://www.inkscape.org/) -->

<svg
   xmlns:dc="http://purl.org/dc/elements/1.1/"
   xmlns:cc="http://creativecommons.org/ns#"
   xmlns:rdf="http://www.w3.org/1999/02/22-rdf-syntax-ns#"
   xmlns:svg="http://www.w3.org/2000/svg"
   xmlns="http://www.w3.org/2000/svg"
   xmlns:sodipodi="http://sodipodi.sourceforge.net/DTD/sodipodi-0.dtd"
   xmlns:inkscape="http://www.inkscape.org/namespaces/inkscape"
   width="512"
   height="512"
   id="svg2983"
   version="1.1"
   inkscape:version="0.48.2 r9819"
   sodipodi:docname="BS-Software-Channel-Management.svg">
  <defs
     id="defs2985" />
  <sodipodi:namedview
     id="base"
     pagecolor="#ffffff"
     bordercolor="#666666"
     borderopacity="1.0"
     inkscape:pageopacity="0.0"
     inkscape:pageshadow="2"
     inkscape:zoom="0.35"
     inkscape:cx="339.64466"
     inkscape:cy="520"
     inkscape:document-units="px"
     inkscape:current-layer="layer1"
     showgrid="false"
     inkscape:window-width="889"
     inkscape:window-height="681"
     inkscape:window-x="20"
     inkscape:window-y="42"
     inkscape:window-maximized="0" />
  <metadata
     id="metadata2988">
    <rdf:RDF>
      <cc:Work
         rdf:about="">
        <dc:format>image/svg+xml</dc:format>
        <dc:type
           rdf:resource="http://purl.org/dc/dcmitype/StillImage" />
        <dc:title></dc:title>
      </cc:Work>
    </rdf:RDF>
  </metadata>
  <g
     inkscape:label="Layer 1"
     inkscape:groupmode="layer"
     id="layer1"
     transform="translate(0,-540.36218)">
    <path
       style="fill:#000000;fill-opacity:1;stroke:none"
       d="m 37.03125,542.33094 c -9.72843,0 -17.5625,10.50547 -17.5625,23.53125 l 0,47.25 67.15625,0 0,-47.25 c 0,-13.02578 -7.80282,-23.53125 -17.53125,-23.53125 l -32.0625,0 z m 150.21875,0 c -9.72843,0 -17.5625,10.50547 -17.5625,23.53125 l 0,201.5 67.09375,0 c 0.0214,-0.0202 0.041,-0.0423 0.0625,-0.0625 l 0,-201.4375 c 0,-13.02578 -7.80281,-23.53125 -17.53125,-23.53125 l -32.0625,0 z m 150.21875,0 c -9.72843,0 -17.5625,10.50547 -17.5625,23.53125 l 0,83 67.15625,0 0,-83 c 0,-13.02578 -7.80275,-23.53125 -17.53125,-23.53125 l -32.0625,0 z M 17.53125,630.73719 C 7.80282,630.73719 0,641.24264 0,654.26844 l 0,131.65625 c 0,13.02579 7.80282,23.53125 17.53125,23.53125 l 71.03125,0 c 9.72843,0 17.5625,-10.50546 17.5625,-23.53125 l 0,-131.65625 c 0,-13.0258 -7.83407,-23.53125 -17.5625,-23.53125 l -71.03125,0 z m -0.0937,35.75 71.21875,0 0,10.75 -71.21875,0 0,-10.75 z m 300.53125,0 c -9.72843,0 -17.53125,10.4742 -17.53125,23.5 l 0,52 c 7.83115,-12.16039 21.75138,-20.71875 36.71875,-20.71875 l 41.96875,0 c 10.08208,0 19.76873,3.3514 27.4375,9.40625 l 0,-40.6875 c 0,-13.0258 -7.834,-23.5 -17.5625,-23.5 l -71.03125,0 z m -0.0937,35.75 71.21875,0 0,10.75 -71.21875,0 0,-10.75 z m -300.4375,7.5 71.21875,0 0,10.78125 -71.21875,0 0,-10.78125 z m 0,43.28125 71.21875,0 0,10.75 -71.21875,0 0,-10.75 z m 319.71875,4.8125 c -3.40164,0 -6.02533,2.28882 -6.78125,5.3125 -3.02368,11.33881 -4.17714,23.59721 -5.5,35.125 -5.85838,1.8898 -11.70708,4.3528 -17.1875,7.1875 l -26.09385,-20.21875 c -1.51184,-1.13388 -3.20543,-1.875 -4.90625,-1.875 -6.42532,0 -31.93323,27.57616 -36.46875,33.8125 -0.9449,1.32286 -1.6875,2.64293 -1.6875,4.34375 0,1.70082 0.74112,3.20839 1.875,4.53125 6.99226,8.5041 13.79343,17.02271 20.21875,26.09375 -3.02368,5.6694 -5.4852,11.32764 -7.375,17.375 l -35.15625,5.3125 C 215.25905,875.39788 213,878.77749 213,881.61219 l 0,41.96875 c 0,3.21266 2.25609,6.24556 5.46875,6.8125 l 34.59375,5.09375 c 1.8898,6.42532 4.53734,12.67139 7.75,18.71875 -6.42532,8.88206 -13.41843,17.18192 -19.84375,25.875 -0.9449,1.32286 -1.5,2.64293 -1.5,4.34375 0,1.51184 0.3676,3.02089 1.3125,4.34375 7.93716,10.96084 21.17156,22.67896 31.1875,31.75006 1.32286,1.3228 3.01793,2.0937 4.71875,2.0937 1.70082,0 3.39589,-0.5849 4.71875,-1.7187 l 26.65625,-20.2188 c 5.48042,2.8347 11.14162,5.1102 17,7 l 5.3125,34.7813 c 0.37796,3.2126 3.37961,5.6562 6.78125,5.6562 l 41.96875,0 c 3.40164,0 6.02533,-2.2576 6.78125,-5.2812 3.02368,-11.3388 4.17714,-23.6285 5.5,-35.1563 5.85838,-1.8898 11.70708,-4.3528 17.1875,-7.1875 l 26.09375,20.4063 c 1.51184,0.9449 3.20543,1.7187 4.90625,1.7187 6.42532,0 31.93323,-27.7964 36.46875,-33.84376 1.13388,-1.32286 1.6875,-2.64293 1.6875,-4.34375 0,-1.70082 -0.74112,-3.39589 -1.875,-4.71875 -6.99226,-8.5041 -13.79343,-16.83373 -20.21875,-26.09375 3.02368,-5.48042 5.29622,-11.14014 7.375,-17.1875 L 498,931.14344 c 3.02368,-0.56694 5.28125,-3.9778 5.28125,-6.8125 l 0,-41.9375 c 0,-3.21266 -2.28734,-6.24556 -5.5,-6.8125 l -34.5625,-5.28125 c -1.8898,-6.23634 -4.53734,-12.48389 -7.75,-18.53125 6.42532,-8.88206 13.41843,-17.21317 19.84375,-25.90625 0.9449,-1.32286 1.5,-2.64293 1.5,-4.34375 0,-1.51184 -0.3676,-3.02237 -1.3125,-4.15625 -7.93716,-11.14982 -21.17156,-22.86498 -31.1875,-32.125 -1.32286,-1.13388 -3.01793,-1.875 -4.71875,-1.875 -1.70082,0 -3.39737,0.55362 -4.53125,1.6875 l -26.84375,20.21875 c -5.48042,-2.8347 -11.14162,-5.1102 -17,-7 l -5.3125,-34.75 c -0.37796,-3.21266 -3.37961,-5.6875 -6.78125,-5.6875 l -41.96875,0 z M 167.75,784.98719 c -9.72843,0 -17.53125,10.50546 -17.53125,23.53125 l 0,131.65625 c 0,13.02579 7.80282,23.5 17.53125,23.5 l 34.96875,0 C 186.15162,956.87153 176.4375,940.9386 176.4375,923.58094 l 0,-5.5625 -8.78125,0 0,-10.75 8.78125,0 0,-25.625 c 0,-2.46719 0.15758,-4.76096 0.46875,-6.90625 l -9.25,0 0,-10.75 12.40625,0 c 1.31429,-2.85068 2.93993,-5.48173 4.78125,-8.03125 4.4372,-6.1438 10.95486,-12.57085 21.59375,-15.84375 -1.27411,-2.61786 -2.4117,-5.5036 -3.21875,-8.625 l -35.5625,0 0,-10.75 34.3125,0 c 0.25364,-12.16066 6.26275,-21.68033 8.5,-24.8125 l 0.0937,-0.125 0.0937,-0.125 c 2.85604,-3.92706 5.65977,-7.32987 8.6875,-10.6875 l -51.59375,0 z m -148.28125,42.09375 0,201.78126 c 0,13.0258 7.83407,23.5 17.5625,23.5 l 32.0625,0 c 9.72842,0 17.53125,-10.4742 17.53125,-23.5 l 0,-201.78126 -67.15625,0 z M 358.125,854.61219 c 26.64619,0 48.40625,21.72881 48.40625,48.375 0,26.64619 -21.76006,48.375 -48.40625,48.375 -26.64619,0 -48.375,-21.72881 -48.375,-48.375 0,-26.64619 21.72881,-48.375 48.375,-48.375 z m 0,36.5625 c -6.75932,0 -11.8125,5.05318 -11.8125,11.8125 0,6.75931 5.05318,11.78125 11.8125,11.78125 6.75931,0 11.8125,-5.02194 11.8125,-11.78125 0,-6.75932 -5.05319,-11.8125 -11.8125,-11.8125 z m -188.4375,90.15625 0,47.53126 c 0,13.0258 7.83407,23.5 17.5625,23.5 l 32.0625,0 c 7.55191,0 13.92021,-6.3291 16.40625,-15.25 -7.92189,-7.2945 -16.7598,-16.0998 -24.5625,-26.875 l -0.0625,-0.094 -0.0625,-0.125 c -5.92437,-8.2941 -8.15625,-17.98615 -8.15625,-25.59376 0,-1.03009 0.09,-2.05708 0.1875,-3.09375 l -33.375,0 z"
       id="rect2985"
       inkscape:connector-curvature="0"
       inkscape:export-xdpi="90"
       inkscape:export-ydpi="90" />
  </g>
</svg>
