<?xml version="1.0" encoding="UTF-8" standalone="no"?>
<!-- Created with Inkscape (http://www.inkscape.org/) -->

<svg
   xmlns:dc="http://purl.org/dc/elements/1.1/"
   xmlns:cc="http://creativecommons.org/ns#"
   xmlns:rdf="http://www.w3.org/1999/02/22-rdf-syntax-ns#"
   xmlns:svg="http://www.w3.org/2000/svg"
   xmlns="http://www.w3.org/2000/svg"
   xmlns:sodipodi="http://sodipodi.sourceforge.net/DTD/sodipodi-0.dtd"
   xmlns:inkscape="http://www.inkscape.org/namespaces/inkscape"
   width="512"
   height="512"
   id="svg2"
   version="1.1"
   inkscape:version="0.48.2 r9819"
   sodipodi:docname="BS-software-channels.svg"
   inkscape:export-filename="/Users/Cynthia/Documents/SUSE manager/new icons/software-channels/BS-software-channels.png"
   inkscape:export-xdpi="90"
   inkscape:export-ydpi="90">
  <defs
     id="defs4" />
  <sodipodi:namedview
     id="base"
     pagecolor="#ffffff"
     bordercolor="#666666"
     borderopacity="1.0"
     inkscape:pageopacity="0.0"
     inkscape:pageshadow="2"
     inkscape:zoom="0.35"
     inkscape:cx="175"
     inkscape:cy="586.13"
     inkscape:document-units="px"
     inkscape:current-layer="layer1"
     showgrid="false"
     showguides="true"
     inkscape:guide-bbox="true"
     inkscape:window-width="1098"
     inkscape:window-height="708"
     inkscape:window-x="0"
     inkscape:window-y="22"
     inkscape:window-maximized="0" />
  <metadata
     id="metadata7">
    <rdf:RDF>
      <cc:Work
         rdf:about="">
        <dc:format>image/svg+xml</dc:format>
        <dc:type
           rdf:resource="http://purl.org/dc/dcmitype/StillImage" />
        <dc:title></dc:title>
      </cc:Work>
    </rdf:RDF>
  </metadata>
  <g
     inkscape:label="Layer 1"
     inkscape:groupmode="layer"
     id="layer1"
     transform="translate(0,-540.36218)">
    <path
       style="fill:#000000;fill-opacity:1;stroke:none"
       d="m 86.760453,542.33851 c -9.728431,0 -17.546481,10.48709 -17.546481,23.51287 l 0,47.26088 67.158638,0 0,-47.26088 c 0,-13.02578 -7.81804,-23.51287 -17.54647,-23.51287 l -32.065687,0 z m 150.217867,0 c -9.72843,0 -17.54648,10.48709 -17.54648,23.51287 l 0,201.50532 67.15864,0 0,-201.50532 c 0,-13.02578 -7.81804,-23.51287 -17.54648,-23.51287 l -32.06568,0 z m 150.21787,0 c -9.72843,0 -17.54649,10.48709 -17.54649,23.51287 l 0,83.00045 67.15865,0 0,-83.00045 c 0,-13.02578 -7.81805,-23.51287 -17.54648,-23.51287 l -32.06568,0 z M 67.27416,630.74692 c -9.728432,0 -17.546481,10.48707 -17.546481,23.51287 l 0,131.67209 c 0,13.02579 7.818049,23.51287 17.546481,23.51287 l 71.03827,0 c 9.72843,0 17.54648,-10.48708 17.54648,-23.51287 l 0,-131.67209 c 0,-13.0258 -7.81805,-23.51287 -17.54648,-23.51287 l -71.03827,0 z m -0.08817,35.73957 71.21462,0 0,10.75713 -71.21462,0 0,-10.75713 z m 300.52391,0 c -9.72843,0 -17.54648,10.48707 -17.54648,23.51287 l 0,131.67209 c 0,13.02578 7.81805,23.51287 17.54648,23.51287 l 71.03826,0 c 9.72844,0 17.54649,-10.48709 17.54649,-23.51287 l 0,-131.67209 c 0,-13.0258 -7.81805,-23.51287 -17.54649,-23.51287 l -71.03826,0 z m -0.0881,35.73955 71.2146,0 0,10.75715 -71.2146,0 0,-10.75715 z m -300.435742,7.52413 71.214612,0 0,10.75714 -71.214612,0 0,-10.75714 z m 300.435742,35.73956 71.2146,0 0,10.75715 -71.2146,0 0,-10.75715 z m -300.435742,7.52413 71.214612,0 0,10.75714 -71.214612,0 0,-10.75714 z m 150.306042,31.9775 c -9.72843,0 -17.54647,10.48708 -17.54647,23.51287 l 0,131.67209 c 0,13.02579 7.81804,23.51288 17.54647,23.51288 l 71.03827,0 c 9.72844,0 17.54649,-10.48709 17.54649,-23.51288 l 0,-131.67209 c 0,-13.02579 -7.81805,-23.51287 -17.54649,-23.51287 l -71.03827,0 z m 150.1297,3.76206 71.21461,0 0,10.75714 -71.21461,0 0,-10.75714 z m -150.21787,31.97751 71.21461,0 0,10.75714 -71.21461,0 0,-10.75714 z m -148.189881,6.34847 0,201.7699 c 0,13.0258 7.818048,23.5129 17.546481,23.5129 l 32.06569,0 c 9.72842,0 17.54647,-10.4871 17.54647,-23.5129 l 0,-201.7699 -67.158641,0 z m 300.435731,35.73957 0,166.03033 c 0,13.0258 7.81806,23.5129 17.54649,23.5129 l 32.06567,0 c 9.72843,0 17.54649,-10.4871 17.54649,-23.5129 l 0,-166.03033 -67.15865,0 z m -152.24585,1.17565 71.21461,0 0,10.75714 -71.21461,0 0,-10.75714 z m 0,43.26368 71.21461,0 0,10.75714 -71.21461,0 0,-10.75714 z m 2.02799,74.06555 0,47.52545 c 0,13.0258 7.81805,23.5129 17.54648,23.5129 l 32.06567,0 c 9.72844,0 17.54649,-10.4871 17.54649,-23.5129 l 0,-47.52545 -67.15864,0 z"
       id="rect2985"
       inkscape:connector-curvature="0" />
  </g>
</svg>
