<?xml version="1.0" encoding="UTF-8" standalone="no"?>
<!-- Created with Inkscape (http://www.inkscape.org/) -->

<svg
   xmlns:dc="http://purl.org/dc/elements/1.1/"
   xmlns:cc="http://creativecommons.org/ns#"
   xmlns:rdf="http://www.w3.org/1999/02/22-rdf-syntax-ns#"
   xmlns:svg="http://www.w3.org/2000/svg"
   xmlns="http://www.w3.org/2000/svg"
   xmlns:sodipodi="http://sodipodi.sourceforge.net/DTD/sodipodi-0.dtd"
   xmlns:inkscape="http://www.inkscape.org/namespaces/inkscape"
   width="512"
   height="512"
   id="svg2"
   version="1.1"
   inkscape:version="0.48.2 r9819"
   sodipodi:docname="BS-system-groups.svg"
   inkscape:export-filename="/Users/Cynthia/Documents/SUSE manager/new icons/system-groups/BS-system-groups.png"
   inkscape:export-xdpi="90"
   inkscape:export-ydpi="90">
  <defs
     id="defs4" />
  <sodipodi:namedview
     id="base"
     pagecolor="#ffffff"
     bordercolor="#666666"
     borderopacity="1.0"
     inkscape:pageopacity="0.0"
     inkscape:pageshadow="2"
     inkscape:zoom="0.49497475"
     inkscape:cx="248.18136"
     inkscape:cy="273.24315"
     inkscape:document-units="px"
     inkscape:current-layer="layer1"
     showgrid="false"
     inkscape:window-width="829"
     inkscape:window-height="651"
     inkscape:window-x="0"
     inkscape:window-y="22"
     inkscape:window-maximized="0" />
  <metadata
     id="metadata7">
    <rdf:RDF>
      <cc:Work
         rdf:about="">
        <dc:format>image/svg+xml</dc:format>
        <dc:type
           rdf:resource="http://purl.org/dc/dcmitype/StillImage" />
        <dc:title></dc:title>
      </cc:Work>
    </rdf:RDF>
  </metadata>
  <g
     inkscape:label="Layer 1"
     inkscape:groupmode="layer"
     id="layer1"
     transform="translate(0,-540.36218)">
    <path
       style="font-size:312.82049561px;font-style:normal;font-variant:normal;font-weight:normal;font-stretch:normal;line-height:125%;letter-spacing:0px;word-spacing:0px;fill:#000000;fill-opacity:1;stroke:none;font-family:FontAwesome;-inkscape-font-specification:FontAwesome"
       d="M 23.159561,605.97078 C 10.425055,605.97078 0,616.39584 0,629.13035 l 0,157.42802 c 0,12.73451 10.425055,23.15956 23.159561,23.15956 l 78.726959,0 c 0,12.5898 -9.274181,22.44238 -9.274181,27.79666 0,5.06486 4.20932,9.24828 9.274181,9.24828 l 63.90899,0 0,77.17263 c 0,15.74069 12.88495,28.6257 28.62564,28.6257 l 97.30124,0 c 0,15.5618 -11.45024,27.7325 -11.45024,34.3507 0,6.2605 5.18974,11.4503 11.45024,11.4503 l 91.57612,0 c 6.2605,0 11.45026,-5.1898 11.45026,-11.4503 0,-6.2605 -11.45026,-19.1467 -11.45026,-34.3507 l 97.32715,0 c 15.74068,0 28.59973,-12.88501 28.59973,-28.6257 l 0,-194.60249 c 0,-15.74068 -12.85905,-28.62563 -28.59973,-28.62563 l -202.76273,0 0,-71.57703 c 0,-12.73451 -10.42505,-23.15957 -23.15957,-23.15957 l -231.543799,0 z m 0,18.52248 231.543799,0 c 2.46008,0 4.6371,2.17701 4.6371,4.63709 l 0,71.57703 -64.91931,0 c -15.74069,0 -28.62564,12.88495 -28.62564,28.62563 l 0,24.81752 -142.635949,0 c -2.460074,0 -4.637093,-2.17701 -4.637093,-4.63709 l 0,-120.38309 c 0,-2.46008 2.177019,-4.63709 4.637093,-4.63709 z m 171.261589,99.11462 286.20451,0 c 3.04081,0 5.72513,2.68432 5.72513,5.72513 l 0,148.82739 c 0,3.04081 -2.68432,5.69922 -5.72513,5.69922 l -286.20451,0 c -3.04081,0 -5.72513,-2.65841 -5.72513,-5.69922 l 0,-148.82739 c 0,-3.04081 2.68432,-5.72513 5.72513,-5.72513 z"
       id="path3010"
       inkscape:connector-curvature="0" />
  </g>
</svg>
