<?xml version="1.0" encoding="UTF-8" standalone="no"?>
<!-- Created with Inkscape (http://www.inkscape.org/) -->

<svg
   xmlns:dc="http://purl.org/dc/elements/1.1/"
   xmlns:cc="http://creativecommons.org/ns#"
   xmlns:rdf="http://www.w3.org/1999/02/22-rdf-syntax-ns#"
   xmlns:svg="http://www.w3.org/2000/svg"
   xmlns="http://www.w3.org/2000/svg"
   xmlns:sodipodi="http://sodipodi.sourceforge.net/DTD/sodipodi-0.dtd"
   xmlns:inkscape="http://www.inkscape.org/namespaces/inkscape"
   width="512"
   height="512"
   id="svg3009"
   version="1.1"
   inkscape:version="0.48.2 r9819"
   sodipodi:docname="BS-Unentitled.svg"
   inkscape:export-filename="/Users/Cynthia/Documents/SUSE manager/new icons/Unentitled/BS-Unentitled.png"
   inkscape:export-xdpi="90"
   inkscape:export-ydpi="90">
  <defs
     id="defs3011" />
  <sodipodi:namedview
     id="base"
     pagecolor="#ffffff"
     bordercolor="#666666"
     borderopacity="1.0"
     inkscape:pageopacity="0.0"
     inkscape:pageshadow="2"
     inkscape:zoom="0.48613591"
     inkscape:cx="28.818182"
     inkscape:cy="36.558442"
     inkscape:current-layer="layer1"
     showgrid="true"
     inkscape:document-units="px"
     inkscape:grid-bbox="true"
     inkscape:window-width="932"
     inkscape:window-height="681"
     inkscape:window-x="143"
     inkscape:window-y="35"
     inkscape:window-maximized="0" />
  <metadata
     id="metadata3014">
    <rdf:RDF>
      <cc:Work
         rdf:about="">
        <dc:format>image/svg+xml</dc:format>
        <dc:type
           rdf:resource="http://purl.org/dc/dcmitype/StillImage" />
        <dc:title></dc:title>
      </cc:Work>
    </rdf:RDF>
  </metadata>
  <g
     id="layer1"
     inkscape:label="Layer 1"
     inkscape:groupmode="layer"
     transform="translate(0,448)">
    <path
       style="font-size:40px;font-style:normal;font-variant:normal;font-weight:normal;font-stretch:normal;line-height:125%;letter-spacing:0px;word-spacing:0px;fill:#000000;fill-opacity:1;stroke:none;font-family:FontAwesome;-inkscape-font-specification:FontAwesome"
       d="m 357.10498,-445.97098 c -83.76288,0 -151.61299,67.85012 -151.61299,151.613 0,83.76288 67.85011,151.61299 151.61299,151.61299 83.76288,0 151.613,-67.85011 151.613,-151.61299 0,-83.76288 -67.85012,-151.613 -151.613,-151.613 z m -115.52659,129.3096 230.80259,0 0,44.6068 -230.80259,0 0,-44.6068 z M 28.568399,-233.96339 C 12.816416,-233.96339 0,-221.14696 0,-205.39499 L 0,-10.678796 C 0,5.0731811 12.816416,18.140202 28.568399,18.140202 l 97.232791,0 c 0,15.572981 -11.277,27.709206 -11.277,34.332199 C 114.52419,58.7374 119.5362,64 125.80119,64 l 91.7196,0 c 6.26499,0 11.5276,-5.2626 11.5276,-11.527599 0,-6.264992 -11.5276,-19.117211 -11.5276,-34.332199 l 97.48339,0 c 15.75199,0 28.5684,-13.0670209 28.5684,-28.818998 l 0,-105.753194 c -7.7242,-0.57682 -15.38558,-1.47825 -22.8046,-3.0072 l 0,63.151196 c 0,3.042997 -2.7208,5.5132 -5.7638,5.5132 l -286.435781,0 c -3.042997,0 -5.7638,-2.470203 -5.7638,-5.5132 l 0,-149.106996 c 0,-3.04299 2.720803,-5.7638 5.7638,-5.7638 l 170.658591,0 c -3.87661,-7.33606 -7.18465,-14.90772 -10.024,-22.8046 l -160.634591,0 z"
       id="path3022"
       inkscape:connector-curvature="0" />
  </g>
</svg>
