<?xml version="1.0" encoding="UTF-8" standalone="no"?>
<!-- Created with Inkscape (http://www.inkscape.org/) -->

<svg
   xmlns:dc="http://purl.org/dc/elements/1.1/"
   xmlns:cc="http://creativecommons.org/ns#"
   xmlns:rdf="http://www.w3.org/1999/02/22-rdf-syntax-ns#"
   xmlns:svg="http://www.w3.org/2000/svg"
   xmlns="http://www.w3.org/2000/svg"
   xmlns:sodipodi="http://sodipodi.sourceforge.net/DTD/sodipodi-0.dtd"
   xmlns:inkscape="http://www.inkscape.org/namespaces/inkscape"
   width="512"
   height="512"
   id="svg2"
   version="1.1"
   inkscape:version="0.48.2 r9819"
   sodipodi:docname="BS-virtual-host.svg"
   inkscape:export-filename="/Users/Cynthia/Documents/SUSE manager/new icons/virtual-host/BS-virtual-host.png"
   inkscape:export-xdpi="90"
   inkscape:export-ydpi="90">
  <defs
     id="defs4" />
  <sodipodi:namedview
     id="base"
     pagecolor="#ffffff"
     bordercolor="#666666"
     borderopacity="1.0"
     inkscape:pageopacity="0.0"
     inkscape:pageshadow="2"
     inkscape:zoom="0.49497475"
     inkscape:cx="276.00322"
     inkscape:cy="115.72799"
     inkscape:document-units="px"
     inkscape:current-layer="layer1"
     showgrid="false"
     inkscape:window-width="1070"
     inkscape:window-height="643"
     inkscape:window-x="0"
     inkscape:window-y="22"
     inkscape:window-maximized="0" />
  <metadata
     id="metadata7">
    <rdf:RDF>
      <cc:Work
         rdf:about="">
        <dc:format>image/svg+xml</dc:format>
        <dc:type
           rdf:resource="http://purl.org/dc/dcmitype/StillImage" />
        <dc:title></dc:title>
      </cc:Work>
    </rdf:RDF>
  </metadata>
  <g
     inkscape:label="Layer 1"
     inkscape:groupmode="layer"
     id="layer1"
     transform="translate(0,-540.36218)">
    <path
       style="fill:#000000;fill-opacity:1;stroke:none"
       d="m 125.58978,550.95831 c -9.2248,0 -16.63003,7.71853 -16.63003,17.30923 l 0,212.02219 c 24.25062,-23.90627 58.46718,-38.83481 96.32218,-38.83481 49.23303,0 92.31742,25.19703 115.37284,62.73803 9.85296,-4.59963 20.96611,-7.16463 32.63134,-7.16463 10.36628,0 20.25798,2.03782 29.23617,5.70634 l 0,-234.46712 c 0,-9.5907 -7.40521,-17.30923 -16.63003,-17.30923 l -240.30247,0 z m 35.08341,61.40655 163.37675,0 c 8.12187,0 14.64952,7.16722 14.64952,16.07285 0,8.90564 -6.52765,16.07286 -14.64952,16.07286 l -163.37675,0 c -8.12185,0 -14.64952,-7.16722 -14.64952,-16.07286 0,-8.90563 6.52767,-16.07285 14.64952,-16.07285 z m 0,72.5022 163.37675,0 c 8.12187,0 14.64952,7.16721 14.64952,16.07285 0,8.90564 -6.52765,16.10457 -14.64952,16.10457 l -163.37675,0 c -8.12185,0 -14.64952,-7.19893 -14.64952,-16.10457 0,-8.90564 6.52767,-16.07285 14.64952,-16.07285 z m 44.60874,84.1368 c -1.0675,0 -2.11566,0.0338 -3.17512,0.0634 -0.62434,0.0175 -1.23335,0.0356 -1.85476,0.0634 -0.0995,0.004 -0.21491,-0.005 -0.31437,0 -0.38801,0.0182 -0.7763,0.041 -1.16315,0.0634 -0.54168,0.0312 -1.09542,0.0563 -1.63472,0.0951 -0.83647,0.0602 -1.68434,0.14344 -2.51494,0.22192 -0.67184,0.0636 -1.34409,0.11469 -2.01195,0.19022 -0.96903,0.1093 -1.90035,0.24647 -2.86074,0.38042 -0.1003,0.0139 -0.18278,0.0174 -0.28293,0.0317 -0.26806,0.0381 -0.55001,0.0867 -0.81736,0.1268 -1.12629,0.16865 -2.25017,0.36855 -3.36373,0.57064 -1.2935,0.23473 -2.59124,0.48184 -3.86672,0.76084 -1.04188,0.2279 -2.05151,0.47223 -3.0808,0.72915 -0.23178,0.0579 -0.4919,0.0992 -0.72304,0.1585 -1.09348,0.28064 -2.19098,0.60649 -3.26943,0.91936 -0.15492,0.045 -0.31692,0.0811 -0.47154,0.12681 -0.65531,0.19331 -1.26814,0.39726 -1.91765,0.60233 -0.68048,0.21496 -1.36943,0.40631 -2.04339,0.63404 -0.12283,0.0415 -0.25461,0.085 -0.37723,0.12681 -0.98921,0.33803 -1.94901,0.71274 -2.92363,1.07786 -1.18693,0.44465 -2.3879,0.91082 -3.55235,1.39489 -0.96806,0.4024 -1.9402,0.80728 -2.89217,1.23636 -0.73955,0.33362 -1.47103,0.69672 -2.20057,1.04617 -0.74997,0.35925 -1.49288,0.70212 -2.23202,1.07786 -0.22093,0.11232 -0.44021,0.20325 -0.66017,0.31702 -0.51012,0.26367 -1.00418,0.5528 -1.50897,0.82426 -0.24888,0.13392 -0.47549,0.27632 -0.72304,0.41212 -1.08096,0.59252 -2.1513,1.21091 -3.20654,1.83871 -0.0422,0.025 -0.11518,0.0382 -0.15719,0.0634 -0.92059,0.54945 -1.83468,1.1045 -2.735,1.6802 -0.45359,0.29027 -0.87201,0.59081 -1.32034,0.88765 -0.24463,0.16183 -0.51142,0.34345 -0.75448,0.50724 -0.45827,0.30902 -0.8992,0.60346 -1.35179,0.91934 -0.0577,0.0402 -0.131,0.0865 -0.18861,0.12682 -0.25697,0.1801 -0.49938,0.3566 -0.75449,0.53892 -0.6087,0.43475 -1.19394,0.88443 -1.79188,1.33149 -0.13161,0.0984 -0.2776,0.18631 -0.40869,0.28532 -0.94014,0.71 -1.85394,1.44751 -2.76643,2.18742 -0.0186,0.015 -0.0758,0.0167 -0.0943,0.0317 -0.93052,0.75557 -1.83413,1.56003 -2.735,2.34594 -0.92459,0.80662 -1.84255,1.60334 -2.73499,2.44103 -0.89817,0.84309 -1.77606,1.6942 -2.64069,2.56787 -1.64142,1.65854 -3.23141,3.37168 -4.74694,5.1357 -0.2114,0.24626 -0.41987,0.51259 -0.62874,0.76084 -0.58427,0.69387 -1.13332,1.35148 -1.69759,2.06062 -0.058,0.0731 -0.13065,0.14865 -0.18861,0.22192 -2.26461,2.86284 -4.33245,5.87646 -6.25591,8.97163 -1.27934,2.05867 -2.49622,4.15602 -3.61523,6.30868 -3.45565,6.64766 -6.1387,13.73958 -7.92206,21.14515 50.71054,2.66302 90.9465,41.25047 90.9465,88.47996 0,3.05971 -0.17342,6.08686 -0.503,9.06674 -5.00675,-44.63785 -46.10191,-79.44492 -96.039241,-79.44492 -3.289419,0 -6.57073,0.10374 -9.839702,0.34872 -0.08379,0.0105 -0.167766,0.021 -0.251494,0.0317 C 38.457847,869.46323 0,907.95743 0,954.52328 c 0,51.02042 46.138241,92.37932 103.08108,92.37932 1.56536,0 3.13573,-0.033 4.68407,-0.095 2.09346,0.1469 4.24544,0.2219 6.44454,0.2219 l 309.30611,0 c 6.87164,0 12.37626,-0.8476 16.78722,-2.4727 39.85569,-8.3975 69.85244,-45.48257 69.85244,-89.90661 0,-46.42066 -32.79292,-84.75868 -75.32244,-90.7942 -1.14579,-0.0397 -2.30177,-0.0634 -3.45804,-0.0634 -45.08011,0 -82.49024,30.46903 -89.68902,70.47329 -0.013,-0.58923 -0.0315,-1.18317 -0.0315,-1.77531 0,-34.63942 22.40139,-64.41498 54.47988,-77.4794 -2.3741,-7.94713 -7.17048,-14.92929 -13.61212,-20.1941 -0.0118,-0.0102 -0.0195,-0.022 -0.0315,-0.0317 -0.96644,-0.78819 -1.98066,-1.54231 -3.01793,-2.25083 -0.51968,-0.35497 -1.06686,-0.68045 -1.60327,-1.01446 -0.50008,-0.31141 -0.99492,-0.62659 -1.50897,-0.91936 -0.0433,-0.0246 -0.0824,-0.0388 -0.12574,-0.0634 -1.11939,-0.63241 -2.24549,-1.23542 -3.42661,-1.7753 -0.0669,-0.0306 -0.15311,-0.0647 -0.22006,-0.0951 -0.52717,-0.2379 -1.06475,-0.44699 -1.60327,-0.66574 -0.12485,-0.0508 -0.25181,-0.1087 -0.37724,-0.1585 -0.47911,-0.18974 -0.92707,-0.39633 -1.41466,-0.57064 -0.18793,-0.0674 -0.37668,-0.12518 -0.56586,-0.19021 -0.42833,-0.14681 -0.88591,-0.27741 -1.32034,-0.41213 -0.62474,-0.19373 -1.24941,-0.37072 -1.8862,-0.53893 -0.32723,-0.0865 -0.67573,-0.1739 -1.00598,-0.25361 -0.29101,-0.07 -0.58672,-0.12579 -0.88023,-0.19021 -0.0326,-0.006 -0.0616,-0.026 -0.0944,-0.0317 -0.0765,-0.0168 -0.17477,-0.0152 -0.25149,-0.0317 -0.0324,-0.007 -0.0621,-0.0248 -0.0944,-0.0317 -0.0922,-0.0155 -0.19057,-0.0167 -0.28293,-0.0317 -2.59309,-0.42093 -5.26456,-0.66575 -7.98494,-0.66575 -25.79501,0 -46.715,19.78063 -46.715,44.19244 0,9.70123 3.29766,18.67442 8.89661,25.96383 -10.34914,-8.10754 -16.94441,-20.37178 -16.94441,-34.07952 0,-7.70924 2.08557,-14.96358 5.75293,-21.27196 l -4.49546,-10.23971 c -15.60708,-35.57684 -52.54363,-60.4555 -96.03925,-60.4555 z"
       id="rect2991"
       inkscape:connector-curvature="0" />
  </g>
</svg>
