<?xml version="1.0" encoding="UTF-8" standalone="no"?>
<!-- Created with Inkscape (http://www.inkscape.org/) -->

<svg
   xmlns:dc="http://purl.org/dc/elements/1.1/"
   xmlns:cc="http://creativecommons.org/ns#"
   xmlns:rdf="http://www.w3.org/1999/02/22-rdf-syntax-ns#"
   xmlns:svg="http://www.w3.org/2000/svg"
   xmlns="http://www.w3.org/2000/svg"
   xmlns:sodipodi="http://sodipodi.sourceforge.net/DTD/sodipodi-0.dtd"
   xmlns:inkscape="http://www.inkscape.org/namespaces/inkscape"
   width="512"
   height="512"
   id="svg2"
   version="1.1"
   inkscape:version="0.48.2 r9819"
   sodipodi:docname="BS-virtual-guest.svg"
   inkscape:export-filename="/Users/Cynthia/Documents/SUSE manager/new icons/virtual-guest/BS-virtual-host.png"
   inkscape:export-xdpi="90"
   inkscape:export-ydpi="90">
  <defs
     id="defs4" />
  <sodipodi:namedview
     id="base"
     pagecolor="#ffffff"
     bordercolor="#666666"
     borderopacity="1.0"
     inkscape:pageopacity="0.0"
     inkscape:pageshadow="2"
     inkscape:zoom="0.35"
     inkscape:cx="240.64788"
     inkscape:cy="398.5707"
     inkscape:document-units="px"
     inkscape:current-layer="layer1"
     showgrid="false"
     inkscape:window-width="1070"
     inkscape:window-height="643"
     inkscape:window-x="0"
     inkscape:window-y="22"
     inkscape:window-maximized="0" />
  <metadata
     id="metadata7">
    <rdf:RDF>
      <cc:Work
         rdf:about="">
        <dc:format>image/svg+xml</dc:format>
        <dc:type
           rdf:resource="http://purl.org/dc/dcmitype/StillImage" />
        <dc:title></dc:title>
      </cc:Work>
    </rdf:RDF>
  </metadata>
  <g
     inkscape:label="Layer 1"
     inkscape:groupmode="layer"
     id="layer1"
     transform="translate(0,-540.36218)">
    <path
       style="font-size:302.10092163px;font-style:normal;font-variant:normal;font-weight:normal;font-stretch:normal;line-height:125%;letter-spacing:0px;word-spacing:0px;fill:#000000;fill-opacity:1;stroke:none;font-family:FontAwesome;-inkscape-font-specification:FontAwesome"
       d="M 212.75 3.03125 C 197.9147 3.03125 185.78125 15.1647 185.78125 30 L 185.78125 206.53125 C 185.9462 206.50523 185.87394 206.50887 186.15625 206.46875 C 186.77829 206.37995 187.06013 206.34387 187.09375 206.34375 C 187.86699 206.22992 188.77882 206.10296 189.96875 205.96875 C 191.21052 205.8283 192.02315 205.7863 192.40625 205.75 C 193.17863 205.67702 194.18808 205.55865 195.4375 205.46875 L 195.46875 205.46875 C 196.41767 205.40045 197.05584 205.36365 197.40625 205.34375 C 197.41435 205.34328 197.4295 205.34423 197.4375 205.34375 C 197.78308 205.32375 198.23884 205.30595 198.75 205.28125 C 199.15365 205.26095 198.56494 205.29365 198.84375 205.28125 C 199.35489 205.25855 199.61735 205.24842 199.65625 205.25 C 200.29967 205.21987 200.92295 205.20191 201.4375 205.1875 C 202.43026 205.1598 203.7177 205.125 205.28125 205.125 C 240.11094 205.125 271.8892 218.44929 295.03125 240.375 L 304.4375 240.375 C 304.4375 243.37902 304.00108 246.25085 303.28125 248.96875 C 309.15239 255.71271 314.29498 263.05798 318.5625 270.96875 C 329.25856 264.68368 341.68232 261.03125 354.8125 261.03125 C 358.9428 261.03125 362.87219 261.40096 366.5625 262 C 364.31142 261.63345 364.43258 261.59964 367 262.03125 L 367.46875 262.125 C 367.47896 262.12709 367.49095 262.12315 367.5 262.125 C 367.53154 262.13144 367.69046 262.16793 367.78125 262.1875 C 367.91263 262.21582 367.90281 262.21896 368.1875 262.28125 C 368.37959 262.32328 368.19369 262.25209 368.46875 262.3125 L 368.46875 262.34375 L 368.5625 262.34375 C 368.41413 262.31119 368.91711 262.41326 369.8125 262.625 C 369.8579 262.6348 369.8947 262.64725 369.9375 262.65625 C 369.99281 262.66795 370.04275 262.6766 370.09375 262.6875 C 370.52223 262.79174 370.96067 262.90521 371.4375 263.03125 C 372.3407 263.26983 373.2912 263.53674 374.28125 263.84375 C 374.36064 263.86837 375.00935 264.04352 376.25 264.46875 L 376.28125 264.46875 C 375.98303 264.36624 376.28205 264.49132 377.09375 264.78125 C 377.12095 264.79125 377.0964 264.77095 377.125 264.78125 C 378.81147 265.38636 379.5343 265.73759 379.25 265.625 L 379.28125 265.625 C 380.15804 265.97311 380.34131 266.0462 379.84375 265.84375 C 380.16761 265.9753 380.96874 266.2968 382.25 266.875 C 382.29574 266.89603 382.25301 266.87923 382.3125 266.90625 C 382.40902 266.94891 382.43419 266.94163 382.5625 267 C 382.57526 267.0058 382.55809 267.02879 382.5625 267.03125 C 382.57341 267.03411 382.59093 267.03153 382.59375 267.03125 C 384.63626 267.96699 386.36549 268.88766 387.78125 269.6875 C 387.88565 269.74675 387.85018 269.71389 387.96875 269.78125 L 387.96875 269.8125 L 388 269.8125 C 389.18095 270.4851 389.91594 270.96002 390.28125 271.1875 C 390.54545 271.35201 391.37966 271.83533 392.71875 272.75 C 394.24726 273.79407 395.76134 274.91523 397.25 276.125 C 397.2796 276.1491 397.31415 276.1633 397.34375 276.1875 C 397.36079 276.20155 397.34993 276.21606 397.34375 276.21875 C 397.33756 276.21483 397.35685 276.20848 397.40625 276.25 C 397.5108 276.33791 397.51328 276.32756 397.5 276.3125 C 397.60332 276.40299 397.73373 276.53268 397.875 276.65625 L 397.84375 276.6875 C 398.5366 277.26453 399.2073 277.86403 399.875 278.46875 C 400.9321 276.80345 401.5625 274.84283 401.5625 272.75 C 401.5625 266.84959 390.75 254.70455 390.75 240.375 L 482.46875 240.375 C 497.30405 240.375 509.4375 228.24155 509.4375 213.40625 L 509.4375 30 C 509.4375 15.1647 497.30405 3.03125 482.46875 3.03125 L 212.75 3.03125 z M 212.75 24.59375 L 482.46875 24.59375 C 485.33466 24.59375 487.875 27.13409 487.875 30 L 487.875 170.25 C 487.875 173.11591 485.33466 175.65625 482.46875 175.65625 L 212.75 175.65625 C 209.88409 175.65625 207.34375 173.11591 207.34375 170.25 L 207.34375 30 C 207.34375 27.13409 209.88409 24.59375 212.75 24.59375 z M 205.28125 228.65625 C 204.21375 228.65625 203.15321 228.68915 202.09375 228.71875 C 201.46941 228.73625 200.87141 228.75345 200.25 228.78125 C 200.1505 228.78525 200.03696 228.77625 199.9375 228.78125 C 199.54949 228.79945 199.1681 228.82135 198.78125 228.84375 C 198.23957 228.87495 197.6643 228.8987 197.125 228.9375 C 196.28853 228.9977 195.4556 229.07777 194.625 229.15625 C 193.95316 229.21985 193.29286 229.26822 192.625 229.34375 C 191.65597 229.45305 190.71039 229.5848 189.75 229.71875 C 189.6497 229.73265 189.5689 229.7357 189.46875 229.75 C 189.20069 229.7881 188.9236 229.8349 188.65625 229.875 C 187.52996 230.04365 186.39481 230.23541 185.28125 230.4375 C 183.98775 230.67223 182.68173 230.93975 181.40625 231.21875 C 180.36437 231.44665 179.37304 231.68058 178.34375 231.9375 C 178.11197 231.9954 177.85614 232.03445 177.625 232.09375 C 176.53152 232.37439 175.4222 232.71838 174.34375 233.03125 C 174.18883 233.07625 174.02962 233.11054 173.875 233.15625 C 173.21969 233.34956 172.61826 233.54493 171.96875 233.75 C 171.28827 233.96496 170.58021 234.14727 169.90625 234.375 C 169.78342 234.4165 169.65387 234.45819 169.53125 234.5 C 168.54204 234.83803 167.59962 235.22863 166.625 235.59375 C 165.43807 236.0384 164.22695 236.48468 163.0625 236.96875 C 162.09444 237.37115 161.10822 237.78967 160.15625 238.21875 C 159.4167 238.55237 158.69829 238.90055 157.96875 239.25 C 157.21878 239.60925 156.48914 239.96801 155.75 240.34375 C 155.52907 240.45607 155.28246 240.54248 155.0625 240.65625 C 154.55238 240.91992 154.06729 241.19729 153.5625 241.46875 C 153.31362 241.60267 153.0913 241.77045 152.84375 241.90625 C 151.76279 242.49877 150.68024 243.09095 149.625 243.71875 C 149.5828 243.74375 149.51076 243.75605 149.46875 243.78125 C 148.54816 244.3307 147.65032 244.89305 146.75 245.46875 C 146.29641 245.75902 145.88583 246.07816 145.4375 246.375 C 145.19287 246.53683 144.93056 246.71121 144.6875 246.875 C 144.22923 247.18402 143.76509 247.46537 143.3125 247.78125 C 143.2548 247.82145 143.18261 247.86593 143.125 247.90625 C 142.86803 248.08635 142.63011 248.28643 142.375 248.46875 C 141.7663 248.9035 141.19169 249.33419 140.59375 249.78125 C 140.46214 249.87965 140.31859 249.96349 140.1875 250.0625 C 139.24736 250.7725 138.31874 251.51009 137.40625 252.25 C 137.38765 252.265 137.331 252.26625 137.3125 252.28125 C 136.38198 253.03682 135.49462 253.83909 134.59375 254.625 C 133.66916 255.43162 132.73619 256.25606 131.84375 257.09375 C 130.94558 257.93684 130.08338 258.78258 129.21875 259.65625 C 127.57733 261.31479 125.98428 263.01723 124.46875 264.78125 C 124.25735 265.02751 124.05262 265.283 123.84375 265.53125 C 123.25948 266.22512 122.68927 266.88461 122.125 267.59375 C 122.067 267.66685 121.99546 267.73923 121.9375 267.8125 C 119.67289 270.67534 117.61096 273.68608 115.6875 276.78125 C 114.40816 278.83992 113.18151 280.94109 112.0625 283.09375 C 108.60685 289.74141 105.93961 296.84443 104.15625 304.25 C 154.86679 306.91302 195.09375 345.48926 195.09375 392.71875 C 195.09375 395.77846 194.92333 398.83262 194.59375 401.8125 C 189.587 357.17465 148.49983 322.34375 98.5625 322.34375 C 95.273081 322.34375 91.987722 322.44252 88.71875 322.6875 C 88.63496 322.698 88.552478 322.70805 88.46875 322.71875 C 38.463594 329.08695 1.8947806e-14 367.5904 0 414.15625 C 0 465.17667 46.150911 506.53125 103.09375 506.53125 C 104.65911 506.53125 106.20166 506.4995 107.75 506.4375 C 109.84346 506.5844 112.01965 506.65625 114.21875 506.65625 L 423.53125 506.65625 C 430.40289 506.65625 435.90154 505.8126 440.3125 504.1875 C 480.16819 495.79 510.15625 458.70529 510.15625 414.28125 C 510.15625 367.86059 477.37327 329.53552 434.84375 323.5 C 433.69796 323.4603 432.53127 323.4375 431.375 323.4375 C 386.29489 323.4375 348.88628 353.90199 341.6875 393.90625 C 341.6745 393.31702 341.65625 392.71714 341.65625 392.125 C 341.65625 357.48558 364.04651 327.72067 396.125 314.65625 C 393.7509 306.70912 388.97289 299.73356 382.53125 294.46875 C 382.51945 294.45855 382.512 294.4472 382.5 294.4375 C 381.53356 293.64931 380.50602 292.89602 379.46875 292.1875 C 378.94907 291.83253 378.41141 291.49026 377.875 291.15625 C 377.37492 290.84484 376.88905 290.54277 376.375 290.25 C 376.3317 290.2254 376.29334 290.2121 376.25 290.1875 C 375.13061 289.55509 373.99362 288.94613 372.8125 288.40625 C 372.7456 288.37565 372.6607 288.3429 372.59375 288.3125 C 372.06658 288.0746 371.53852 287.84375 371 287.625 C 370.87515 287.5742 370.71918 287.51855 370.59375 287.46875 C 370.11464 287.27901 369.67509 287.08056 369.1875 286.90625 C 368.99957 286.83885 368.81418 286.78378 368.625 286.71875 C 368.19667 286.57194 367.74693 286.44722 367.3125 286.3125 C 366.68776 286.11877 366.04304 285.94946 365.40625 285.78125 C 365.07902 285.69475 364.7365 285.57971 364.40625 285.5 C 364.11524 285.43 363.82476 285.37692 363.53125 285.3125 C 363.49865 285.3065 363.4703 285.28695 363.4375 285.28125 C 363.361 285.26445 363.26422 285.2665 363.1875 285.25 C 363.1551 285.243 363.12605 285.22565 363.09375 285.21875 C 363.00155 285.20325 362.90486 285.2025 362.8125 285.1875 C 360.21941 284.76657 357.53288 284.53125 354.8125 284.53125 C 329.01749 284.53125 308.125 304.30694 308.125 328.71875 C 308.125 338.41998 311.40105 347.39809 317 354.6875 C 306.65086 346.57996 300.0625 334.30149 300.0625 320.59375 C 300.0625 312.88451 302.14514 305.65213 305.8125 299.34375 L 301.3125 289.09375 C 285.70542 253.51691 248.77687 228.65625 205.28125 228.65625 z "
       transform="translate(0,540.36218)"
       id="path3762" />
  </g>
</svg>
